<svg width="56" height="14" viewBox="0 0 56 14" fill="none" xmlns="http://www.w3.org/2000/svg">
    <path d="M7.0407 2.77675C6.58318 2.66075 6.1132 2.60231 5.64146 2.60276C4.9006 2.59621 4.16581 2.73799 3.47961 3.01989C2.7962 3.31214 2.17652 3.73737 1.65596 4.27129C1.12686 4.79661 0.705484 5.42194 0.415873 6.11159C0.136054 6.80321 -0.00518936 7.54393 0.00030133 8.29095C-0.00741402 9.0423 0.133101 9.78768 0.413662 10.4837C0.704536 11.1694 1.12585 11.7908 1.65375 12.3128C2.1738 12.8468 2.79364 13.2714 3.4774 13.562C4.1633 13.8449 4.8983 13.9868 5.63925 13.9791C6.11099 13.9796 6.58097 13.9211 7.03849 13.8051C7.2944 13.7531 7.5233 13.6101 7.68354 13.4021C7.84378 13.1942 7.92472 12.9351 7.91163 12.672V12.6586C7.91502 12.479 7.87538 12.3013 7.7961 12.1405C7.71683 11.9797 7.60024 11.8407 7.45627 11.7351C7.26757 11.5835 7.03429 11.4996 6.79313 11.4964C6.69266 11.4973 6.59259 11.5092 6.49471 11.5321C6.21957 11.5986 5.93765 11.6323 5.65473 11.6325C5.2174 11.6394 4.78316 11.5576 4.37778 11.3919C3.97239 11.2262 3.60413 10.98 3.29486 10.6679C2.98559 10.3558 2.74161 9.98418 2.57741 9.57509C2.41321 9.16601 2.33213 8.7278 2.339 8.28649C2.33455 7.84491 2.41643 7.40678 2.57994 6.99716C2.74938 6.59183 2.99739 6.22476 3.3094 5.91752C3.61187 5.6006 3.97588 5.35006 4.37866 5.18156C4.78145 5.01307 5.21435 4.93024 5.65031 4.93826C5.93216 4.93868 6.21286 4.97465 6.48587 5.04533C6.58423 5.07 6.68515 5.08273 6.7865 5.08325C7.03326 5.08093 7.27215 4.99534 7.46512 4.84011C7.60797 4.73399 7.72377 4.59511 7.80294 4.43492C7.88212 4.27474 7.92241 4.09784 7.92048 3.91885V3.89654C7.9299 3.63665 7.85201 3.38117 7.69943 3.17157C7.52968 2.96945 7.2978 2.83046 7.0407 2.77675Z" fill="black"/>
    <path d="M17.8557 4.26972C17.338 3.73181 16.7169 3.30634 16.0304 3.01941C15.3439 2.73249 14.6065 2.59016 13.8636 2.60118C13.1213 2.59433 12.385 2.73685 11.698 3.02042C11.0109 3.304 10.3867 3.72293 9.86186 4.25273C9.33705 4.78254 8.92216 5.41259 8.64142 6.10606C8.36068 6.79954 8.21974 7.54253 8.22682 8.2916C8.23291 9.22592 8.46548 10.1445 8.90423 10.9673C9.34298 11.7901 9.97457 12.492 10.7439 13.0119C11.5133 13.5317 12.397 13.8537 13.318 13.9497C14.2389 14.0457 15.1692 13.9128 16.0276 13.5627C16.7127 13.2721 17.334 12.8476 17.8557 12.3135C18.3863 11.7894 18.8078 11.1637 19.0956 10.4731C19.3833 9.78246 19.5316 9.0408 19.5316 8.2916C19.5316 7.5424 19.3833 6.80074 19.0956 6.11011C18.8078 5.41948 18.3863 4.79379 17.8557 4.26972ZM16.2133 10.6606C15.7523 11.136 15.1608 11.4612 14.515 11.5943C13.8692 11.7275 13.1987 11.6624 12.5899 11.4075C11.9811 11.1526 11.4618 10.7196 11.099 10.1643C10.7363 9.60895 10.5466 8.95671 10.5545 8.2916C10.546 7.85081 10.6276 7.41297 10.7941 7.0054C10.9607 6.59782 11.2087 6.22924 11.5227 5.92264C11.8251 5.60572 12.1891 5.35518 12.5919 5.18668C12.9947 5.01818 13.4276 4.93536 13.8636 4.94338C14.3011 4.93889 14.7353 5.02152 15.1412 5.18652C15.9464 5.54116 16.5891 6.18972 16.9406 7.00228C17.196 7.61548 17.2633 8.29193 17.1336 8.94412C17.004 9.59631 16.6834 10.1942 16.2133 10.6606Z" fill="black"/>
    <path d="M29.7152 4.26973C29.193 3.73569 28.5719 3.31049 27.8871 3.01833C26.6788 2.50155 25.3296 2.42643 24.0723 2.80593C22.815 3.18543 21.7283 3.99576 20.9996 5.09719C20.2709 6.19863 19.9459 7.52213 20.0806 8.83948C20.2153 10.1568 20.8013 11.3855 21.7375 12.3135C22.258 12.8477 22.8787 13.2719 23.5633 13.5615C24.2479 13.8511 24.9829 14.0003 25.7252 14.0003C26.4676 14.0003 27.2025 13.8511 27.8872 13.5615C28.5718 13.2719 29.1925 12.8477 29.7129 12.3135C30.2427 11.789 30.6635 11.1631 30.9508 10.4726C31.238 9.78199 31.386 9.04056 31.386 8.29162C31.386 7.54268 31.238 6.80125 30.9508 6.11069C30.6635 5.42012 30.2427 4.79427 29.7129 4.26973H29.7152ZM28.0728 10.6606C27.6118 11.136 27.0203 11.4612 26.3745 11.5943C25.7287 11.7275 25.0582 11.6624 24.4494 11.4075C23.8405 11.1527 23.3213 10.7197 22.9585 10.1643C22.5957 9.60897 22.4061 8.95672 22.4139 8.29162C22.4095 7.85004 22.4914 7.41191 22.6549 7.0023C22.9026 6.38765 23.3279 5.86251 23.8756 5.49528C24.4232 5.12804 25.0677 4.93573 25.7252 4.94339C26.3823 4.94176 27.0251 5.1372 27.5719 5.50489C28.1188 5.87258 28.545 6.39594 28.7966 7.00854C29.0481 7.62114 29.1136 8.29535 28.9847 8.94558C28.8559 9.59581 28.5384 10.1927 28.0728 10.6606Z" fill="black"/>
    <path d="M54.7821 4.99232C54.5857 4.52026 54.2978 4.09254 53.9355 3.73422C53.5822 3.36837 53.1587 3.07915 52.6908 2.8843C52.2229 2.68945 51.7205 2.59306 51.2143 2.60104C50.7077 2.59574 50.205 2.69203 49.7355 2.88434C49.2706 3.08333 48.8486 3.37202 48.4932 3.73422C48.1292 4.08987 47.8411 4.51699 47.6469 4.98924C47.4526 5.4615 47.3562 5.9689 47.3637 6.48017V12.8153C47.3637 12.9684 47.3938 13.12 47.4521 13.2614C47.5113 13.4002 47.5977 13.5254 47.7063 13.6294C47.8115 13.7348 47.9352 13.8195 48.071 13.8793C48.2107 13.9394 48.3613 13.9691 48.5131 13.9663H48.533C48.6848 13.9689 48.8354 13.9393 48.9751 13.8793C49.1103 13.8195 49.2332 13.7347 49.3376 13.6294C49.4477 13.5262 49.5351 13.4009 49.5941 13.2614C49.6517 13.1199 49.681 12.9682 49.6803 12.8153V10.0916H52.7219V12.8153C52.72 12.9684 52.7493 13.1202 52.8081 13.2614C52.8673 13.4002 52.9538 13.5254 53.0623 13.6294C53.1667 13.7347 53.2897 13.8195 53.4248 13.8793C53.5645 13.9393 53.7151 13.9689 53.8669 13.9663H53.8868C54.0386 13.9691 54.1893 13.9394 54.3289 13.8793C54.4648 13.8195 54.5884 13.7348 54.6937 13.6294C54.8022 13.5254 54.8887 13.4002 54.9479 13.2614C55.0062 13.12 55.0362 12.9684 55.0363 12.8153V6.48017C55.05 5.97212 54.9636 5.46638 54.7821 4.99232ZM49.698 6.48017C49.6956 6.27768 49.7331 6.07673 49.8085 5.88904C49.8841 5.70271 49.9969 5.53413 50.1401 5.39384C50.2789 5.24816 50.446 5.13276 50.6308 5.05477C50.816 4.97874 51.0144 4.94082 51.2143 4.94324C51.4172 4.94088 51.6184 4.97878 51.8068 5.05477C51.9916 5.13276 52.1586 5.24816 52.2975 5.39384C52.4399 5.53473 52.5526 5.70316 52.6291 5.88904C52.7035 6.07699 52.7411 6.27776 52.7396 6.48017V7.74942H49.698V6.48017Z" fill="black"/>
    <path d="M45.2402 13.9062C45.086 13.9065 44.9333 13.8761 44.7908 13.8169C44.6483 13.7576 44.5187 13.6706 44.4095 13.5608C44.3003 13.451 44.2136 13.3206 44.1544 13.177C44.0951 13.0334 44.0645 12.8795 44.0642 12.7239V7.49524C44.0642 7.02195 43.8779 6.56805 43.5462 6.23338C43.2146 5.89872 42.7648 5.71071 42.2958 5.71071C41.8268 5.71071 41.377 5.89872 41.0453 6.23338C40.7137 6.56805 40.5274 7.02195 40.5274 7.49524V12.715C40.5389 12.8774 40.5179 13.0405 40.4655 13.1946C40.4105 13.3478 40.3264 13.4888 40.2179 13.6095C40.1069 13.729 39.973 13.8246 39.8245 13.8905C39.6758 13.9552 39.5155 13.9886 39.3536 13.9886C39.1917 13.9886 39.0315 13.9552 38.8828 13.8905C38.7351 13.8262 38.6021 13.7321 38.4918 13.614C38.3816 13.4958 38.2965 13.3561 38.2417 13.2035C38.1872 13.05 38.1661 12.8864 38.1799 12.7239V7.49524C38.1579 6.93813 38.2476 6.38228 38.4436 5.861C38.6396 5.33971 38.9378 4.86371 39.3205 4.46153C39.8981 3.84977 40.6468 3.43013 41.4667 3.25852C42.2866 3.08691 43.1389 3.17148 43.91 3.50095C44.6811 3.83043 45.3344 4.38917 45.7829 5.10275C46.2314 5.81634 46.4539 6.65089 46.4206 7.49524V12.715C46.4203 12.8705 46.3896 13.0245 46.3304 13.1681C46.2711 13.3117 46.1844 13.4421 46.0752 13.5519C45.966 13.6617 45.8364 13.7487 45.6939 13.8079C45.5514 13.8672 45.3987 13.8975 45.2446 13.8972L45.2402 13.9062Z" fill="url(#paint0_linear_1833_4567)"/>
    <path d="M42.2993 2.77494C42.571 2.77406 42.8364 2.69193 43.0619 2.53894C43.2874 2.38595 43.463 2.16895 43.5664 1.91535C43.6698 1.66174 43.6964 1.38291 43.6428 1.11406C43.5893 0.845211 43.458 0.598404 43.2655 0.404808C43.073 0.211213 42.828 0.0795114 42.5615 0.026336C42.2949 -0.0268393 42.0186 0.000896522 41.7677 0.106041C41.5167 0.211185 41.3022 0.389022 41.1513 0.617093C41.0005 0.845164 40.9199 1.11324 40.9199 1.38747C40.9202 1.56996 40.9561 1.75062 41.0256 1.91911C41.0951 2.08761 41.1968 2.24064 41.3248 2.36948C41.4529 2.49832 41.6049 2.60044 41.7721 2.67001C41.9393 2.73958 42.1184 2.77523 42.2993 2.77494Z" fill="url(#paint1_linear_1833_4567)"/>
    <path style="mix-blend-mode:multiply" d="M39.3867 13.9057C39.2326 13.906 39.0799 13.8756 38.9374 13.8164C38.7949 13.7571 38.6653 13.6701 38.5561 13.5603C38.4469 13.4505 38.3602 13.3201 38.3009 13.1765C38.2417 13.0329 38.211 12.879 38.2107 12.7234V7.49473C38.2107 7.02145 38.0244 6.56754 37.6928 6.23288C37.3612 5.89821 36.9114 5.7102 36.4424 5.7102C35.9733 5.7102 35.5236 5.89821 35.1919 6.23288C34.8603 6.56754 34.674 7.02145 34.674 7.49473V12.7145C34.6877 12.877 34.6666 13.0406 34.6121 13.1941C34.5586 13.3481 34.4743 13.4894 34.3644 13.6091C34.2545 13.7289 34.1214 13.8245 33.9732 13.89C33.8246 13.9547 33.6643 13.9881 33.5024 13.9881C33.3405 13.9881 33.1803 13.9547 33.0316 13.89C32.8833 13.8246 32.7501 13.7289 32.6403 13.609C32.5297 13.4903 32.4449 13.3497 32.3912 13.196C32.3376 13.0424 32.3162 12.8791 32.3286 12.7167V7.49473C32.3028 6.9325 32.3903 6.37082 32.5857 5.84366C32.7811 5.3165 33.0804 4.83481 33.4656 4.42772C33.8508 4.02062 34.3137 3.69658 34.8265 3.47519C35.3393 3.2538 35.8912 3.13965 36.449 3.13965C37.0067 3.13965 37.5587 3.2538 38.0715 3.47519C38.5843 3.69658 39.0472 4.02062 39.4324 4.42772C39.8175 4.83481 40.1169 5.3165 40.3123 5.84366C40.5077 6.37082 40.5951 6.9325 40.5693 7.49473V12.7145C40.569 12.87 40.5384 13.024 40.4791 13.1676C40.4199 13.3112 40.3332 13.4416 40.224 13.5514C40.1148 13.6612 39.9852 13.7482 39.8427 13.8074C39.7002 13.8667 39.5475 13.897 39.3934 13.8967L39.3867 13.9057Z" fill="url(#paint2_linear_1833_4567)"/>
    <path style="mix-blend-mode:multiply" d="M36.4477 2.77494C36.7194 2.77406 36.9848 2.69193 37.2104 2.53894C37.4359 2.38595 37.6114 2.16895 37.7148 1.91535C37.8182 1.66174 37.8448 1.38291 37.7912 1.11406C37.7377 0.845211 37.6064 0.598404 37.4139 0.404808C37.2215 0.211213 36.9765 0.0795114 36.7099 0.026336C36.4433 -0.0268393 36.1671 0.000896522 35.9161 0.106041C35.6651 0.211185 35.4507 0.389022 35.2998 0.617093C35.1489 0.845164 35.0684 1.11324 35.0684 1.38747C35.0686 1.56996 35.1046 1.75062 35.174 1.91911C35.2435 2.08761 35.3452 2.24064 35.4733 2.36948C35.6014 2.49832 35.7533 2.60044 35.9205 2.67001C36.0877 2.73958 36.2669 2.77523 36.4477 2.77494Z" fill="url(#paint3_linear_1833_4567)"/>
    <defs>
        <linearGradient id="paint0_linear_1833_4567" x1="38.1732" y1="8.58603" x2="46.4206" y2="8.58603" gradientUnits="userSpaceOnUse">
            <stop stop-color="#FF802E"/>
            <stop offset="1" stop-color="#FF3EE7"/>
        </linearGradient>
        <linearGradient id="paint1_linear_1833_4567" x1="40.9199" y1="1.38747" x2="43.6786" y2="1.38747" gradientUnits="userSpaceOnUse">
            <stop stop-color="#FF802E"/>
            <stop offset="1" stop-color="#FF3EE7"/>
        </linearGradient>
        <linearGradient id="paint2_linear_1833_4567" x1="32.3198" y1="8.58553" x2="40.5671" y2="8.58553" gradientUnits="userSpaceOnUse">
            <stop stop-color="#FF802E"/>
            <stop offset="1" stop-color="#FF3EE7"/>
        </linearGradient>
        <linearGradient id="paint3_linear_1833_4567" x1="35.0684" y1="1.38747" x2="37.827" y2="1.38747" gradientUnits="userSpaceOnUse">
            <stop stop-color="#FF802E"/>
            <stop offset="1" stop-color="#FF3EE7"/>
        </linearGradient>
    </defs>
</svg>
