<svg width="150" height="54" viewBox="0 0 150 54" fill="none" xmlns="http://www.w3.org/2000/svg">
    <path d="M3.61277 43.073C3.70406 43.0739 3.79187 43.1085 3.8596 43.1702C3.92491 43.2389 3.96156 43.3302 3.96194 43.4254V45.4484H5.16598C5.21396 45.4476 5.26151 45.4576 5.30522 45.4775C5.34894 45.4975 5.38774 45.527 5.41883 45.5638C5.45227 45.5971 5.4786 45.6368 5.4962 45.6807C5.51381 45.7246 5.5223 45.7717 5.52117 45.819C5.51986 45.9122 5.48324 46.0013 5.41883 46.0681C5.35338 46.1342 5.26459 46.1713 5.172 46.1714H3.96796V49.9501C3.96703 50.0475 3.98576 50.144 4.02303 50.2338C4.06029 50.3237 4.11529 50.4049 4.18469 50.4726C4.25335 50.5438 4.33584 50.6 4.42699 50.6376C4.51814 50.6753 4.61601 50.6935 4.71447 50.6913H5.172C5.21844 50.691 5.26442 50.7006 5.30694 50.7194C5.34947 50.7383 5.38759 50.7659 5.41883 50.8006C5.45153 50.8331 5.47743 50.8719 5.49501 50.9147C5.51259 50.9575 5.52149 51.0034 5.52117 51.0497C5.52149 51.096 5.51259 51.1419 5.49501 51.1847C5.47743 51.2275 5.45153 51.2663 5.41883 51.2988C5.38729 51.3327 5.34897 51.3594 5.30642 51.3772C5.26386 51.395 5.21805 51.4035 5.172 51.4021H4.69641C4.50442 51.4053 4.31374 51.3698 4.13558 51.2975C3.95743 51.2252 3.79541 51.1177 3.65908 50.9812C3.52275 50.8448 3.41486 50.6822 3.34177 50.503C3.26868 50.3238 3.23186 50.1317 3.2335 49.9379V43.4254C3.23237 43.3781 3.24086 43.331 3.25847 43.2871C3.27607 43.2432 3.3024 43.2034 3.33584 43.1702C3.3727 43.1354 3.41639 43.1088 3.46409 43.092C3.51179 43.0753 3.56244 43.0688 3.61277 43.073Z" fill="#231E21"/>
    <path d="M10.9334 45.448C10.9795 45.4462 11.0254 45.4545 11.068 45.4723C11.1106 45.4901 11.1489 45.5171 11.1802 45.5513C11.2136 45.5845 11.24 45.6243 11.2576 45.6682C11.2752 45.712 11.2837 45.7591 11.2825 45.8064C11.2825 45.8999 11.2458 45.9895 11.1803 46.0556C11.1148 46.1217 11.026 46.1588 10.9334 46.1588H10.6023C10.4095 46.1547 10.218 46.1909 10.0398 46.2651C9.86159 46.3393 9.70054 46.45 9.56679 46.5901C9.42921 46.7276 9.32004 46.8914 9.24564 47.0718C9.17123 47.2522 9.13306 47.4457 9.13334 47.6411V51.0493C9.13334 51.1427 9.09655 51.2324 9.03107 51.2984C8.96559 51.3645 8.87677 51.4016 8.78417 51.4016C8.73902 51.403 8.69412 51.3944 8.65256 51.3766C8.61099 51.3588 8.57374 51.3321 8.54336 51.2984C8.50869 51.2671 8.48108 51.2287 8.46239 51.1857C8.44369 51.1427 8.43435 51.0962 8.435 51.0493V47.6533C8.42371 47.0724 8.63755 46.51 9.03099 46.0859C9.23509 45.8847 9.47732 45.7273 9.74318 45.6229C10.009 45.5185 10.293 45.4693 10.5782 45.4784L10.9334 45.448Z" fill="#231E21"/>
    <path d="M19.0729 46.317C19.3529 46.591 19.5743 46.9199 19.7234 47.2835C19.8725 47.6471 19.9461 48.0377 19.9398 48.4312V51.0617C19.9401 51.108 19.9312 51.154 19.9137 51.1967C19.8961 51.2395 19.8702 51.2783 19.8375 51.3108C19.8062 51.345 19.7679 51.372 19.7253 51.3898C19.6827 51.4076 19.6367 51.4159 19.5907 51.4141C19.5446 51.4155 19.4988 51.407 19.4562 51.3892C19.4137 51.3714 19.3754 51.3447 19.3438 51.3108C19.3111 51.2783 19.2852 51.2395 19.2676 51.1967C19.2501 51.154 19.2412 51.108 19.2415 51.0617V50.4238C18.6446 51.0276 17.8461 51.385 17.002 51.4262C16.5163 51.4256 16.0383 51.3043 15.6102 51.0729C15.1821 50.8415 14.817 50.5072 14.5474 50.0996C14.2777 49.6921 14.1117 49.2237 14.0641 48.736C14.0164 48.2482 14.0886 47.7562 14.2742 47.3033C14.4598 46.8504 14.7531 46.4507 15.1283 46.1394C15.5034 45.8281 15.9487 45.6149 16.4249 45.5186C16.9011 45.4223 17.3934 45.4459 17.8584 45.5873C18.3234 45.7286 18.7468 45.9835 19.091 46.3292L19.0729 46.317ZM15.3946 46.8334C15.1323 47.0966 14.9384 47.4212 14.8304 47.7782C14.7223 48.1352 14.7033 48.5137 14.775 48.8799C14.8468 49.2461 15.0071 49.5887 15.2417 49.8774C15.4763 50.166 15.7779 50.3917 16.1198 50.5343C16.4617 50.677 16.8331 50.7322 17.2012 50.6951C17.5693 50.658 17.9226 50.5296 18.2297 50.3215C18.5369 50.1134 18.7883 49.832 18.9616 49.5022C19.135 49.1724 19.2249 48.8045 19.2234 48.4312C19.2216 47.9843 19.089 47.548 18.8421 47.177C18.5953 46.806 18.2452 46.517 17.836 46.3462C17.4268 46.1755 16.9767 46.1306 16.5423 46.2173C16.1079 46.304 15.7086 46.5183 15.3946 46.8334Z" fill="#231E21"/>
    <path d="M28.5971 43.0727C28.6886 43.0724 28.7769 43.1071 28.844 43.1699C28.9093 43.2385 28.9459 43.3299 28.9463 43.4251V48.4492C28.9439 49.0401 28.768 49.617 28.4409 50.1071C28.1137 50.5972 27.6499 50.9784 27.1081 51.2025C26.5664 51.4267 25.9709 51.4838 25.397 51.3666C24.823 51.2495 24.2964 50.9632 23.8836 50.5441C23.4708 50.125 23.1904 49.5919 23.0778 49.012C22.9651 48.4321 23.0254 47.8316 23.2508 47.2862C23.4763 46.7409 23.8568 46.2752 24.3445 45.948C24.8321 45.6209 25.4048 45.4469 25.9904 45.4481C26.8345 45.4893 27.633 45.8467 28.2299 46.4505V43.4129C28.2303 43.3177 28.2669 43.2264 28.3322 43.1578C28.4 43.096 28.4878 43.0614 28.5791 43.0605L28.5971 43.0727ZM24.383 46.8454C23.9628 47.2702 23.7268 47.8459 23.7268 48.4462C23.7268 49.0464 23.9628 49.6221 24.383 50.047C24.5889 50.2612 24.8362 50.4305 25.1096 50.5444C25.383 50.6583 25.6766 50.7144 25.9723 50.7092C26.5663 50.7092 27.1359 50.4711 27.5559 50.0472C27.9759 49.6234 28.2118 49.0486 28.2118 48.4492C28.217 48.1508 28.1615 47.8545 28.0486 47.5786C27.9357 47.3027 27.7679 47.0532 27.5556 46.8454C27.3542 46.6311 27.1114 46.4607 26.8422 46.3447C26.573 46.2287 26.2831 46.1696 25.9904 46.171C25.6938 46.1674 25.3996 46.2253 25.1262 46.3413C24.8528 46.4574 24.6059 46.6289 24.4011 46.8454H24.383Z" fill="#231E21"/>
    <path d="M37.6815 47.1918C37.7006 47.2348 37.7104 47.2813 37.7104 47.3285C37.7104 47.3756 37.7006 47.4222 37.6815 47.4651C37.6482 47.551 37.5836 47.6206 37.5008 47.6596L35.3998 48.6012L33.1121 49.6704C33.3236 49.9833 33.606 50.2407 33.9358 50.4214C34.2656 50.602 34.6333 50.7007 35.0085 50.7093C35.4843 50.7119 35.9484 50.5608 36.3329 50.2779C36.6911 50.0071 36.9614 49.6349 37.1095 49.2087C37.1291 49.1339 37.1743 49.0684 37.2371 49.0239C37.2999 48.9795 37.3763 48.9588 37.4527 48.9657C37.5106 48.9639 37.568 48.9768 37.6195 49.0034C37.6711 49.0299 37.7152 49.0692 37.7477 49.1176C37.7803 49.1638 37.8007 49.2175 37.807 49.2739C37.8133 49.3302 37.8053 49.3872 37.7838 49.4396C37.5885 50.013 37.2174 50.5087 36.7242 50.8551C36.2211 51.225 35.6129 51.421 34.9904 51.414C34.5285 51.4165 34.0725 51.3098 33.6589 51.1023C33.2452 50.8948 32.8855 50.5925 32.6086 50.2194C32.3317 49.8463 32.1453 49.413 32.0643 48.9541C31.9834 48.4952 32.0101 48.0235 32.1424 47.5769C32.2746 47.1303 32.5088 46.7212 32.826 46.3824C33.1432 46.0437 33.5347 45.7846 33.9691 45.6261C34.4035 45.4675 34.8686 45.4139 35.3272 45.4696C35.7858 45.5252 36.2251 45.6885 36.6099 45.9464C37.0777 46.2496 37.4496 46.6818 37.6815 47.1918ZM34.9904 46.1711C34.6958 46.1711 34.4041 46.2298 34.132 46.3437C33.8599 46.4577 33.6128 46.6247 33.4047 46.8352C33.1967 47.0457 33.0318 47.2956 32.9197 47.5705C32.8075 47.8453 32.7501 48.1399 32.7509 48.4372C32.7576 48.6247 32.7778 48.8115 32.8111 48.9961L36.8507 47.1735C36.6363 46.875 36.3574 46.6296 36.0351 46.4559C35.7128 46.2823 35.3555 46.1849 34.9904 46.1711Z" fill="#231E21"/>
    <path d="M46.2481 43.0728C46.3396 43.0724 46.4278 43.1072 46.4949 43.17C46.5284 43.2032 46.5547 43.2429 46.5723 43.2868C46.5899 43.3307 46.5984 43.3778 46.5973 43.4251V46.4627C47.196 45.8581 47.9967 45.5006 48.8428 45.4603C49.4264 45.4615 49.9966 45.637 50.4815 45.9647C50.9664 46.2924 51.3443 46.7576 51.5676 47.3017C51.791 47.8458 51.8497 48.4444 51.7364 49.0222C51.6231 49.5999 51.3429 50.1308 50.9311 50.5481C50.5193 50.9654 49.9943 51.2503 49.4222 51.367C48.8502 51.4836 48.2567 51.4268 47.7167 51.2036C47.1766 50.9805 46.7141 50.601 46.3874 50.113C46.0607 49.625 45.8844 49.0503 45.8809 48.4614V43.4251C45.8809 43.3774 45.8905 43.3302 45.9091 43.2863C45.9277 43.2425 45.955 43.2029 45.9892 43.17C46.0545 43.1081 46.1405 43.0734 46.23 43.0728H46.2481ZM48.8428 46.1711C48.5471 46.1658 48.2534 46.2219 47.9801 46.3358C47.7067 46.4497 47.4594 46.619 47.2535 46.8333C46.8333 47.2581 46.5973 47.8338 46.5973 48.4341C46.5973 49.0343 46.8333 49.61 47.2535 50.0349C47.4594 50.2491 47.7067 50.4184 47.9801 50.5323C48.2534 50.6462 48.5471 50.7023 48.8428 50.6971C49.4368 50.6971 50.0064 50.459 50.4264 50.0351C50.8464 49.6113 51.0823 49.0365 51.0823 48.4371C51.0875 48.1387 51.0319 47.8424 50.9191 47.5665C50.8062 47.2906 50.6384 47.0411 50.4261 46.8333C50.2215 46.6189 49.9753 46.4494 49.7029 46.3355C49.4305 46.2216 49.1377 46.1656 48.8428 46.1711Z" fill="#231E21"/>
    <path d="M60.365 47.1916C60.4008 47.2792 60.4008 47.3774 60.365 47.465C60.3485 47.5084 60.3234 47.548 60.2913 47.5814C60.2593 47.6148 60.2209 47.6413 60.1784 47.6594L58.0834 48.601L55.7777 49.652C55.9891 49.9649 56.2715 50.2223 56.6013 50.403C56.9311 50.5837 57.2988 50.6824 57.674 50.6909C58.1481 50.701 58.6127 50.5561 58.9985 50.2778C59.3644 50.0107 59.6415 49.6378 59.7931 49.2086C59.8127 49.1337 59.8579 49.0683 59.9207 49.0238C59.9835 48.9793 60.0599 48.9587 60.1363 48.9655C60.1932 48.9642 60.2496 48.9774 60.3002 49.0039C60.3507 49.0305 60.3937 49.0695 60.4252 49.1174C60.4599 49.1625 60.4821 49.2161 60.4895 49.2727C60.4969 49.3292 60.4893 49.3868 60.4674 49.4394C60.2732 50.0183 59.9023 50.5202 59.4078 50.8731C58.9039 51.2415 58.2963 51.4374 57.674 51.4321C57.2121 51.4346 56.7561 51.3278 56.3425 51.1204C55.9288 50.9129 55.5691 50.6105 55.2922 50.2375C55.0153 49.8644 54.8289 49.431 54.7479 48.9721C54.667 48.5132 54.6937 48.0416 54.8259 47.595C54.9582 47.1484 55.1924 46.7393 55.5096 46.4005C55.8268 46.0617 56.2183 45.8027 56.6527 45.6441C57.0871 45.4856 57.5522 45.432 58.0108 45.4876C58.4694 45.5432 58.9087 45.7065 59.2935 45.9644C59.7572 46.2645 60.1284 46.6896 60.365 47.1916ZM57.674 46.171C57.379 46.1694 57.0865 46.2269 56.8137 46.3403C56.5409 46.4537 56.2931 46.6206 56.0847 46.8315C55.8764 47.0423 55.7116 47.2928 55.6 47.5684C55.4884 47.844 55.4321 48.1393 55.4345 48.437C55.4415 48.6242 55.4596 48.8109 55.4887 48.9959L59.5343 47.1734C59.3199 46.8748 59.041 46.6294 58.7187 46.4558C58.3964 46.2821 58.0391 46.1847 57.674 46.171Z" fill="#231E21"/>
    <path d="M64.001 43.0728C64.0925 43.0724 64.1807 43.1072 64.2479 43.17C64.3132 43.2386 64.3498 43.33 64.3502 43.4251V45.4481H65.5542C65.6003 45.4463 65.6463 45.4546 65.6889 45.4724C65.7315 45.4903 65.7698 45.5172 65.8011 45.5514C65.8354 45.5839 65.8624 45.6236 65.88 45.6676C65.8977 45.7117 65.9057 45.7591 65.9034 45.8066C65.9041 45.8529 65.8953 45.8989 65.8777 45.9418C65.8601 45.9846 65.834 46.0234 65.8011 46.0556C65.7689 46.0886 65.7304 46.1148 65.688 46.1325C65.6456 46.1503 65.6001 46.1592 65.5542 46.1589H64.3502V49.9377C64.3493 50.035 64.368 50.1316 64.4053 50.2214C64.4425 50.3112 64.4975 50.3925 64.5669 50.4601C64.6362 50.5305 64.7188 50.5861 64.8098 50.6237C64.9008 50.6613 64.9984 50.68 65.0967 50.6788H65.5542C65.6007 50.6782 65.6468 50.6876 65.6894 50.7065C65.732 50.7253 65.7701 50.7532 65.8011 50.7882C65.835 50.8198 65.8617 50.8584 65.8793 50.9014C65.897 50.9444 65.9052 50.9907 65.9034 51.0373C65.9034 51.1307 65.8666 51.2203 65.8011 51.2864C65.7357 51.3525 65.6468 51.3896 65.5542 51.3896H65.0967C64.9052 51.3912 64.7152 51.3545 64.5378 51.2817C64.3604 51.2088 64.199 51.1012 64.063 50.9651C63.927 50.829 63.819 50.6671 63.7454 50.4886C63.6717 50.3102 63.6338 50.1188 63.6338 49.9255V43.4251C63.6342 43.33 63.6708 43.2386 63.7361 43.17C63.8039 43.1082 63.8917 43.0736 63.983 43.0728H64.001Z" fill="#231E21"/>
    <path d="M69.1906 43.0728C69.2819 43.0736 69.3697 43.1082 69.4374 43.17C69.5027 43.2386 69.5394 43.33 69.5397 43.4251V45.4481H70.7438C70.7898 45.4467 70.8357 45.4552 70.8782 45.473C70.9208 45.4908 70.9591 45.5175 70.9906 45.5514C71.0241 45.5846 71.0504 45.6244 71.068 45.6683C71.0856 45.7122 71.0941 45.7592 71.093 45.8066C71.0917 45.8997 71.055 45.9889 70.9906 46.0557C70.9252 46.1217 70.8364 46.1589 70.7438 46.1589H69.5397V49.9377C69.5388 50.035 69.5575 50.1316 69.5948 50.2214C69.6321 50.3112 69.6871 50.3925 69.7565 50.4601C69.8251 50.5314 69.9076 50.5876 69.9988 50.6252C70.0899 50.6628 70.1878 50.6811 70.2863 50.6788H70.7438C70.7902 50.6786 70.8362 50.6882 70.8787 50.707C70.9213 50.7259 70.9594 50.7535 70.9906 50.7882C71.0233 50.8207 71.0492 50.8595 71.0668 50.9023C71.0844 50.945 71.0933 50.991 71.093 51.0373C71.0933 51.0836 71.0844 51.1295 71.0668 51.1723C71.0492 51.2151 71.0233 51.2538 70.9906 51.2864C70.9591 51.3202 70.9208 51.347 70.8782 51.3648C70.8357 51.3826 70.7898 51.391 70.7438 51.3896H70.2863C70.0943 51.3929 69.9036 51.3573 69.7254 51.285C69.5473 51.2128 69.3853 51.1052 69.2489 50.9688C69.1126 50.8324 69.0047 50.6698 68.9316 50.4906C68.8585 50.3114 68.8217 50.1193 68.8233 49.9255V43.4251C68.8222 43.3778 68.8307 43.3307 68.8483 43.2868C68.8659 43.2429 68.8922 43.2032 68.9257 43.17C68.9928 43.1072 69.081 43.0724 69.1725 43.0728H69.1906Z" fill="#231E21"/>
    <path d="M79.4671 47.1916C79.5029 47.2792 79.5029 47.3774 79.4671 47.465C79.4505 47.5084 79.4255 47.548 79.3934 47.5814C79.3613 47.6148 79.3229 47.6413 79.2805 47.6594L77.2035 48.601L74.8978 49.652C75.1093 49.9649 75.3916 50.2223 75.7214 50.403C76.0512 50.5837 76.419 50.6824 76.7941 50.6909C77.2682 50.6944 77.7307 50.5431 78.1126 50.2596C78.4778 49.9981 78.7568 49.632 78.9132 49.2086C78.9328 49.1337 78.978 49.0683 79.0408 49.0238C79.1036 48.9793 79.18 48.9587 79.2564 48.9655C79.3133 48.9642 79.3697 48.9774 79.4203 49.0039C79.4708 49.0305 79.5138 49.0695 79.5454 49.1174C79.58 49.1625 79.6022 49.2161 79.6096 49.2727C79.617 49.3292 79.6094 49.3868 79.5875 49.4394C79.3933 50.0183 79.0224 50.5202 78.528 50.8731C78.024 51.2415 77.4164 51.4374 76.7941 51.4321C76.3322 51.4346 75.8762 51.3278 75.4626 51.1204C75.0489 50.9129 74.6893 50.6105 74.4123 50.2375C74.1354 49.8644 73.949 49.431 73.868 48.9721C73.7871 48.5132 73.8138 48.0416 73.9461 47.595C74.0783 47.1484 74.3125 46.7393 74.6297 46.4005C74.947 46.0617 75.3385 45.8027 75.7728 45.6441C76.2072 45.4856 76.6723 45.432 77.1309 45.4876C77.5895 45.5432 78.0288 45.7065 78.4136 45.9644C78.8706 46.2671 79.2354 46.6919 79.4671 47.1916ZM76.7941 46.171C76.4991 46.1694 76.2066 46.2269 75.9338 46.3403C75.661 46.4537 75.4132 46.6206 75.2049 46.8315C74.9965 47.0423 74.8317 47.2928 74.7201 47.5684C74.6085 47.844 74.5522 48.1393 74.5546 48.437C74.5616 48.6242 74.5797 48.8109 74.6088 48.9959L78.6544 47.1734C78.44 46.8748 78.1611 46.6294 77.8388 46.4558C77.5165 46.2821 77.1592 46.1847 76.7941 46.171Z" fill="#231E21"/>
    <path d="M85.2649 45.4481C85.3119 45.4458 85.3589 45.4539 85.4025 45.4717C85.4462 45.4896 85.4855 45.5167 85.5177 45.5514C85.5501 45.5851 85.5753 45.6251 85.5918 45.669C85.6084 45.7129 85.6159 45.7597 85.614 45.8066C85.6155 45.8525 85.6077 45.8983 85.5911 45.9411C85.5746 45.9839 85.5496 46.0229 85.5177 46.0557C85.4848 46.0894 85.4454 46.116 85.4019 46.1337C85.3584 46.1515 85.3118 46.1601 85.2649 46.1589H84.9398C84.747 46.1548 84.5555 46.191 84.3773 46.2652C84.1991 46.3395 84.038 46.4501 83.9043 46.5903C83.7667 46.7278 83.6575 46.8915 83.5831 47.0719C83.5087 47.2523 83.4705 47.4458 83.4708 47.6413V51.0494C83.4708 51.1429 83.434 51.2325 83.3686 51.2986C83.3031 51.3647 83.2143 51.4018 83.1217 51.4018C83.0756 51.4032 83.0298 51.3947 82.9872 51.3769C82.9447 51.3591 82.9064 51.3324 82.8748 51.2985C82.8421 51.266 82.8162 51.2272 82.7986 51.1844C82.7811 51.1416 82.7722 51.0957 82.7725 51.0494V47.6534C82.7712 47.3626 82.8269 47.0744 82.9364 46.8054C83.0459 46.5364 83.2071 46.2919 83.4106 46.086C83.6143 45.8843 83.8565 45.7264 84.1224 45.622C84.3884 45.5176 84.6726 45.4688 84.9578 45.4785L85.2649 45.4481Z" fill="#231E21"/>
    <path d="M93.6566 43.0728C93.7479 43.0736 93.8357 43.1082 93.9035 43.17C93.9688 43.2386 94.0054 43.33 94.0058 43.4251V45.4481H95.2098C95.2559 45.4463 95.3019 45.4546 95.3445 45.4724C95.3871 45.4903 95.4254 45.5172 95.4567 45.5514C95.4901 45.5846 95.5164 45.6244 95.534 45.6683C95.5516 45.7122 95.5601 45.7592 95.559 45.8066C95.5577 45.8997 95.5211 45.9889 95.4567 46.0556C95.4245 46.0886 95.386 46.1148 95.3436 46.1325C95.3012 46.1503 95.2557 46.1592 95.2098 46.1589H94.0058V49.9377C94.0049 50.035 94.0236 50.1316 94.0609 50.2214C94.0981 50.3112 94.1531 50.3925 94.2225 50.4601C94.2916 50.5308 94.3742 50.5866 94.4652 50.6242C94.5563 50.6618 94.6539 50.6804 94.7523 50.6788H95.2098C95.2563 50.6782 95.3024 50.6876 95.345 50.7065C95.3876 50.7253 95.4257 50.7532 95.4567 50.7882C95.4894 50.8207 95.5153 50.8595 95.5329 50.9023C95.5504 50.945 95.5593 50.991 95.559 51.0373C95.5593 51.0836 95.5504 51.1295 95.5329 51.1723C95.5153 51.2151 95.4894 51.2538 95.4567 51.2863C95.4254 51.3205 95.3871 51.3475 95.3445 51.3653C95.3019 51.3831 95.2559 51.3914 95.2098 51.3896H94.7523C94.3728 51.3896 94.0086 51.2383 93.7391 50.9687C93.4696 50.699 93.3167 50.3328 93.3135 49.9498V43.4251C93.3139 43.33 93.3505 43.2386 93.4158 43.17C93.4835 43.1082 93.5714 43.0736 93.6626 43.0728H93.6566Z" fill="#231E21"/>
    <path d="M101.26 45.448C101.942 45.4495 102.603 45.6896 103.13 46.1276C103.656 46.5655 104.016 47.1741 104.148 47.8498C104.28 48.5255 104.175 49.2263 103.853 49.833C103.53 50.4397 103.008 50.9147 102.378 51.1771C101.747 51.4395 101.045 51.473 100.392 51.272C99.7398 51.0709 99.1764 50.6478 98.7982 50.0746C98.42 49.5014 98.2504 48.8136 98.3184 48.1284C98.3863 47.4432 98.6876 46.803 99.1708 46.3168C99.4427 46.0369 99.768 45.8157 100.127 45.6663C100.486 45.517 100.872 45.4427 101.26 45.448ZM101.26 46.1831C100.685 46.2132 100.144 46.4647 99.7477 46.8858C99.3514 47.3069 99.1305 47.8654 99.1305 48.4461C99.1305 49.0268 99.3514 49.5853 99.7477 50.0064C100.144 50.4275 100.685 50.679 101.26 50.7091C101.555 50.7161 101.848 50.6608 102.121 50.5467C102.393 50.4327 102.639 50.2625 102.843 50.0469C103.053 49.8374 103.219 49.588 103.332 49.3132C103.446 49.0385 103.504 48.7438 103.504 48.4461C103.504 48.1484 103.446 47.8537 103.332 47.579C103.219 47.3042 103.053 47.0548 102.843 46.8453C102.641 46.6275 102.395 46.455 102.122 46.3389C101.85 46.2227 101.556 46.1655 101.26 46.171V46.1831Z" fill="#231E21"/>
    <path d="M110.098 53.0726C110.385 53.0705 110.668 53.0108 110.932 52.8971C111.196 52.7835 111.434 52.618 111.634 52.4104C111.856 52.2078 112.033 51.9603 112.155 51.684C112.276 51.4077 112.338 51.1088 112.338 50.8066V50.4239C111.741 51.0276 110.943 51.385 110.098 51.4263C109.514 51.4262 108.943 51.2516 108.458 50.9244C107.972 50.5971 107.593 50.132 107.369 49.5876C107.145 49.0433 107.085 48.4442 107.199 47.8659C107.312 47.2876 107.592 46.7561 108.004 46.3384C108.416 45.9208 108.942 45.6357 109.514 45.5193C110.087 45.4028 110.681 45.4601 111.221 45.684C111.762 45.9079 112.224 46.2884 112.55 46.7773C112.877 47.2662 113.052 47.8418 113.054 48.4312V50.8187C113.054 51.2166 112.971 51.6099 112.81 51.9731C112.65 52.3364 112.415 52.6613 112.121 52.9268C111.859 53.2024 111.545 53.4223 111.198 53.5736C110.851 53.7249 110.477 53.8045 110.098 53.8077C109.583 53.8382 109.068 53.7286 108.609 53.4903C108.149 53.2521 107.761 52.8938 107.486 52.453C107.457 52.4071 107.439 52.3554 107.433 52.3017C107.427 52.248 107.433 52.1936 107.45 52.1424C107.468 52.0912 107.496 52.0446 107.533 52.0058C107.571 51.9671 107.616 51.9372 107.666 51.9183C107.741 51.8888 107.823 51.8873 107.898 51.9141C107.973 51.9409 108.036 51.9942 108.076 52.0641C108.294 52.3978 108.597 52.667 108.952 52.8442C109.307 53.0214 109.703 53.1002 110.098 53.0726ZM112.338 48.3948C112.34 48.1002 112.282 47.8084 112.167 47.5376C112.052 47.2668 111.883 47.023 111.67 46.8213C111.3 46.4534 110.816 46.226 110.299 46.1778C109.782 46.1295 109.265 46.2635 108.835 46.5567C108.405 46.85 108.089 47.2845 107.941 47.7864C107.792 48.2883 107.821 48.8266 108.021 49.3096C108.222 49.7927 108.582 50.1908 109.04 50.4362C109.499 50.6815 110.028 50.759 110.536 50.6555C111.045 50.552 111.503 50.2738 111.831 49.8683C112.16 49.4628 112.339 48.9549 112.338 48.4312V48.3948Z" fill="#231E21"/>
    <path d="M121.789 47.1916C121.808 47.2346 121.818 47.2812 121.818 47.3283C121.818 47.3755 121.808 47.422 121.789 47.465C121.756 47.5508 121.691 47.6205 121.609 47.6594L119.507 48.6011C118.43 49.0992 117.659 49.4455 117.202 49.6521C117.414 49.9657 117.697 50.2237 118.028 50.4044C118.359 50.5851 118.728 50.6834 119.104 50.6909C119.578 50.6923 120.04 50.5412 120.423 50.2596C120.788 49.9995 121.065 49.6327 121.217 49.2086C121.239 49.1349 121.285 49.0708 121.347 49.0267C121.409 48.9826 121.484 48.9611 121.56 48.9656C121.618 48.9637 121.676 48.9767 121.727 49.0032C121.779 49.0298 121.823 49.0691 121.855 49.1175C121.888 49.1636 121.908 49.2174 121.915 49.2737C121.921 49.3301 121.913 49.3871 121.891 49.4394C121.7 50.0195 121.328 50.5221 120.832 50.8732C120.331 51.2422 119.725 51.4383 119.104 51.4321C118.573 51.4328 118.052 51.2891 117.595 51.0162C117.138 50.7433 116.762 50.3513 116.507 49.8813C116.253 49.4112 116.128 48.8806 116.146 48.3452C116.165 47.8097 116.326 47.2891 116.613 46.8382C116.899 46.3873 117.301 46.0226 117.776 45.7825C118.251 45.5424 118.781 45.4358 119.31 45.4738C119.84 45.5119 120.35 45.6931 120.786 45.9986C121.222 46.3041 121.569 46.7225 121.789 47.2099V47.1916ZM119.104 46.171C118.809 46.1702 118.517 46.2283 118.244 46.3419C117.971 46.4555 117.723 46.6224 117.515 46.8329C117.306 47.0435 117.14 47.2936 117.028 47.5689C116.915 47.8442 116.858 48.1392 116.859 48.4371C116.865 48.6246 116.885 48.8114 116.919 48.996L120.958 47.1734C120.745 46.8757 120.467 46.6307 120.145 46.4571C119.824 46.2835 119.468 46.1857 119.104 46.171Z" fill="#231E21"/>
    <path d="M125.432 43.0728C125.523 43.0747 125.61 43.1091 125.679 43.17C125.744 43.2386 125.781 43.33 125.781 43.4251V45.4481H126.985C127.031 45.4467 127.077 45.4552 127.119 45.473C127.162 45.4908 127.2 45.5175 127.232 45.5514C127.265 45.5846 127.292 45.6244 127.309 45.6683C127.327 45.7122 127.335 45.7592 127.334 45.8066C127.333 45.8997 127.296 45.9889 127.232 46.0557C127.166 46.1217 127.078 46.1589 126.985 46.1589H125.781V49.9377C125.78 50.035 125.799 50.1316 125.836 50.2214C125.873 50.3112 125.928 50.3925 125.998 50.4601C126.066 50.5314 126.149 50.5876 126.24 50.6252C126.331 50.6628 126.429 50.6811 126.527 50.6788H126.985C127.031 50.6786 127.077 50.6882 127.12 50.707C127.162 50.7259 127.201 50.7535 127.232 50.7882C127.265 50.8207 127.29 50.8595 127.308 50.9023C127.326 50.945 127.334 50.991 127.334 51.0373C127.334 51.0836 127.326 51.1295 127.308 51.1723C127.29 51.2151 127.265 51.2538 127.232 51.2864C127.2 51.3202 127.162 51.347 127.119 51.3648C127.077 51.3826 127.031 51.391 126.985 51.3896H126.527C126.335 51.3929 126.145 51.3573 125.967 51.285C125.788 51.2128 125.626 51.1052 125.49 50.9688C125.354 50.8324 125.246 50.6698 125.173 50.4906C125.1 50.3114 125.063 50.1193 125.065 49.9255V43.4251C125.063 43.3778 125.072 43.3307 125.09 43.2868C125.107 43.2429 125.133 43.2032 125.167 43.17C125.234 43.1072 125.322 43.0724 125.414 43.0728H125.432Z" fill="#231E21"/>
    <path d="M130.639 43.0728C130.731 43.0724 130.819 43.1072 130.886 43.17C130.92 43.2032 130.946 43.2429 130.964 43.2868C130.981 43.3307 130.99 43.3778 130.989 43.4251V46.1346C131.471 45.7231 132.073 45.482 132.704 45.4481C133.343 45.4481 133.955 45.7042 134.407 46.1599C134.859 46.6156 135.112 47.2337 135.112 47.8782V51.0433C135.113 51.0896 135.104 51.1356 135.086 51.1783C135.069 51.2211 135.043 51.2599 135.01 51.2924C134.978 51.3263 134.94 51.353 134.898 51.3708C134.855 51.3886 134.809 51.3971 134.763 51.3957C134.716 51.398 134.669 51.3899 134.626 51.3721C134.582 51.3543 134.543 51.3271 134.51 51.2924C134.478 51.2599 134.452 51.2211 134.434 51.1783C134.417 51.1356 134.408 51.0896 134.408 51.0433V47.8964C134.422 47.6608 134.388 47.4249 134.308 47.203C134.228 46.9812 134.104 46.7782 133.944 46.6064C133.783 46.4346 133.59 46.2978 133.375 46.2043C133.161 46.1107 132.929 46.0625 132.695 46.0625C132.461 46.0625 132.23 46.1107 132.015 46.2043C131.801 46.2978 131.607 46.4346 131.447 46.6064C131.286 46.7782 131.162 46.9812 131.083 47.203C131.003 47.4249 130.969 47.6608 130.983 47.8964V51.0616C130.983 51.155 130.946 51.2446 130.88 51.3107C130.815 51.3768 130.726 51.4139 130.633 51.4139C130.587 51.4153 130.541 51.4069 130.499 51.3891C130.456 51.3713 130.418 51.3445 130.387 51.3106C130.354 51.2781 130.328 51.2394 130.31 51.1966C130.293 51.1538 130.284 51.1079 130.284 51.0616V43.4251C130.285 43.33 130.321 43.2386 130.387 43.17C130.454 43.1082 130.542 43.0736 130.633 43.0728H130.639Z" fill="#231E21"/>
    <path d="M143.841 47.1916C143.86 47.2346 143.87 47.2812 143.87 47.3283C143.87 47.3754 143.86 47.422 143.841 47.465C143.825 47.5084 143.8 47.548 143.768 47.5814C143.736 47.6148 143.697 47.6413 143.655 47.6594L141.56 48.601L139.254 49.652C139.465 49.9649 139.748 50.2223 140.078 50.403C140.407 50.5837 140.775 50.6824 141.15 50.6909C141.624 50.6944 142.087 50.5431 142.469 50.2596C142.838 49.9999 143.122 49.6336 143.281 49.2086C143.301 49.1337 143.346 49.0683 143.409 49.0238C143.472 48.9793 143.548 48.9587 143.625 48.9655C143.682 48.9642 143.74 48.9774 143.791 49.004C143.843 49.0305 143.887 49.0695 143.92 49.1174C143.952 49.1636 143.973 49.2174 143.979 49.2737C143.985 49.33 143.977 49.3871 143.956 49.4394C143.764 50.0195 143.392 50.5221 142.896 50.8731C142.393 51.2431 141.785 51.4391 141.162 51.4321C140.7 51.4346 140.244 51.3278 139.831 51.1204C139.417 50.9129 139.057 50.6105 138.781 50.2375C138.504 49.8644 138.317 49.431 138.236 48.9721C138.155 48.5132 138.182 48.0416 138.314 47.595C138.447 47.1484 138.681 46.7393 138.998 46.4005C139.315 46.0617 139.707 45.8027 140.141 45.6441C140.575 45.4856 141.04 45.432 141.499 45.4876C141.958 45.5432 142.397 45.7065 142.782 45.9644C143.243 46.2645 143.61 46.6899 143.841 47.1916ZM141.15 46.171C140.856 46.171 140.564 46.2296 140.292 46.3436C140.02 46.4575 139.773 46.6246 139.565 46.8351C139.357 47.0456 139.192 47.2954 139.079 47.5703C138.967 47.8452 138.91 48.1397 138.911 48.437C138.918 48.6242 138.936 48.8109 138.965 48.9959L143.011 47.1734C142.796 46.8748 142.517 46.6294 142.195 46.4558C141.873 46.2821 141.515 46.1847 141.15 46.171Z" fill="#231E21"/>
    <path d="M149.627 45.4484C149.679 45.4452 149.73 45.454 149.778 45.474C149.826 45.494 149.869 45.5247 149.904 45.5638C149.967 45.6334 150.001 45.7246 150 45.819C150 45.9113 149.966 46.0003 149.904 46.068C149.836 46.134 149.745 46.1709 149.651 46.1713H149.302C149.109 46.1676 148.918 46.2039 148.739 46.2781C148.561 46.3524 148.4 46.4628 148.266 46.6027C148.128 46.7396 148.019 46.9034 147.946 47.084C147.872 47.2647 147.836 47.4584 147.839 47.6537V51.0618C147.839 51.1087 147.83 51.1553 147.811 51.1982C147.793 51.2412 147.765 51.2796 147.73 51.3109C147.699 51.3451 147.661 51.372 147.618 51.3899C147.576 51.4077 147.53 51.416 147.484 51.4142C147.438 51.4142 147.392 51.4051 147.35 51.3874C147.308 51.3696 147.269 51.3437 147.237 51.311C147.204 51.2783 147.178 51.2394 147.161 51.1967C147.143 51.1539 147.134 51.1081 147.134 51.0618V47.6537C147.121 47.0714 147.338 46.5077 147.736 46.0863C147.94 45.8851 148.183 45.7276 148.449 45.6233C148.714 45.5189 148.998 45.4697 149.284 45.4788L149.627 45.4484Z" fill="#231E21"/>
    <path d="M19.1751 7.56332C17.9291 7.24741 16.6491 7.08825 15.3644 7.08946C13.3466 7.07164 11.3455 7.45777 9.4766 8.22551C7.61536 9.02146 5.92769 10.1795 4.50995 11.6337C3.06898 13.0643 1.92136 14.7674 1.13262 16.6457C0.37054 18.5293 -0.0141331 20.5466 0.000820663 22.5811C-0.0201919 24.6273 0.362497 26.6574 1.1266 28.5529C1.91878 30.4203 3.06621 32.1128 4.50393 33.5346C5.92027 34.9888 7.6084 36.1452 9.47058 36.9366C11.3386 37.7072 13.3404 38.0934 15.3583 38.0727C16.6431 38.0739 17.9231 37.9147 19.1691 37.5988C19.8661 37.4571 20.4895 37.0676 20.9259 36.5012C21.3623 35.9349 21.5827 35.2292 21.5471 34.5127V34.4762C21.5563 33.9872 21.4484 33.5032 21.2325 33.0653C21.0165 32.6274 20.699 32.2486 20.3069 31.9611C19.793 31.5483 19.1577 31.3197 18.5009 31.3111C18.2273 31.3134 17.9547 31.346 17.6881 31.4083C16.9388 31.5893 16.171 31.6811 15.4005 31.6816C14.2094 31.7005 13.0268 31.4777 11.9227 31.0264C10.8187 30.5751 9.81574 29.9046 8.97344 29.0546C8.13115 28.2046 7.46668 27.1925 7.01949 26.0784C6.57229 24.9643 6.35149 23.7708 6.37018 22.5689C6.35809 21.3663 6.58107 20.1731 7.02639 19.0575C7.48786 17.9536 8.16331 16.9539 9.01305 16.1171C9.83681 15.254 10.8282 14.5717 11.9252 14.1128C13.0221 13.6539 14.2011 13.4283 15.3884 13.4501C16.1561 13.4513 16.9205 13.5492 17.6641 13.7417C17.9319 13.8089 18.2068 13.8436 18.4828 13.845C19.1549 13.8387 19.8055 13.6056 20.331 13.1828C20.7201 12.8938 21.0354 12.5156 21.2511 12.0793C21.4667 11.643 21.5764 11.1613 21.5712 10.6738V10.613C21.5969 9.90523 21.3847 9.20943 20.9692 8.63862C20.5069 8.08814 19.8753 7.70961 19.1751 7.56332Z" fill="black"/>
    <path d="M20.3194 13.1953H20.3125V13.2023L20.3194 13.1953Z" fill="black"/>
    <path d="M48.6319 11.6279C47.222 10.1629 45.5303 9.00412 43.6607 8.22269C41.791 7.44126 39.7829 7.05365 37.7594 7.08365C35.7378 7.06499 33.7327 7.45315 31.8614 8.22545C29.9902 8.99775 28.2902 10.1387 26.8609 11.5816C25.4316 13.0245 24.3017 14.7404 23.5371 16.6291C22.7725 18.5177 22.3886 20.5413 22.4079 22.5813C22.4245 25.1259 23.0579 27.6278 24.2528 29.8686C25.4477 32.1094 27.1679 34.0211 29.2632 35.4368C31.3584 36.8526 33.7652 37.7295 36.2735 37.991C38.7818 38.2525 41.3153 37.8906 43.6532 36.9369C45.5191 36.1457 47.2112 34.9894 48.6319 33.5348C50.0768 32.1075 51.2248 30.4035 52.0086 28.5226C52.7923 26.6417 53.196 24.6218 53.196 22.5813C53.196 20.5409 52.7923 18.521 52.0086 16.6401C51.2248 14.7592 50.0768 13.0551 48.6319 11.6279ZM44.1589 29.0331C42.9034 30.3279 41.2924 31.2136 39.5336 31.5762C37.7748 31.9388 35.9487 31.7616 34.2906 31.0674C32.6325 30.3733 31.2183 29.194 30.2303 27.6816C29.2423 26.1691 28.7258 24.3927 28.7472 22.5813C28.7241 21.3808 28.9463 20.1884 29.3999 19.0784C29.8536 17.9684 30.529 16.9646 31.384 16.1295C32.2078 15.2664 33.1992 14.5841 34.2961 14.1252C35.3931 13.6663 36.5721 13.4407 37.7594 13.4625C38.9512 13.4503 40.1336 13.6754 41.2391 14.1247C43.432 15.0906 45.1824 16.8569 46.1395 19.0699C46.8353 20.7399 47.0184 22.5822 46.6653 24.3584C46.3122 26.1347 45.4391 27.7631 44.1589 29.0331Z" fill="black"/>
    <path d="M80.93 11.628C79.5079 10.1735 77.8163 9.01552 75.9513 8.21985C72.6605 6.8124 68.9861 6.60781 65.5618 7.64137C62.1375 8.67492 59.1779 10.8818 57.1933 13.8816C55.2088 16.8813 54.3236 20.4858 54.6905 24.0736C55.0574 27.6613 56.6533 31.0075 59.2031 33.535C60.6207 34.9898 62.311 36.1452 64.1756 36.9339C66.0402 37.7226 68.0418 38.1288 70.0636 38.1288C72.0854 38.1288 74.0869 37.7226 75.9515 36.9339C77.8161 36.1452 79.5065 34.9898 80.924 33.535C82.3667 32.1064 83.5128 30.4019 84.2951 28.5212C85.0775 26.6405 85.4804 24.6212 85.4804 22.5815C85.4804 20.5418 85.0775 18.5225 84.2951 16.6418C83.5128 14.761 82.3667 13.0566 80.924 11.628H80.93ZM76.457 29.0333C75.2015 30.3281 73.5906 31.2138 71.8318 31.5763C70.073 31.9389 68.2469 31.7617 66.5888 31.0676C64.9306 30.3734 63.5165 29.1942 62.5285 27.6817C61.5405 26.1692 61.0239 24.3929 61.0453 22.5815C61.0332 21.3789 61.2562 20.1856 61.7015 19.0701C62.3761 17.3961 63.5346 15.9659 65.0261 14.9657C66.5176 13.9656 68.2729 13.4418 70.0636 13.4627C71.8532 13.4583 73.6037 13.9905 75.093 14.9919C76.5823 15.9933 77.7432 17.4187 78.4283 19.0871C79.1133 20.7555 79.2917 22.5916 78.9407 24.3625C78.5897 26.1334 77.7253 27.7591 76.457 29.0333Z" fill="black"/>
    <path d="M149.199 13.5963C148.664 12.3107 147.88 11.1458 146.893 10.1699C145.931 9.17355 144.778 8.38589 143.503 7.85521C142.229 7.32453 140.861 7.06203 139.482 7.08377C138.103 7.06931 136.734 7.33157 135.455 7.85531C134.189 8.39725 133.039 9.18351 132.072 10.1699C131.08 11.1385 130.296 12.3018 129.767 13.5879C129.237 14.8741 128.975 16.256 128.995 17.6484V34.9018C128.995 35.3189 129.077 35.7318 129.236 36.1169C129.397 36.4949 129.633 36.8359 129.928 37.1193C130.215 37.4061 130.552 37.6368 130.922 37.7997C131.302 37.9635 131.712 38.0442 132.126 38.0366H132.18C132.593 38.0438 133.004 37.9631 133.384 37.7997C133.752 37.6368 134.087 37.4061 134.371 37.1193C134.671 36.8382 134.909 36.4967 135.07 36.1169C135.227 35.7315 135.306 35.3185 135.304 34.9018V27.4841H143.588V34.9018C143.583 35.3188 143.663 35.7324 143.823 36.1169C143.984 36.4949 144.22 36.8359 144.515 37.1193C144.8 37.4061 145.134 37.6368 145.503 37.7997C145.883 37.9631 146.293 38.0438 146.707 38.0366H146.761C147.174 38.0442 147.585 37.9635 147.965 37.7997C148.335 37.6368 148.672 37.4061 148.958 37.1193C149.254 36.8359 149.489 36.4949 149.651 36.1169C149.809 35.7318 149.891 35.3189 149.891 34.9018V17.6484C149.929 16.2648 149.693 14.8874 149.199 13.5963ZM135.353 17.6484C135.346 17.097 135.448 16.5497 135.654 16.0385C135.859 15.5311 136.167 15.0719 136.557 14.6898C136.935 14.2931 137.39 13.9788 137.893 13.7664C138.398 13.5593 138.938 13.4561 139.482 13.4627C140.035 13.4562 140.583 13.5594 141.096 13.7664C141.599 13.9788 142.054 14.2931 142.432 14.6898C142.82 15.0736 143.127 15.5323 143.335 16.0385C143.538 16.5504 143.64 17.0972 143.636 17.6484V21.1052H135.353V17.6484Z" fill="black"/>
    <path d="M123.21 37.8727C122.79 37.8735 122.375 37.7908 121.986 37.6295C121.598 37.4681 121.246 37.2311 120.948 36.9321C120.651 36.6331 120.415 36.278 120.253 35.8869C120.092 35.4958 120.008 35.0765 120.008 34.6529V20.4127C120.008 19.1237 119.5 17.8876 118.597 16.9761C117.694 16.0647 116.469 15.5526 115.191 15.5526C113.914 15.5526 112.689 16.0647 111.786 16.9761C110.883 17.8876 110.375 19.1237 110.375 20.4127V34.6286C110.407 35.071 110.349 35.5152 110.207 35.9347C110.057 36.3521 109.828 36.7359 109.532 37.0647C109.23 37.3901 108.865 37.6505 108.461 37.8302C108.056 38.0063 107.62 38.0972 107.179 38.0972C106.738 38.0972 106.301 38.0063 105.896 37.8302C105.494 37.655 105.132 37.3987 104.831 37.0769C104.531 36.7551 104.299 36.3746 104.15 35.959C104.002 35.5409 103.944 35.0954 103.982 34.6529V20.4127C103.922 18.8955 104.166 17.3816 104.7 15.9619C105.234 14.5422 106.046 13.2459 107.088 12.1505C108.661 10.4844 110.7 9.34154 112.933 8.87417C115.166 8.40679 117.488 8.6371 119.588 9.53442C121.688 10.4317 123.467 11.9534 124.689 13.8969C125.91 15.8403 126.516 18.1132 126.425 20.4127V34.6286C126.424 35.0522 126.341 35.4715 126.179 35.8626C126.018 36.2537 125.782 36.6088 125.485 36.9078C125.187 37.2068 124.834 37.4438 124.446 37.6052C124.058 37.7665 123.642 37.8492 123.222 37.8484L123.21 37.8727Z" fill="url(#paint0_linear_1473_100400)"/>
    <path d="M115.203 7.55746C115.943 7.55506 116.666 7.3314 117.28 6.91473C117.894 6.49806 118.372 5.90706 118.654 5.21638C118.935 4.5257 119.008 3.76631 118.862 3.03411C118.716 2.3019 118.359 1.62973 117.834 1.10248C117.31 0.575232 116.643 0.216547 115.917 0.0717253C115.191 -0.0730961 114.439 0.00244165 113.755 0.288799C113.072 0.575156 112.487 1.05949 112.077 1.68063C111.666 2.30178 111.446 3.03188 111.446 3.77872C111.447 4.27575 111.545 4.76776 111.734 5.22664C111.923 5.68553 112.2 6.10232 112.549 6.45321C112.898 6.8041 113.312 7.08222 113.767 7.27168C114.222 7.46115 114.71 7.55826 115.203 7.55746Z" fill="url(#paint1_linear_1473_100400)"/>
    <g style="mix-blend-mode:multiply">
        <path d="M107.269 37.8727C106.849 37.8735 106.433 37.7908 106.045 37.6294C105.657 37.468 105.304 37.2311 105.007 36.9321C104.709 36.6331 104.473 36.2779 104.312 35.8869C104.15 35.4958 104.067 35.0765 104.066 34.6528V20.4127C104.066 19.1237 103.559 17.8875 102.655 16.9761C101.752 16.0646 100.527 15.5526 99.2498 15.5526C97.9725 15.5526 96.7475 16.0646 95.8443 16.9761C94.9411 17.8875 94.4336 19.1237 94.4336 20.4127V34.6285C94.4711 35.0711 94.4136 35.5166 94.2651 35.9347C94.1195 36.3542 93.8899 36.739 93.5906 37.0651C93.2913 37.3912 92.9286 37.6516 92.5252 37.8301C92.1203 38.0063 91.6839 38.0972 91.2429 38.0972C90.8019 38.0972 90.3656 38.0063 89.9606 37.8301C89.5569 37.652 89.1941 37.3913 88.8951 37.0647C88.5939 36.7415 88.3628 36.3584 88.2166 35.94C88.0705 35.5216 88.0124 35.077 88.0462 34.6346V20.4127C87.9759 18.8815 88.2141 17.3518 88.7463 15.916C89.2785 14.4803 90.0937 13.1685 91.1427 12.0598C92.1916 10.9511 93.4525 10.0686 94.8491 9.46559C96.2456 8.86264 97.7488 8.55176 99.2679 8.55176C100.787 8.55176 102.29 8.86264 103.687 9.46559C105.083 10.0686 106.344 10.9511 107.393 12.0598C108.442 13.1685 109.257 14.4803 109.789 15.916C110.322 17.3518 110.56 18.8815 110.489 20.4127V34.6285C110.489 35.0522 110.405 35.4715 110.244 35.8626C110.082 36.2536 109.846 36.6088 109.549 36.9078C109.252 37.2068 108.899 37.4437 108.511 37.6051C108.122 37.7665 107.707 37.8492 107.287 37.8484L107.269 37.8727Z" fill="url(#paint2_linear_1473_100400)"/>
    </g>
    <path style="mix-blend-mode:multiply" d="M99.2615 7.55746C100.002 7.55506 100.724 7.3314 101.339 6.91473C101.953 6.49806 102.431 5.90706 102.712 5.21638C102.994 4.5257 103.066 3.76631 102.921 3.03411C102.775 2.3019 102.417 1.62973 101.893 1.10248C101.369 0.575232 100.702 0.216547 99.9756 0.0717253C99.2495 -0.0730961 98.4972 0.00244165 97.8137 0.288799C97.1302 0.575156 96.5461 1.05949 96.1351 1.68063C95.7242 2.30178 95.5049 3.03188 95.5049 3.77872C95.5057 4.27575 95.6035 4.76776 95.7927 5.22664C95.9819 5.68553 96.2588 6.10232 96.6077 6.45321C96.9565 6.8041 97.3704 7.08222 97.8257 7.27168C98.2811 7.46115 98.769 7.55826 99.2615 7.55746Z" fill="url(#paint3_linear_1473_100400)"/>
    <defs>
        <linearGradient id="paint0_linear_1473_100400" x1="103.964" y1="23.3835" x2="126.425" y2="23.3835" gradientUnits="userSpaceOnUse">
            <stop stop-color="#FF802E"/>
            <stop offset="1" stop-color="#FF3EE7"/>
        </linearGradient>
        <linearGradient id="paint1_linear_1473_100400" x1="111.446" y1="3.77872" x2="118.959" y2="3.77872" gradientUnits="userSpaceOnUse">
            <stop stop-color="#FF802E"/>
            <stop offset="1" stop-color="#FF3EE7"/>
        </linearGradient>
        <linearGradient id="paint2_linear_1473_100400" x1="88.0342" y1="23.3217" x2="110.5" y2="23.3217" gradientUnits="userSpaceOnUse">
            <stop stop-color="#FF802E"/>
            <stop offset="1" stop-color="#FF3EE7"/>
        </linearGradient>
        <linearGradient id="paint3_linear_1473_100400" x1="95.5049" y1="3.77872" x2="103.018" y2="3.77872" gradientUnits="userSpaceOnUse">
            <stop stop-color="#FF802E"/>
            <stop offset="1" stop-color="#FF3EE7"/>
        </linearGradient>
    </defs>
</svg>
