<svg width="190" height="180" viewBox="0 0 190 180" fill="none" xmlns="http://www.w3.org/2000/svg">
<path d="M0 0H190V180H0V0Z" fill="url(#paint0_linear)"/>
<path fill-rule="evenodd" clip-rule="evenodd" d="M94.5141 22.9788C112.151 20.6532 124.033 29.9556 123.476 51.8162C122.641 81.4909 111.78 85.677 99.3411 86.0491C82.9107 86.5142 75.4846 72.4676 74.4635 58.1419C73.3495 41.2115 80.59 23.0718 94.5141 22.9788Z" fill="#569AC6"/>
<path fill-rule="evenodd" clip-rule="evenodd" d="M85.0445 75.9063C85.0445 75.9063 87.9222 95.9065 84.5804 101.488C79.1036 108.465 69.9137 110.511 56.918 116.837C85.0445 182.512 121.99 167.721 142.04 117.674C121.897 106.232 120.783 106.976 115.77 101.581C112.986 98.6042 111.964 91.0692 111.593 74.79L85.0445 75.9063Z" fill="#EBF1F7"/>
<path fill-rule="evenodd" clip-rule="evenodd" d="M85.3242 78.6055L111.78 82.3264C112.337 93.4893 113.451 99.1638 115.772 101.582C115.864 101.675 115.864 101.675 115.957 101.768C97.763 107.536 88.8517 95.3498 85.974 85.3032C85.7884 82.6985 85.5099 80.2799 85.3242 78.6055Z" fill="#BED7E6"/>
<path fill-rule="evenodd" clip-rule="evenodd" d="M77.0649 56.5571C75.0227 56.5571 73.9087 61.0223 75.0227 65.3944C76.1366 69.7665 76.7864 73.6735 78.7357 73.6735C80.7779 73.6735 79.8497 70.8828 79.8497 65.7665C79.8497 60.6502 79.0142 56.5571 77.0649 56.5571Z" fill="#EBF1F7"/>
<path fill-rule="evenodd" clip-rule="evenodd" d="M77.6214 58.1409C76.6932 58.0479 76.1362 60.3735 75.9506 61.5828C75.7649 62.7921 75.7649 66.0479 76.4147 67.7224C76.9717 69.0247 77.8071 72.6526 78.1784 68.3735C78.2713 67.2572 77.7143 67.0712 77.5286 65.6758C77.343 64.2805 77.9928 63.4433 78.2712 63.0712C79.6636 61.6758 78.5497 58.2339 77.6214 58.1409Z" fill="#BED7E6"/>
<path fill-rule="evenodd" clip-rule="evenodd" d="M122.182 56.6485C124.224 56.6485 125.338 61.2067 124.224 65.4858C123.11 69.8579 122.46 73.7649 120.418 73.7649C118.376 73.7649 119.304 70.9742 119.304 65.8579C119.304 60.7415 120.14 56.5555 122.182 56.6485Z" fill="#EBF1F7"/>
<path fill-rule="evenodd" clip-rule="evenodd" d="M121.533 58.2317C122.461 58.1387 123.018 60.4643 123.204 61.6736C123.39 62.8829 123.39 66.1388 122.647 67.8132C122.09 69.1155 121.255 72.7435 120.883 68.4644C120.791 67.3481 121.348 67.162 121.626 65.7667C121.812 64.3713 121.162 63.5341 120.883 63.162C119.491 61.6736 120.605 58.3247 121.533 58.2317Z" fill="#BED7E6"/>
<path fill-rule="evenodd" clip-rule="evenodd" d="M99.4401 30.2339C122.183 30.2339 120.233 43.8154 120.233 62.4203C120.141 81.0251 107.516 93.3973 99.0689 92.6531C91.4571 92.374 78.7397 81.5832 78.8325 63.0714C78.8325 48.8387 80.225 36.3735 90.0646 31.7223C93.1279 30.1409 94.149 30.2339 99.4401 30.2339Z" fill="#EBF1F7"/>
<path d="M76 107.21C99 139.278 117 115.227 124 107.21C122.833 114.559 114.4 135.169 100 134.768C85.6 134.367 78.1667 114.225 76 107.21Z" fill="white"/>
<path fill-rule="evenodd" clip-rule="evenodd" d="M94.6078 31.1633C119.3 30.9772 121.342 7.90726 98.4138 8.00028C86.8104 8.00028 71.958 22.6981 94.6078 31.1633Z" fill="#569AC6"/>
<path fill-rule="evenodd" clip-rule="evenodd" d="M55.8059 179.907C55.8059 179.907 57.1983 179.907 58.7764 179.907H135.544C137.587 179.907 138.422 179.907 138.422 179.907H164.785L155.409 129.395C154.388 124.092 148.447 118.418 142.878 116.185C135.451 112.557 130.16 111.348 123.384 107.441C115.215 141.395 78.3629 131.348 76.8776 107.627C67.1308 111.162 65.7384 112.278 55.6202 116.185C55.6202 116.185 44.8523 119.72 42.0675 130.511L30 180H55.8059V179.907Z" fill="#5DA1CE"/>
<path fill-rule="evenodd" clip-rule="evenodd" d="M79.8514 60.8353C82.6362 49.6725 101.109 50.2306 108.999 37.4863C119.767 48.5562 117.632 49.9515 119.024 60.9284C121.252 57.3934 121.624 50.6957 121.438 48.091C121.067 35.8119 110.484 24.4629 99.1594 25.8583C83.0075 29.1141 80.1298 34.8816 75.1172 54.4167C78.2733 56.4632 78.5518 57.3934 79.8514 60.8353Z" fill="#5DA1CE"/>
<path fill-rule="evenodd" clip-rule="evenodd" d="M73.1523 108.487C74.2002 108.088 75.357 107.659 76.6641 107.186C78.1494 130.857 115.002 140.882 123.17 107C124.424 107.721 125.627 108.351 126.803 108.92C125.18 122.887 113.799 133 100.001 133C86.0607 133 74.5879 122.677 73.1523 108.487Z" fill="#569AC6"/>
<path d="M100 180L105 125C101.339 127.243 103.205 130.383 94 125L98.5 180H100Z" fill="white"/>
<defs>
<linearGradient id="paint0_linear" x1="95" y1="0" x2="95" y2="180" gradientUnits="userSpaceOnUse">
<stop stop-color="#8BBDDA"/>
<stop offset="1" stop-color="#D0E1EB"/>
</linearGradient>
</defs>
</svg>
