<svg width="190" height="180" viewBox="0 0 190 180" fill="none" xmlns="http://www.w3.org/2000/svg">
<path d="M0 0H190V180H0V0Z" fill="url(#paint0_linear)"/>
<path fill-rule="evenodd" clip-rule="evenodd" d="M92.3318 160.088C59.2854 164.729 60.163 100.873 62.2052 74.3244C64.1546 49.0755 77.0153 20.662 92.5174 23.1683C115.539 16.1134 130.534 46.1978 132.298 73.3961C133.969 100.223 140.045 162.873 92.3318 160.088Z" fill="#5DA1CE"/>
<path fill-rule="evenodd" clip-rule="evenodd" d="M83.0446 75.8947C83.0446 75.8947 85.9222 95.8525 82.5804 101.422C77.1036 108.384 67.9137 110.426 54.918 116.739C83.0445 182.274 119.99 167.515 140.04 117.574C119.897 106.156 118.783 106.899 113.77 101.515C110.986 98.5445 109.964 91.0255 109.593 74.7808L83.0446 75.8947Z" fill="#EBF1F7"/>
<path fill-rule="evenodd" clip-rule="evenodd" d="M83.3242 78.584L109.78 82.2971C110.337 93.4363 111.451 99.0987 113.771 101.512C113.864 101.605 113.864 101.605 113.957 101.698C95.763 107.453 86.8517 95.2928 83.974 85.2675C83.7884 82.6684 83.5099 80.2549 83.3242 78.584Z" fill="#BED7E6"/>
<path fill-rule="evenodd" clip-rule="evenodd" d="M75.0649 56.5859C73.0227 56.5859 71.9087 61.0416 73.0227 65.4045C74.1366 69.7674 74.7864 73.6661 76.7357 73.6661C78.7779 73.6661 77.8497 70.8813 77.8497 65.7758C77.8497 60.6703 77.0142 56.5859 75.0649 56.5859Z" fill="#EBF1F7"/>
<path fill-rule="evenodd" clip-rule="evenodd" d="M75.6215 58.1673C74.6932 58.0744 74.1362 60.3951 73.9506 61.6019C73.7649 62.8086 73.7649 66.0575 74.4147 67.7284C74.9717 69.028 75.8071 72.6483 76.1784 68.3782C76.2713 67.2643 75.7143 67.0786 75.5286 65.6862C75.343 64.2938 75.9928 63.4584 76.2712 63.0871C77.6636 61.6947 76.5497 58.2601 75.6215 58.1673Z" fill="#BED7E6"/>
<path fill-rule="evenodd" clip-rule="evenodd" d="M120.182 56.6773C122.224 56.6773 123.338 61.2258 122.224 65.4959C121.11 69.8587 120.46 73.7575 118.418 73.7575C116.376 73.7575 117.304 70.9727 117.304 65.8672C117.304 60.7617 118.14 56.5845 120.182 56.6773Z" fill="#EBF1F7"/>
<path fill-rule="evenodd" clip-rule="evenodd" d="M119.533 58.2571C120.461 58.1643 121.018 60.4849 121.204 61.6917C121.39 62.8984 121.39 66.1474 120.647 67.8183C120.09 69.1179 119.255 72.7381 118.883 68.4681C118.791 67.3541 119.348 67.1685 119.626 65.7761C119.812 64.3837 119.162 63.5482 118.883 63.1769C117.491 61.6917 118.605 58.3499 119.533 58.2571Z" fill="#BED7E6"/>
<path fill-rule="evenodd" clip-rule="evenodd" d="M97.4351 30.314C120.178 30.314 118.228 43.8667 118.228 62.4321C118.135 80.9975 105.511 93.3435 97.0638 92.6009C89.4519 92.3224 76.7346 81.5545 76.8274 63.0819C76.8274 48.8794 75.2494 37.3688 85.089 32.6346C88.0595 31.1494 92.1439 30.314 97.4351 30.314Z" fill="#EBF1F7"/>
<path fill-rule="evenodd" clip-rule="evenodd" d="M76.6446 58.9048C79.4294 47.7656 79.3366 44.2381 89.5476 35.9765C101.708 49.158 115.91 44.7023 118.324 60.8542C121.294 58.6263 120.366 53.0567 120.273 50.5504C119.902 38.2972 108.577 25.0229 97.2522 26.4153C81.1003 29.6643 78.2227 34.3985 73.1172 53.8921L76.6446 58.9048Z" fill="#5DA1CE"/>
<path fill-rule="evenodd" clip-rule="evenodd" d="M53.8059 179.675C53.8059 179.675 55.1983 179.675 56.7764 179.675H133.544C135.587 179.675 136.422 179.675 136.422 179.675H162.785L153.409 129.27C152.388 123.979 146.447 118.316 140.878 116.089C133.451 112.468 128.16 111.262 121.384 107.363C113.215 141.245 76.3629 131.219 74.8776 107.548C65.1308 111.076 63.7384 112.19 53.6202 116.089C53.6202 116.089 42.8523 119.616 40.0675 130.384L28 179.768H53.8059V179.675Z" fill="#5DA1CE"/>
<path fill-rule="evenodd" clip-rule="evenodd" d="M64.5586 111.549C66.4328 110.807 68.5883 109.988 71.2794 109.014C73.0455 137.16 116.865 149.081 126.579 108.793C128.825 110.086 130.935 111.129 133 112.056C130.799 132.348 116.299 161.707 98.7735 161.707C81.1014 161.707 66.5621 131.855 64.5586 111.549Z" fill="#569AC6"/>
<defs>
<linearGradient id="paint0_linear" x1="95" y1="0" x2="95" y2="180" gradientUnits="userSpaceOnUse">
<stop stop-color="#8BBDDA"/>
<stop offset="1" stop-color="#D0E1EB"/>
</linearGradient>
</defs>
</svg>
