<svg width="190" height="180" viewBox="0 0 190 180" fill="none" xmlns="http://www.w3.org/2000/svg">
<path d="M0 0H190V180H0V0Z" fill="url(#paint0_linear)"/>
<path d="M130.118 85.2083C127.118 82.6883 130.758 82.9883 132.598 81.6283C134.438 80.2683 136.128 77.9583 135.758 75.8083C135.188 75.8983 134.408 75.5983 133.848 75.7283C134.267 75.1289 134.514 74.426 134.562 73.696C134.609 72.9661 134.456 72.2371 134.118 71.5883C134.068 72.8783 133.328 74.1783 131.878 73.9983C132.375 73.0369 132.61 71.9619 132.561 70.8809C132.512 69.7999 132.18 68.7507 131.598 67.8383C131.108 69.5783 130.928 71.5583 128.598 72.3683C128.139 72.5343 127.648 72.5907 127.163 72.533C126.679 72.4753 126.214 72.3051 125.807 72.036C125.4 71.7669 125.062 71.4063 124.819 70.983C124.576 70.5597 124.435 70.0856 124.408 69.5983C124.408 67.3683 126.688 67.5983 126.628 65.1583C126.568 62.7183 123.458 63.0983 123.948 60.9983C125.948 61.0983 126.868 59.1883 126.638 57.3483C123.158 62.1783 119.778 50.6983 122.398 49.0083L108.938 55.5383C105.418 60.2483 101.048 64.1283 96.9382 68.5383C92.8682 64.1683 88.4982 60.2883 84.9382 55.5383L71.4082 49.0083C74.0282 50.6983 70.6482 62.1783 67.1682 57.3483C66.9282 59.1883 67.8182 61.0983 69.8482 60.9983C70.3482 63.0983 67.2382 62.6983 67.1782 65.1583C67.1182 67.6183 69.3882 67.3683 69.3982 69.5983C69.3696 70.0859 69.2276 70.5602 68.9836 70.9833C68.7395 71.4065 68.4001 71.7669 67.9923 72.0358C67.5845 72.3047 67.1196 72.4748 66.6346 72.5326C66.1495 72.5903 65.6577 72.534 65.1982 72.3683C62.9082 71.5583 62.7382 69.5783 62.1982 67.8383C61.6178 68.7516 61.2874 69.8012 61.24 70.8822C61.1927 71.9632 61.4299 73.0378 61.9282 73.9983C60.4782 74.1783 59.7282 72.8783 59.6782 71.5883C59.3457 72.2386 59.1953 72.9667 59.2428 73.6955C59.2903 74.4243 59.534 75.1267 59.9482 75.7283C59.3882 75.5983 58.6182 75.8983 58.0482 75.8083C57.6782 77.9583 59.5082 80.3683 61.2082 81.6283C62.9082 82.8883 66.7282 82.6883 63.6882 85.2083C61.4482 87.0583 59.5582 85.9983 59.4882 89.5883C59.4382 92.1083 60.6182 94.4583 63.2482 94.4683C62.5326 95.6638 62.242 97.0659 62.4236 98.4473C62.6051 99.8287 63.248 101.108 64.2482 102.078C63.8282 100.738 63.6082 98.8283 64.9182 97.9983C64.7382 98.9983 64.9182 100.108 65.9182 100.478C65.5082 105.308 74.5682 105.558 77.8082 105.868C80.2682 106.098 82.5282 107.118 84.9582 107.358C87.3357 107.438 89.7158 107.337 92.0782 107.058C92.2182 100.708 94.4182 94.7483 96.9282 88.8883C99.4282 94.7483 101.638 100.708 101.778 107.058C104.137 107.337 106.514 107.437 108.888 107.358C111.318 107.118 113.588 106.098 116.048 105.868C119.288 105.558 128.348 105.308 127.928 100.478C128.928 100.108 129.108 99.0383 128.928 97.9983C130.228 98.8283 130.018 100.738 129.598 102.078C130.589 101.101 131.221 99.8188 131.394 98.4381C131.566 97.0574 131.268 95.659 130.548 94.4683C133.168 94.4683 134.358 92.1083 134.308 89.5883C134.238 85.9983 132.348 87.0583 130.118 85.2083Z" fill="#5DA1CE"/>
<path fill-rule="evenodd" clip-rule="evenodd" d="M83.0446 75.8947C83.0446 75.8947 85.9222 95.8525 82.5804 101.422C77.1036 108.384 67.9137 110.426 54.918 116.739C83.0445 182.274 119.99 167.515 140.04 117.574C119.897 106.156 118.783 106.899 113.77 101.515C110.986 98.5445 109.964 91.0255 109.593 74.7808L83.0446 75.8947Z" fill="#EBF1F7"/>
<path fill-rule="evenodd" clip-rule="evenodd" d="M83.3242 78.584L109.78 82.2971C110.337 93.4363 111.451 99.0987 113.771 101.512C113.864 101.605 113.864 101.605 113.957 101.698C95.763 107.453 86.8517 95.2928 83.974 85.2675C83.7884 82.6684 83.5099 80.2549 83.3242 78.584Z" fill="#BED7E6"/>
<path d="M153.409 128.907L163 180H27.5L40.0675 130.021C42.8523 119.253 53.6202 115.726 53.6202 115.726C63.7384 111.827 65.1308 110.713 74.8776 107.186C75.6292 119.163 85.436 127.647 96 128.716L98.5 134.5C98.5 134.5 98.5 134.5 98.5 134.5C98.7141 134 100.5 129.5 101 128.656C109.682 127.546 117.998 121.046 121.384 107C128.16 110.899 133.451 112.105 140.878 115.726C146.447 117.954 152.388 123.616 153.409 128.907Z" fill="#5DA1CE"/>
<path d="M122.438 40.0084L122.717 39.8784C122.62 39.9115 122.526 39.9551 122.438 40.0084Z" fill="#331B19"/>
<path d="M71.4362 40.0084C71.3479 39.9551 71.254 39.9115 71.1562 39.8784L71.4362 40.0084Z" fill="#331B19"/>
<path d="M115.447 75.7987C116.017 68.0687 120.927 56.9287 120.927 56.9287C127.927 41.3287 116.697 18.5287 107.137 25.0387C96.8968 11.3787 62.5168 26.6687 72.8768 56.7187C72.8768 56.7187 77.1268 67.0787 77.5368 74.7187C77.9468 82.3587 91.6868 89.7188 96.0968 89.9588C100.507 90.1988 114.867 83.5287 115.447 75.7987Z" fill="#5DA1CE"/>
<path d="M122.128 61.4384C122.128 65.5284 119.228 71.1484 117.278 71.1484C115.328 71.1484 113.738 67.8384 113.738 63.7484C113.679 62.3197 113.971 60.8983 114.588 59.6084C115.205 58.3185 116.129 57.1993 117.278 56.3484C119.168 54.8184 122.128 56.2984 122.128 61.4384Z" fill="#EBF1F7"/>
<path d="M71.5078 61.4384C71.5078 65.5284 74.4078 71.1484 76.3578 71.1484C78.3078 71.1484 79.8878 67.8384 79.8878 63.7484C79.9477 62.3206 79.6573 60.8998 79.042 59.61C78.4267 58.3201 77.5052 57.2004 76.3578 56.3484C74.4678 54.8184 71.5078 56.2984 71.5078 61.4384Z" fill="#EBF1F7"/>
<path d="M96.9367 28.9883C83.2067 28.9883 77.1367 38.6083 77.1367 52.9883V70.9883C77.1367 83.4883 86.5 94.1883 96.1367 94.1883C108 94.1883 116.737 81.6783 116.737 69.8383V52.9583C116.697 38.6083 110.627 28.9883 96.9367 28.9883Z" fill="#EBF1F7"/>
<path d="M119.366 55.6358V52.0616C122.704 37.2864 112.112 23 96.8369 23C81.5616 23 69.9164 40.8606 73.9994 55.6358L76.4827 56.5C78.4147 54.8161 77.8171 58.0625 78.1127 55.6358C78.8025 50.188 83.1192 44.8624 91.4633 43.4165C104.636 41.1152 108.341 33.8854 108.341 33.8854C110.515 36.8968 112.378 40.0877 113.903 43.4165C115.683 47.2248 113.903 49.5261 115.439 53.365C116.289 55.5589 114.651 54.517 115.983 56.5L119.366 55.6358Z" fill="#569AC6"/>
<path d="M116.697 63.1985L117.277 55.7485C120.277 41.2385 110.757 27.2085 97.027 27.2085C83.297 27.2085 72.647 42.5185 76.317 57.0285L77.097 65.5085C78.8335 63.8548 79.9312 61.6417 80.197 59.2585C80.817 53.9085 84.697 48.6785 92.197 47.2585C104.037 44.9985 107.367 37.8985 107.367 37.8985C109.322 40.8559 110.996 43.9895 112.367 47.2585C113.967 50.9985 112.367 53.2585 113.747 57.0285C114.511 59.183 115.5 61.2511 116.697 63.1985Z" fill="#5DA1CE"/>
<path fill-rule="evenodd" clip-rule="evenodd" d="M65 111.001C67.5913 109.902 70.2994 108.795 74.747 107.186C75.4986 119.163 85.3054 127.647 95.8694 128.716L98.3694 134.5C98.4139 134.396 98.5264 134.119 98.6813 133.738C99.2708 132.286 100.473 129.325 100.869 128.656C109.551 127.546 117.867 121.046 121.253 107C125.138 109.235 128.534 110.585 132.124 112.012C132.286 112.077 132.449 112.142 132.612 112.206C131.081 124.61 122.87 134.945 111.69 139.5C110.016 140.182 107.3 154.124 104.918 166.35C103.958 171.276 103.053 175.923 102.291 179.312H95.4473C94.6862 175.923 93.7807 171.276 92.8209 166.35C90.4388 154.124 87.7223 140.182 86.0491 139.5C74.5081 134.798 66.1313 123.938 65 111.001Z" fill="#569AC6"/>
<path fill-rule="evenodd" clip-rule="evenodd" d="M74.7291 58.002C73.8262 57.9337 73.2845 59.6407 73.1039 60.5284C72.9233 61.416 72.9233 63.8059 73.5553 65.0349C74.0971 65.9909 74.9097 68.6539 75.2708 65.5129C75.3611 64.6935 74.8194 64.557 74.6388 63.5328C74.4582 62.5085 75.0902 61.894 75.3611 61.6209C76.7154 60.5967 75.632 58.0703 74.7291 58.002Z" fill="#BED7E6"/>
<path fill-rule="evenodd" clip-rule="evenodd" d="M119.272 58.002C120.176 57.9337 120.719 59.6407 120.9 60.5284C121.08 61.416 121.08 63.8059 120.357 65.035C119.815 65.9909 119.001 68.6539 118.64 65.5129C118.549 64.6935 119.092 64.557 119.363 63.5328C119.544 62.5085 118.911 61.894 118.64 61.6209C117.284 60.5284 118.368 58.0703 119.272 58.002Z" fill="#BED7E6"/>
<defs>
<linearGradient id="paint0_linear" x1="95" y1="0" x2="95" y2="180" gradientUnits="userSpaceOnUse">
<stop stop-color="#8BBDDA"/>
<stop offset="1" stop-color="#D0E1EB"/>
</linearGradient>
</defs>
</svg>
