<svg width="190" height="180" viewBox="0 0 190 180" fill="none" xmlns="http://www.w3.org/2000/svg">
<path d="M0 0H190V180H0V0Z" fill="url(#paint0_linear)"/>
<path fill-rule="evenodd" clip-rule="evenodd" d="M172 179.524L168.101 137.938C166.523 127.82 163.089 121.972 155.662 118.259C144.709 112.689 126.608 106.748 119.089 102.385C111.013 126.799 75.8312 122.343 71.654 102.757C62.8355 105.913 39.6287 111.854 30.7173 119.93C28.3966 121.972 26.2616 128.191 25.7046 130.697L18 179.617L172 179.524Z" fill="#569AC6"/>
<path fill-rule="evenodd" clip-rule="evenodd" d="M113.338 88.7422H112.41C112.41 89.7633 112.41 90.6916 112.503 91.6198C112.781 90.7844 113.06 89.7633 113.338 88.7422Z" fill="#F2F1EE"/>
<path fill-rule="evenodd" clip-rule="evenodd" d="M77.7835 89.7603H77.2266C77.4122 90.1316 77.5978 90.5029 77.7835 90.7814C77.7835 90.41 77.7835 90.0387 77.7835 89.7603Z" fill="#F2F1EE"/>
<path fill-rule="evenodd" clip-rule="evenodd" d="M130.974 129.678L124.847 122.345L123.826 121.138L125.404 120.86L132.459 119.653L132.645 108.978H132.738C127.168 105.45 119.649 97.8385 117.514 95.1465C116.586 118.353 112.13 140.26 107.025 157.99C107.117 158.454 107.21 159.011 107.303 159.476C105.818 165.695 103.497 172.843 100.898 179.433H107.767C111.295 174.699 114.915 169.315 118.257 163.467C124.198 153.163 129.21 141.56 130.974 129.678ZM88.9233 179.526C85.5815 170.893 83.2609 163.189 82.7968 159.847C82.7968 159.568 82.8896 158.919 82.9824 158.083C76.763 132.556 74.071 103.965 73.3284 95.7034L73.4212 95.6106C69.0583 101.552 64.7883 104.151 57.9191 106.843C57.8263 106.843 57.7335 106.935 57.6406 106.935H57.7335L57.9191 117.796L64.974 119.003L66.552 119.282L65.5309 120.488L59.4043 127.729C62.3748 139.425 73.6069 162.632 82.2398 179.619H88.9233V179.526Z" fill="#5DA1CE"/>
<path fill-rule="evenodd" clip-rule="evenodd" d="M91.7048 108.789C94.304 108.789 96.9031 108.882 99.5023 108.882C104.608 105.076 109.713 99.0421 112.405 91.6159C112.405 90.6876 112.405 89.6665 112.312 88.7383C112.312 85.8606 112.405 82.7973 112.684 79.7341C108.785 86.9746 102.287 91.6159 93.0044 91.4303C86.4137 91.3374 80.6584 85.8606 76.9453 78.6201C77.4094 82.426 77.6879 86.0463 77.7807 89.6665C77.7807 90.0378 77.7807 90.4091 77.7807 90.6876C81.958 98.6708 85.8567 103.776 91.7048 108.789Z" fill="#EBF1F7"/>
<path fill-rule="evenodd" clip-rule="evenodd" d="M83.0729 158.081C84.5581 150.098 93.0982 120.579 93.0982 120.579L89.0138 113.895L92.0771 109.625L99.0391 109.811L102.567 113.895L98.575 120.765C100.617 131.997 104.794 146.663 107.022 158.174C112.035 140.444 116.491 118.537 117.512 95.3299C117.512 95.3299 117.512 95.3299 117.512 95.2371C115.005 91.9881 116.398 94.1232 113.52 88.832C113.242 89.8531 112.963 90.7814 112.592 91.8025C109.9 99.2287 104.702 105.262 99.6889 109.068C97.0898 109.068 94.4906 108.976 91.8915 108.976C86.0434 103.963 82.1446 98.7645 77.9674 90.9671C77.7817 90.5958 77.5961 90.3173 77.4104 89.946C76.7606 90.9671 74.44 94.6801 73.6045 95.7941L73.5117 95.8869C74.1615 103.963 76.8535 132.646 83.0729 158.081Z" fill="white"/>
<path fill-rule="evenodd" clip-rule="evenodd" d="M102.474 113.804L98.9461 109.719L91.9841 109.534L88.9208 113.804L93.0052 120.487C93.0052 120.487 84.4651 150.099 82.9799 157.989C82.7942 158.825 82.7014 159.475 82.7942 159.753C83.2584 163.095 85.579 170.8 88.9208 179.432H100.803C103.309 172.842 105.63 165.601 107.208 159.475C107.115 159.01 107.022 158.546 106.929 157.989C104.701 146.479 100.524 131.812 98.482 120.58L102.474 113.804Z" fill="#5DA1CE"/>
<path fill-rule="evenodd" clip-rule="evenodd" d="M93.0053 91.5252C102.381 91.7108 108.786 87.0695 112.685 79.829C114.077 77.3227 115.098 74.5379 115.841 71.4746C115.841 69.8965 116.305 67.2973 116.583 63.9556C116.769 61.3564 117.14 58.9429 117.697 57.0864C117.604 57.1792 117.512 57.272 117.512 57.3648C117.14 50.7741 114.913 39.3564 113.891 36.4788C111.756 34.7151 109.157 31.0948 86.7859 31.7446C84.1868 31.002 77.0391 36.386 77.0391 36.5716C76.2036 37.8712 75.1825 40.2847 74.5327 43.9978C72.3977 56.2509 73.4188 52.8163 72.769 57.3648C72.6762 57.272 72.3049 56.9007 71.9336 56.5294C71.9336 56.8079 72.0264 57.0864 72.0264 57.3648C72.4906 59.1286 72.769 61.3564 72.8619 63.6771C72.9547 65.5336 73.1403 67.1117 73.326 68.4113C74.0686 72.0315 75.3682 75.5589 77.0391 78.7151C80.6593 85.8627 86.4146 91.3395 93.0053 91.5252Z" fill="#EBF1F7"/>
<path fill-rule="evenodd" clip-rule="evenodd" d="M71.5606 56.1603C71.6534 56.2531 71.7462 56.3459 71.8391 56.4388C72.2104 56.9029 72.5817 57.1814 72.6745 57.2742C73.4171 52.7257 72.3032 56.2531 74.4382 43.9071C75.088 40.194 76.2019 37.6877 76.9446 36.481C78.4298 34.1603 113.147 40.6582 113.333 40.751C114.261 43.5358 116.118 51.6118 117.417 57.2742C117.51 57.1814 117.603 57.0886 117.603 56.9957C118.345 54.5822 119.459 53.0042 120.852 53.097C121.037 53.097 121.13 53.097 121.316 53.1898C121.78 48.1772 121.594 42.7932 121.409 37.3164C121.594 21.5358 103.864 15.3164 91.1471 16.059C68.8686 17.4514 64.6914 32.6751 68.126 53.097C70.1682 53.097 71.0965 54.5822 71.5606 56.1603Z" fill="#5DA1CE"/>
<path fill-rule="evenodd" clip-rule="evenodd" d="M113.055 40.6562C113.148 40.6562 113.24 40.7491 113.333 40.7491C113.333 40.7491 113.24 40.6562 113.055 40.6562Z" fill="white"/>
<path fill-rule="evenodd" clip-rule="evenodd" d="M72.1192 57.2709C72.0263 56.8996 71.9335 56.5283 71.7478 56.157C71.0052 54.022 70.077 52.7224 68.6846 52.8152C68.3133 52.8152 68.0348 52.908 67.7563 53.1865C65.8069 54.4861 65.1571 59.1275 66.6424 63.5831C68.4061 68.6886 69.4272 73.33 72.0263 73.1443C73.79 73.0515 73.6972 71.3806 73.4187 68.4101C73.2331 67.1106 73.0474 65.5325 72.9546 63.676C72.8618 61.1696 72.5833 59.0346 72.1192 57.2709ZM69.9841 63.676C70.3554 65.254 71.0981 65.5325 71.0981 66.8321C70.9124 72.0304 69.52 67.7604 68.7774 66.1823C67.7563 64.2329 67.4778 60.427 67.7563 58.9418C67.9419 57.4566 68.4989 54.5789 69.7057 54.6717C70.8196 54.7646 72.4905 58.6633 70.9124 60.5198C70.4483 60.984 69.6128 62.0051 69.9841 63.676Z" fill="#EBF1F7"/>
<path fill-rule="evenodd" clip-rule="evenodd" d="M69.6091 54.6736C68.4024 54.5808 67.8454 57.4584 67.6598 58.9436C67.4741 60.4289 67.7526 64.2348 68.6809 66.1841C69.5163 67.7622 70.8159 71.9394 71.0015 66.8339C71.0944 65.5343 70.3517 65.2558 69.8876 63.6778C69.5163 62.0997 70.2589 60.9858 70.7231 60.5217C72.394 58.6651 70.7231 54.6736 69.6091 54.6736Z" fill="#BED7E6"/>
<path fill-rule="evenodd" clip-rule="evenodd" d="M117.696 56.9002C117.696 56.9002 117.696 56.9931 117.696 56.9002C117.139 58.8496 116.768 61.1703 116.582 63.7694C116.397 67.204 115.84 69.7104 115.84 71.2884C115.84 72.4952 116.211 73.2378 117.325 73.2378C119.924 73.4235 121.038 68.7821 122.802 63.6766C124.473 58.8496 123.545 53.7441 121.317 53.0015C121.224 53.0015 121.038 52.9087 120.853 52.9087C119.46 53.0015 118.439 54.4867 117.696 56.9002ZM120.76 66.4614C119.924 68.0395 118.532 72.2167 118.439 67.0184C118.439 65.7188 119.182 65.4403 119.553 63.8623C119.924 62.2842 119.182 61.1703 118.717 60.7062C117.139 58.8496 118.903 54.9509 120.017 54.9509C121.224 54.858 121.781 57.8285 121.966 59.2209C122.059 60.7061 121.781 64.6049 120.76 66.4614Z" fill="#EBF1F7"/>
<path fill-rule="evenodd" clip-rule="evenodd" d="M120.019 54.9519C118.905 54.9519 117.234 58.9435 118.72 60.7072C119.091 61.1713 119.926 62.2852 119.555 63.8633C119.184 65.4414 118.441 65.7198 118.441 67.0194C118.627 72.2177 120.019 67.9477 120.762 66.4624C121.783 64.5131 122.061 60.7072 121.876 59.2219C121.69 57.7367 121.133 54.8591 120.019 54.9519Z" fill="#BED7E6"/>
<path fill-rule="evenodd" clip-rule="evenodd" d="M109.343 98.1152C92.077 101.086 80.1024 88.8325 77.0391 78.7144C80.7521 85.862 86.5074 91.3388 93.0981 91.4317C102.474 91.6173 108.879 86.976 112.777 79.7355C112.499 82.8916 112.406 85.862 112.406 88.7397C112.406 89.7608 112.406 90.689 112.499 91.6173C111.571 94.0308 110.55 96.1658 109.343 98.1152Z" fill="#BED7E6"/>
<defs>
<linearGradient id="paint0_linear" x1="95" y1="0" x2="95" y2="180" gradientUnits="userSpaceOnUse">
<stop stop-color="#8BBDDA"/>
<stop offset="1" stop-color="#D0E1EB"/>
</linearGradient>
</defs>
</svg>
