<svg width="190" height="180" viewBox="0 0 190 180" fill="none" xmlns="http://www.w3.org/2000/svg">
<path d="M0 0H190V179.742H0V0Z" fill="url(#paint0_linear)"/>
<path fill-rule="evenodd" clip-rule="evenodd" d="M135.012 113.908C135.105 113.908 135.197 113.908 135.29 114.001C135.197 114.001 135.105 114.001 135.012 113.908Z" fill="#111617"/>
<path fill-rule="evenodd" clip-rule="evenodd" d="M58.6133 112.053C58.7061 112.053 58.7989 111.96 58.8918 111.96C58.7989 111.96 58.7061 111.96 58.6133 112.053Z" fill="#111617"/>
<path fill-rule="evenodd" clip-rule="evenodd" d="M126.101 109.459C122.666 107.883 115.426 105.658 114.683 100.282C114.219 97.2231 114.219 94.2569 114.219 93.608C114.219 90.7345 114.312 87.6756 114.59 84.6167C110.691 91.8469 104.194 96.4815 94.9109 96.2961C88.3202 96.2034 82.5649 90.7345 78.8518 83.5044C79.316 87.3048 79.5944 90.9199 79.6872 94.535C79.6872 94.7203 79.6873 95.8327 79.5944 97.1304C79.4088 102.507 73.4678 106.307 68.2695 108.068C74.8988 119.653 84.0258 134.983 94.9109 135.305C105.974 135.633 118.801 120.766 126.101 109.459Z" fill="#EBF1F7"/>
<path fill-rule="evenodd" clip-rule="evenodd" d="M94.9116 96.3905C104.287 96.5759 110.692 91.9412 114.591 84.711C115.983 82.2083 117.004 79.4275 117.747 76.3686C117.747 74.7928 118.211 72.1974 118.49 68.8604C118.675 66.265 119.047 63.8549 119.604 62.0011C119.511 62.0937 119.418 62.1865 119.418 62.2792C119.047 55.6979 116.819 44.2965 115.798 41.423C113.663 39.6619 111.063 36.0468 88.6922 36.6956C86.093 35.9541 78.9453 41.3304 78.9453 41.5157C78.1099 42.8135 77.0888 45.2235 76.439 48.9312C74.304 61.1668 75.3251 57.7372 74.6753 62.2792C74.5825 62.1865 74.2112 61.8157 73.8398 61.4449C73.8398 61.723 73.9327 62.0011 73.9327 62.2792C74.3968 64.0403 74.6753 66.265 74.7681 68.5823C74.8609 70.4362 75.0466 72.012 75.2322 73.3097C75.9749 76.9248 77.2744 80.4471 78.9453 83.5987C82.5656 90.8288 88.3209 96.2051 94.9116 96.3905Z" fill="#EBF1F7"/>
<path fill-rule="evenodd" clip-rule="evenodd" d="M73.4669 61.0724C73.5597 61.1651 73.6525 61.2578 73.7453 61.3505C74.1166 61.8139 74.4879 62.092 74.5807 62.1847C75.3234 57.6427 74.2094 61.1651 76.3445 48.8368C76.9943 45.1291 78.1082 42.6263 78.8508 41.4213C80.336 39.104 115.053 45.5925 115.239 45.6852C116.167 48.466 118.024 56.5304 119.323 62.1847C119.416 62.092 119.509 61.9993 119.509 61.9066C120.252 59.4966 121.366 57.9208 122.758 58.0135C122.944 58.0135 123.036 58.0135 123.222 58.1062C123.686 53.1007 123.501 47.7245 123.315 42.2555C123.501 26.4976 105.771 20.2871 93.0533 21.0287C70.7749 22.4191 66.5976 37.6209 70.0322 58.0135C72.0744 58.0135 72.9099 59.4966 73.4669 61.0724Z" fill="#5DA1CE"/>
<path fill-rule="evenodd" clip-rule="evenodd" d="M116.912 43.3691C116.912 43.462 116.82 43.462 116.912 43.3691C116.82 43.462 116.912 43.462 116.912 43.3691Z" fill="white"/>
<path fill-rule="evenodd" clip-rule="evenodd" d="M114.961 45.5952C115.054 45.5952 115.147 45.688 115.239 45.688C115.239 45.688 115.147 45.688 114.961 45.5952Z" fill="white"/>
<path fill-rule="evenodd" clip-rule="evenodd" d="M73.9317 62.1859C73.8388 61.8151 73.746 61.4443 73.5603 61.0735C72.8177 58.9416 71.8895 57.6439 70.4971 57.7366C70.1258 57.7366 69.8473 57.8293 69.5688 58.1074C67.6194 59.4051 66.9696 64.0397 68.4549 68.4891C70.2186 73.5872 71.2397 78.2219 73.8388 78.0365C75.6025 77.9438 75.5097 76.2753 75.2312 73.3091C75.0456 72.0114 74.8599 70.4356 74.7671 68.5817C74.6743 66.1717 74.3958 63.9471 73.9317 62.1859ZM71.8895 68.5817C72.2608 70.1575 73.0034 70.4356 73.0034 71.7333C72.8177 76.9242 71.4253 72.6603 70.6827 71.0845C69.6616 69.1379 69.3831 65.3375 69.6616 63.8544C69.8472 62.3713 70.4042 59.4978 71.611 59.5905C72.7249 59.6832 74.3958 63.5763 72.8177 65.4302C72.2608 65.8936 71.5182 67.006 71.8895 68.5817Z" fill="#EBF1F7"/>
<path fill-rule="evenodd" clip-rule="evenodd" d="M71.5154 59.5925C70.3086 59.4998 69.7517 62.3733 69.566 63.8564C69.3804 65.3395 69.6588 69.14 70.5871 71.0865C71.4225 72.6623 72.7221 76.8335 72.9078 71.7354C73.0006 70.4377 72.258 70.1596 71.7938 68.5838C71.4225 67.008 72.1652 65.8957 72.6293 65.4322C74.3002 63.5783 72.6293 59.6852 71.5154 59.5925Z" fill="#BED7E6"/>
<path fill-rule="evenodd" clip-rule="evenodd" d="M119.509 61.9058C118.952 63.8523 118.581 66.1697 118.395 68.7651C118.209 72.1948 117.652 74.6975 117.652 76.2733C117.652 77.4783 118.024 78.2199 119.138 78.2199C121.737 78.4053 122.851 73.7706 124.614 68.6724C126.285 63.8523 125.357 58.7542 123.129 58.0126C123.036 58.0126 122.851 57.9199 122.665 57.9199C121.365 57.9199 120.252 59.403 119.509 61.9058ZM122.665 71.4532C121.83 73.029 120.437 77.2002 120.344 72.0094C120.344 70.7117 121.087 70.4336 121.458 68.8578C121.83 67.282 121.087 66.1697 120.623 65.7062C119.045 63.8523 120.808 59.9592 121.922 59.9592C123.129 59.8665 123.686 62.8327 123.872 64.2231C123.965 65.6135 123.686 69.5067 122.665 71.4532Z" fill="#EBF1F7"/>
<path fill-rule="evenodd" clip-rule="evenodd" d="M121.922 59.8677C120.808 59.8677 119.137 63.8535 120.622 65.6147C120.993 66.0782 121.829 67.1905 121.457 68.7663C121.086 70.3421 120.344 70.6202 120.344 71.9179C120.529 77.1087 121.922 72.8448 122.664 71.3617C123.685 69.4151 123.964 65.6147 123.778 64.1316C123.592 62.7412 123.035 59.8677 121.922 59.8677Z" fill="#BED7E6"/>
<path fill-rule="evenodd" clip-rule="evenodd" d="M116.354 103.805C99.4591 106.03 81.9149 93.5163 78.8516 83.598C78.8516 83.6907 78.9444 83.6907 78.9444 83.7834C78.9444 83.8761 79.0372 83.8761 79.0372 83.9688L79.13 84.0615L79.2228 84.2469V84.3396L79.3157 84.4323C79.3157 84.525 79.4085 84.525 79.4085 84.6177C79.4085 84.7104 79.5014 84.7103 79.5014 84.803L79.5942 84.8957L79.687 84.9884L79.7798 85.0811V85.1738L79.8726 85.2665L79.9655 85.3592L80.0583 85.5446L80.1511 85.6373V85.73L80.244 85.8227L80.3368 85.9154V86.0081L80.4296 86.1007V86.1934L80.5224 86.2861L80.6152 86.3788V86.4715L80.7081 86.5642L80.8009 86.6569L80.8938 86.7496L80.9866 86.8423L81.0794 86.935L81.1722 87.0277L81.265 87.1204L81.3579 87.2131L81.4507 87.3058L81.5435 87.3985C81.5435 87.3985 81.5435 87.3985 81.6364 87.4912L81.7292 87.5839L81.822 87.6766L81.9148 87.7693L82.0076 87.8619L82.1005 87.9546L82.1933 88.0473L82.2862 88.14L82.379 88.2327L82.4718 88.3254L82.5646 88.4181L82.6574 88.5108H82.7503L82.8431 88.6035H82.9359L83.0288 88.6962L83.1216 88.7889H83.2144H83.3072L83.4001 88.8816H83.4929L83.5857 88.9743C83.5857 88.9743 83.6786 88.9743 83.6786 89.067L83.7714 89.1597C83.7714 89.1597 83.7714 89.1597 83.8642 89.1597L83.957 89.2524L84.0499 89.345H84.1427H84.2355H84.3283H84.4212H84.514L84.6068 89.4377H84.6997H84.7925H84.8853H84.9781H85.071H85.1638H85.2566H85.3495H85.4423H85.5351H85.6279H85.7207H85.8136H85.9064H85.9993H86.0921H86.1849C86.2777 89.4377 86.2777 89.4377 86.3705 89.4377H86.4634C86.5562 89.4377 86.5562 89.4377 86.649 89.4377C86.7418 89.4377 86.7418 89.4377 86.8347 89.4377H86.9275C87.0204 89.4377 87.1132 89.4377 87.206 89.4377C87.2988 89.4377 87.2988 89.4377 87.3917 89.4377C87.4845 89.4377 87.5773 89.4377 87.6701 89.4377C87.763 89.4377 87.8558 89.4377 87.9486 89.4377C88.0414 89.4377 88.1342 89.4377 88.2271 89.4377C97.6026 89.6231 104.008 84.9884 107.906 77.7583C107.628 80.9099 107.535 83.8761 107.535 86.7496C107.535 87.3985 114.036 85.73 114.5 88.7889C114 98.3586 115.425 102.786 116.354 103.805Z" fill="#BED7E6"/>
<path fill-rule="evenodd" clip-rule="evenodd" d="M73.9346 58.3836C74.8629 58.1055 75.327 58.0128 76.4409 57.6421C82.6603 55.7882 90.5506 56.6224 94.1709 58.569C94.8207 58.9398 95.7489 59.0325 96.6772 59.0325C97.6055 59.0325 98.6265 58.9398 99.1835 58.569C102.711 56.5297 110.601 55.7882 116.913 57.6421C117.749 57.9201 118.492 58.1055 119.141 58.2909C119.42 59.1251 119.605 60.4229 118.956 62.2767L117.006 62.3694C117.006 62.3694 116.542 64.0379 114.593 66.5407C112.643 69.0434 104.66 68.858 102.154 68.2091C99.6476 67.653 97.5126 61.9987 97.5126 61.9987C96.9557 61.906 96.5843 61.906 95.9345 61.9987C95.9345 61.9987 93.7067 67.653 91.2932 68.2091C88.7869 68.7653 80.8038 69.0434 78.8544 66.5407C76.905 64.0379 76.4409 62.3694 76.4409 62.3694C75.6983 61.1644 75.1413 60.7937 73.7489 60.979C73.5633 58.6617 73.6561 60.2375 73.9346 58.3836ZM99.2764 60.2375C99.462 58.2909 115.614 55.4174 115.707 59.9594C115.8 62.8329 115.335 65.7064 113.108 67.0041C111.715 67.7457 109.487 68.0238 106.146 68.1164C97.2341 68.3018 99.2764 60.2375 99.2764 60.2375ZM94.078 60.2375C93.7067 58.0128 77.7405 55.6028 77.6477 59.9594C77.5548 62.8329 78.019 65.7064 80.2468 67.0041C81.6392 67.7457 83.8671 68.0238 87.2088 68.1164C96.2131 68.3018 94.078 60.3302 94.078 60.2375Z" fill="#5DA1CE"/>
<path fill-rule="evenodd" clip-rule="evenodd" d="M75.3242 75.2598C75.417 75.5378 80.4297 85.9196 82.936 82.2118C85.5351 78.504 91.7546 75.3524 93.0542 75.9086C96.0246 76.7428 97.8812 76.4648 100.666 75.9086C102.058 75.3524 108.278 78.504 110.784 82.2118C113.383 85.9196 117.746 76.094 117.839 75.9086C117.096 80.8214 117.375 83.7876 114.404 88.8857C109.206 94.3547 104.286 97.8771 98.8094 98.0625C98.1597 98.0625 97.417 98.0625 96.7672 98.0625C96.1174 98.0625 95.4676 98.1551 94.725 98.0625C89.2482 97.9698 82.6575 93.4277 79.2229 88.6077C76.4381 81.4702 76.3453 81.5629 75.3242 75.2598ZM87.2061 83.2314L89.1554 85.2707C91.7546 88.0515 91.1976 89.9054 96.3031 90.2761C96.4888 90.2761 96.7672 90.2761 96.9529 90.2761C97.1386 90.2761 97.3242 90.2761 97.6027 90.2761C102.801 89.9054 102.244 88.0515 104.75 85.2707L106.7 83.2314C100.48 78.9675 93.6111 78.9675 87.2061 83.2314Z" fill="#5DA1CE"/>
<path d="M72.5 105.848C96.5 133.309 115.5 108.677 120.5 105.848C119.333 113.171 110.9 133.708 96.5 133.309C82.1 132.909 74.6667 112.838 72.5 105.848Z" fill="white"/>
<path fill-rule="evenodd" clip-rule="evenodd" d="M170.844 180L166.481 139.864C165.274 132.355 163.418 126.145 156.549 121.603C146.43 114.836 126.565 109.831 119.139 105.474C115.197 117.514 104.983 130.866 95.151 130.313C85.0738 129.746 75.397 115.003 73.2827 105.104C64.557 108.255 41.1645 113.817 32.346 121.788C30.0253 123.828 27.9831 130.038 27.4262 132.541L20 180H170.844Z" fill="#569AC6"/>
<path fill-rule="evenodd" clip-rule="evenodd" d="M128.105 109.101C124.405 127.338 111.51 140.798 96.171 140.798C80.4837 140.798 67.353 126.721 64 107.853C64.4643 107.711 64.9214 107.571 65.3703 107.434C68.6114 106.442 71.4278 105.581 73.4537 104.849C75.568 114.749 85.2447 129.492 95.322 130.059C105.154 130.611 115.368 117.259 119.31 105.22C121.413 106.453 124.512 107.739 128.105 109.101Z" fill="#5DA1CE"/>
<defs>
<linearGradient id="paint0_linear" x1="95" y1="0" x2="95" y2="179.742" gradientUnits="userSpaceOnUse">
<stop stop-color="#8BBDDA"/>
<stop offset="1" stop-color="#D0E1EB"/>
</linearGradient>
</defs>
</svg>
