<svg width="190" height="180" viewBox="0 0 190 180" fill="none" xmlns="http://www.w3.org/2000/svg">
<path d="M0 0H190V180H0V0Z" fill="url(#paint0_linear)"/>
<path fill-rule="evenodd" clip-rule="evenodd" d="M131.926 112.854C132.019 112.854 132.111 112.854 132.204 112.947C132.019 112.854 132.019 112.854 131.926 112.854Z" fill="#111617"/>
<path fill-rule="evenodd" clip-rule="evenodd" d="M55.5312 110.907C55.6241 110.907 55.7169 110.814 55.8097 110.814C55.7169 110.907 55.6241 110.907 55.5312 110.907Z" fill="#111617"/>
<path fill-rule="evenodd" clip-rule="evenodd" d="M122 109.5C118.565 107.922 116 104.5 111.507 99.1191C111.043 96.0558 111.043 93.0853 111.043 92.4355C111.043 89.5579 111.136 86.4946 111.414 83.4313C107.516 90.6718 101.018 95.3132 91.7351 95.1275C85.1444 95.0347 79.3891 89.5579 75.676 82.3174C76.1401 86.1233 76.4186 89.7436 76.5115 93.3638C76.5115 93.5495 76.5115 94.6634 76.4187 95.963C69.5 105.5 70.2921 106.153 65.0938 107.917C78.4608 131.309 107.519 132.057 122 109.5Z" fill="#EBF1F7"/>
<path fill-rule="evenodd" clip-rule="evenodd" d="M91.7358 95.222C101.111 95.4076 107.516 90.7663 111.415 83.5257C112.807 81.0194 113.829 78.2346 114.571 75.1713C114.571 73.5933 115.035 70.9941 115.314 67.6523C115.499 65.0532 115.871 62.6397 116.428 60.7831C116.335 60.876 116.242 60.9688 116.242 61.0617C115.871 54.4709 113.643 43.0532 112.622 40.1756C110.487 38.4119 107.888 34.7916 85.5164 35.4414C82.9172 34.6987 75.7695 40.0827 75.7695 40.2684C74.9341 41.568 73.913 43.9815 73.2632 47.6945C71.1282 59.9477 72.1493 56.5131 71.4995 61.0617C71.4066 60.9688 71.0354 60.5975 70.6641 60.2262C70.6641 60.5047 70.7569 60.7832 70.7569 61.0617C71.221 62.8254 71.4995 65.0532 71.5923 67.3739C71.6852 69.2304 71.8708 70.8085 72.0565 72.108C72.7991 75.7283 74.0987 79.2557 75.7695 82.4119C79.3898 89.6524 85.1451 95.1292 91.7358 95.222Z" fill="#EBF1F7"/>
<path fill-rule="evenodd" clip-rule="evenodd" d="M70.2921 59.8533C70.385 59.9461 70.4778 60.039 70.5706 60.1318C70.9419 60.5959 71.3132 60.8744 71.4061 60.9672C72.1487 56.4187 71.0348 59.9461 73.1698 47.6001C73.8196 43.8871 75.5 40.1291 76 40.5C109.789 65.5633 111.879 44.3512 112.064 44.444C112.993 47.2288 114.849 55.3047 116.149 60.9672C116.242 60.8744 116.334 60.7815 116.334 60.6887C117.077 58.2752 118.191 56.6971 119.583 56.79C119.769 56.79 119.862 56.79 120.047 56.8828C120.512 51.8702 120.326 46.4862 120.14 41.0094C120.326 25.2288 103.524 15.2963 90.8069 16.039C68.5285 17.4314 63.4229 36.368 66.8575 56.79C68.8997 56.8828 69.828 58.368 70.2921 59.8533Z" fill="#5DA1CE"/>
<path fill-rule="evenodd" clip-rule="evenodd" d="M111.785 44.4434C111.878 44.4434 111.971 44.5362 112.064 44.5362C112.064 44.4433 111.971 44.4434 111.785 44.4434Z" fill="white"/>
<path fill-rule="evenodd" clip-rule="evenodd" d="M70.8457 61.0581C70.7529 60.6868 70.6601 60.3154 70.4744 59.9441C69.7318 57.8091 68.8035 56.5095 67.4111 56.6023C67.0398 56.6023 66.7613 56.6952 66.4829 56.9736C64.5335 58.2732 63.8837 62.9146 65.3689 67.3703C67.1326 72.4758 68.1537 77.1171 70.7529 76.9315C72.5166 76.8386 72.4238 75.1678 72.1453 72.1973C71.9596 70.8977 71.774 69.3196 71.6811 67.4631C71.5883 64.9568 71.3099 62.8218 70.8457 61.0581ZM68.7107 67.3703C69.082 68.9483 69.8246 69.2268 69.8246 70.5264C69.6389 75.7247 68.2465 71.4547 67.5039 69.8766C66.4828 67.9273 66.2044 64.1213 66.4829 62.6361C66.6685 61.1508 67.2254 58.2732 68.4322 58.3661C69.5461 58.4589 71.217 62.3576 69.6389 64.2141C69.1748 64.6783 68.3394 65.7922 68.7107 67.3703Z" fill="#EBF1F7"/>
<path fill-rule="evenodd" clip-rule="evenodd" d="M68.3435 58.4607C67.1368 58.3679 66.5798 61.2455 66.3941 62.7308C66.2085 64.216 66.487 68.0219 67.4153 69.9713C68.2507 71.5493 69.5503 75.7265 69.7359 70.6211C69.8288 69.3215 69.0861 69.043 68.622 67.4649C68.2507 65.8869 68.9933 64.773 69.4575 64.3088C71.1284 62.3595 69.4575 58.4607 68.3435 58.4607Z" fill="#BED7E6"/>
<path fill-rule="evenodd" clip-rule="evenodd" d="M116.427 60.6874C115.87 62.6367 115.499 64.9574 115.313 67.5566C115.127 70.9912 114.57 73.4975 114.57 75.0755C114.57 76.2823 114.942 77.0249 116.056 77.0249C118.655 77.2105 119.769 72.5692 121.532 67.4637C123.203 62.6367 122.275 57.5312 120.047 56.7886C119.954 56.7886 119.769 56.6958 119.583 56.6958C118.191 56.6958 117.169 58.2738 116.427 60.6874ZM119.49 70.2485C118.655 71.8266 117.262 76.0038 117.169 70.8055C117.169 69.5059 117.912 69.2274 118.283 67.6494C118.655 66.0713 117.912 64.9574 117.448 64.4932C115.87 62.6367 117.634 58.738 118.748 58.738C119.954 58.6452 120.511 61.6156 120.697 63.008C120.883 64.4933 120.511 68.2992 119.49 70.2485Z" fill="#EBF1F7"/>
<path fill-rule="evenodd" clip-rule="evenodd" d="M118.746 58.739C117.632 58.739 115.961 62.7305 117.446 64.4942C117.817 64.9584 118.653 66.0723 118.282 67.6504C117.91 69.2284 117.168 69.5069 117.168 70.8065C117.353 76.0048 118.746 71.7348 119.488 70.2495C120.509 68.3002 120.788 64.4943 120.602 63.009C120.509 61.5238 119.953 58.6462 118.746 58.739Z" fill="#BED7E6"/>
<path fill-rule="evenodd" clip-rule="evenodd" d="M113.182 102.646C96.2873 104.874 78.743 92.3427 75.6797 82.4102C75.6797 82.503 75.7725 82.503 75.7725 82.5958C75.7725 82.6886 75.8654 82.6886 75.8654 82.7815L75.9582 82.8743L76.051 83.0599V83.1528L76.1438 83.2456C76.1438 83.3384 76.2367 83.3384 76.2367 83.4313C76.2367 83.5241 76.3295 83.5241 76.3295 83.6169L76.4223 83.7097L76.5152 83.8026L76.608 83.8954V83.9882L76.7008 84.0811L76.7936 84.1739L76.8865 84.3595L76.9793 84.4523V84.5452L77.0721 84.638L77.165 84.7309V84.8237L77.2578 84.9165V85.0093L77.3506 85.1021L77.4434 85.195V85.2878L77.5362 85.3806L77.6291 85.4735L77.7219 85.5663L77.8148 85.6591L77.9076 85.7519L78.0004 85.8447L78.0932 85.9376L78.186 86.0304C78.186 86.0304 78.1861 86.1233 78.2789 86.1233L78.3717 86.2161C78.3717 86.2161 78.3717 86.2161 78.4645 86.3089L78.5574 86.4017L78.6502 86.4945L78.743 86.5874L78.8358 86.6802L78.9286 86.773L79.0215 86.8659H79.1143L79.2072 86.9587L79.3 87.0515L79.3928 87.1443L79.4856 87.2371H79.5784L79.6713 87.33H79.7641L79.8569 87.4228L79.9498 87.5157H80.0426H80.1354L80.2282 87.6085H80.321L80.4139 87.7013C80.4139 87.7013 80.5067 87.7013 80.5067 87.7941L80.5996 87.8869C80.5996 87.8869 80.5995 87.8869 80.6924 87.8869L80.7852 87.9798L80.878 88.0726H80.9708H81.0637H81.1565H81.2493H81.3422L81.435 88.1654H81.5278H81.6206H81.7134H81.8063H81.8991H81.992H82.0848H82.1776H82.2704H82.3632H82.4561H82.5489H82.6417H82.7346H82.8274H82.9202H83.013C83.1059 88.1654 83.1059 88.1654 83.1987 88.1654H83.2915C83.3843 88.1654 83.3844 88.1654 83.4772 88.1654C83.57 88.1654 83.57 88.1654 83.6628 88.1654H83.7556C83.8485 88.1654 83.9413 88.1654 84.0341 88.1654C84.1269 88.1654 84.127 88.1654 84.2198 88.1654C84.3126 88.1654 84.4054 88.1654 84.4983 88.1654C84.5911 88.1654 84.684 88.1654 84.7768 88.1654C84.8696 88.1654 84.9624 88.1654 85.0553 88.1654C94.4308 88.3511 100.836 83.7097 104.735 76.4692C104.456 79.6254 104.363 82.5958 104.363 85.4735C104.363 86.1233 104.363 89.0937 104.827 92.157C111.697 100.511 112.346 101.625 113.182 102.646Z" fill="#BED7E6"/>
<path d="M114.85 102.459C117.263 105.522 121.255 108.121 125.71 110.164C120.326 118.24 113.271 125.109 105.103 130.307L101.39 125.851L93.0352 115.826C101.854 114.712 109.744 109.792 114.85 102.459Z" fill="#569AC6"/>
<path d="M105.102 130.307C113.364 125.202 120.419 118.332 125.71 110.164C131.837 113.041 138.984 115.176 144.461 116.476C165.161 121.581 165.161 166.417 165.161 179.505H100.275L96.9336 135.134L101.389 125.944L105.102 130.307Z" fill="#5DA1CE"/>
<path d="M101.386 125.943L96.9298 135.133H89.2252L84.7695 125.943L93.0311 115.917L101.386 125.943Z" fill="white"/>
<path d="M96.9371 135.135L100.279 179.506H85.8906L89.2324 135.135H96.9371Z" fill="white"/>
<path d="M84.7738 125.945L81.0607 130.401C72.7991 125.295 65.7443 118.426 60.4531 110.257C64.9088 108.122 68.9004 105.616 71.3139 102.553C76.4194 109.793 84.3097 114.806 93.1282 116.013L84.7738 125.945Z" fill="#569AC6"/>
<path d="M21 179.505C21 166.324 20.9072 121.488 41.6076 116.476C47.1772 115.083 54.232 113.041 60.3586 110.164C65.7426 118.24 72.7975 125.109 80.9662 130.307L84.6793 125.851L89.135 135.041L85.7932 179.413H21V179.505Z" fill="#5DA1CE"/>
<defs>
<linearGradient id="paint0_linear" x1="95" y1="0" x2="95" y2="180" gradientUnits="userSpaceOnUse">
<stop stop-color="#8BBDDA"/>
<stop offset="1" stop-color="#D0E1EB"/>
</linearGradient>
</defs>
</svg>
