<svg width="546" height="143" viewBox="0 0 546 143" fill="none" xmlns="http://www.w3.org/2000/svg">
    <g opacity="0.35">
        <line x1="545.996" y1="8.25" x2="0.996094" y2="8.24995" stroke="#F57A49" stroke-width="2.5"/>
        <line x1="545.996" y1="1.25" x2="0.996094" y2="1.24995" stroke="#F26A43" stroke-width="2.5"/>
        <line x1="545.996" y1="15.25" x2="0.996094" y2="15.25" stroke="#F88A50" stroke-width="2.5"/>
        <line x1="545.996" y1="22.25" x2="0.996094" y2="22.25" stroke="#FA9957" stroke-width="2.5"/>
        <line x1="545.996" y1="29.25" x2="0.996094" y2="29.25" stroke="#FCA95F" stroke-width="2.5"/>
        <line x1="545.996" y1="36.25" x2="0.996094" y2="36.25" stroke="#FDB668" stroke-width="2.5"/>
        <line x1="545.996" y1="43.25" x2="0.996094" y2="43.25" stroke="#FDC272" stroke-width="2.5"/>
        <line x1="545.996" y1="50.25" x2="0.996094" y2="50.25" stroke="#FDCF7C" stroke-width="2.5"/>
        <line x1="545.996" y1="64.25" x2="0.996094" y2="64.2499" stroke="#FEE492" stroke-width="2.5"/>
        <line x1="545.996" y1="57.25" x2="0.996094" y2="57.25" stroke="#FDDB86" stroke-width="2.5"/>
        <line x1="545.996" y1="71.25" x2="0.996094" y2="71.2499" stroke="#FEEB9F" stroke-width="2.5"/>
        <line x1="545.996" y1="78.25" x2="0.996094" y2="78.2499" stroke="#FEF3AB" stroke-width="2.5"/>
        <line x1="545.996" y1="92.25" x2="0.996094" y2="92.2499" stroke="#EFF8A7" stroke-width="2.5"/>
        <line x1="545.996" y1="85.25" x2="0.996094" y2="85.2499" stroke="#F6FBB0" stroke-width="2.5"/>
        <line x1="545.996" y1="106.25" x2="0.996094" y2="106.25" stroke="#E0F299" stroke-width="2.5"/>
        <line x1="545.996" y1="99.25" x2="0.996094" y2="99.2499" stroke="#E9F69E" stroke-width="2.5"/>
        <line x1="545.996" y1="113.25" x2="0.996094" y2="113.25" stroke="#D2ED9B" stroke-width="2.5"/>
        <line x1="545.996" y1="120.25" x2="0.996094" y2="120.25" stroke="#B6E1A1" stroke-width="2.5"/>
        <line x1="545.996" y1="134.25" x2="0.996094" y2="134.25" stroke="#96D4A4" stroke-width="2.5"/>
        <line x1="545.996" y1="127.25" x2="0.996094" y2="127.25" stroke="#A7DBA4" stroke-width="2.5"/>
        <line x1="545.996" y1="141.25" x2="0.996094" y2="141.25" stroke="#85CEA4" stroke-width="2.5"/>
    </g>
</svg>
