<?xml version="1.0" encoding="UTF-8"?><svg id="Layer_2" xmlns="http://www.w3.org/2000/svg" viewBox="0 0 426.258 76.287"><defs><style>.cls-1{fill:#fff;}.cls-2{fill:#64efe3;}</style></defs><g id="Layer_1-2"><g><g><path class="cls-2" d="M270.91,31.382h0c-1.071-1.201-1.768-2.538-2.204-3.94-.433-1.469-.6-5.007-.6-10.583,0-4.943-.567-8.479-1.605-10.653-.965-2.202-2.666-3.771-4.969-4.739-2.306-.968-5.538-1.467-9.821-1.467h-2.1V9.29c3.338,0,5.411,.267,6.212,.734,.769,.5,1.333,1.227,1.499,1.892,.233,.668,.515,2.553,.602,7.779,.077,4.642,.366,7.746,.668,9.383,.301,1.701,.933,3.238,1.84,4.708,.898,1.402,2.5,2.836,4.738,4.37-2.137,1.204-3.708,2.672-4.676,4.308-.97,1.707-1.636,3.474-2.001,5.41-.301,1.904-.387,6.245-.738,13.02-.124,2.403-.499,3.97-1.27,4.709-.867,.762-3.139,1.383-6.876,1.383v9.299h2.174c3.672,0,6.506-.331,8.511-.932,2.031-.703,3.672-1.738,4.94-3.177,1.265-1.469,2.066-3.306,2.369-5.44,.3-2.174,.502-5.507,.502-9.947,0-5.844,.737-9.655,2.17-11.319,1.468-1.734,3.609-2.571,6.516-2.571v-9.551c-2.906-.13-4.844-.735-5.881-1.968"/><path class="cls-2" d="M5.881,44.905h0c1.071,1.201,1.768,2.538,2.204,3.94,.433,1.469,.6,5.007,.6,10.583,0,4.943,.567,8.479,1.605,10.653,.965,2.202,2.666,3.771,4.969,4.739,2.306,.968,5.538,1.467,9.821,1.467h2.1s0-9.29,0-9.29c-3.338,0-5.411-.267-6.212-.734-.769-.5-1.333-1.227-1.499-1.892-.233-.668-.515-2.553-.602-7.779-.077-4.642-.366-7.746-.668-9.383-.301-1.701-.933-3.238-1.84-4.708-.898-1.402-2.5-2.836-4.738-4.37,2.137-1.204,3.708-2.672,4.676-4.308,.97-1.707,1.636-3.474,2.001-5.41,.301-1.904,.387-6.245,.738-13.02,.124-2.403,.499-3.97,1.27-4.709,.867-.762,3.139-1.383,6.876-1.383V0s-2.174,0-2.174,0c-3.672,0-6.506,.331-8.511,.932-2.031,.703-3.672,1.738-4.94,3.177-1.265,1.469-2.066,3.306-2.369,5.44-.3,2.174-.502,5.507-.502,9.947,0,5.844-.737,9.655-2.17,11.319C5.048,32.55,2.906,33.386,0,33.386v9.551c2.906,.13,4.844,.735,5.881,1.968"/><g><path class="cls-1" d="M146.91,60.797c-12.975,0-23.531-10.556-23.531-23.53s10.556-23.531,23.531-23.531,23.531,10.556,23.531,23.531c0,.914-.009,1.192-.108,2.064l-.028,.248-33.01,.951v-.674l2.939-.997c7.441-2.521,18.629-6.311,19.577-7.194-1.909-5.058-7.084-8.452-12.9-8.452-7.75,0-14.054,6.305-14.054,14.054s6.304,14.053,14.054,14.053c4.977,0,9.482-2.548,12.05-6.818l.084-.139h10.304l-.127,.379c-3.217,9.603-12.183,16.055-22.311,16.055"/><path class="cls-1" d="M53.502,60.797c-12.975,0-23.531-10.556-23.531-23.53s10.556-23.531,23.531-23.531,23.53,10.556,23.53,23.531c0,.916-.009,1.194-.108,2.064l-.028,.248-33.01,.951v-.674s2.936-.996,2.936-.996c7.442-2.522,18.632-6.313,19.58-7.196-1.909-5.058-7.085-8.452-12.9-8.452-7.75,0-14.054,6.305-14.054,14.054s6.304,14.053,14.054,14.053c4.977,0,9.481-2.548,12.05-6.818l.084-.139h10.304l-.127,.379c-3.217,9.603-12.183,16.055-22.311,16.055"/><polygon class="cls-1" points="101.007 40.656 88.838 15.269 74.886 15.269 100.377 60.797 100.902 60.797 125.24 15.269 112.127 15.269 101.007 40.656"/><path class="cls-1" d="M234.519,61.045c-4.329,0-6.989-1.336-9.806-3.971-2.848-2.622-4.293-6.063-4.293-10.227l.037-22.206h-7.893V15.361h7.936L230.295,.207h.679l.037,15.155h13.106v9.279h-13.106l-.037,20.799c0,3.988,1.272,6.275,4.609,6.275,2.312,0,4.41-.719,5.755-2.198l.056-.062,5.371,5.371-.037,.055c-2.928,4.32-6.804,6.164-12.209,6.164"/><path class="cls-1" d="M191.316,60.703c-6.292,.02-12.969-2.262-17.049-6.911l4.783-6.413c10.075,10.795,25.5,3.039,16.902-3.967-1.87-1.274-6.2-2.557-8.006-3.056-6.419-2.012-11.366-6.14-11.722-12.589,.017-5.073,2.648-9.521,7.333-11.958,7.332-3.591,18.168-2.317,24.592,2.751l-4.367,6.805c-3.486-3.171-9.963-5.303-14.009-2.531-2.929,2.026-3.617,5.631-.321,7.536,4.098,2.706,13.467,3.857,16.888,7.511,1.926,1.962,2.902,4.563,2.902,7.73-.116,9.733-7.786,15.282-17.926,15.092Z"/></g><g><path class="cls-1" d="M279.093,76.122c-.081,0-.122-.041-.122-.122v-6.806c0-.049-.024-.074-.073-.074h-2.171c-.081,0-.122-.041-.122-.123v-1.059c0-.082,.041-.123,.122-.123h5.928c.081,0,.122,.041,.122,.123v1.059c0,.082-.041,.123-.122,.123h-2.171c-.049,0-.073,.025-.073,.074v6.806c0,.081-.041,.122-.122,.122h-1.196Z"/><path class="cls-1" d="M284.513,67.951c0-.081,.041-.123,.122-.123h1.086c.105,0,.175,.041,.207,.123l2.281,5.11h.049l2.244-5.11c.032-.081,.101-.123,.207-.123h1.073c.081,0,.122,.041,.122,.123v8.05c0,.081-.041,.122-.122,.122h-1.061c-.081,0-.122-.041-.122-.122v-5.074h-.049l-1.757,3.903c-.049,.106-.126,.158-.232,.158h-.707c-.106,0-.183-.052-.232-.158l-1.757-3.903h-.049v5.074c0,.081-.041,.122-.122,.122h-1.061c-.081,0-.122-.041-.122-.122v-8.05Z"/></g></g><g><path class="cls-2" d="M295.398,49.759V29.136h-5.288v-7.714h5.288V10.665h9.551v10.757h11.208v7.714h-11.208v19.214c0,3.487,1.894,4.897,5.131,4.897,2.131,0,4.025-.445,5.92-1.335v7.344c-2.368,1.262-4.973,2.003-8.604,2.003-7.025,0-11.998-2.893-11.998-11.498Z"/><path class="cls-2" d="M322.705,49.314v-.149c0-8.457,7.025-12.611,17.207-12.611,4.657,0,7.972,.667,11.208,1.632v-.965c0-5.564-3.631-8.531-10.34-8.531-4.657,0-8.13,.964-11.919,2.448l-2.526-7.048c4.578-1.929,9.077-3.189,15.708-3.189,6.236,0,10.892,1.557,13.813,4.377,3.078,2.819,4.499,6.973,4.499,12.092v23.219h-9.314v-4.897c-2.841,3.19-7.183,5.713-13.576,5.713-7.814,0-14.76-4.228-14.76-12.092Zm28.573-2.819v-2.671c-2.447-.89-5.683-1.558-9.472-1.558-6.157,0-9.788,2.448-9.788,6.529v.148c0,3.784,3.552,5.935,8.13,5.935,6.315,0,11.129-3.413,11.129-8.383Z"/><path class="cls-2" d="M368.797,6.436h9.551V60.59h-9.551V6.436Z"/><path class="cls-2" d="M387.266,6.436h9.55V38.78l17.286-17.359h11.603l-16.576,15.949,17.128,23.219h-11.208l-12.313-16.988-5.92,5.787v11.202h-9.55V6.436Z"/></g></g></g></svg>