<?xml version="1.0" encoding="UTF-8"?><svg id="Layer_2" xmlns="http://www.w3.org/2000/svg" xmlns:xlink="http://www.w3.org/1999/xlink" viewBox="0 0 540.381 267.102"><defs><style>.cls-1{fill:url(#linear-gradient-2);}.cls-2{opacity:.5;}.cls-3{fill:url(#linear-gradient-5);}.cls-4{fill:url(#linear-gradient-3);}.cls-5{fill:url(#linear-gradient);}.cls-6{fill:url(#linear-gradient-4);}</style><linearGradient id="linear-gradient" x1="3" y1="133.551" x2="537.381" y2="133.551" gradientUnits="userSpaceOnUse"><stop offset="0" stop-color="#fff"/><stop offset="1" stop-color="#f7f7f7"/></linearGradient><linearGradient id="linear-gradient-2" x1="540.381" y1="133.551" x2="0" y2="133.551" xlink:href="#linear-gradient"/><linearGradient id="linear-gradient-3" x1="226.027" y1="104.723" x2="537.391" y2="104.723" gradientUnits="userSpaceOnUse"><stop offset="0" stop-color="#42135b" stop-opacity="0"/><stop offset=".825" stop-color="#42135b" stop-opacity=".158"/><stop offset="1" stop-color="#42135b" stop-opacity=".2"/></linearGradient><linearGradient id="linear-gradient-4" y1="163.674" y2="163.674" xlink:href="#linear-gradient-3"/><linearGradient id="linear-gradient-5" y1="222.624" y2="222.624" xlink:href="#linear-gradient-3"/></defs><g id="Layer_1-2"><g><g><rect class="cls-5" x="3" y="3" width="534.381" height="261.102" rx="13.971" ry="13.971"/><path class="cls-1" d="M523.41,3c7.716,0,13.971,6.255,13.971,13.971V250.132c0,7.716-6.255,13.971-13.971,13.971H16.97c-7.715,0-13.97-6.255-13.97-13.971V16.971c0-7.716,6.255-13.971,13.97-13.971h506.44m0-3H16.97C7.613,0,0,7.613,0,16.971V250.132c0,9.358,7.613,16.971,16.97,16.971h506.44c9.357,0,16.971-7.613,16.971-16.971V16.971c0-9.358-7.613-16.971-16.971-16.971h0Z"/></g><g class="cls-2"><rect class="cls-4" x="226.027" y="89.986" width="311.364" height="29.475"/><rect class="cls-6" x="226.027" y="148.936" width="311.364" height="29.475"/><rect class="cls-3" x="226.027" y="207.887" width="311.364" height="29.475"/></g></g></g></svg>