<?xml version="1.0" encoding="UTF-8"?><svg id="Layer_2" xmlns="http://www.w3.org/2000/svg" viewBox="0 0 467.111 74.892"><defs><style>.cls-1{fill:#fff;}.cls-2{fill:#022a3a;}</style></defs><g id="Layer_1-2"><g><rect class="cls-2" width="467.111" height="74.892" rx="16.197" ry="16.197"/><g><path class="cls-1" d="M59.678,43.583l2.982-3.573c2.065,1.705,4.229,2.786,6.851,2.786,2.064,0,3.311-.819,3.311-2.163v-.065c0-1.278-.787-1.934-4.622-2.917-4.621-1.18-7.604-2.458-7.604-7.015v-.065c0-4.162,3.343-6.915,8.03-6.915,3.343,0,6.194,1.049,8.521,2.917l-2.622,3.802c-2.032-1.409-4.031-2.262-5.965-2.262s-2.95,.885-2.95,1.999v.066c0,1.507,.983,1.999,4.949,3.015,4.654,1.213,7.276,2.885,7.276,6.883v.066c0,4.556-3.475,7.112-8.424,7.112-3.474,0-6.98-1.213-9.734-3.671Z"/><path class="cls-1" d="M81.707,22.999h4.982v8.85c1.146-1.475,2.622-2.818,5.146-2.818,3.77,0,5.965,2.491,5.965,6.522v11.373h-4.981v-9.8c0-2.36-1.114-3.573-3.016-3.573s-3.113,1.213-3.113,3.573v9.8h-4.982V22.999Z"/><path class="cls-1" d="M101.082,41.877v-.065c0-3.835,2.917-5.604,7.08-5.604,1.77,0,3.048,.295,4.293,.721v-.295c0-2.064-1.277-3.212-3.769-3.212-1.901,0-3.245,.36-4.851,.951l-1.246-3.803c1.934-.852,3.835-1.409,6.817-1.409,2.721,0,4.688,.722,5.933,1.967,1.311,1.311,1.901,3.245,1.901,5.604v10.193h-4.818v-1.901c-1.213,1.344-2.885,2.229-5.31,2.229-3.311,0-6.031-1.901-6.031-5.376Zm11.439-1.146v-.886c-.853-.393-1.967-.655-3.18-.655-2.131,0-3.441,.853-3.441,2.426v.065c0,1.344,1.114,2.131,2.721,2.131,2.327,0,3.9-1.278,3.9-3.081Z"/><path class="cls-1" d="M121.538,29.357h4.982v3.54c1.016-2.425,2.654-3.998,5.604-3.867v5.211h-.263c-3.31,0-5.342,2-5.342,6.195v6.489h-4.982V29.357Z"/><path class="cls-1" d="M134.389,38.24v-.065c0-5.015,3.572-9.145,8.686-9.145,5.866,0,8.554,4.556,8.554,9.538,0,.393-.032,.852-.065,1.311h-12.225c.491,2.262,2.064,3.441,4.293,3.441,1.672,0,2.885-.524,4.261-1.803l2.852,2.523c-1.639,2.032-3.998,3.278-7.178,3.278-5.276,0-9.177-3.704-9.177-9.079Zm12.389-1.475c-.295-2.229-1.605-3.736-3.703-3.736-2.065,0-3.409,1.475-3.803,3.736h7.506Z"/><path class="cls-1" d="M172.152,37.879l-8.816-13.897h5.899l5.474,9.21,5.572-9.21h5.735l-8.816,13.799v9.145h-5.048v-9.046Z"/><path class="cls-1" d="M187.792,38.24v-.065c0-5.048,4.063-9.145,9.537-9.145,5.441,0,9.473,4.031,9.473,9.079v.065c0,5.047-4.064,9.145-9.538,9.145-5.44,0-9.472-4.031-9.472-9.079Zm14.093,0v-.065c0-2.59-1.868-4.851-4.621-4.851-2.852,0-4.556,2.195-4.556,4.785v.065c0,2.589,1.868,4.851,4.621,4.851,2.852,0,4.556-2.196,4.556-4.785Z"/><path class="cls-1" d="M210.28,40.731v-11.374h4.981v9.801c0,2.359,1.115,3.572,3.016,3.572s3.114-1.213,3.114-3.572v-9.801h4.981v17.568h-4.981v-2.491c-1.147,1.476-2.622,2.819-5.146,2.819-3.769,0-5.965-2.491-5.965-6.522Z"/><path class="cls-1" d="M230.835,29.357h4.982v3.54c1.016-2.425,2.654-3.998,5.604-3.867v5.211h-.263c-3.31,0-5.342,2-5.342,6.195v6.489h-4.982V29.357Z"/><path class="cls-1" d="M260.239,28.636h-6.981v-4.654h19.01v4.654h-6.98v18.289h-5.048V28.636Z"/><path class="cls-1" d="M275.615,22.999h4.982v8.85c1.146-1.475,2.622-2.818,5.146-2.818,3.77,0,5.965,2.491,5.965,6.522v11.373h-4.981v-9.8c0-2.36-1.114-3.573-3.016-3.573s-3.113,1.213-3.113,3.573v9.8h-4.982V22.999Z"/><path class="cls-1" d="M295.187,38.24v-.065c0-5.048,4.063-9.145,9.537-9.145,5.441,0,9.473,4.031,9.473,9.079v.065c0,5.047-4.064,9.145-9.538,9.145-5.44,0-9.472-4.031-9.472-9.079Zm14.094,0v-.065c0-2.59-1.869-4.851-4.622-4.851-2.852,0-4.556,2.195-4.556,4.785v.065c0,2.589,1.868,4.851,4.621,4.851,2.852,0,4.557-2.196,4.557-4.785Z"/><path class="cls-1" d="M317.676,40.731v-11.374h4.982v9.801c0,2.359,1.114,3.572,3.015,3.572s3.114-1.213,3.114-3.572v-9.801h4.981v17.568h-4.981v-2.491c-1.147,1.476-2.622,2.819-5.146,2.819-3.769,0-5.965-2.491-5.965-6.522Z"/><path class="cls-1" d="M338.328,50.4l1.704-3.736c1.803,1.016,3.605,1.605,5.933,1.605,3.408,0,5.015-1.639,5.015-4.785v-.853c-1.475,1.771-3.081,2.852-5.735,2.852-4.098,0-7.801-2.982-7.801-8.193v-.065c0-5.244,3.769-8.194,7.801-8.194,2.72,0,4.326,1.147,5.67,2.622v-2.295h4.981v13.603c0,3.146-.753,5.44-2.229,6.916-1.639,1.639-4.162,2.359-7.571,2.359-2.852,0-5.539-.655-7.768-1.835Zm12.651-13.11v-.065c0-2.394-1.868-4.064-4.294-4.064s-4.261,1.671-4.261,4.064v.065c0,2.425,1.836,4.063,4.261,4.063s4.294-1.671,4.294-4.063Z"/><path class="cls-1" d="M360.357,22.999h4.982v8.85c1.146-1.475,2.622-2.818,5.146-2.818,3.77,0,5.965,2.491,5.965,6.522v11.373h-4.981v-9.8c0-2.36-1.114-3.573-3.016-3.573s-3.113,1.213-3.113,3.573v9.8h-4.982V22.999Z"/><path class="cls-1" d="M381.6,41.943v-8.324h-2.098v-4.262h2.098v-4.49h4.982v4.49h4.13v4.262h-4.13v7.505c0,1.147,.491,1.705,1.605,1.705,.918,0,1.737-.229,2.459-.623v3.999c-1.049,.622-2.262,1.016-3.934,1.016-3.048,0-5.113-1.213-5.113-5.277Z"/><path class="cls-1" d="M393.01,44.598l2.13-3.277c1.901,1.376,3.9,2.098,5.539,2.098,1.442,0,2.098-.524,2.098-1.312v-.065c0-1.081-1.704-1.442-3.638-2.032-2.458-.721-5.244-1.868-5.244-5.276v-.065c0-3.573,2.884-5.572,6.424-5.572,2.229,0,4.654,.754,6.556,2.032l-1.901,3.441c-1.737-1.017-3.475-1.639-4.753-1.639-1.212,0-1.835,.524-1.835,1.213v.065c0,.983,1.672,1.441,3.572,2.098,2.458,.819,5.31,1.999,5.31,5.211v.065c0,3.9-2.917,5.671-6.719,5.671-2.458,0-5.211-.819-7.538-2.655Z"/></g></g></g></svg>