<?xml version="1.0" encoding="UTF-8"?><svg id="Layer_2" xmlns="http://www.w3.org/2000/svg" viewBox="0 0 28.828 28.828"><defs><style>.cls-1{fill:#64efe3;}.cls-2{fill:#022a3a;}</style></defs><g id="Layer_1-2"><g><rect class="cls-1" x="0" y="0" width="28.828" height="28.828" rx="14.414" ry="14.414"/><g><path class="cls-2" d="M15.449,14.41c0,1,.003,2-.001,3-.002,.565-.364,.968-.922,1.047-.534,.076-1.084-.359-1.135-.898-.006-.064-.007-.129-.007-.194,0-1.971-.001-3.942,0-5.912,0-.571,.343-.989,.87-1.073,.614-.098,1.18,.355,1.189,.977,.013,.8,.004,1.6,.005,2.4,0,.218,0,.435,0,.653Z"/><path class="cls-2" d="M19.123,16.533c0,.618,.006,1.236-.002,1.853-.007,.517-.398,.954-.884,1.009-.545,.061-1.014-.253-1.148-.773-.017-.068-.028-.139-.028-.209-.002-1.253-.011-2.506,.002-3.759,.008-.721,.763-1.197,1.425-.91,.401,.174,.627,.491,.632,.936,.008,.618,.002,1.236,.002,1.853Z"/><path class="cls-2" d="M11.774,12.295c0,.618,.006,1.236-.002,1.853-.006,.517-.399,.954-.886,1.008-.543,.06-1.014-.256-1.147-.774-.019-.073-.028-.151-.028-.226-.002-1.241-.006-2.483,.001-3.724,.003-.506,.396-.94,.876-.998,.543-.066,1.013,.247,1.155,.764,.03,.11,.03,.221,.031,.332,.001,.588,0,1.177,0,1.765Z"/><path class="cls-2" d="M8.185,14.424c0,.241,.029,.486-.006,.722-.082,.548-.55,.897-1.111,.862-.502-.032-.919-.46-.941-.995-.017-.399-.018-.801,0-1.2,.028-.597,.495-1.015,1.084-.995,.555,.019,.982,.476,.986,1.059,.001,.182,0,.365,0,.547h-.013Z"/><path class="cls-2" d="M22.712,14.474c-.013,.203,.024,.457-.026,.708-.105,.529-.581,.873-1.145,.823-.482-.042-.895-.49-.904-.993-.007-.382-.004-.765-.002-1.147,.004-.587,.446-1.04,1.016-1.047,.584-.007,1.04,.432,1.06,1.024,.006,.194,.001,.388,.001,.632Z"/><path class="cls-2" d="M19.124,11.022c0,.188,.003,.376,0,.565-.012,.588-.454,1.031-1.027,1.032-.576,.002-1.025-.438-1.035-1.023-.007-.382-.007-.765,0-1.147,.01-.585,.46-1.025,1.035-1.024,.573,.002,1.016,.444,1.028,1.032,.004,.188,0,.376,0,.565Z"/><path class="cls-2" d="M11.774,17.823c0,.188,.004,.376,0,.565-.015,.576-.459,1.013-1.027,1.014-.57,.002-1.022-.432-1.034-1.006-.009-.394-.009-.788,0-1.182,.012-.573,.464-1.007,1.034-1.006,.568,.002,1.012,.439,1.027,1.015,.005,.2,0,.4,0,.6Z"/><path class="cls-2" d="M15.448,7.726c0,.194,.004,.388,0,.582-.015,.57-.467,1.016-1.027,1.018-.562,.001-1.021-.442-1.033-1.011-.008-.394-.008-.788,0-1.182,.012-.565,.48-1.017,1.035-1.012,.552,.005,1.008,.45,1.025,1.005,.006,.2,0,.4,.001,.6Z"/><path class="cls-2" d="M15.448,21.102c0,.2,.005,.4,0,.6-.017,.556-.473,1.001-1.025,1.005-.555,.004-1.023-.448-1.035-1.013-.008-.394-.008-.788,0-1.182,.012-.568,.471-1.012,1.034-1.011,.561,.002,1.012,.448,1.027,1.018,.005,.194,0,.388,0,.582,0,0,0,0,0,0Z"/></g></g></g></svg>