<?xml version="1.0" encoding="UTF-8"?><svg id="Layer_2" xmlns="http://www.w3.org/2000/svg" viewBox="0 0 28.828 28.828"><defs><style>.cls-1{fill:#64efe3;}.cls-2{fill:#022a3a;}</style></defs><g id="Layer_1-2"><g><rect class="cls-1" x="0" y="0" width="28.828" height="28.828" rx="14.414" ry="14.414"/><g><path class="cls-2" d="M17.243,22.775c.061-.398,.105-.764,.182-1.123,.018-.086,.131-.175,.222-.218,2.492-1.19,4.031-3.134,4.574-5.842,.475-2.371-.114-4.51-1.583-6.39-1.736-2.221-4.073-3.215-6.861-2.999-3.856,.299-6.591,3.131-7.224,6.597-.599,3.279,1.166,6.913,4.226,8.403,.38,.185,.566,.439,.585,.852,.009,.208,.065,.414,.101,.628-3.199-.441-6.297-4.963-6.175-8.797,.153-4.82,3.924-8.48,8.138-8.861,5.297-.479,9.366,3.339,9.998,7.586,.819,5.509-2.888,9.262-6.183,10.162Z"/><path class="cls-2" d="M17.621,19.164c0-.468-.014-.894,.01-1.317,.006-.113,.116-.234,.203-.328,.769-.833,1.277-1.78,1.342-2.937,.116-2.087-.965-4.387-3.626-5.093-2.775-.736-5.608,1.208-5.988,4.029-.198,1.466,.203,2.813,1.227,3.922,.224,.242,.329,.483,.303,.809-.023,.289-.005,.581-.005,.88-1.161-.396-2.948-2.611-2.773-5.278,.193-2.956,2.465-5.235,5.12-5.576,3.022-.388,5.778,1.402,6.625,4.192,.833,2.744-.497,5.618-2.436,6.698Z"/><path class="cls-2" d="M16.548,19.377c-.046,1.392-.2,2.757-.669,4.072-.203,.569-.489,1.085-.981,1.461-.392,.299-.707,.298-1.093-.006-.533-.42-.839-.992-1.037-1.622-.516-1.636-.645-3.32-.543-5.022,.054-.897,.974-1.736,1.931-1.828,.984-.094,1.983,.547,2.242,1.516,.122,.457,.105,.952,.151,1.43Z"/><path class="cls-2" d="M16.553,13.508c0,1.199-1.017,2.203-2.222,2.196-1.168-.007-2.192-1.051-2.175-2.216,.018-1.213,1.033-2.191,2.272-2.19,1.143,.001,2.125,1.023,2.125,2.21Z"/></g></g></g></svg>