<?xml version="1.0" encoding="UTF-8"?><svg id="Layer_2" xmlns="http://www.w3.org/2000/svg" viewBox="0 0 28.828 28.828"><defs><style>.cls-1{fill:#64efe3;}.cls-2{fill:#022a3a;}</style></defs><g id="Layer_1-2"><g><rect class="cls-1" x="0" y="0" width="28.828" height="28.828" rx="14.414" ry="14.414"/><path class="cls-2" d="M14.416,4.645c5.418,0,9.785,4.42,9.758,9.819-.026,5.337-4.361,9.741-9.801,9.719-5.385-.021-9.742-4.398-9.719-9.81,.023-5.424,4.428-9.735,9.762-9.728Zm-1.458,5.168c-.313-.007-.657,.007-1,.024-.337,.016-.674,.042-1.009,.078-.462,.05-.922,.116-1.379,.204-.425,.083-.846,.181-1.26,.31-.369,.115-.628,.456-.64,.833-.019,.629,.559,1.083,1.166,.916,.101-.028,.202-.059,.303-.086,.883-.236,1.784-.36,2.694-.418,.534-.034,1.069-.045,1.605-.03,.644,.018,1.285,.064,1.923,.145,.698,.089,1.389,.22,2.07,.401,.833,.222,1.64,.513,2.403,.918,.135,.072,.265,.153,.401,.223,.611,.316,1.346-.138,1.33-.825-.008-.344-.169-.608-.467-.784-.819-.483-1.691-.843-2.598-1.123-1.271-.392-2.574-.617-3.897-.723-.537-.043-1.075-.067-1.645-.062Zm-.338,3.365c-.351-.004-.717,.017-1.082,.048-.524,.045-1.044,.117-1.559,.223-.377,.078-.752,.167-1.119,.285-.384,.123-.603,.515-.509,.9,.106,.434,.533,.68,.97,.549,.908-.272,1.837-.418,2.781-.464,.746-.036,1.491-.012,2.233,.075,.589,.069,1.171,.173,1.746,.32,.899,.229,1.763,.546,2.578,.993,.14,.077,.274,.162,.414,.238,.508,.277,1.126-.092,1.122-.67-.002-.288-.134-.506-.377-.656-.418-.258-.854-.483-1.303-.681-1.44-.632-2.95-.981-4.513-1.113-.454-.039-.91-.053-1.381-.045Zm5.702,5.847c.236-.004,.392-.073,.512-.215,.245-.292,.174-.715-.156-.919-.459-.283-.94-.524-1.439-.728-1.311-.534-2.68-.774-4.09-.802-.341-.007-.682,.003-1.022,.021-.308,.016-.616,.042-.923,.079-.443,.052-.883,.12-1.321,.205-.234,.046-.469,.089-.7,.151-.328,.088-.513,.419-.425,.746,.083,.308,.395,.5,.711,.435,.153-.031,.305-.067,.457-.098,.822-.169,1.651-.278,2.49-.31,.753-.028,1.503,.006,2.248,.124,.656,.104,1.296,.267,1.917,.502,.505,.191,.988,.426,1.449,.707,.106,.065,.217,.105,.293,.102Z"/></g></g></svg>