<?xml version="1.0" encoding="UTF-8"?><svg id="Layer_2" xmlns="http://www.w3.org/2000/svg" viewBox="0 0 28.828 28.828"><defs><style>.cls-1{fill:#64efe3;}.cls-2{fill:#022a3a;}</style></defs><g id="Layer_1-2"><g><rect class="cls-1" x="0" y="0" width="28.828" height="28.828" rx="14.414" ry="14.414"/><g><path class="cls-2" d="M19.664,22.3H9.164c-1.453,0-2.636-1.182-2.636-2.636V9.164c0-1.453,1.182-2.636,2.636-2.636h10.501c1.453,0,2.636,1.182,2.636,2.636v10.501c0,1.453-1.182,2.636-2.636,2.636ZM9.164,7.391c-.978,0-1.773,.795-1.773,1.773v10.501c0,.978,.795,1.773,1.773,1.773h10.501c.978,0,1.773-.795,1.773-1.773V9.164c0-.978-.795-1.773-1.773-1.773H9.164Z"/><path class="cls-2" d="M14.414,18.461c-1.081,0-2.097-.421-2.862-1.185-.764-.764-1.185-1.781-1.185-2.862s.421-2.097,1.185-2.862c.764-.764,1.781-1.185,2.862-1.185s2.097,.421,2.862,1.185c.764,.764,1.185,1.781,1.185,2.862s-.421,2.097-1.185,2.862c-.764,.764-1.781,1.185-2.862,1.185Zm0-7.231c-1.756,0-3.184,1.428-3.184,3.184s1.428,3.184,3.184,3.184,3.184-1.428,3.184-3.184-1.428-3.184-3.184-3.184Z"/><path class="cls-2" d="M20.212,8.719c0,.429-.348,.777-.777,.777s-.777-.348-.777-.777,.348-.777,.777-.777,.777,.348,.777,.777Z"/></g></g></g></svg>