<?xml version="1.0" encoding="UTF-8"?><svg id="Layer_2" xmlns="http://www.w3.org/2000/svg" viewBox="0 0 28.828 28.828"><defs><style>.cls-1{fill:#64efe3;}.cls-2{fill:#022a3a;}</style></defs><g id="Layer_1-2"><g><rect class="cls-1" x="0" y="0" width="28.828" height="28.828" rx="14.414" ry="14.414"/><path class="cls-2" d="M7.154,20.124c1.695,.099,3.174-.304,4.623-1.353-1.46-.249-2.474-.914-3.026-2.3,.423-.062,.801,.051,1.242-.121-1.437-.63-2.368-1.577-2.406-3.214,.453,.04,.798,.334,1.341,.296-1.324-1.294-1.726-2.699-.894-4.412,1.381,1.588,2.997,2.661,4.966,3.168,.107,.028,.214,.057,.321,.082,.51,.118,1.109,.369,1.418,.33,.532-.066,0-.676,.135-1.468,.421-2.466,3.134-3.586,5.143-2.141,.587,.422,1.053,.415,1.626,.16,.303-.135,.609-.263,.967-.417-.083,.708-.621,1.091-1.054,1.617,.493,.112,.89-.03,1.34-.173-.156,.508-.532,.795-.879,1.074-.356,.287-.499,.586-.514,1.057-.222,7.109-8.299,12.61-13.824,8.232-.535-.424-.014,0-.526-.414Z"/></g></g></svg>