<?xml version="1.0" encoding="UTF-8"?><svg id="Layer_2" xmlns="http://www.w3.org/2000/svg" viewBox="0 0 289.535 28.828"><defs><style>.cls-1{fill:#64efe3;}.cls-2{fill:#022a3a;}</style></defs><g id="Layer_1-2"><g><g><rect class="cls-1" x="148.974" y="0" width="28.828" height="28.828" rx="14.414" ry="14.414"/><rect class="cls-2" x="154.052" y="8.649" width="18.671" height="11.531" rx="3.044" ry="3.044"/><polygon class="cls-1" points="166.194 14.414 161.348 11.616 161.348 17.212 166.194 14.414"/></g><g><rect class="cls-1" x="111.729" y="0" width="28.828" height="28.828" rx="14.414" ry="14.414"/><path class="cls-2" d="M126.145,4.645c5.418,0,9.785,4.42,9.758,9.819-.026,5.337-4.361,9.741-9.801,9.719-5.385-.021-9.742-4.398-9.719-9.81,.023-5.424,4.428-9.735,9.762-9.728Zm-1.458,5.168c-.313-.007-.657,.007-1,.024-.337,.016-.674,.042-1.009,.078-.462,.05-.922,.116-1.379,.204-.425,.083-.846,.181-1.26,.31-.369,.115-.628,.456-.64,.833-.019,.629,.559,1.083,1.166,.916,.101-.028,.202-.059,.303-.086,.883-.236,1.784-.36,2.694-.418,.534-.034,1.069-.045,1.605-.03,.644,.018,1.285,.064,1.923,.145,.698,.089,1.389,.22,2.07,.401,.833,.222,1.64,.513,2.403,.918,.135,.072,.265,.153,.401,.223,.611,.316,1.346-.138,1.33-.825-.008-.344-.169-.608-.467-.784-.819-.483-1.691-.843-2.598-1.123-1.271-.392-2.574-.617-3.897-.723-.537-.043-1.075-.067-1.645-.062Zm-.338,3.365c-.351-.004-.717,.017-1.082,.048-.524,.045-1.044,.117-1.559,.223-.377,.078-.752,.167-1.119,.285-.384,.123-.603,.515-.509,.9,.106,.434,.533,.68,.97,.549,.908-.272,1.837-.418,2.781-.464,.746-.036,1.491-.012,2.233,.075,.589,.069,1.171,.173,1.746,.32,.899,.229,1.763,.546,2.578,.993,.14,.077,.274,.162,.414,.238,.508,.277,1.126-.092,1.122-.67-.002-.288-.134-.506-.377-.656-.418-.258-.854-.483-1.303-.681-1.44-.632-2.95-.981-4.513-1.113-.454-.039-.91-.053-1.381-.045Zm5.702,5.847c.236-.004,.392-.073,.512-.215,.245-.292,.174-.715-.156-.919-.459-.283-.94-.524-1.439-.728-1.311-.534-2.68-.774-4.09-.802-.341-.007-.682,.003-1.022,.021-.308,.016-.616,.042-.923,.079-.443,.052-.883,.12-1.321,.205-.234,.046-.469,.089-.7,.151-.328,.088-.513,.419-.425,.746,.083,.308,.395,.5,.711,.435,.153-.031,.305-.067,.457-.098,.822-.169,1.651-.278,2.49-.31,.753-.028,1.503,.006,2.248,.124,.656,.104,1.296,.267,1.917,.502,.505,.191,.988,.426,1.449,.707,.106,.065,.217,.105,.293,.102Z"/></g><g><rect class="cls-1" x="186.218" y="0" width="28.828" height="28.828" rx="14.414" ry="14.414"/><path class="cls-2" d="M201.682,15.687v6.543h-3.009v-6.543h-2.497v-2.652h2.497v-.969c0-3.585,1.495-5.468,4.664-5.468,.971,0,1.214,.155,1.748,.283v2.625c-.598-.106-.765-.16-1.384-.16-.736,0-1.126,.206-1.483,.616-.358,.411-.536,1.123-.536,2.137v.937h3.406l-.915,2.652h-2.491Z"/></g><g><rect class="cls-1" x="223.462" y="0" width="28.828" height="28.828" rx="14.414" ry="14.414"/><g><path class="cls-2" d="M243.127,22.3h-10.501c-1.453,0-2.636-1.182-2.636-2.636V9.164c0-1.453,1.182-2.636,2.636-2.636h10.501c1.453,0,2.636,1.182,2.636,2.636v10.501c0,1.453-1.182,2.636-2.636,2.636Zm-10.501-14.91c-.978,0-1.773,.795-1.773,1.773v10.501c0,.978,.795,1.773,1.773,1.773h10.501c.978,0,1.773-.795,1.773-1.773V9.164c0-.978-.795-1.773-1.773-1.773h-10.501Z"/><path class="cls-2" d="M237.876,18.461c-1.081,0-2.097-.421-2.862-1.185-.764-.764-1.185-1.781-1.185-2.862s.421-2.097,1.185-2.862c.764-.764,1.781-1.185,2.862-1.185s2.097,.421,2.862,1.185c.764,.764,1.185,1.781,1.185,2.862s-.421,2.097-1.185,2.862c-.764,.764-1.781,1.185-2.862,1.185Zm0-7.231c-1.756,0-3.184,1.428-3.184,3.184s1.428,3.184,3.184,3.184,3.184-1.428,3.184-3.184-1.428-3.184-3.184-3.184Z"/><path class="cls-2" d="M243.675,8.719c0,.429-.348,.777-.777,.777s-.777-.348-.777-.777,.348-.777,.777-.777,.777,.348,.777,.777Z"/></g></g><g><rect class="cls-1" x="260.707" y="0" width="28.828" height="28.828" rx="14.414" ry="14.414"/><path class="cls-2" d="M267.861,20.124c1.695,.099,3.174-.304,4.623-1.353-1.46-.249-2.474-.914-3.026-2.3,.423-.062,.801,.051,1.242-.121-1.437-.63-2.368-1.577-2.406-3.214,.453,.04,.798,.334,1.341,.296-1.324-1.294-1.726-2.699-.894-4.412,1.381,1.588,2.997,2.661,4.966,3.168,.107,.028,.214,.057,.321,.082,.51,.118,1.109,.369,1.418,.33,.532-.066,0-.676,.135-1.468,.421-2.466,3.134-3.586,5.143-2.141,.587,.422,1.053,.415,1.626,.16,.303-.135,.609-.263,.967-.417-.083,.708-.621,1.091-1.054,1.617,.493,.112,.89-.03,1.34-.173-.156,.508-.532,.795-.879,1.074-.356,.287-.499,.586-.514,1.057-.222,7.109-8.299,12.61-13.824,8.232-.535-.424-.014,0-.526-.414Z"/></g><g><rect class="cls-1" x="74.489" y="0" width="28.828" height="28.828" rx="14.414" ry="14.414"/><g><path class="cls-2" d="M89.938,14.41c0,1,.003,2-.001,3-.002,.565-.364,.968-.922,1.047-.534,.076-1.084-.359-1.135-.898-.006-.064-.007-.129-.007-.194,0-1.971-.001-3.942,0-5.912,0-.571,.343-.989,.87-1.073,.614-.098,1.18,.355,1.189,.977,.013,.8,.004,1.6,.005,2.4,0,.218,0,.435,0,.653Z"/><path class="cls-2" d="M93.612,16.533c0,.618,.006,1.236-.002,1.853-.007,.517-.398,.954-.884,1.009-.545,.061-1.014-.253-1.148-.773-.017-.068-.028-.139-.028-.209-.002-1.253-.011-2.506,.002-3.759,.008-.721,.763-1.197,1.425-.91,.401,.174,.627,.491,.632,.936,.008,.618,.002,1.236,.002,1.853Z"/><path class="cls-2" d="M86.263,12.295c0,.618,.006,1.236-.002,1.853-.006,.517-.399,.954-.886,1.008-.543,.06-1.014-.256-1.147-.774-.019-.073-.028-.151-.028-.226-.002-1.241-.006-2.483,.001-3.724,.003-.506,.396-.94,.876-.998,.543-.066,1.013,.247,1.155,.764,.03,.11,.03,.221,.031,.332,.001,.588,0,1.177,0,1.765Z"/><path class="cls-2" d="M82.674,14.424c0,.241,.029,.486-.006,.722-.082,.548-.55,.897-1.111,.862-.502-.032-.919-.46-.941-.995-.017-.399-.018-.801,0-1.2,.028-.597,.495-1.015,1.084-.995,.555,.019,.982,.476,.986,1.059,.001,.182,0,.365,0,.547h-.013Z"/><path class="cls-2" d="M97.201,14.474c-.013,.203,.024,.457-.026,.708-.105,.529-.581,.873-1.145,.823-.482-.042-.895-.49-.904-.993-.007-.382-.004-.765-.002-1.147,.004-.587,.446-1.04,1.016-1.047,.584-.007,1.04,.432,1.06,1.024,.006,.194,.001,.388,.001,.632Z"/><path class="cls-2" d="M93.612,11.022c0,.188,.003,.376,0,.565-.012,.588-.454,1.031-1.027,1.032-.576,.002-1.025-.438-1.035-1.023-.007-.382-.007-.765,0-1.147,.01-.585,.46-1.025,1.035-1.024,.573,.002,1.016,.444,1.028,1.032,.004,.188,0,.376,0,.565Z"/><path class="cls-2" d="M86.262,17.823c0,.188,.004,.376,0,.565-.015,.576-.459,1.013-1.027,1.014-.57,.002-1.022-.432-1.034-1.006-.009-.394-.009-.788,0-1.182,.012-.573,.464-1.007,1.034-1.006,.568,.002,1.012,.439,1.027,1.015,.005,.2,0,.4,0,.6Z"/><path class="cls-2" d="M89.936,7.726c0,.194,.004,.388,0,.582-.015,.57-.467,1.016-1.027,1.018-.562,.001-1.021-.442-1.033-1.011-.008-.394-.008-.788,0-1.182,.012-.565,.48-1.017,1.035-1.012,.552,.005,1.008,.45,1.025,1.005,.006,.2,0,.4,.001,.6Z"/><path class="cls-2" d="M89.936,21.102c0,.2,.005,.4,0,.6-.017,.556-.473,1.001-1.025,1.005-.555,.004-1.023-.448-1.035-1.013-.008-.394-.008-.788,0-1.182,.012-.568,.471-1.012,1.034-1.011,.561,.002,1.012,.448,1.027,1.018,.005,.194,0,.388,0,.582,0,0,0,0,0,0Z"/></g></g><g><rect class="cls-1" x="37.244" y="0" width="28.828" height="28.828" rx="14.414" ry="14.414"/><g><path class="cls-2" d="M54.488,22.775c.061-.398,.105-.764,.182-1.123,.018-.086,.131-.175,.222-.218,2.492-1.19,4.031-3.134,4.574-5.842,.475-2.371-.114-4.51-1.583-6.39-1.736-2.221-4.073-3.215-6.861-2.999-3.856,.299-6.591,3.131-7.224,6.597-.599,3.279,1.166,6.913,4.226,8.403,.38,.185,.566,.439,.585,.852,.009,.208,.065,.414,.101,.628-3.199-.441-6.297-4.963-6.175-8.797,.153-4.82,3.924-8.48,8.138-8.861,5.297-.479,9.366,3.339,9.998,7.586,.819,5.509-2.888,9.262-6.183,10.162Z"/><path class="cls-2" d="M54.865,19.164c0-.468-.014-.894,.01-1.317,.006-.113,.116-.234,.203-.328,.769-.833,1.277-1.78,1.342-2.937,.116-2.087-.965-4.387-3.626-5.093-2.775-.736-5.608,1.208-5.988,4.029-.198,1.466,.203,2.813,1.227,3.922,.224,.242,.329,.483,.303,.809-.023,.289-.005,.581-.005,.88-1.161-.396-2.948-2.611-2.773-5.278,.193-2.956,2.465-5.235,5.12-5.576,3.022-.388,5.778,1.402,6.625,4.192,.833,2.744-.497,5.618-2.436,6.698Z"/><path class="cls-2" d="M53.793,19.377c-.046,1.392-.2,2.757-.669,4.072-.203,.569-.489,1.085-.981,1.461-.392,.299-.707,.298-1.093-.006-.533-.42-.839-.992-1.037-1.622-.516-1.636-.645-3.32-.543-5.022,.054-.897,.974-1.736,1.931-1.828,.984-.094,1.983,.547,2.242,1.516,.122,.457,.105,.952,.151,1.43Z"/><path class="cls-2" d="M53.797,13.508c0,1.199-1.017,2.203-2.222,2.196-1.168-.007-2.192-1.051-2.175-2.216,.018-1.213,1.033-2.191,2.272-2.19,1.143,.001,2.125,1.023,2.125,2.21Z"/></g></g><g><rect class="cls-1" x="0" y="0" width="28.828" height="28.828" rx="14.414" ry="14.414"/><g><path class="cls-2" d="M18.699,6.544c0,.637,0,1.273,0,1.91,0,.089-.01,.079,.082,.079,.561,0,1.122,0,1.683,0,.566,0,1.132,0,1.698,0,.068,0,.069,0,.069-.063,0-.649,0-1.299,0-1.948,0-.059-.001-.059-.058-.06-.013,0-.025,0-.038,0-1.117,0-2.233,0-3.35,0-.015,0-.03,.001-.045,0-.035-.004-.044,.014-.041,.045,.001,.013,0,.025,0,.038Z"/><path class="cls-2" d="M10.158,11.324c0,.075,0,.075,.072,.076,.015,0,.03,0,.045,0,.548,0,1.096,0,1.645,0h0c.561,0,1.122,0,1.682,0,.095,0,.088,.011,.088-.083,0-.637,0-1.273,0-1.91,0-.013,0-.025,0-.038,.002-.03-.013-.041-.041-.039-.013,0-.025,0-.038,0-1.124,0-2.248,0-3.373,.001-.094,0-.08,0-.08,.083,0,.46,0,.92,0,1.379,0,.177,0,.354,0,.531Z"/><path class="cls-2" d="M18.7,11.315c0,.015,0,.03,0,.045-.002,.029,.011,.042,.04,.04,.013,0,.025,0,.038,0,1.124,0,2.248,0,3.373,0,.085,0,.081,.011,.081-.082,0-.634,0-1.268,0-1.902,0-.015-.001-.03,0-.045,.002-.03-.013-.04-.041-.039-.015,0-.03,0-.045,0-1.122,0-2.243,0-3.365,0-.025,0-.05-.005-.075,.006-.011,.024-.006,.05-.006,.075,0,.634,0,1.268,0,1.902Z"/><path class="cls-2" d="M5.934,17.135c.017-.002,.035,0,.053,0h1.66c.561,0,1.122,0,1.683,0,.095,0,.086,.011,.086-.084,0-.632,0-1.263,0-1.895,0-.099,.012-.087-.09-.087-1.117,0-2.234,0-3.351,0-.015,0-.03,.001-.045,0-.038-.004-.049,.015-.046,.049,.001,.015,0,.03,0,.045,0,.627,0,1.253,0,1.88,0,.013,.001,.025,0,.038-.004,.037,.009,.058,.05,.053Z"/><path class="cls-2" d="M18.748,17.136c.015-.001,.03,0,.045,0,.558,0,1.117,0,1.675,0h0c.558,0,1.117,0,1.675-.001,.095,0,.086,.013,.086-.083,0-.634,0-1.269,0-1.903,0-.008,0-.015,0-.023q-.001-.055-.053-.056c-.018,0-.035,0-.053,0-.369,0-.738,0-1.107,0-.748,0-1.496,0-2.244,0-.075,0-.075,0-.075,.073,0,.008,0,.015,0,.023,0,.627,0,1.253,0,1.88,0,.015,.001,.03,0,.045-.004,.038,.015,.049,.049,.046Z"/><path class="cls-2" d="M18.7,14.18c0,.1-.007,.088,.091,.088,1.117,0,2.234,0,3.35,0,.013,0,.025-.001,.038,0,.038,.005,.057-.009,.053-.05-.002-.015,0-.03,0-.045,0-.627,0-1.253,0-1.88,0-.015-.002-.03,0-.045,.005-.038-.015-.049-.049-.046-.018,.002-.035,0-.053,0-.551,0-1.102,0-1.652,0h0c-.558-.001-1.117-.001-1.675-.001-.02,0-.04,0-.061,0-.028-.001-.042,.01-.041,.04,0,.018,0,.035,0,.053,0,.629,0,1.258,0,1.887Z"/><path class="cls-2" d="M10.248,14.267c.958,0,1.916,0,2.874,0,.023,0,.045-.002,.068-.002,.151,0,.303,0,.454,.003,.037,0,.048-.013,.047-.049-.002-.06,0-.121,0-.182,0-.353-.002-.707-.002-1.06,0-.238,.002-.475,.002-.713,0-.064,0-.065-.068-.065-.207,0-.414,0-.622,0-.922,0-1.845,0-2.767,.001-.074,0-.074,0-.074,.074,0,.005,0,.01,0,.015,0,.629,0,1.259,0,1.888,0,.099-.011,.088,.09,.088Z"/><path class="cls-2" d="M8.828,18.344c0-.018,0-.035,0-.053,.001-.026-.011-.035-.036-.035-.222,0-.445,0-.667,0-.029,0-.042,.009-.04,.039,.001,.018,0,.035,0,.053,0,.503,0,1.006,0,1.508,0,.02,0,.04,0,.061,0,.014,.006,.032-.015,.037-.019,.004-.026-.012-.034-.024-.073-.102-.168-.179-.28-.233-.151-.073-.311-.108-.478-.113-.235-.007-.46,.03-.675,.128-.184,.083-.324,.215-.447,.37-.042,.053-.069,.114-.101,.173-.051,.093-.089,.191-.11,.296-.025,.125-.036,.252-.045,.378-.01,.152,.005,.305,.034,.451,.041,.205,.126,.397,.266,.56,.166,.194,.372,.32,.62,.378,.1,.023,.202,.036,.303,.04,.241,.01,.478-.01,.696-.129,.096-.052,.18-.117,.249-.203,.011-.014,.023-.028,.044-.052,0,.123,0,.231,0,.339,0,.035,.011,.049,.048,.049,.22-.001,.439,0,.66,0,.013-.037,.008-.065,.008-.092,0-1.309,0-2.618,0-3.926Zm-.806,3.036c-.129,.264-.393,.419-.683,.4-.312-.02-.545-.192-.641-.482-.075-.226-.073-.453,.015-.674,.113-.283,.328-.44,.631-.453,.303-.013,.528,.128,.67,.396,.068,.13,.094,.271,.095,.422-.002,.133-.026,.266-.087,.391Z"/><path class="cls-2" d="M14.496,14.267c.008,0,.015,0,.023,0,1.023,0,2.047,0,3.07,0,.025,0,.05-.002,.076-.003,.086,0,.172,0,.257,.002,.029,0,.042-.011,.04-.04,0-.018,0-.035,0-.053,0-.399,0-.797,0-1.196,0-.24,0-.479,0-.719,0-.058-.001-.06-.058-.06-.278,0-.555,.002-.833,.003-.007,0-.015-.003-.022-.003-.854,0-1.708,0-2.562,0-.057,0-.058,.001-.058,.067,0,.644,0,1.289,0,1.933,0,.066,0,.066,.066,.067Z"/><path class="cls-2" d="M10.157,17.05c0,.094-.01,.085,.085,.085,.758,0,1.516,0,2.275,0,.023,0,.045-.002,.068-.003,.351,0,.701,.002,1.052,.003,.052,0,.053-.002,.053-.056,0-.124,0-.247,0-.371,0-.522,0-1.045,0-1.567,0-.07,0-.071-.053-.071-.351,0-.701,.002-1.052,.003-.023,0-.045-.003-.068-.003-.758,0-1.516,0-2.275,0-.096,0-.085-.007-.085,.086,0,.632,0,1.264,0,1.895Z"/><path class="cls-2" d="M13.935,21.32c-.031-.012-.048-.019-.061,.028-.017,.059-.041,.119-.08,.17-.081,.107-.178,.191-.31,.229-.131,.038-.263,.036-.397,.015-.287-.045-.515-.254-.552-.552-.012-.097-.014-.097,.081-.097,.571,0,1.142,0,1.713,0,.07,0,.072,0,.081-.057,.036-.219,.035-.437-.024-.653-.105-.381-.355-.624-.724-.745-.265-.087-.539-.098-.814-.047-.249,.046-.472,.152-.659,.325-.084,.078-.154,.169-.214,.268-.075,.124-.128,.255-.155,.399-.034,.186-.05,.37-.026,.557,.012,.091,.021,.184,.047,.272,.046,.158,.126,.302,.227,.432,.089,.114,.194,.214,.317,.285,.167,.098,.348,.167,.545,.19,.143,.017,.286,.029,.43,.024,.141-.005,.282-.028,.415-.068,.141-.042,.272-.114,.387-.209,.171-.141,.286-.32,.36-.53-.056-.023-.108-.045-.161-.066-.143-.057-.287-.113-.43-.17Zm-1.197-1.051c.136-.11,.295-.15,.467-.141,.094,.005,.185,.024,.269,.069,.146,.076,.226,.196,.241,.36,.004,.051,0,.056-.052,.057-.368,0-.737,0-1.105,0-.005,0-.009-.003-.025-.007,.031-.138,.099-.249,.206-.336Z"/><path class="cls-2" d="M11.723,21.535c-.191-.077-.383-.152-.583-.232-.013,.065-.047,.111-.073,.161-.068,.128-.167,.222-.305,.272-.171,.062-.344,.059-.514,.008-.253-.076-.418-.243-.467-.511-.022-.118-.021-.118,.096-.118,.566,0,1.132,0,1.698,0,.07,0,.072,0,.08-.051,.035-.227,.038-.453-.028-.675-.094-.315-.288-.544-.589-.679-.201-.09-.412-.126-.631-.125-.273,.001-.53,.059-.768,.199-.135,.079-.247,.184-.338,.305-.12,.158-.212,.333-.239,.537-.012,.093-.027,.184-.032,.278-.01,.162,.008,.325,.044,.48,.036,.154,.108,.297,.204,.43,.114,.157,.254,.278,.419,.372,.124,.071,.258,.114,.4,.14,.162,.03,.325,.045,.489,.041,.145-.004,.289-.026,.428-.066,.089-.025,.175-.067,.256-.115,.228-.137,.385-.331,.48-.577,.019-.051,.019-.053-.026-.071Zm-1.692-1.302c.221-.137,.454-.144,.687-.035,.149,.069,.227,.196,.241,.359,.004,.05,0,.055-.046,.055-.374,0-.747,0-1.121,0-.002,0-.004-.002-.016-.01,.038-.156,.119-.284,.256-.369Z"/><path class="cls-2" d="M19.792,21.531c-.176-.071-.352-.141-.527-.211-.045-.018-.05-.016-.065,.034-.028,.09-.073,.174-.134,.241-.066,.071-.153,.124-.249,.151-.182,.051-.366,.048-.541-.021-.247-.097-.392-.28-.415-.549-.005-.061-.004-.062,.059-.062,.291,0,.581,0,.872,0,.288,0,.576,0,.864,0,.075,0,.075,0,.087-.077,.03-.199,.03-.397-.017-.593-.077-.321-.258-.561-.553-.71-.229-.116-.475-.155-.73-.15-.171,.004-.339,.032-.5,.089-.216,.076-.391,.216-.537,.389-.139,.165-.225,.356-.261,.571-.026,.153-.035,.306-.026,.46,.005,.098,.027,.193,.041,.289,.017,.117,.079,.214,.136,.314,.076,.134,.174,.249,.293,.348,.076,.063,.167,.102,.24,.167,.086,.007,.155,.061,.237,.083,.248,.066,.497,.086,.751,.058,.475-.054,.826-.28,1.016-.731,.026-.062,.027-.064-.038-.09Zm-1.618-1.332c.197-.097,.4-.1,.601-.015,.162,.069,.253,.195,.267,.373,.004,.053,.002,.055-.053,.055-.366,0-.732,0-1.099,0-.007,0-.015-.002-.033-.005,.047-.187,.148-.326,.316-.409Z"/><path class="cls-2" d="M17.016,21.686c-.018,.001-.035,0-.053,0-.455,0-.91,0-1.365,0h-.082c-.004-.007-.008-.013-.013-.02,.019-.015,.04-.029,.058-.046,.116-.112,.232-.225,.347-.338,.354-.347,.707-.694,1.061-1.039,.032-.031,.043-.062,.043-.106-.002-.157,0-.313-.001-.47,0-.094,.014-.084-.084-.084-.564,0-1.127,0-1.691,0-.179,0-.359,0-.538,0q-.086,0-.086,.083c0,.162,0,.323,0,.485,0,.013,0,.025,0,.038-.002,.028,.006,.043,.038,.04,.017-.002,.035,0,.053,0,.432,0,.864,0,1.296,0,.02,0,.043-.01,.066,.015-.041,.016-.063,.047-.09,.073-.13,.127-.252,.26-.385,.385-.341,.32-.668,.653-.995,.986-.021,.021-.031,.043-.031,.073,.001,.184,.001,.369,0,.553,0,.037,.007,.059,.05,.052,.01-.002,.02,0,.03,0,.776,0,1.552,0,2.328,0,.015,0,.03-.001,.045,0,.03,.002,.039-.012,.039-.04,0-.2,0-.399,0-.599,0-.029-.01-.042-.04-.04Z"/><path class="cls-2" d="M22.21,20.139c-.059-.19-.16-.347-.341-.447-.205-.112-.418-.131-.641-.077-.156,.038-.281,.123-.376,.255-.022,.031-.022,.073-.064,.108,0-.121-.002-.231,0-.342,.001-.041-.013-.05-.052-.05-.217,.001-.435,.001-.652,0-.031,0-.048,.007-.044,.041,.002,.017,0,.035,0,.053,0,.624,0,1.248,0,1.873,0,.248,0,.495,0,.743,0,.079-.002,.068,.07,.068,.205,0,.409,0,.614,0,.061,0,.062,0,.062-.061,0-.235,0-.47,0-.705,0-.341,0-.682,0-1.023,0-.099,.016-.195,.07-.281,.113-.18,.369-.223,.54-.057,.078,.075,.122,.18,.124,.296,0,.027-.004,.055,.005,.082,.003,.001,.005,.004,.007,.004,.227,.001,.454,.002,.682,.004,.024,0,.03-.012,.03-.033,0-.151,.01-.303-.035-.45Z"/><path class="cls-2" d="M17.913,15.067c-.21,.002-.419,.003-.629,.003-.028,0-.055-.003-.083-.003-.477,0-.955,0-1.432,0-.424,0-.849,0-1.273,0-.064,0-.065,0-.065,.059,0,.649,0,1.298,0,1.948,0,.058,.001,.058,.058,.059,.01,0,.02,0,.03,0,.897,0,1.793,0,2.69,0,.025,0,.05-.002,.076-.003,.162,0,.323,.002,.485,.002,.051,0,.101-.001,.152,0,.034,.001,.045-.014,.043-.045-.001-.018,0-.035,0-.053,0-.43,0-.859,0-1.289,0-.21,0-.419,0-.629,0-.039-.011-.053-.051-.053Z"/></g></g></g></g></svg>