<?xml version="1.0" standalone="no"?>
<!DOCTYPE svg PUBLIC "-//W3C//DTD SVG 1.1//EN" "http://www.w3.org/Graphics/SVG/1.1/DTD/svg11.dtd" >
<svg xmlns="http://www.w3.org/2000/svg">
<metadata>Generated by IcoMoon</metadata>
<defs>
<font id="icomoon" horiz-adv-x="1024">
<font-face units-per-em="1024" ascent="960" descent="-64" />
<missing-glyph horiz-adv-x="1024" />
<glyph unicode="&#x20;" horiz-adv-x="512" d="" />
<glyph unicode="&#xe900;" glyph-name="star" d="M512 223.147l263.68-159.147-69.973 299.947 232.96 201.813-306.773 26.027-119.893 282.88-119.893-282.88-306.773-26.027 232.96-201.813-69.973-299.947 263.68 159.147z" />
<glyph unicode="&#xe901;" glyph-name="star-outline" d="M938.667 565.76l-306.773 26.453-119.893 282.453-119.893-282.88-306.773-26.027 232.96-201.813-69.973-299.947 263.68 159.147 263.68-159.147-69.547 299.947 232.533 201.813zM512 302.933l-160.427-96.853 42.667 182.613-141.653 122.88 186.88 16.213 72.533 171.947 72.96-172.373 186.88-16.213-141.653-122.88 42.667-182.613-160.853 97.28z" />
<glyph unicode="&#xe902;" glyph-name="arrow-left" d="M853.333 490.667h-519.253l238.507 238.507-60.587 60.16-341.333-341.333 341.333-341.333 60.16 60.16-238.080 238.507h519.253v85.333z" />
<glyph unicode="&#xe903;" glyph-name="arrow-drop-down" d="M298.667 533.333l213.333-213.333 213.333 213.333h-426.667z" />
<glyph unicode="&#xe904;" glyph-name="arrow-drop-up" d="M298.667 362.667l213.333 213.333 213.333-213.333h-426.667z" />
<glyph unicode="&#xe905;" glyph-name="chevron-right" d="M426.667 704l-60.159-60.16 195.412-195.84-195.412-195.84 60.159-60.16 256 256-256 256z" />
<glyph unicode="&#xe906;" glyph-name="close" d="M810.667 686.507l-60.16 60.16-238.507-238.507-238.507 238.507-60.16-60.16 238.507-238.507-238.507-238.507 60.16-60.16 238.507 238.507 238.507-238.507 60.16 60.16-238.507 238.507 238.507 238.507z" />
<glyph unicode="&#xe907;" glyph-name="more-horiz" d="M256 533.333c-46.933 0-85.333-38.4-85.333-85.333s38.4-85.333 85.333-85.333c46.933 0 85.333 38.4 85.333 85.333s-38.4 85.333-85.333 85.333zM768 533.333c-46.933 0-85.333-38.4-85.333-85.333s38.4-85.333 85.333-85.333c46.933 0 85.333 38.4 85.333 85.333s-38.4 85.333-85.333 85.333zM512 533.333c-46.933 0-85.333-38.4-85.333-85.333s38.4-85.333 85.333-85.333c46.933 0 85.333 38.4 85.333 85.333s-38.4 85.333-85.333 85.333z" />
<glyph unicode="&#xe908;" glyph-name="more-vert" d="M512 618.667c46.933 0 85.333 38.4 85.333 85.333s-38.4 85.333-85.333 85.333c-46.933 0-85.333-38.4-85.333-85.333s38.4-85.333 85.333-85.333zM512 533.333c-46.933 0-85.333-38.4-85.333-85.333s38.4-85.333 85.333-85.333c46.933 0 85.333 38.4 85.333 85.333s-38.4 85.333-85.333 85.333zM512 277.333c-46.933 0-85.333-38.4-85.333-85.333s38.4-85.333 85.333-85.333c46.933 0 85.333 38.4 85.333 85.333s-38.4 85.333-85.333 85.333z" />
<glyph unicode="&#xe909;" glyph-name="plus" d="M810.667 405.333h-256v-256h-85.333v256h-256v85.333h256v256h85.333v-256h256v-85.333z" />
<glyph unicode="&#xe90a;" glyph-name="edit" d="M128 224v-160h160l471.893 471.893-160 160-471.893-471.893zM883.627 659.627c16.64 16.64 16.64 43.52 0 60.16l-99.84 99.84c-16.64 16.64-43.52 16.64-60.16 0l-78.080-78.080 160-160 78.080 78.080z" />
<glyph unicode="&#xe90b;" glyph-name="filter-list" d="M426.667 192h170.667v85.333h-170.667v-85.333zM128 704v-85.333h768v85.333h-768zM256 405.333h512v85.333h-512v-85.333z" />
<glyph unicode="&#xe90c;" glyph-name="minus" d="M810.667 405.333h-597.333v85.333h597.333v-85.333z" />
<glyph unicode="&#xe90d;" glyph-name="sort" d="M128 192h256v85.333h-256v-85.333zM128 704v-85.333h768v85.333h-768zM128 405.333h512v85.333h-512v-85.333z" />
<glyph unicode="&#xe90e;" glyph-name="pause" d="M256 149.333h170.667v597.333h-170.667v-597.333zM597.333 746.667v-597.333h170.667v597.333h-170.667z" />
<glyph unicode="&#xe910;" glyph-name="arrow-up" d="M170.667 448l60.16-60.16 238.507 238.080v-519.253h85.333v519.253l238.080-238.507 60.587 60.587-341.333 341.333-341.333-341.333z" />
<glyph unicode="&#xe911;" glyph-name="bar-chart" d="M213.333 567.467h128v-418.133h-128v418.133zM452.267 746.667h119.467v-597.333h-119.467v597.333zM691.2 405.333h119.467v-256h-119.467v256z" />
<glyph unicode="&#xe912;" glyph-name="calendar-today" d="M819.2 797.091h-38.4v77.576h-76.8v-77.576h-384v77.576h-76.8v-77.576h-38.4c-42.24 0-76.8-34.909-76.8-77.576v-620.605c0-42.667 34.56-77.577 76.8-77.577h614.4c42.24 0 76.8 34.91 76.8 77.577v620.605c0 42.667-34.56 77.576-76.8 77.576zM819.2 98.91h-614.4v504.241h614.4v-504.241z" />
<glyph unicode="&#xe913;" glyph-name="cards" d="M170.667 789.333h298.667v-298.667h-298.667v298.667zM554.667 789.333h298.667v-298.667h-298.667v298.667zM170.667 405.333h298.667v-298.667h-298.667v298.667zM554.667 405.333h298.667v-298.667h-298.667v298.667z" />
<glyph unicode="&#xe914;" glyph-name="compare" d="M426.667 832h-213.333c-22.632 0-44.337-8.99-60.34-24.994s-24.994-37.708-24.994-60.34v-597.333c0-22.63 8.99-44.335 24.994-60.339s37.708-24.994 60.34-24.994h213.333v-85.333h85.333v938.667h-85.333v-85.333zM426.667 192h-213.333l213.333 256v-256zM810.667 832h-213.333v-85.333h213.333v-554.667l-213.333 256v-384h213.333c22.63 0 44.335 8.99 60.339 24.994s24.994 37.709 24.994 60.339v597.333c0 22.632-8.99 44.337-24.994 60.34s-37.709 24.994-60.339 24.994z" />
<glyph unicode="&#xe915;" glyph-name="delete" d="M256 149.333c0-46.933 38.4-85.333 85.333-85.333h341.333c46.933 0 85.333 38.4 85.333 85.333v512h-512v-512zM810.667 789.333h-149.333l-42.667 42.667h-213.333l-42.667-42.667h-149.333v-85.333h597.333v85.333z" />
<glyph unicode="&#xe916;" glyph-name="done" d="M384.001 268.8l-179.2 179.2-59.733-59.733 238.933-238.933 511.999 512-59.733 59.733-452.266-452.266z" />
<glyph unicode="&#xe917;" glyph-name="file" d="M341.333 277.333h341.333v-85.333h-341.333v85.333zM341.333 448h341.333v-85.333h-341.333v85.333zM597.333 874.667h-341.333c-22.632 0-44.337-8.99-60.34-24.994s-24.994-37.708-24.994-60.34v-682.667c0-22.63 8.99-44.335 24.994-60.339s37.708-24.994 60.34-24.994h512c22.63 0 44.335 8.99 60.339 24.994s24.994 37.709 24.994 60.339v512l-256 256zM768 106.667h-512v682.667h298.667v-213.333h213.333v-469.333z" />
<glyph unicode="&#xe918;" glyph-name="fund-on" d="M503.467 494.933c-96.853 25.173-128 51.2-128 91.733s42.667 78.933 115.2 78.933c72.533 0 104.107-36.267 106.667-89.6h94.293c-1.075 38.593-15.206 75.68-40.081 105.206s-59.029 49.744-96.879 57.354v93.44h-128v-92.16c-82.773-17.92-149.333-71.68-149.333-154.027 0-98.56 81.493-147.627 200.533-176.213 106.667-25.6 128-63.147 128-102.827 0-29.44-20.907-76.373-115.2-76.373-87.893 0-122.453 39.253-128 89.6h-93.013c5.12-93.44 75.093-145.92 157.013-163.413v-92.587h128v91.733c83.2 15.787 149.333 64 149.333 151.467 0 121.173-103.68 162.56-200.533 187.733z" />
<glyph unicode="&#xe919;" glyph-name="history" d="M554.667 832c-212.053 0-384-171.947-384-384h-128l165.973-165.973 2.987-5.973 172.373 171.947h-128c0 165.12 133.547 298.667 298.667 298.667s298.667-133.547 298.667-298.667c0-165.12-133.547-298.667-298.667-298.667-82.347 0-157.013 33.707-210.773 87.893l-60.587-60.587c69.547-69.547 165.12-112.64 271.36-112.64 212.053 0 384 171.947 384 384s-171.947 384-384 384zM512 618.667v-213.333l181.333-107.52 32.853 54.613-150.187 89.173v177.067h-64z" />
<glyph unicode="&#xe91a;" glyph-name="info-outline" d="M469.333 234.667h85.333v256h-85.333v-256zM512 874.667c-235.52 0-426.667-191.147-426.667-426.667s191.147-426.667 426.667-426.667c235.52 0 426.667 191.147 426.667 426.667s-191.147 426.667-426.667 426.667zM512 106.667c-188.16 0-341.333 153.173-341.333 341.333s153.173 341.333 341.333 341.333c188.16 0 341.333-153.173 341.333-341.333s-153.173-341.333-341.333-341.333zM469.333 576h85.333v85.333h-85.333v-85.333z" />
<glyph unicode="&#xe91b;" glyph-name="list" d="M128 405.333h85.333v85.333h-85.333v-85.333zM128 234.667h85.333v85.333h-85.333v-85.333zM128 576h85.333v85.333h-85.333v-85.333zM298.667 405.333h597.333v85.333h-597.333v-85.333zM298.667 234.667h597.333v85.333h-597.333v-85.333zM298.667 661.333v-85.333h597.333v85.333h-597.333z" />
<glyph unicode="&#xe91c;" glyph-name="logout" d="M725.333 661.333l-60.16-60.16 110.080-110.507h-433.92v-85.333h433.92l-110.080-110.080 60.16-60.587 213.333 213.333-213.333 213.333zM170.667 746.667h341.333v85.333h-341.333c-22.632 0-44.337-8.99-60.34-24.994s-24.994-37.708-24.994-60.34v-597.333c0-22.63 8.99-44.335 24.994-60.339s37.708-24.994 60.34-24.994h341.333v85.333h-341.333v597.333z" />
<glyph unicode="&#xe91d;" glyph-name="manage-accounts" d="M426.667 448c33.754 0 66.752 10.010 94.818 28.762s49.941 45.41 62.857 76.593c12.919 31.185 16.299 65.501 9.711 98.607-6.583 33.106-22.839 63.516-46.707 87.384s-54.276 40.122-87.381 46.708c-33.109 6.585-67.423 3.206-98.608-9.712s-57.84-34.792-76.593-62.858c-18.753-28.066-28.762-61.063-28.762-94.817 0-45.264 17.981-88.674 49.987-120.678 32.006-32.009 75.416-49.988 120.68-49.988zM426.667 704c16.879 0 33.374-5.005 47.407-14.381s24.973-22.704 31.433-38.296c6.455-15.593 8.145-32.751 4.855-49.303-3.294-16.553-11.422-31.758-23.356-43.692s-27.14-20.061-43.691-23.354c-16.555-3.291-33.711-1.603-49.304 4.856s-28.92 17.396-38.296 31.429c-9.376 14.033-14.381 30.531-14.381 47.409 0 22.632 8.99 44.337 24.994 60.34s37.708 24.994 60.34 24.994zM170.667 192v27.733c-0.017 6.733 1.558 13.372 4.599 19.379s7.459 11.209 12.895 15.181c72.103 43.055 154.527 65.762 238.506 65.707h3.413c4.015 29.555 12.501 58.33 25.173 85.333h-28.587c-99.298 0.073-196.759-26.765-282.026-77.653-18.392-11.311-33.529-27.209-43.926-46.131-10.397-18.927-15.697-40.226-15.381-61.815v-113.067h395.093c-18.62 26.022-33.020 54.822-42.667 85.333h-267.093zM882.773 304.213c1.506-8.887 2.359-17.869 2.56-26.88-0.179-9.152-1.033-18.278-2.56-27.307l48.64-42.667-42.667-73.813-61.867 20.907c-13.7-11.546-29.291-20.638-46.080-26.88l-12.8-63.573h-85.333l-12.8 64.427c-16.794 6.242-32.38 15.334-46.080 26.88l-61.867-20.907-42.667 73.813 48.64 42.667c-1.506 8.887-2.364 17.869-2.56 26.88 0.196 9.011 1.054 17.993 2.56 26.88l-48.64 42.667 42.667 73.813 61.867-20.907c13.7 11.546 29.286 20.638 46.080 26.88l12.8 63.573h85.333l12.8-64c16.789-6.242 32.38-15.334 46.080-26.88l61.867 20.907 42.667-73.813-48.64-42.667zM677.922 206.383c14.033-9.378 30.532-14.383 47.411-14.383 22.63 0 44.335 8.99 60.339 24.994s24.994 37.709 24.994 60.339c0 16.879-5.005 33.374-14.383 47.407-9.374 14.033-22.703 24.973-38.293 31.433-15.595 6.455-32.751 8.145-49.306 4.855-16.555-3.294-31.757-11.422-43.691-23.356s-20.062-27.14-23.356-43.691c-3.294-16.555-1.604-33.711 4.855-49.306 6.46-15.59 17.395-28.919 31.428-38.293z" />
<glyph unicode="&#xe91e;" glyph-name="market" d="M249.263 286.315l-121.263-117.218v339.537h121.263v-222.319zM451.366 359.074l-64.672 52.548-56.59-48.508v307.201h121.261v-311.242zM653.474 427.789l-121.263-121.263v525.474h121.263v-404.211zM766.652 435.874l-72.755 72.759h202.103v-202.108l-72.759 72.759-291.029-291.034-141.474 121.263-149.558-145.515h-113.179l262.737 254.652 141.474-121.263z" />
<glyph unicode="&#xe91f;" glyph-name="menu" d="M128 192h768v85.333h-768v-85.333zM128 405.333h768v85.333h-768v-85.333zM128 704v-85.333h768v85.333h-768z" />
<glyph unicode="&#xe920;" glyph-name="notification" d="M512 21.333c22.63 0 44.335 8.99 60.339 24.994s24.994 37.709 24.994 60.339h-170.667c0-22.63 8.99-44.335 24.994-60.339s37.709-24.994 60.339-24.994zM768 277.333v213.333c0 130.987-69.547 240.64-192 269.653v29.013c0 16.974-6.741 33.253-18.743 45.255s-28.284 18.745-45.257 18.745c-16.973 0-33.254-6.743-45.257-18.745s-18.743-28.281-18.743-45.255v-29.013c-122.027-29.013-192-138.24-192-269.653v-213.333l-85.333-85.333v-42.667h682.667v42.667l-85.333 85.333zM682.667 234.667h-341.333v256c0 105.813 64.427 192 170.667 192s170.667-85.333 170.667-192v-256z" />
<glyph unicode="&#xe921;" glyph-name="question-mark" d="M472.32 411.733c32.853 59.307 96 94.293 132.693 146.773 11.072 15.824 17.361 34.498 18.112 53.795 0.755 19.297-4.058 38.404-13.862 55.043-9.801 16.639-24.183 30.107-41.429 38.8s-36.625 12.244-55.834 10.228c-28.638-0.541-56.269-10.671-78.468-28.772s-37.687-43.124-43.983-71.068l-110.507 44.8c15.26 49.75 46.181 93.239 88.159 123.992s92.768 47.124 144.8 46.675c40.021 2.196 79.915-6.145 115.703-24.188 35.785-18.043 66.214-45.158 88.243-78.639 18.735-31.651 28.621-67.754 28.621-104.533s-9.886-72.883-28.621-104.533c-51.2-75.52-100.267-98.56-128-147.2-10.667-19.627-14.933-32.427-14.933-95.573h-121.173c-5.41 45.828 1.668 92.262 20.48 134.4zM597.333 106.667c0-16.879-5.005-33.374-14.379-47.407-9.378-14.033-22.703-24.973-38.298-31.433-15.59-6.455-32.751-8.145-49.301-4.855-16.555 3.294-31.761 11.422-43.695 23.356s-20.062 27.14-23.351 43.691c-3.294 16.555-1.604 33.711 4.855 49.306 6.46 15.59 17.395 28.919 31.428 38.293 14.033 9.378 30.532 14.383 47.407 14.383 22.635 0 44.339-8.99 60.343-24.994 16-16.004 24.99-37.709 24.99-60.339z" />
<glyph unicode="&#xe922;" glyph-name="read-more" d="M341.333 661.333l213.333-213.333-213.333-213.333v170.667h-256v85.333h256v170.667zM554.667 661.333h384v-85.333h-384v85.333zM554.667 320h384v-85.333h-384v85.333zM938.667 490.667h-256v-85.333h256v85.333z" />
<glyph unicode="&#xe923;" glyph-name="remove" d="M298.667 490.667v-85.333h426.667v85.333h-426.667zM512 874.667c-84.386 0-166.878-25.024-237.043-71.906s-124.852-113.519-157.145-191.482c-32.294-77.962-40.743-163.752-24.28-246.516s57.099-158.788 116.77-218.462c59.67-59.669 135.695-100.305 218.46-116.77 82.765-16.461 168.555-8.013 246.515 24.282 77.965 32.294 144.602 86.98 191.484 157.146s71.906 152.657 71.906 237.043c0 56.030-11.038 111.513-32.478 163.278s-52.868 98.801-92.489 138.421c-39.62 39.619-86.656 71.048-138.423 92.49-51.763 21.442-107.247 32.478-163.277 32.478zM512 106.667c-67.507 0-133.502 20.019-189.635 57.523-56.132 37.508-99.881 90.816-125.716 153.186s-32.594 131.004-19.424 197.214c13.17 66.213 45.679 127.033 93.416 174.769s108.556 80.245 174.769 93.416c66.21 13.17 134.844 6.411 197.214-19.424s115.678-69.584 153.186-125.716c37.504-56.132 57.523-122.123 57.523-189.635 0-90.526-35.959-177.348-99.972-241.361-64.013-64.009-150.835-99.972-241.361-99.972z" />
<glyph unicode="&#xe924;" glyph-name="reorder" d="M128 320h768v85.333h-768v-85.333zM128 149.333h768v85.333h-768v-85.333zM128 490.667h768v85.333h-768v-85.333zM128 746.667v-85.333h768v85.333h-768z" />
<glyph unicode="&#xe925;" glyph-name="schedule" d="M511.573 874.667c-235.52 0-426.24-191.147-426.24-426.667s190.72-426.667 426.24-426.667c235.947 0 427.093 191.147 427.093 426.667s-191.147 426.667-427.093 426.667zM512 106.667c-188.587 0-341.333 152.747-341.333 341.333s152.747 341.333 341.333 341.333c188.587 0 341.333-152.747 341.333-341.333s-152.747-341.333-341.333-341.333zM533.333 661.333h-64v-256l224-134.4 32 52.48-192 113.92v224z" />
<glyph unicode="&#xe926;" glyph-name="search" d="M661.333 362.667h-33.707l-11.947 11.52c41.813 48.64 66.987 111.787 66.987 180.48 0 153.173-124.16 277.333-277.333 277.333s-277.333-124.16-277.333-277.333c0-153.173 124.16-277.333 277.333-277.333 68.693 0 131.84 25.173 180.48 66.987l11.52-11.947v-33.707l213.333-212.907 63.573 63.573-212.907 213.333zM405.333 362.667c-106.24 0-192 85.76-192 192s85.76 192 192 192c106.24 0 192-85.76 192-192s-85.76-192-192-192z" />
<glyph unicode="&#xe927;" glyph-name="swap-vert" d="M682.667 234.24v299.093h-85.333v-299.093h-128l170.667-170.24 170.667 170.24h-128zM384 832l-170.667-170.24h128v-299.093h85.333v299.093h128l-170.667 170.24z" />
<glyph unicode="&#xe928;" glyph-name="wallet" d="M896 649.387v97.28c0 22.632-8.99 44.337-24.994 60.34s-37.709 24.994-60.339 24.994h-597.333c-22.632 0-44.337-8.99-60.34-24.994s-24.994-37.708-24.994-60.34v-597.333c0-22.63 8.99-44.335 24.994-60.339s37.708-24.994 60.34-24.994h597.333c22.63 0 44.335 8.99 60.339 24.994s24.994 37.709 24.994 60.339v97.28c12.898 7.445 23.62 18.138 31.108 31.010 7.484 12.877 11.469 27.486 11.558 42.377v256c-0.090 14.892-4.075 29.501-11.558 42.375-7.488 12.874-18.21 23.566-31.108 31.011zM853.333 576v-256h-298.667v256h298.667zM213.333 149.333v597.333h597.333v-85.333h-256c-22.63 0-44.335-8.99-60.339-24.994s-24.994-37.708-24.994-60.34v-256c0-22.63 8.99-44.335 24.994-60.339s37.709-24.994 60.339-24.994h256v-85.333h-597.333zM682.667 384c35.345 0 64 28.655 64 64s-28.655 64-64 64c-35.345 0-64-28.655-64-64s28.655-64 64-64z" />
<glyph unicode="&#xe929;" glyph-name="withdraw" d="M128 448c-0.006-71.68 20.052-141.931 57.903-202.803 37.851-60.868 91.984-109.931 156.273-141.632s136.169-44.774 207.503-37.743c71.334 7.036 139.273 33.894 196.134 77.538l-60.587 61.44c-54.554-38.839-120.576-58.223-187.469-55.027-66.893 3.191-130.769 28.774-181.373 72.636s-85.001 103.458-97.663 169.216c-12.663 65.762-2.858 133.867 27.841 193.385s80.508 106.99 141.431 134.796c60.92 27.805 129.422 34.329 194.497 18.523s122.953-53.023 164.335-105.676c41.378-52.653 63.863-117.683 63.842-184.652h-128l170.667-170.667 170.667 170.667h-128c0 101.843-40.457 199.515-112.469 271.529-72.017 72.014-169.69 112.471-271.531 112.471-101.843 0-199.515-40.457-271.529-112.471s-112.471-169.686-112.471-271.529z" />
<glyph unicode="&#xe92a;" glyph-name="add-friend" d="M554.667 618.667c0 94.293-76.373 170.667-170.667 170.667s-170.667-76.373-170.667-170.667c0-94.293 76.373-170.667 170.667-170.667s170.667 76.373 170.667 170.667zM469.333 618.667c0-46.933-38.4-85.333-85.333-85.333s-85.333 38.4-85.333 85.333c0 46.933 38.4 85.333 85.333 85.333s85.333-38.4 85.333-85.333zM42.667 192v-85.333h682.667v85.333c0 113.493-227.413 170.667-341.333 170.667s-341.333-57.173-341.333-170.667zM128 192c8.533 30.293 140.8 85.333 256 85.333 114.773 0 246.613-54.613 256-85.333h-512zM853.333 320v128h128v85.333h-128v128h-85.333v-128h-128v-85.333h128v-128h85.333z" />
<glyph unicode="&#xe92b;" glyph-name="cooma" d="M739.366 712.009c-14.579-9.801-31.735-15.063-49.306-15.119-11.699-0.056-23.3 2.202-34.125 6.645s-20.668 10.985-28.954 19.246c-8.29 8.262-14.861 18.081-19.341 28.893-4.476 10.812-6.771 22.402-6.754 34.105 0 17.568 5.205 34.743 14.959 49.354 9.758 14.611 23.62 26.004 39.846 32.741s34.086 8.513 51.319 5.106c17.233-3.407 33.075-11.844 45.517-24.247s20.932-28.214 24.393-45.438c3.46-17.224 1.741-35.087-4.941-51.334-6.686-16.247-18.035-30.149-32.614-39.951zM817.161 40.892c13.568-12.727 31.543-19.733 50.172-19.55 18.641-0.239 36.638 6.775 50.172 19.55 6.677 6.426 11.981 14.14 15.582 22.669 3.601 8.525 5.427 17.694 5.367 26.948v317.905c1.378 32.67-4.028 65.276-15.876 95.77-11.985 30.701-30.153 58.631-53.376 82.069-23.394 23.886-51.401 42.799-82.33 55.6-30.925 12.86-64.102 19.481-97.609 19.481-33.51 0-66.684-6.621-97.609-19.481-29.905-12.581-57.058-30.839-79.957-53.751-22.921 22.894-50.048 41.093-79.876 53.577-30.892 12.975-64.032 19.656-97.503 19.656s-66.611-6.681-97.503-19.656c-30.77-12.759-58.655-31.659-81.974-55.562-23.2-23.648-41.345-51.829-53.317-82.806-11.878-30.758-17.323-63.654-15.995-96.631v-310.558c-0.966-14.532 2.633-29.001 10.289-41.357s18.978-21.978 32.364-27.494c8.96-3.913 18.624-5.935 28.391-5.935s19.431 2.022 28.391 5.935c13.337 5.572 24.608 15.211 32.233 27.554 7.625 12.348 11.222 26.786 10.287 41.297v310.558c0.049 13.867 2.844 27.588 8.223 40.354s13.232 24.324 23.101 33.997c20.273 19.691 47.342 30.694 75.51 30.694s55.236-11.004 75.51-30.694c9.869-9.673 17.722-21.231 23.103-33.997 5.188-12.326 7.974-25.536 8.205-38.912v-311.761c-0.832-9.472 0.444-19.008 3.738-27.93 3.187-9.084 8.282-17.382 14.946-24.346 3.157-3.315 6.622-6.31 10.342-8.943 12.151-8.747 26.79-13.521 41.903-13.508 18.65 0.051 36.561 7.36 49.984 20.399 6.46 6.268 11.627 13.76 15.194 22.042 0.627 1.429 1.203 2.884 1.732 4.356 2.923 8.26 4.233 16.994 3.866 25.737v312.512c0.145 3.473 0.213 6.942 0.209 10.406 0.887 10.944 3.524 21.696 7.825 31.842 5.359 12.655 13.201 24.115 23.061 33.707 20.297 19.516 47.394 30.421 75.593 30.421s55.296-10.906 75.593-30.421c9.882-9.549 17.737-20.983 23.104-33.617 5.363-12.638 8.124-26.219 8.119-39.94v-319.232c0.021-9.131 1.877-18.163 5.453-26.573 3.571-8.405 8.798-16.013 15.364-22.379zM383.814 712.009c-14.58-9.801-31.738-15.063-49.306-15.119-11.703-0.056-23.3 2.202-34.127 6.645s-20.666 10.985-28.954 19.246c-8.288 8.262-14.86 18.081-19.339 28.893s-6.774 22.402-6.755 34.105c0 17.568 5.206 34.743 14.961 49.354s23.62 26.004 39.846 32.741c16.226 6.736 34.083 8.513 51.318 5.106s33.074-11.844 45.516-24.247c12.442-12.403 20.931-28.214 24.393-45.438s1.743-35.087-4.942-51.334c-6.684-16.247-18.032-30.149-32.612-39.951z" />
<glyph unicode="&#xe92c;" glyph-name="group" d="M682.667 490.667c70.827 0 127.573 57.173 127.573 128s-56.747 128-127.573 128c-70.827 0-128-57.173-128-128s57.173-128 128-128zM341.333 490.667c70.827 0 127.573 57.173 127.573 128s-56.747 128-127.573 128c-70.827 0-128-57.173-128-128s57.173-128 128-128zM341.333 405.333c-99.413 0-298.667-49.92-298.667-149.333v-106.667h597.333v106.667c0 99.413-199.253 149.333-298.667 149.333zM682.667 405.333c-12.373 0-26.453-0.853-41.387-2.133 49.493-35.84 84.053-84.053 84.053-147.2v-106.667h256v106.667c0 99.413-199.253 149.333-298.667 149.333z" />
<glyph unicode="&#xe92d;" glyph-name="my-activity" d="M384 448c94.293 0 170.667 76.373 170.667 170.667s-76.373 170.667-170.667 170.667c-94.293 0-170.667-76.373-170.667-170.667s76.373-170.667 170.667-170.667zM384 704c46.933 0 85.333-38.4 85.333-85.333s-38.4-85.333-85.333-85.333c-46.933 0-85.333 38.4-85.333 85.333s38.4 85.333 85.333 85.333zM810.662 618.667c0-94.293-76.373-170.667-170.667-170.667-20.053 0-38.827 4.267-56.747 10.24 35.413 43.947 56.747 99.84 56.747 160.427s-21.333 116.48-56.747 160.427c17.92 5.973 36.693 10.24 56.747 10.24 94.293 0 170.667-76.373 170.667-170.667zM810.662 234.671c0 71.68-40.96 125.44-99.413 165.12 117.76-17.067 270.080-72.107 270.080-165.12v-128h-170.667v128zM42.667 234.667c0 113.493 227.413 170.667 341.333 170.667s341.333-57.173 341.333-170.667v-128h-682.667v128zM128 234.24v-42.24h512v42.667c-8.533 30.293-140.8 85.333-256 85.333s-247.467-55.040-256-85.76z" />
<glyph unicode="&#xe92e;" glyph-name="profile" d="M512 708.267c17.719 0 35.046-5.255 49.779-15.1s26.219-23.839 32.998-40.211c6.784-16.372 8.559-34.388 5.099-51.769-3.456-17.381-11.989-33.346-24.521-45.876s-28.497-21.065-45.875-24.52c-17.382-3.46-35.396-1.685-51.767 5.097-16.375 6.782-30.366 18.266-40.213 33.001-9.843 14.735-15.1 32.058-15.1 49.779 0 23.763 9.438 46.554 26.244 63.357 16.802 16.803 39.59 26.243 63.356 26.243zM512 324.267c128 0 260.267-62.293 260.267-89.6v-46.933h-520.533v46.933c0 27.307 133.547 89.6 260.267 89.6zM512 789.333c-33.754 0-66.752-10.010-94.817-28.762s-49.941-45.408-62.858-76.593c-12.917-31.185-16.297-65.501-9.712-98.607s22.839-63.515 46.708-87.383c23.868-23.868 54.278-40.124 87.383-46.707 33.109-6.588 67.422-3.209 98.607 9.711 31.185 12.915 57.843 34.79 76.595 62.857s28.762 61.063 28.762 94.818c0 45.264-17.98 88.673-49.988 120.68-32.004 32.006-75.413 49.987-120.678 49.987zM512 405.333c-113.92 0-341.333-57.173-341.333-170.667v-128h682.667v128c0 113.493-227.413 170.667-341.333 170.667z" />
<glyph unicode="&#xe92f;" d="M972.8 448c0-254.493-206.307-460.8-460.8-460.8s-460.8 206.307-460.8 460.8c0 254.493 206.307 460.8 460.8 460.8s460.8-206.307 460.8-460.8z" />
<glyph unicode="&#xe930;" d="M506.877 476.16c-58.112 15.104-76.8 30.72-76.8 55.040s25.6 47.36 69.12 47.36c43.52 0 62.464-21.76 64-53.76h56.576c-0.645 23.155-9.124 45.409-24.049 63.124s-35.415 29.844-58.127 34.412v56.064h-76.8v-55.296c-49.664-10.752-89.6-43.008-89.6-92.416 0-59.136 48.896-88.576 120.32-105.728 64-15.36 76.8-37.888 76.8-61.696 0-17.664-12.544-45.824-69.12-45.824-52.736 0-73.472 23.552-76.8 53.76h-55.808c3.072-56.064 45.056-87.552 94.208-98.048v-55.552h76.8v55.040c49.92 9.472 89.6 38.4 89.6 90.88 0 72.704-62.208 97.536-120.32 112.64z" />
<glyph unicode="&#xe931;" d="M972.8 448c0-254.493-206.307-460.8-460.8-460.8s-460.8 206.307-460.8 460.8c0 254.493 206.307 460.8 460.8 460.8s460.8-206.307 460.8-460.8z" />
<glyph unicode="&#xe932;" d="M506.877 476.16c-58.112 15.104-76.8 30.72-76.8 55.040s25.6 47.36 69.12 47.36c43.52 0 62.464-21.76 64-53.76h56.576c-0.645 23.155-9.124 45.409-24.049 63.124s-35.415 29.844-58.127 34.412v56.064h-76.8v-55.296c-49.664-10.752-89.6-43.008-89.6-92.416 0-59.136 48.896-88.576 120.32-105.728 64-15.36 76.8-37.888 76.8-61.696 0-17.664-12.544-45.824-69.12-45.824-52.736 0-73.472 23.552-76.8 53.76h-55.808c3.072-56.064 45.056-87.552 94.208-98.048v-55.552h76.8v55.040c49.92 9.472 89.6 38.4 89.6 90.88 0 72.704-62.208 97.536-120.32 112.64z" />
</font>
</defs>
</svg>
