<?xml version="1.0" encoding="UTF-8" standalone="no"?>
<!-- Generator: Adobe Illustrator 18.1.0, SVG Export Plug-In . SVG Version: 6.00 Build 0)  -->

<svg
   xmlns:dc="http://purl.org/dc/elements/1.1/"
   xmlns:cc="http://creativecommons.org/ns#"
   xmlns:rdf="http://www.w3.org/1999/02/22-rdf-syntax-ns#"
   xmlns:svg="http://www.w3.org/2000/svg"
   xmlns="http://www.w3.org/2000/svg"
   xmlns:sodipodi="http://sodipodi.sourceforge.net/DTD/sodipodi-0.dtd"
   xmlns:inkscape="http://www.inkscape.org/namespaces/inkscape"
   version="1.1"
   id="Layer_1"
   x="0px"
   y="0px"
   viewBox="0 0 306 70"
   enable-background="new 0 0 135 70"
   xml:space="preserve"
   sodipodi:docname="bitgo_.svg"
   inkscape:version="0.92.3 (2405546, 2018-03-11)"
   width="306"
   height="70"><metadata
   id="metadata31"><rdf:RDF><cc:Work
       rdf:about=""><dc:format>image/svg+xml</dc:format><dc:type
         rdf:resource="http://purl.org/dc/dcmitype/StillImage" /><dc:title></dc:title></cc:Work></rdf:RDF></metadata><defs
   id="defs29" /><sodipodi:namedview
   pagecolor="#ffffff"
   bordercolor="#666666"
   borderopacity="1"
   objecttolerance="10"
   gridtolerance="10"
   guidetolerance="10"
   inkscape:pageopacity="0"
   inkscape:pageshadow="2"
   inkscape:window-width="1843"
   inkscape:window-height="1057"
   id="namedview27"
   showgrid="false"
   inkscape:zoom="2.1037037"
   inkscape:cx="65.170503"
   inkscape:cy="58.452445"
   inkscape:window-x="-8"
   inkscape:window-y="-8"
   inkscape:window-maximized="1"
   inkscape:current-layer="Layer_1" />
<rect
   x="-531.336"
   y="-116.323"
   display="none"
   width="943.76001"
   height="283.5"
   id="rect2"
   style="display:none;fill:#58595b" />
<g
   id="g24"
   transform="matrix(3.0268161,0,0,3.0268161,-50.81018,-77.343196)">
	<path
   d="m 45.559,47.557 c 0,-6.701 0,-13.328 0,-19.995 0.179,-0.021 0.319,-0.053 0.459,-0.051 2.966,0.04 5.934,0.018 8.895,0.161 1.055,0.051 2.145,0.378 3.121,0.803 1.717,0.746 2.415,2.242 2.448,4.052 0.032,1.798 -0.744,3.167 -2.319,4.06 -0.301,0.171 -0.614,0.32 -0.991,0.516 0.333,0.1 0.587,0.168 0.836,0.253 1.965,0.673 3.146,2.016 3.37,4.097 0.233,2.162 -0.593,3.842 -2.466,4.978 -1.128,0.684 -2.379,1.08 -3.674,1.106 -3.199,0.063 -6.399,0.02 -9.679,0.02 z m 4.421,-3.726 c 1.581,0 3.097,0.011 4.612,-0.01 0.284,-0.004 0.576,-0.109 0.848,-0.212 0.913,-0.347 1.51,-1.189 1.5,-2.078 -0.01,-0.899 -0.528,-1.573 -1.559,-1.891 -1.766,-0.545 -3.574,-0.292 -5.401,-0.316 0,1.536 0,2.965 0,4.507 z m -0.005,-8.29 c 1.298,0 2.524,0.016 3.749,-0.011 0.314,-0.007 0.636,-0.119 0.934,-0.235 0.88,-0.343 1.328,-1.051 1.297,-1.989 -0.028,-0.844 -0.468,-1.467 -1.366,-1.736 -1.513,-0.453 -3.057,-0.191 -4.615,-0.21 0.001,1.433 0.001,2.75 0.001,4.181 z"
   id="path4"
   inkscape:connector-curvature="0"
   style="fill:#65add9" />
	<path
   d="m 100.975,30.033 c -1.01,1.094 -1.962,2.125 -2.947,3.192 -0.25,-0.182 -0.458,-0.328 -0.661,-0.482 -1.954,-1.483 -4.139,-1.634 -6.347,-0.856 -3.13,1.103 -3.975,4.227 -3.628,6.623 0.537,3.706 3.464,5.747 7.261,5.12 0.116,-0.019 0.229,-0.051 0.345,-0.073 2.256,-0.437 2.399,-0.626 2.204,-3.057 -0.534,0 -1.081,0 -1.628,0 -0.551,0 -1.101,0 -1.696,0 0,-1.105 0,-2.12 0,-3.204 2.469,0 4.92,0 7.437,0 0.026,0.228 0.072,0.45 0.072,0.672 0.005,2.379 -0.001,4.758 0.007,7.137 10e-4,0.398 -0.003,0.732 -0.459,0.928 -3.966,1.7 -8.04,2.311 -12.153,0.738 -3.641,-1.393 -5.479,-4.286 -5.845,-8.105 -0.226,-2.362 0.172,-4.626 1.473,-6.669 1.645,-2.582 4.089,-3.894 7.04,-4.325 2.147,-0.314 4.276,-0.123 6.356,0.508 1.166,0.351 2.21,0.928 3.169,1.853 z"
   id="path6"
   inkscape:connector-curvature="0"
   style="fill:#65add9" />
	<path
   d="m 110.498,47.597 c -3.164,0.169 -6.914,-2.477 -6.922,-6.93 -0.007,-3.795 3.171,-6.852 7.053,-6.83 3.922,0.023 6.913,3.302 6.871,7.006 -0.044,3.781 -3.381,6.951 -7.002,6.754 z m 3.294,-6.84 c 0.006,-1.816 -1.403,-3.248 -3.209,-3.26 -1.847,-0.012 -3.335,1.448 -3.324,3.263 0.01,1.74 1.523,3.236 3.284,3.247 1.767,0.011 3.243,-1.465 3.249,-3.25 z"
   id="path8"
   inkscape:connector-curvature="0"
   style="fill:#65add9" />
	<path
   d="m 72.816,33.836 c 0,-1.343 0,-2.592 0,-3.894 1.424,0 2.759,0 4.187,0 0,1.264 0,2.515 0,3.877 1.243,0 2.4,0 3.603,0 0,1.154 0,2.197 0,3.352 -1.176,0 -2.332,0 -3.507,0 0,1.954 -0.047,3.797 0.022,5.636 0.029,0.783 0.551,1.204 1.355,1.246 0.691,0.036 1.388,-0.049 2.179,-0.084 0,0.935 0.024,1.928 -0.023,2.917 -0.008,0.174 -0.291,0.446 -0.484,0.484 -1.688,0.335 -3.393,0.447 -5.033,-0.185 -1.491,-0.574 -2.269,-1.722 -2.284,-3.334 -0.017,-1.851 -0.005,-3.702 -0.005,-5.552 0,-0.32 0,-0.641 0,-1.071 -0.887,0 -1.721,0 -2.634,0 0,-1.17 0,-2.231 0,-3.391 0.866,-0.001 1.702,-0.001 2.624,-0.001 z"
   id="path10"
   inkscape:connector-curvature="0"
   style="fill:#65add9" />
	<path
   d="m 17.504,31.996 c 0,-0.939 -0.006,-1.878 0.002,-2.818 0.009,-1.138 0.443,-1.604 1.594,-1.636 2.063,-0.058 4.094,-0.315 6.06,-0.955 0.83,-0.27 1.626,-0.895 2.439,-0.899 0.78,-0.004 1.546,0.641 2.35,0.905 1.878,0.618 3.823,0.873 5.796,0.944 1.492,0.054 1.848,0.423 1.827,1.937 -0.029,2.14 0.038,4.291 -0.16,6.416 -0.486,5.241 -3.177,9.125 -7.726,11.678 -2.586,1.451 -1.71,1.462 -4.323,-0.016 -5.23,-2.959 -7.746,-7.565 -7.857,-13.531 -0.013,-0.674 -0.002,-1.35 -0.002,-2.025 z m 19.041,-3.234 c -0.169,-0.081 -0.245,-0.144 -0.326,-0.153 -0.291,-0.031 -0.584,-0.048 -0.876,-0.062 -2.538,-0.126 -5.019,-0.53 -7.348,-1.599 -0.376,-0.173 -0.649,-0.11 -0.985,0.043 -1.671,0.762 -3.44,1.166 -5.256,1.371 -1.042,0.118 -2.09,0.194 -3.145,0.29 -0.03,0.239 -0.07,0.411 -0.07,0.582 -0.001,1.733 -0.049,3.468 0.018,5.198 0.201,5.259 2.471,9.359 7.035,12.057 2.347,1.387 1.578,1.355 3.89,-10e-4 3.752,-2.2 6.144,-5.443 6.776,-9.785 0.282,-1.933 0.21,-3.919 0.283,-5.881 0.026,-0.698 0.004,-1.398 0.004,-2.06 z"
   id="path12"
   inkscape:connector-curvature="0"
   style="fill:#65add9" />
	<path
   d="m 67.875,47.558 c -1.429,0 -2.798,0 -4.235,0 0,-4.544 0,-9.071 0,-13.66 1.415,0 2.801,0 4.235,0 0,4.543 0,9.049 0,13.66 z"
   id="path14"
   inkscape:connector-curvature="0"
   style="fill:#65add9" />
	<path
   d="m 65.567,32.226 c -1.376,0.015 -2.419,-0.999 -2.419,-2.352 0,-1.299 1.041,-2.355 2.331,-2.365 1.346,-0.01 2.419,1.04 2.425,2.371 0.005,1.31 -1.013,2.332 -2.337,2.346 z"
   id="path16"
   inkscape:connector-curvature="0"
   style="fill:#65add9" />
	<path
   d="m 35.627,29.584 c 0,1.524 0.051,3.074 -0.012,4.619 -0.1,2.461 -0.626,4.817 -1.915,6.965 -1.391,2.318 -3.408,3.925 -5.767,5.143 -0.214,0.111 -0.585,0.107 -0.801,-0.004 -4.349,-2.235 -7.046,-5.68 -7.519,-10.632 -0.192,-2.008 -0.153,-4.038 -0.222,-6.131 0.934,-0.104 1.768,-0.195 2.601,-0.291 1.757,-0.201 3.459,-0.619 5.102,-1.28 0.224,-0.09 0.537,-0.149 0.742,-0.063 2.388,0.997 4.889,1.42 7.454,1.552 0.082,0.004 0.161,0.056 0.337,0.122 z m -9.059,11.325 c 0.297,0 0.531,0 0.839,0 0,0.571 0,1.089 0,1.651 0.383,0 0.692,0 1.081,0 0.031,-0.562 0.061,-1.106 0.092,-1.655 0.685,-0.172 1.351,-0.282 1.972,-0.51 0.708,-0.26 1.101,-0.826 1.245,-1.581 0.225,-1.182 -0.106,-2.082 -1.306,-2.532 1.511,-1.743 0.9,-2.92 -1.907,-3.783 0,-0.52 0,-1.066 0,-1.632 -0.382,0 -0.687,0 -1.041,0 -0.033,0.568 -0.063,1.083 -0.095,1.621 -0.29,0 -0.527,0 -0.839,0 0,-0.585 0,-1.102 0,-1.619 -0.413,0 -0.746,0 -1.146,0 0,0.579 0,1.095 0,1.718 -0.754,0 -1.441,0 -2.114,0 0,0.444 0,0.78 0,1.145 0.457,0.033 0.856,0.061 1.298,0.093 0,1.876 0,3.708 0,5.578 -0.401,0.037 -0.767,0.07 -1.129,0.104 0,0.445 0,0.835 0,1.333 0.658,0 1.255,0 1.923,0 0,0.625 0,1.141 0,1.68 0.408,0 0.736,0 1.126,0 0.001,-0.558 0.001,-1.05 0.001,-1.611 z"
   id="path18"
   inkscape:connector-curvature="0"
   style="fill:#65add9" />
	<path
   d="m 26.651,39.554 c 0,-0.908 0,-1.601 0,-2.338 0.78,-0.134 1.524,-0.137 2.251,0.133 0.448,0.167 0.745,0.486 0.726,0.987 -0.018,0.462 -0.313,0.79 -0.735,0.882 -0.701,0.154 -1.42,0.219 -2.242,0.336 z"
   id="path20"
   inkscape:connector-curvature="0"
   style="fill:#65add9" />
	<path
   d="m 26.714,33.796 c 0.553,0.065 1.045,0.095 1.525,0.189 0.495,0.097 0.872,0.365 0.896,0.93 0.021,0.493 -0.315,0.868 -0.95,0.976 -0.458,0.078 -0.932,0.06 -1.471,0.089 0,-0.706 0,-1.362 0,-2.184 z"
   id="path22"
   inkscape:connector-curvature="0"
   style="fill:#65add9" />
</g>
</svg>