<svg xmlns="http://www.w3.org/2000/svg" xmlns:xlink="http://www.w3.org/1999/xlink" viewBox="0 0 356.03 356.03"><defs><style>.cls-1{fill:url(#linear-gradient);}.cls-2{fill:#fff;}</style><linearGradient id="linear-gradient" x1="178.02" y1="356.03" x2="178.02" gradientUnits="userSpaceOnUse"><stop offset="0" stop-color="#13bcd1"/><stop offset="1" stop-color="#078795"/></linearGradient></defs><title>Asset 44</title><g id="Layer_2" data-name="Layer 2"><g id="Layer_1-2" data-name="Layer 1"><circle class="cls-1" cx="178.02" cy="178.02" r="178.02"/><path class="cls-2" d="M101.75,129.15c13.88-.58,26.28-5,38.41-10.46,13.12-5.9,26.59-10.9,40.67-14,7.19-1.57,13,1.7,17.31,7,9.29,11.46,18.11,23.29,27.08,35a37.13,37.13,0,0,1,2.36,4.18c-8.45,0-16.33.3-24.17-.18-2.32-.15-4.61-2.35-6.74-3.86-6.69-4.73-10.2-11.76-13.41-19a8.72,8.72,0,0,0-1.51-2.44c-1.52,17.44-10.42,30.13-25.06,39.21l.54.89h3.26c14.83,0,29.65-.12,44.48.08a40.78,40.78,0,0,1,10.56,1.89,9,9,0,0,1,6.56,9.07c0,4.44-2.45,8.27-6.74,9.38a57.41,57.41,0,0,1-12.2,1.91c-7.88.3-15.78.26-23.66,0a56.69,56.69,0,0,0-18.69,2.94c-19.94,6.21-38.48,2.66-55.63-9a7.34,7.34,0,0,1-3.47-6.66c.11-14.29,0-28.58,0-42.87Z"/><path class="cls-2" d="M270.78,212.05V183.46c0-9.54,0-9.54-9.42-9.54s-18.56,0-27.83,0c-2.23,0-3.4-.13-4.08-2.95-1.18-4.88-4.51-8.55-9.88-11,1.51-.1,2.38-.21,3.25-.21,14.61,0,29.22.13,43.83-.06,9.89-.13,18.55,8.83,18.34,18.44-.4,18.33-.46,36.69,0,55,.22,8.2-6.62,18.45-17.94,18.48-28.48.07-57,.12-85.43,0-10.08-.06-17.77-8.23-17.81-18.3,0-10.66,0-21.33-.06-32,0-2,.38-3.26,2.52-3.61,3.71-.62,7.4-1.32,11.59-2.07v16.4Zm-.21,14.45c-.83,0-1.45-.1-2.08-.1H180.92a4.13,4.13,0,0,0-1.58.07,2.37,2.37,0,0,0-1.27,1.13c-2,6.05.9,9.92,7.28,9.92,25.25,0,50.49-.07,75.74,0C270.59,237.6,271.38,237.15,270.57,226.5Z"/><path class="cls-2" d="M87.75,155.09c0,9.92,0,19.84,0,29.75,0,2.31-.63,3.3-3.07,3.2-3.62-.16-7.26-.13-10.88,0-2,.06-2.85-.48-2.85-2.67q.11-30.23,0-60.47c0-2.14.87-2.85,2.82-2.83,3.62,0,7.25,0,10.88,0,2.18,0,3.15.83,3.12,3.26C87.67,135.25,87.75,145.17,87.75,155.09Z"/></g></g></svg>