<svg xmlns="http://www.w3.org/2000/svg" xmlns:xlink="http://www.w3.org/1999/xlink" viewBox="0 0 768.25 226.36"><defs><style>.cls-1{fill:url(#linear-gradient);}.cls-2{fill:#fff;}.cls-3{fill:#060606;}</style><linearGradient id="linear-gradient" x1="113.18" y1="226.36" x2="113.18" gradientUnits="userSpaceOnUse"><stop offset="0" stop-color="#1fbcd1"/><stop offset="1" stop-color="#0c8896"/></linearGradient></defs><title>Asset 2icon2</title><g id="Layer_2" data-name="Layer 2"><g id="Layer_1-2" data-name="Layer 1"><circle class="cls-1" cx="113.18" cy="113.18" r="113.18"/><path class="cls-2" d="M64.69,82.11c8.83-.37,16.71-3.18,24.42-6.65A132.39,132.39,0,0,1,115,66.57c4.57-1,8.29,1.08,11,4.44,5.9,7.28,11.51,14.81,17.21,22.26a23,23,0,0,1,1.5,2.65c-5.37,0-10.38.19-15.36-.12-1.48-.09-2.94-1.49-4.29-2.45-4.25-3-6.49-7.47-8.53-12.06a5.44,5.44,0,0,0-1-1.55c-1,11.09-6.63,19.16-15.94,24.93l.35.56H102c9.42,0,18.85-.07,28.27.06a25.87,25.87,0,0,1,6.72,1.2,5.7,5.7,0,0,1,4.17,5.76,5.88,5.88,0,0,1-4.28,6,37.2,37.2,0,0,1-7.76,1.21c-5,.19-10,.17-15,0a36,36,0,0,0-11.89,1.87c-12.67,4-24.46,1.69-35.36-5.73a4.65,4.65,0,0,1-2.21-4.23c.07-9.08,0-18.17,0-27.26Z"/><path class="cls-2" d="M172.16,134.82V116.64c0-6.07,0-6.07-6-6.07s-11.8,0-17.7,0c-1.41,0-2.15-.08-2.59-1.87-.75-3.1-2.87-5.44-6.28-7,1-.07,1.51-.14,2.07-.14,9.29,0,18.58.08,27.86,0a11.89,11.89,0,0,1,11.66,11.72c-.25,11.66-.29,23.33,0,35,.14,5.21-4.21,11.72-11.41,11.74-18.1,0-36.21.08-54.31,0a11.43,11.43,0,0,1-11.33-11.63c0-6.78,0-13.56,0-20.34,0-1.27.23-2.07,1.6-2.3,2.35-.39,4.7-.83,7.36-1.31v10.43ZM172,144c-.52,0-.92-.07-1.32-.07H115a2.6,2.6,0,0,0-1,.05,1.45,1.45,0,0,0-.81.72c-1.25,3.84.57,6.3,4.63,6.3,16,0,32.11,0,48.16,0C172,151.06,172.54,150.78,172,144Z"/><path class="cls-2" d="M55.79,98.6c0,6.31,0,12.62,0,18.92,0,1.47-.4,2.1-2,2-2.3-.1-4.61-.08-6.91,0-1.27,0-1.82-.31-1.81-1.7q.06-19.21,0-38.45c0-1.36.55-1.81,1.79-1.8,2.3,0,4.61,0,6.91,0,1.39,0,2,.53,2,2.08C55.74,86,55.79,92.3,55.79,98.6Z"/><path class="cls-3" d="M334.38,122.53a18.54,18.54,0,0,1,4,11.73q0,9.51-6.65,15.08T313.2,154.9H277.85V79H312q11.57,0,18.1,5.3t6.54,14.38a17.37,17.37,0,0,1-3.51,11.13,18.17,18.17,0,0,1-9.35,6.16A17.67,17.67,0,0,1,334.38,122.53Zm-38.05-12.81h12.11c3,0,5.35-.66,7-2a7.19,7.19,0,0,0,2.43-5.89,7.33,7.33,0,0,0-2.43-5.94q-2.43-2.06-7-2.06H296.33Zm20.81,28.16a7.5,7.5,0,0,0,2.54-6.11A7.81,7.81,0,0,0,317,125.5a10.84,10.84,0,0,0-7.29-2.27H296.33V140H310C313.05,140,315.45,139.28,317.14,137.88Z"/><path class="cls-3" d="M408.21,79V93.83H388.1V154.9H369.62V93.83H349.51V79Z"/><path class="cls-3" d="M423.77,96.8a34.71,34.71,0,0,1,13.57-13.72,39.32,39.32,0,0,1,19.72-4.92q13.51,0,23.13,7.13a34.22,34.22,0,0,1,12.86,19.46H472.73a16.37,16.37,0,0,0-6.43-7.24A18,18,0,0,0,456.84,95,17.63,17.63,0,0,0,443,101q-5.29,5.94-5.3,15.88t5.3,15.89a17.63,17.63,0,0,0,13.83,5.95,18,18,0,0,0,9.46-2.49,16.31,16.31,0,0,0,6.43-7.24h20.32a33.94,33.94,0,0,1-12.86,19.4q-9.62,7.08-23.13,7.08a39.32,39.32,0,0,1-19.72-4.92,34.71,34.71,0,0,1-13.57-13.67,40.51,40.51,0,0,1-4.86-20A40.84,40.84,0,0,1,423.77,96.8Z"/><path class="cls-3" d="M547.31,53.08,517.7,173.28H508l29.51-120.2Z"/><path class="cls-3" d="M583.42,93.83v15.35h24.75v14.27H583.42v16.64h28V154.9H564.93V79h46.48V93.83Z"/><path class="cls-3" d="M646.11,79v45.4q0,6.81,3.35,10.49t9.83,3.67q6.5,0,10-3.67t3.46-10.49V79h18.48v45.29q0,10.17-4.32,17.19a27.79,27.79,0,0,1-11.62,10.59A36.55,36.55,0,0,1,659,155.66a35.65,35.65,0,0,1-16.05-3.51,26.27,26.27,0,0,1-11.19-10.6q-4.11-7.08-4.11-17.24V79Z"/><path class="cls-3" d="M747.38,154.9,731.6,126.26h-4.43V154.9H708.69V79h31A34.19,34.19,0,0,1,755,82.16a21.59,21.59,0,0,1,9.45,8.59,24,24,0,0,1,3.14,12.16,22.61,22.61,0,0,1-4.27,13.51q-4.27,6-12.59,8.43l17.51,30.05Zm-20.21-41.72h11.46q5.08,0,7.62-2.49a9.38,9.38,0,0,0,2.54-7,9.11,9.11,0,0,0-2.54-6.81q-2.54-2.49-7.62-2.49H727.17Z"/></g></g></svg>