<?xml version="1.0" encoding="utf-8"?>
<!-- Generator: Adobe Illustrator 22.1.0, SVG Export Plug-In . SVG Version: 6.00 Build 0)  -->
<svg version="1.1" id="Layer_2_1_" xmlns="http://www.w3.org/2000/svg" xmlns:xlink="http://www.w3.org/1999/xlink" x="0px" y="0px"
	 viewBox="0 0 640 480" style="enable-background:new 0 0 640 480;" xml:space="preserve">
<style type="text/css">
	.st0{fill:#FFFFFF;}
	.st1{fill:#F7931A;}
</style>
<g>
	<g>
		<g>
			<path class="st0" d="M557.7,240.1c0.3,131.3-105.8,238-237.2,238.2c-131.2,0.3-238-105.8-238.2-237.2
				C82,109.8,188.1,3.1,319.3,2.8C450.7,2.7,557.3,108.8,557.7,240.1z"/>
			<path class="st0" d="M396.7,229.3c-2.2-0.7-2.7-3.7-0.7-5c12.2-8.3,19.5-21.6,17.4-42c-3.1-31.1-29.3-42-62.8-45.2
				c-1.5-0.1-2.5-1.4-2.5-2.8L348,95.6c0-1.6-1.3-2.9-2.9-2.9h-21.2c-1.6,0-2.9,1.3-2.9,2.9l0.1,37.4c0,1.6-1.3,2.8-2.8,2.9
				c-5.2,0-10.5,0.1-15.8,0.2c-1.6,0-2.9-1.3-2.9-2.8l-0.1-37.6c0-1.6-1.3-2.9-2.9-2.9h-21.2c-1.6,0-2.9,1.3-2.9,2.9l0.1,38.5
				c0,1.5-1.3,2.8-2.8,2.9c-4.8,0.1-9.7,0.2-14.3,0.2v-0.1l-34.2,0.1c-1.6,0-2.9,1.3-2.9,2.9l0.1,22.9c0,1.6,1.3,2.9,2.9,2.9
				c5.5-0.1,16.9-0.2,16.7,0c10.7,0,14.3,6.1,15.4,11.4c0,0.2,0.1,0.3,0.1,0.6l0.1,47.4c0,1.5,1,2.7,2.5,2.8c0.1,0,0.2,0,0.3,0l0,0
				c-1.6,0-2.8,1.3-2.8,2.9l0.1,67.4c0,0.1,0,0.3,0,0.5c-0.6,3.5-2.7,8.6-10,8.6c0.2,0.2-11.9,0.1-17.2,0.1c-1.4,0-2.5,1-2.8,2.4
				l-4.4,26.4c-0.2,1.7,1,3.3,2.8,3.3l31.7-0.1c5.5,0,11,0,16.4,0.1c1.5,0,2.8,1.3,2.8,2.9l0.1,39.1c0,1.6,1.3,2.9,2.9,2.9h21.2
				c1.6,0,2.9-1.3,2.9-2.9l-0.1-38.5c0-1.6,1.3-2.9,2.9-2.9c5.4,0.1,10.6,0.1,15.8,0.1c1.6,0,2.8,1.3,2.8,2.8l0.1,38.3
				c0,1.6,1.3,2.9,2.9,2.9H346c1.6,0,2.9-1.3,2.9-2.9l-0.1-39.1c0-1.5,1.2-2.8,2.7-2.9c43.8-3,74.2-14.9,77.9-56.5
				C431.9,251.6,418.6,236.3,396.7,229.3z M300.3,170.5c0-1.5,1.3-2.8,2.8-2.9c17.5-0.5,60.1-3.2,60.2,26.7
				c0.1,28.7-42.5,27.2-60,27c-1.5,0-2.8-1.3-2.8-2.9L300.3,170.5z M303.5,307.7c-1.5,0-2.8-1.3-2.8-2.9l-0.1-53.5
				c0-1.5,1.3-2.8,2.8-2.9c20.6-0.5,72.5-3.8,72.6,29.4C376.1,309.6,324.1,307.8,303.5,307.7z"/>
		</g>
		<g>
			<g>
				<g>
					<path class="st1" d="M557.7,239c0.3,131.3-105.8,238-237.2,238.2C189.3,477.5,82.5,371.4,82.3,240C82,108.7,188.1,2,319.3,1.7
						C450.7,1.6,557.3,107.6,557.7,239z"/>
					<g>
						<g>
							<path class="st0" d="M396.7,228.1c-2.2-0.7-2.7-3.7-0.7-5c12.2-8.3,19.5-21.6,17.4-42c-3.1-31.1-29.3-42-62.8-45.2
								c-1.5-0.1-2.5-1.4-2.5-2.8L348,94.4c0-1.6-1.3-2.9-2.9-2.9h-21.2c-1.6,0-2.9,1.3-2.9,2.9l0.1,37.4c0,1.6-1.3,2.8-2.8,2.9
								c-5.2,0-10.5,0.1-15.8,0.2c-1.6,0-2.9-1.3-2.9-2.8l-0.1-37.6c0-1.6-1.3-2.9-2.9-2.9h-21.2c-1.6,0-2.9,1.3-2.9,2.9l0.1,38.5
								c0,1.5-1.3,2.8-2.8,2.9c-4.8,0.1-9.7,0.2-14.3,0.2l0,0l-34.2,0.1c-1.6,0-2.9,1.3-2.9,2.9l0.1,22.9c0,1.6,1.3,2.9,2.9,2.9
								c5.5-0.1,16.9-0.2,16.7,0c10.7,0,14.3,6.1,15.4,11.4c0,0.2,0.1,0.3,0.1,0.6l0.1,47.4c0,1.5,1,2.7,2.5,2.8c0.1,0,0.2,0,0.3,0
								l0,0c-1.6,0-2.8,1.3-2.8,2.9l0.1,67.4c0,0.1,0,0.3,0,0.5c-0.6,3.5-2.7,8.6-10,8.6c0.2,0.2-11.9,0.1-17.2,0.1
								c-1.4,0-2.5,1-2.8,2.4l-4.4,26.4c-0.2,1.7,1,3.3,2.8,3.3l31.7-0.1c5.5,0,11,0,16.4,0.1c1.5,0,2.8,1.3,2.8,2.9l0.1,39.1
								c0,1.6,1.3,2.9,2.9,2.9h21.2c1.6,0,2.9-1.3,2.9-2.9l-0.1-38.5c0-1.6,1.3-2.9,2.9-2.9c5.4,0.1,10.6,0.1,15.8,0.1
								c1.6,0,2.8,1.3,2.8,2.8l0.1,38.3c0,1.6,1.3,2.9,2.9,2.9H346c1.6,0,2.9-1.3,2.9-2.9l-0.1-39.1c0-1.5,1.2-2.8,2.7-2.9
								c43.8-3,74.2-14.9,77.9-56.5C431.9,250.5,418.6,235.1,396.7,228.1z M300.3,169.3c0-1.5,1.3-2.8,2.8-2.9
								c17.5-0.5,60.1-3.2,60.2,26.7c0.1,28.7-42.5,27.2-60,27c-1.5,0-2.8-1.3-2.8-2.9L300.3,169.3z M303.5,306.5
								c-1.5,0-2.8-1.3-2.8-2.9l-0.1-53.5c0-1.5,1.3-2.8,2.8-2.9c20.6-0.5,72.5-3.8,72.6,29.4C376.1,308.5,324.1,306.6,303.5,306.5z
								"/>
						</g>
					</g>
				</g>
			</g>
		</g>
	</g>
</g>
</svg>
