<svg xmlns="http://www.w3.org/2000/svg" viewBox="0 0 525.2 525.9"><defs><style>.cls-1{fill:#38a3c6;}.cls-2{fill:#fff;}</style></defs><g id="Layer_2" data-name="Layer 2"><g id="Layer_1-2" data-name="Layer 1"><path class="cls-1" d="M262.8,0C405-.4,518.92,112.42,524.92,249.77c6.81,156-114.2,270.37-249.71,275.89C119,532,7.45,410.57.39,278.09-8,120.91,118.52-1.62,262.8,0Zm86.42,219.23c-1.25-2.45-1.8-4-2.77-5.31-15.91-20.86-31.51-42-48-62.38-7.94-9.85-19.34-15.06-31.91-11.08C244,147.6,222,156.1,199.66,164c-14.18,5-28.26,10.4-42.63,14.79-7.48,2.29-15.5,2.79-23.51,4.13,0,26.93-.14,53.9.21,80.87,0,2.75,2.51,6.06,4.78,8.07,8.07,7.12,17.75,11.57,27.9,14.87,22.42,7.28,45.18,9.92,67.83,1.6C245.59,284.15,257,283,268.89,283c18.41,0,36.9,1.56,55.22-1.87,9.09-1.7,15.08-7.57,15.95-15.92.71-6.72-3.81-15.83-12.36-17.5-5.67-1.1-11.39-2.63-17.1-2.69-25.48-.3-51-.13-76.46-.13h-5.55c10-10.19,20.32-19.27,28.9-29.78,9-11,9.83-25.65,13.73-40.54,1.33,2.87,2,4.26,2.63,5.72,6.07,15.36,15.1,28.37,29.57,37,1.39.83,3,1.88,4.47,1.89C321.35,219.31,334.8,219.25,349.22,219.25Zm-84.91,77.49c-7.15,1.28-13.55,2.41-19.94,3.58-3,.55-4.22,2.12-4.18,5.47.18,18.66,0,37.32.12,56,.11,17.14,13.43,30.89,30.59,31q73.23.3,146.46,0c17.92-.08,30.59-13.41,30.59-31.18,0-31.49-.52-63,.2-94.46.39-17.27-14.29-32.68-32.45-32.27-24.15.55-48.31.14-72.47.14H338c7.54,5,13.26,11.24,15.24,19.8.87,3.76,2.2,4.4,5.52,4.38,18.5-.12,37-.06,55.49-.06,7.69,0,9.72,1.95,9.74,9.7.05,17.33,0,34.65,0,52,0,1.3-.19,2.59-.31,4.1H264.31ZM80.63,226.63c0,17.32.08,34.65-.06,52,0,3.42,1,4.79,4.53,4.67,6.49-.22,13-.21,19.48,0,3.84.12,4.8-1.56,4.79-5.1q-.14-51.48,0-102.94c0-3.83-1.65-5.08-5-5.1-6.33,0-12.66,0-19,0-3.54,0-4.88,1.36-4.84,5.08C80.73,192.31,80.63,209.47,80.63,226.63Z"/><path class="cls-2" d="M349.22,219.25c-14.42,0-27.87.06-41.33-.09-1.5,0-3.08-1.06-4.47-1.89-14.47-8.64-23.5-21.65-29.57-37-.58-1.46-1.3-2.85-2.63-5.72-3.9,14.89-4.75,29.53-13.73,40.54-8.58,10.51-18.89,19.59-28.9,29.78h5.55c25.49,0,51-.17,76.46.13,5.71.06,11.43,1.59,17.1,2.69,8.55,1.67,13.07,10.78,12.36,17.5-.87,8.35-6.86,14.22-15.95,15.92-18.32,3.43-36.81,1.84-55.22,1.87-11.91,0-23.3,1.18-34.65,5.35-22.65,8.32-45.41,5.68-67.83-1.6-10.15-3.3-19.83-7.75-27.9-14.87-2.27-2-4.74-5.32-4.78-8.07-.35-27-.21-53.94-.21-80.87,8-1.34,16-1.84,23.51-4.13,14.37-4.39,28.45-9.77,42.63-14.79C222,156.1,244,147.6,266.57,140.48c12.57-4,24,1.23,31.91,11.08,16.46,20.41,32.06,41.52,48,62.38C347.42,215.21,348,216.8,349.22,219.25Z"/><path class="cls-2" d="M264.31,296.74v28.12H423.66c.12-1.51.3-2.8.31-4.1,0-17.33,0-34.65,0-52,0-7.75-2-9.7-9.74-9.7-18.5,0-37-.06-55.49.06-3.32,0-4.65-.62-5.52-4.38-2-8.56-7.7-14.75-15.24-19.8h5.26c24.16,0,48.32.41,72.47-.14,18.16-.41,32.84,15,32.45,32.27-.72,31.47-.2,63-.2,94.46,0,17.77-12.67,31.1-30.59,31.18q-73.23.31-146.46,0c-17.16-.07-30.48-13.82-30.59-31-.13-18.66.06-37.32-.12-56,0-3.35,1.15-4.92,4.18-5.47C250.76,299.15,257.16,298,264.31,296.74Zm159.48,52.54H270.16a13.41,13.41,0,0,0-3.48.12,3.45,3.45,0,0,0-2.1,1.69c-3.85,10.05,1.34,17.76,11.89,17.76q67.66,0,135.33,0c2.14,0,4.62.24,6.34-.72,2.2-1.24,4.95-3.33,5.4-5.49C424.4,358.53,423.79,354.13,423.79,349.28Z"/><path class="cls-2" d="M80.63,226.63c0-17.16.1-34.32-.07-51.47,0-3.72,1.3-5.12,4.84-5.08,6.33.08,12.66,0,19,0,3.35,0,5,1.27,5,5.1q-.18,51.47,0,102.94c0,3.54-1,5.22-4.79,5.1-6.49-.2-13-.21-19.48,0-3.57.12-4.55-1.25-4.53-4.67C80.71,261.28,80.63,244,80.63,226.63Z"/><path class="cls-1" d="M423.79,349.28c0,4.85.61,9.25-.25,13.34-.45,2.16-3.2,4.25-5.4,5.49-1.72,1-4.2.71-6.34.72q-67.67,0-135.33,0c-10.55,0-15.74-7.71-11.89-17.76a3.45,3.45,0,0,1,2.1-1.69,13.41,13.41,0,0,1,3.48-.12H423.79Z"/></g></g></svg>