<?xml version="1.0" encoding="utf-8"?>
<!-- Generator: Adobe Illustrator 26.0.2, SVG Export Plug-In . SVG Version: 6.00 Build 0)  -->
<svg version="1.1" id="Layer_1" xmlns="http://www.w3.org/2000/svg" xmlns:xlink="http://www.w3.org/1999/xlink" x="0px" y="0px"
	 viewBox="0 0 1200 200" style="enable-background:new 0 0 1200 200;" xml:space="preserve">
<style type="text/css">
	.st0{fill:#18212D;}
	.st1{fill:#B9D3D9;}
</style>
<path class="st0" d="M122.2,140.7c-9.7,7-21.6,11.1-34.4,11.1c-32.6,0-59-26.4-59-59s26.4-59,59-59c13.1,0,25.2,4.3,35,11.5h39.1
	C146.2,21.1,119,5.1,88,5.1C39.4,5.1,0,44.4,0,93s39.4,88,88,88c31,0,58.2-16.1,73.9-40.3H122.2z"/>
<g>
	<g>
		<g>
			<path class="st0" d="M262.7,82c5.7,6.2,8.5,14.7,8.5,25.3v47.4h-29.5V111c0-4.6-1.3-8.3-3.8-10.9c-2.5-2.7-5.9-4-10.1-4
				c-4.4,0-7.9,1.3-10.4,4c-2.5,2.7-3.8,6.3-3.8,10.9v43.6h-29.5V47.4h29.5v37.5c2.6-3.7,6.1-6.6,10.6-8.9c4.5-2.3,9.6-3.4,15.4-3.4
				C249.3,72.6,257,75.7,262.7,82z"/>
			<path class="st0" d="M262.7,82l-0.8,0.7c5.5,6,8.2,14.1,8.2,24.5v46.3h-27.3l0-42.5c0-4.8-1.3-8.8-4.1-11.7
				c-2.7-2.9-6.4-4.3-10.9-4.3c-2.3,0-4.4,0.3-6.3,1.1c-1.9,0.7-3.5,1.8-4.9,3.3c-2.7,2.9-4.1,6.9-4.1,11.7v42.5l-27.3,0v-105h27.3
				v39.9l2-2.8c2.5-3.5,5.9-6.4,10.2-8.6c4.3-2.2,9.3-3.3,14.9-3.3c4.7,0,8.9,0.8,12.6,2.3c3.7,1.5,6.9,3.7,9.6,6.7L262.7,82
				l0.8-0.7c-2.9-3.2-6.4-5.7-10.4-7.3c-4-1.6-8.4-2.4-13.4-2.4c-6,0-11.3,1.2-15.9,3.5c-4.6,2.3-8.3,5.4-11,9.3l0.9,0.6h1.1V46.3
				H183v109.4h31.7V111c0-4.4,1.2-7.8,3.5-10.2c1.1-1.2,2.5-2.1,4.1-2.7c1.6-0.6,3.4-0.9,5.5-0.9c4,0,7,1.2,9.3,3.6
				c2.3,2.4,3.5,5.7,3.5,10.2v44.7h31.7v-48.5c0-10.8-2.9-19.6-8.8-26L262.7,82z"/>
			<path class="st0" d="M287.3,91.9c3.2-6.3,7.5-11.1,12.9-14.5c5.5-3.4,11.6-5.1,18.3-5.1c5.8,0,10.8,1.1,15.1,3.3
				c4.2,2.2,7.5,5.2,9.8,9V73.4h29.5v81.3h-29.5v-11.3c-2.3,3.8-5.6,6.8-9.9,9c-4.3,2.2-9.3,3.3-15,3.3c-6.7,0-12.8-1.7-18.3-5.1
				c-5.5-3.4-9.8-8.2-12.9-14.6c-3.2-6.3-4.7-13.7-4.7-22.1C282.6,105.5,284.2,98.2,287.3,91.9z M339,101.6c-3-3-6.6-4.5-10.9-4.5
				c-4.4,0-8.1,1.5-11,4.4c-2.9,2.9-4.4,7.1-4.4,12.4c0,5.2,1.5,9.3,4.4,12.4c2.9,3,6.6,4.6,11,4.6c4.3,0,8-1.5,10.9-4.5
				c3-3,4.4-7.1,4.4-12.5C343.4,108.7,341.9,104.6,339,101.6z"/>
			<path class="st0" d="M287.3,91.9l1,0.5c3.1-6.1,7.3-10.8,12.5-14.1c5.3-3.3,11.2-4.9,17.7-4.9c5.7,0,10.5,1.1,14.5,3.2
				c4.1,2.1,7.2,5,9.4,8.6l2,3.3V74.4l27.3,0v79.1h-27.3v-14.1l-2,3.3c-2.2,3.6-5.3,6.4-9.4,8.6c-4.1,2.1-8.9,3.2-14.5,3.2
				c-6.5,0-12.4-1.6-17.7-4.9c-5.3-3.3-9.5-7.9-12.5-14.1c-3.1-6.2-4.6-13.3-4.6-21.6c0-8.3,1.6-15.4,4.6-21.5L287.3,91.9l-1-0.5
				c-3.3,6.5-4.9,14-4.9,22.5c0,8.5,1.6,16.1,4.9,22.6c3.2,6.5,7.7,11.5,13.4,15c5.6,3.5,12,5.2,18.9,5.2c5.9,0,11-1.1,15.5-3.5
				c4.4-2.3,7.9-5.4,10.3-9.4l-0.9-0.6h-1.1v12.4H374V72.3h-31.7v12.4h1.1l0.9-0.6c-2.4-3.9-5.8-7.1-10.2-9.4
				c-4.4-2.3-9.6-3.5-15.6-3.5c-6.9,0-13.2,1.7-18.9,5.2c-5.7,3.5-10.1,8.5-13.3,14.9L287.3,91.9z M339,101.6l0.8-0.8
				c-3.1-3.2-7.1-4.8-11.7-4.8c-4.7,0-8.7,1.6-11.8,4.7c-1.6,1.6-2.8,3.5-3.5,5.7c-0.8,2.2-1.2,4.7-1.2,7.4c0,5.4,1.5,9.9,4.7,13.1
				c3.1,3.3,7.1,4.9,11.8,4.9c4.6,0,8.5-1.6,11.7-4.8c1.6-1.6,2.8-3.5,3.6-5.8c0.8-2.2,1.2-4.7,1.2-7.5c0-5.4-1.6-9.9-4.8-13.1
				L339,101.6l-0.8,0.8c2.7,2.8,4.1,6.5,4.1,11.5c0,2.6-0.4,4.8-1,6.7c-0.7,1.9-1.7,3.6-3.1,5c-2.8,2.8-6.1,4.2-10.1,4.2
				c-4.2,0-7.5-1.4-10.2-4.2c-2.7-2.8-4.1-6.6-4.1-11.6c0-2.6,0.4-4.8,1-6.7c0.7-1.9,1.7-3.5,3-4.9c2.7-2.7,6-4.1,10.2-4.1
				c4.1,0,7.4,1.4,10.1,4.2L339,101.6z"/>
			<path class="st0" d="M431.4,76.7c4.7-2.7,9.8-4.1,15.2-4.1v30.3h-8.3c-6.4,0-11.2,1.2-14.3,3.6c-3.1,2.4-4.7,6.6-4.7,12.6v35.5
				h-29.5V73.4h29.5v14.3C422.6,83.1,426.6,79.4,431.4,76.7z"/>
			<path class="st0" d="M431.4,76.7l0.5,0.9c4.6-2.6,9.4-3.9,14.7-3.9v-1.1h-1.1v29.2h-7.2c-6.6,0-11.6,1.2-15,3.9
				c-1.7,1.3-3,3.2-3.9,5.4c-0.8,2.3-1.2,4.9-1.2,8v34.4l-27.3,0V74.4h27.3v16.7l2-2.8c3.2-4.5,7.1-8.1,11.7-10.7L431.4,76.7
				l-0.5-0.9c-4.9,2.8-9,6.6-12.4,11.3l0.9,0.6h1.1V72.3h-31.7v83.5h31.7v-36.6c0-2.9,0.4-5.3,1.1-7.3c0.7-1.9,1.8-3.4,3.1-4.5
				c2.8-2.2,7.3-3.4,13.6-3.4h9.4V71.5h-1.1c-5.6,0-10.9,1.4-15.7,4.2L431.4,76.7z"/>
			<path class="st0" d="M503.2,75.7c4.3,2.2,7.6,5.2,9.9,9V73.4h29.5v80.4c0,7.6-1.5,14.5-4.5,20.6c-3,6.1-7.7,11-14.1,14.7
				c-6.4,3.7-14.4,5.5-24.2,5.5c-13,0-23.5-2.9-31.3-8.8c-7.8-5.9-12.3-13.9-13.4-24.1h29.1c0.6,2.6,2.1,4.6,4.5,6.1
				s5.5,2.2,9.3,2.2c10,0,15.1-5.4,15.1-16.2v-10.4c-2.3,3.8-5.6,6.8-9.9,9c-4.3,2.2-9.3,3.3-15,3.3c-6.7,0-12.8-1.7-18.3-5.1
				c-5.5-3.4-9.8-8.2-12.9-14.6c-3.2-6.3-4.7-13.7-4.7-22.1c0-8.4,1.6-15.7,4.7-22c3.2-6.3,7.5-11.1,12.9-14.5
				c5.5-3.4,11.6-5.1,18.3-5.1C494,72.3,499,73.4,503.2,75.7z M508.7,101.6c-3-3-6.6-4.5-10.9-4.5c-4.4,0-8.1,1.5-11,4.4
				c-2.9,2.9-4.4,7.1-4.4,12.4c0,5.2,1.5,9.3,4.4,12.4c2.9,3,6.6,4.6,11,4.6c4.3,0,8-1.5,10.9-4.5c3-3,4.4-7.1,4.4-12.5
				C513.1,108.7,511.6,104.6,508.7,101.6z"/>
			<path class="st0" d="M503.2,75.7l-0.5,1c4.1,2.1,7.2,5,9.4,8.6l2,3.3V74.4l27.3,0v79.3c0,7.5-1.5,14.2-4.4,20.2
				c-2.9,5.9-7.4,10.7-13.6,14.2c-6.2,3.5-14,5.4-23.6,5.4c-12.9,0-23.1-2.9-30.7-8.6c-7.6-5.7-11.9-13.4-13-23.3l-1.1,0.1v1.1h29.1
				v-1.1l-1.1,0.2c0.7,2.9,2.4,5.2,5,6.8c2.6,1.6,5.9,2.3,9.9,2.3c2.6,0,4.9-0.4,7-1.1c3-1.1,5.4-3.1,6.9-5.8
				c1.5-2.8,2.3-6.2,2.3-10.4v-14.3l-2,3.3c-2.2,3.6-5.3,6.4-9.4,8.6c-4.1,2.1-8.9,3.2-14.5,3.2c-6.5,0-12.4-1.6-17.7-4.9
				c-5.3-3.3-9.5-7.9-12.5-14.1c-3.1-6.2-4.6-13.3-4.6-21.6c0-8.3,1.6-15.4,4.6-21.5c3.1-6.1,7.3-10.8,12.5-14.1
				c5.3-3.3,11.2-4.9,17.7-4.9c5.6,0,10.4,1.1,14.5,3.2L503.2,75.7l0.5-1c-4.4-2.3-9.6-3.5-15.5-3.5c-6.9,0-13.2,1.7-18.9,5.2
				c-5.7,3.5-10.1,8.5-13.3,14.9c-3.3,6.5-4.9,14-4.9,22.5c0,8.5,1.6,16.1,4.9,22.6c3.2,6.5,7.7,11.5,13.4,15
				c5.6,3.5,12,5.2,18.9,5.2c5.9,0,11-1.1,15.5-3.5c4.4-2.3,7.9-5.4,10.3-9.4l-0.9-0.6H512v10.4c0,2.6-0.3,4.9-0.9,6.8
				c-0.9,2.8-2.4,4.9-4.5,6.3c-2.1,1.4-5,2.1-8.6,2.1c-3.7,0-6.6-0.7-8.8-2c-2.2-1.3-3.5-3.1-4-5.4l-0.2-0.8h-31.1l0.1,1.2
				c1.1,10.4,5.8,18.8,13.8,24.8c8.1,6.1,18.8,9.1,32,9.1c9.9,0,18.1-1.9,24.7-5.7c6.5-3.8,11.4-8.8,14.5-15.2
				c3.1-6.3,4.6-13.4,4.6-21.1V72.3H512v12.4h1.1l0.9-0.6c-2.4-3.9-5.9-7.1-10.3-9.4L503.2,75.7z M508.7,101.6l0.8-0.8
				c-3.1-3.2-7.1-4.8-11.7-4.8c-4.7,0-8.7,1.6-11.8,4.7c-1.6,1.6-2.8,3.5-3.5,5.7c-0.8,2.2-1.2,4.7-1.2,7.4c0,5.4,1.5,9.9,4.7,13.1
				c3.1,3.3,7.1,4.9,11.8,4.9c4.6,0,8.5-1.6,11.7-4.8c1.6-1.6,2.8-3.5,3.6-5.8c0.8-2.2,1.2-4.7,1.2-7.5c0-5.4-1.6-9.9-4.8-13.1
				L508.7,101.6l-0.8,0.8c2.7,2.8,4.1,6.5,4.1,11.5c0,2.6-0.4,4.8-1,6.7c-0.7,1.9-1.7,3.6-3.1,5c-2.8,2.8-6.1,4.2-10.1,4.2
				c-4.2,0-7.5-1.4-10.2-4.2c-2.7-2.8-4.1-6.6-4.1-11.6c0-2.6,0.4-4.8,1-6.7c0.7-1.9,1.7-3.5,3-4.9c2.7-2.7,6-4.1,10.2-4.1
				c4.1,0,7.4,1.4,10.1,4.2L508.7,101.6z"/>
			<path class="st0" d="M639.7,119.7h-55.9c0.3,4.4,1.6,7.8,3.8,9.9c2.3,2.2,5.1,3.3,8.7,3.3c4.9,0,8.4-2.1,10.5-6.4h31.5
				c-1.3,5.6-3.8,10.6-7.6,15c-3.8,4.4-8.5,7.8-14.2,10.4c-5.7,2.5-12,3.8-19,3.8c-8.3,0-15.7-1.7-22.2-5.1
				c-6.5-3.4-11.5-8.2-15.2-14.5c-3.7-6.3-5.5-13.7-5.5-22.2c0-8.5,1.8-15.9,5.4-22.1c3.6-6.2,8.7-11,15.1-14.4
				c6.5-3.4,13.9-5.1,22.4-5.1c8.3,0,15.7,1.6,22.1,4.9c6.4,3.3,11.4,8,15.1,14.1c3.6,6.1,5.4,13.4,5.4,21.7
				C640.2,115.3,640,117.5,639.7,119.7z M610.1,106c0-3.5-1.2-6.2-3.6-8.2c-2.4-2-5.4-3-9-3c-3.6,0-6.6,0.9-8.9,2.8
				c-2.3,1.9-3.8,4.7-4.5,8.3H610.1z"/>
			<path class="st0" d="M639.7,119.7v-1.1h-57l0.1,1.2c0.2,2.3,0.6,4.4,1.3,6.1c0.7,1.8,1.7,3.3,2.9,4.5c2.5,2.4,5.7,3.6,9.4,3.6
				c2.6,0,4.9-0.6,6.9-1.8c2-1.2,3.5-3,4.6-5.2l-1-0.5v1.1h31.5v-1.1l-1.1-0.2c-1.3,5.4-3.7,10.3-7.4,14.5
				c-3.7,4.3-8.3,7.6-13.8,10.1c-5.6,2.4-11.7,3.7-18.5,3.7c-8.2,0-15.4-1.7-21.7-4.9c-6.3-3.3-11.2-8-14.8-14.1
				c-3.6-6.1-5.3-13.3-5.3-21.6c0-8.3,1.8-15.5,5.3-21.5c3.5-6.1,8.4-10.7,14.7-14c6.3-3.3,13.6-4.9,21.9-4.9
				c8.2,0,15.4,1.6,21.6,4.8c6.2,3.2,11.1,7.7,14.6,13.7c3.5,5.9,5.3,13,5.3,21.1c0,2.2-0.1,4.3-0.4,6.5L639.7,119.7v-1.1V119.7
				l1.1,0.1c0.3-2.3,0.5-4.5,0.5-6.8c0-8.5-1.8-15.9-5.6-22.2c-3.7-6.3-8.9-11.2-15.5-14.5c-6.6-3.4-14.2-5-22.6-5
				c-8.6,0-16.2,1.7-22.9,5.2c-6.6,3.5-11.9,8.4-15.6,14.8c-3.7,6.4-5.6,14-5.6,22.6c0,8.7,1.9,16.3,5.6,22.7
				c3.8,6.5,9,11.4,15.6,14.9c6.6,3.5,14.2,5.2,22.7,5.2c7.1,0,13.5-1.3,19.4-3.9c5.9-2.6,10.7-6.1,14.6-10.6
				c3.9-4.5,6.5-9.7,7.8-15.5l0.3-1.3h-33.5l-0.3,0.6c-1,2-2.2,3.4-3.8,4.3c-1.6,0.9-3.5,1.4-5.8,1.4c-3.3,0-5.8-1-7.9-3
				c-1-1-1.8-2.2-2.4-3.7c-0.6-1.5-1-3.4-1.1-5.5l-1.1,0.1v1.1h56.8l0.1-0.9L639.7,119.7z M610.1,106h1.1c0-1.9-0.3-3.6-1-5.1
				c-0.7-1.5-1.7-2.8-3-3.9c-2.6-2.2-5.9-3.2-9.7-3.2c-3.8,0-7,1-9.6,3.1c-2.5,2.1-4.2,5.1-4.9,9l-0.2,1.3h28.5V106H610.1v-1.1h-26
				v1.1l1.1,0.2c0.7-3.5,2.1-6,4.1-7.7c2.1-1.7,4.8-2.6,8.2-2.6c3.4,0,6.1,0.9,8.3,2.7c1.1,0.9,1.9,1.9,2.4,3.1
				c0.5,1.2,0.8,2.6,0.8,4.2H610.1v-1.1V106z"/>
		</g>
		<g>
			<path class="st1" d="M832.2,150.6c-6.7-3.4-11.9-8.2-15.7-14.5c-3.8-6.3-5.7-13.7-5.7-22.2c0-8.4,1.9-15.7,5.8-22
				c3.9-6.3,9.1-11.1,15.8-14.5c6.7-3.4,14.2-5.1,22.7-5.1s16,1.7,22.7,5.1c6.7,3.4,11.9,8.2,15.8,14.5c3.9,6.3,5.8,13.6,5.8,22
				c0,8.4-1.9,15.8-5.8,22.1c-3.9,6.3-9.2,11.2-15.9,14.6c-6.7,3.4-14.3,5.1-22.7,5.1C846.5,155.7,838.9,154,832.2,150.6z
				 M865.2,126.6c2.8-2.9,4.1-7.2,4.1-12.7c0-5.5-1.4-9.7-4.1-12.6C862.4,98.4,859,97,855,97c-4,0-7.4,1.4-10.1,4.3
				s-4.1,7.1-4.1,12.6c0,5.6,1.3,9.9,3.9,12.8c2.6,2.9,6,4.3,10.1,4.3C859,131,862.4,129.5,865.2,126.6z"/>
			<path class="st1" d="M832.2,150.6l0.5-1c-6.5-3.3-11.6-8-15.3-14.1c-3.7-6.1-5.6-13.3-5.6-21.6c0-8.2,1.9-15.4,5.6-21.5
				c3.8-6.1,8.9-10.8,15.4-14.1c6.5-3.3,13.9-5,22.2-5c8.3,0,15.7,1.7,22.2,5c6.5,3.3,11.6,8,15.4,14.1c3.7,6.1,5.6,13.2,5.6,21.5
				c0,8.2-1.9,15.4-5.6,21.5c-3.8,6.2-8.9,10.9-15.4,14.2c-6.6,3.3-14,5-22.2,5c-8.3,0-15.7-1.7-22.2-5L832.2,150.6l-0.5,1
				c6.8,3.5,14.6,5.2,23.2,5.2c8.6,0,16.3-1.7,23.2-5.2c6.9-3.5,12.4-8.5,16.3-15c4-6.5,6-14.1,6-22.7c0-8.6-2-16.1-6-22.6
				c-4-6.4-9.4-11.4-16.2-14.9c-6.8-3.5-14.6-5.2-23.2-5.2c-8.6,0-16.3,1.7-23.2,5.2c-6.8,3.5-12.3,8.4-16.2,14.9
				c-4,6.5-6,14-6,22.6c0,8.7,1.9,16.3,5.9,22.7c3.9,6.4,9.3,11.4,16.2,14.9L832.2,150.6z M865.2,126.6l0.8,0.7
				c1.5-1.6,2.6-3.5,3.3-5.8c0.7-2.2,1.1-4.8,1.1-7.6c0-2.8-0.4-5.4-1.1-7.6c-0.7-2.2-1.9-4.2-3.4-5.7c-2.9-3.1-6.7-4.7-11-4.7
				c-4.3,0-8,1.6-10.9,4.7c-1.5,1.6-2.6,3.5-3.3,5.7c-0.7,2.2-1.1,4.8-1.1,7.6c0,2.9,0.3,5.5,1,7.7c0.7,2.3,1.7,4.2,3.2,5.8
				c2.8,3.1,6.5,4.7,10.9,4.7c4.4,0,8.2-1.6,11.1-4.8L865.2,126.6l-0.8-0.7c-2.6,2.7-5.7,4.1-9.5,4.1c-3.9,0-6.9-1.3-9.3-4
				c-1.2-1.3-2.1-3-2.7-5c-0.6-2-0.9-4.4-0.9-7.1c0-2.7,0.3-5,1-6.9c0.6-2,1.6-3.6,2.8-4.9c2.5-2.7,5.5-4,9.3-4c3.7,0,6.8,1.3,9.4,4
				c1.3,1.3,2.2,2.9,2.9,4.9c0.6,2,1,4.3,1,6.9c0,2.7-0.3,5-1,7c-0.6,2-1.6,3.6-2.9,5L865.2,126.6z"/>
			<path class="st1" d="M989.8,82c5.7,6.2,8.6,14.7,8.6,25.3v47.4h-29.5V111c0-4.6-1.3-8.3-3.8-10.9c-2.5-2.7-5.9-4-10.1-4
				c-4.4,0-7.9,1.3-10.4,4c-2.5,2.7-3.8,6.3-3.8,10.9v43.6h-29.5V73.4h29.5v11.6c2.6-3.7,6.1-6.6,10.5-8.9c4.4-2.3,9.5-3.4,15.2-3.4
				C976.3,72.6,984.1,75.7,989.8,82z"/>
			<path class="st1" d="M989.8,82l-0.8,0.7c5.5,6,8.3,14.1,8.3,24.5v46.3H970V111c0-4.8-1.3-8.8-4.1-11.7c-2.7-2.9-6.4-4.3-10.9-4.3
				c-2.3,0-4.4,0.3-6.3,1.1c-1.9,0.7-3.5,1.8-4.9,3.3c-2.7,2.9-4.1,6.9-4.1,11.7v42.5h-27.3V74.4h27.3v13.9l2-2.8
				c2.5-3.5,5.9-6.4,10.1-8.6c4.2-2.2,9.1-3.3,14.7-3.3c4.8,0,9,0.8,12.7,2.3c3.7,1.5,6.9,3.7,9.7,6.7L989.8,82l0.8-0.7
				c-3-3.2-6.5-5.7-10.5-7.3c-4-1.6-8.5-2.4-13.5-2.4c-5.9,0-11.1,1.2-15.7,3.5c-4.6,2.3-8.2,5.4-10.9,9.2l0.9,0.6h1.1V72.3h-31.7
				v83.5h31.7V111c0-4.4,1.2-7.8,3.5-10.2c1.1-1.2,2.5-2.1,4.1-2.7c1.6-0.6,3.4-0.9,5.5-0.9c4,0,7,1.2,9.3,3.6
				c2.3,2.4,3.5,5.7,3.5,10.2v44.7h31.7v-48.5c0-10.8-2.9-19.6-8.9-26L989.8,82z"/>
			<path class="st1" d="M1094.9,119.7H1039c0.3,4.4,1.6,7.8,3.8,9.9c2.3,2.2,5.1,3.3,8.7,3.3c4.9,0,8.4-2.1,10.5-6.4h31.5
				c-1.3,5.6-3.8,10.6-7.6,15c-3.8,4.4-8.5,7.8-14.2,10.4c-5.7,2.5-12,3.8-19,3.8c-8.3,0-15.7-1.7-22.2-5.1
				c-6.5-3.4-11.5-8.2-15.2-14.5c-3.7-6.3-5.5-13.7-5.5-22.2c0-8.5,1.8-15.9,5.4-22.1c3.6-6.2,8.7-11,15.1-14.4
				c6.5-3.4,13.9-5.1,22.4-5.1c8.3,0,15.7,1.6,22.1,4.9c6.4,3.3,11.4,8,15.1,14.1c3.6,6.1,5.4,13.4,5.4,21.7
				C1095.3,115.3,1095.2,117.5,1094.9,119.7z M1065.2,106c0-3.5-1.2-6.2-3.6-8.2c-2.4-2-5.4-3-9-3c-3.6,0-6.6,0.9-8.9,2.8
				c-2.3,1.9-3.8,4.7-4.5,8.3H1065.2z"/>
			<path class="st1" d="M1094.9,119.7v-1.1h-57l0.1,1.2c0.2,2.3,0.6,4.4,1.3,6.1c0.7,1.8,1.7,3.3,2.9,4.5c2.5,2.4,5.7,3.6,9.4,3.6
				c2.6,0,4.9-0.6,6.9-1.8c2-1.2,3.5-3,4.6-5.2l-1-0.5v1.1h31.5v-1.1l-1.1-0.2c-1.3,5.4-3.7,10.3-7.4,14.5
				c-3.7,4.3-8.3,7.6-13.8,10.1c-5.6,2.4-11.7,3.7-18.5,3.7c-8.2,0-15.4-1.7-21.7-4.9c-6.3-3.3-11.2-8-14.8-14.1
				c-3.6-6.1-5.3-13.3-5.3-21.6c0-8.3,1.8-15.5,5.3-21.5c3.5-6.1,8.4-10.7,14.7-14c6.3-3.3,13.6-4.9,21.9-4.9
				c8.2,0,15.4,1.6,21.6,4.8c6.2,3.2,11.1,7.7,14.6,13.7c3.5,5.9,5.3,13,5.3,21.1c0,2.2-0.1,4.3-0.4,6.5L1094.9,119.7v-1.1V119.7
				l1.1,0.1c0.3-2.3,0.5-4.5,0.5-6.8c0-8.5-1.8-15.9-5.6-22.2c-3.7-6.3-8.9-11.2-15.5-14.5c-6.6-3.4-14.2-5-22.6-5
				c-8.6,0-16.2,1.7-22.9,5.2c-6.6,3.5-11.9,8.4-15.6,14.8c-3.7,6.4-5.6,14-5.6,22.6c0,8.7,1.9,16.3,5.6,22.7
				c3.8,6.5,9,11.4,15.6,14.9c6.6,3.5,14.2,5.2,22.7,5.2c7.1,0,13.5-1.3,19.4-3.9c5.9-2.6,10.7-6.1,14.6-10.6
				c3.9-4.5,6.5-9.7,7.8-15.5l0.3-1.3h-33.5l-0.3,0.6c-1,2-2.2,3.4-3.8,4.3c-1.6,0.9-3.5,1.4-5.8,1.4c-3.3,0-5.8-1-7.9-3
				c-1-1-1.8-2.2-2.4-3.7c-0.6-1.5-1-3.4-1.1-5.5l-1.1,0.1v1.1h56.8l0.1-0.9L1094.9,119.7z M1065.2,106h1.1c0-1.9-0.3-3.6-1-5.1
				c-0.7-1.5-1.7-2.8-3-3.9c-2.6-2.2-5.9-3.2-9.7-3.2c-3.8,0-7,1-9.6,3.1c-2.5,2.1-4.2,5.1-4.9,9l-0.2,1.3h28.5V106H1065.2v-1.1h-26
				v1.1l1.1,0.2c0.7-3.5,2.1-6,4.1-7.7c2.1-1.7,4.8-2.6,8.2-2.6c3.4,0,6.1,0.9,8.3,2.7c1.1,0.9,1.9,1.9,2.4,3.1
				c0.5,1.2,0.8,2.6,0.8,4.2H1065.2v-1.1V106z"/>
			<polygon class="st1" points="1198.3,73.4 1144.7,193.3 1112.6,193.3 1132.8,151.2 1098.2,73.4 1131,73.4 1148.8,119.4 
				1165.9,73.4 			"/>
			<polygon class="st1" points="1198.3,73.4 1197.3,72.9 1144,192.2 1114.4,192.2 1134,151.2 1099.9,74.4 1130.3,74.4 1148.8,122.5 
				1166.7,74.4 1198.3,74.4 1198.3,73.4 1197.3,72.9 1198.3,73.4 1198.3,72.3 1165.2,72.3 1148.8,116.3 1131.8,72.3 1096.5,72.3 
				1131.6,151.1 1110.9,194.4 1145.4,194.4 1200,72.3 1198.3,72.3 			"/>
		</g>
	</g>
	<polygon class="st1" points="676.7,44.9 655.8,154.6 696.5,154.6 701.4,96.3 719.9,154.6 743.3,154.6 759.4,90.5 768,154.6 
		805,154.6 784,44.9 744.6,44.9 730.4,99.8 713.7,44.9 	"/>
</g>
<path class="st1" d="M166.9,56.9H85.3c-19.6,0-35.6,15.9-35.6,35.6c0,19.6,15.9,35.6,35.6,35.6h82.4L203,93L166.9,56.9z"/>
</svg>
