<?xml version="1.0" encoding="utf-8"?>
<!-- Generator: Adobe Illustrator 26.0.2, SVG Export Plug-In . SVG Version: 6.00 Build 0)  -->
<svg version="1.1" id="Layer_1" xmlns="http://www.w3.org/2000/svg" xmlns:xlink="http://www.w3.org/1999/xlink" x="0px" y="0px"
	 viewBox="0 0 1200 200" style="enable-background:new 0 0 1200 200;" xml:space="preserve">
<style type="text/css">
	.st0{fill:#FCBF30;}
	.st1{fill:#F6A036;}
	.st2{fill:#FFFFFF;}
	.st3{fill:#020203;}
</style>
<g>
	<g>
		<path class="st0" d="M178.1,100c0,43.1-35,78.1-78.1,78.1s-78.1-35-78.1-78.1s35-78.1,78.1-78.1C143.1,21.9,178.1,56.9,178.1,100z
			"/>
		<path class="st0" d="M100,0C44.8,0,0,44.8,0,100s44.8,100,100,100s100-44.8,100-100S155.2,0,100,0z M100,186.7
			c-47.9,0-86.7-38.8-86.7-86.7S52.1,13.3,100,13.3s86.7,38.8,86.7,86.7S147.9,186.7,100,186.7z"/>
		<path class="st1" d="M155.1,44.6L121.6,78l-4.1,17l-17.2,4.4l-10.9,0.4l-0.3,10.7L44.6,155c14.1,14.2,33.7,23,55.4,23
			c43.1,0,78.1-35,78.1-78.1C178.1,78.3,169.3,58.8,155.1,44.6z"/>
		<path class="st2" d="M125.7,96.1c0,0,7.5-4.3,7.5-13.1c0-9.6-7.7-17.7-22.8-18.4V51.8c0-0.2-0.2-0.4-0.4-0.4h-8.2
			c-0.2,0-0.4,0.2-0.4,0.4v12.7H94V51.8c0-0.2-0.2-0.4-0.4-0.4h-8.2c-0.2,0-0.4,0.2-0.4,0.4v12.7H67c-1.2,0-1.4,0.6-1.4,1.4v7.2
			c0,1.5,0.9,1.8,1.8,1.8H75c2,0,2.6,1.1,2.6,2.8v43.1c0,2.3-1.4,2.8-3.2,2.8H69c-0.8,0-1.5,0.1-1.8,1.8l-0.9,5.8l0,0
			c-0.6,3.4,0.8,3.7,2.2,3.7H85v12.4c0,0.2,0.2,0.4,0.4,0.4h8.2c0.2,0,0.4-0.2,0.4-0.4V135h7.5v12.4c0,0.2,0.2,0.4,0.4,0.4h8.2
			c0.2,0,0.4-0.2,0.4-0.4V135h0.6c17.6,0,27.7-10.9,27.7-22.2C138.7,100.1,125.7,96.1,125.7,96.1z M116,84.7c0,6.2-6.5,9.2-11.6,9.2
			H93.9V75.5h9.9C108.8,75.5,116,78.5,116,84.7z M107.4,123.6H93.9v-19.9h16c4.9,0,9.9,5,9.9,9.9C119.8,121,112.4,123.6,107.4,123.6
			z"/>
		<path class="st1" d="M170.5,29.1l-9.4,9.4c15.8,15.7,25.6,37.5,25.6,61.5c0,47.9-38.8,86.7-86.7,86.7c-24,0-45.8-9.8-61.5-25.6
			l-9.4,9.4C47.2,188.7,72.3,200,100,200c55.2,0,100-44.8,100-100C200,72.3,188.7,47.2,170.5,29.1z"/>
	</g>
</g>
<g>
	<g>
		<path class="st3" d="M266.7,42.4c4.8,2.4,8.5,5.9,11.1,10.5s3.9,9.9,3.9,16s-1.3,11.4-3.9,15.9s-6.3,7.9-11.1,10.3
			c-4.8,2.4-10.4,3.6-16.8,3.6h-19.6v-60h19.6C256.3,38.7,261.9,39.9,266.7,42.4z M266.1,84.9c3.7-3.8,5.6-9.1,5.6-16
			c0-7-1.9-12.4-5.6-16.3c-3.7-3.9-9.1-5.9-16.1-5.9h-9.7v43.9h9.7C257,90.6,262.3,88.7,266.1,84.9z"/>
		<path class="st3" d="M334.7,78.5h-36.3c0.3,3.8,1.7,6.8,4.2,9.1c2.5,2.3,5.6,3.4,9.3,3.4c5.3,0,9-2.2,11.2-6.6h10.6
			c-1.4,4.4-4,7.9-7.8,10.7c-3.8,2.8-8.4,4.2-14,4.2c-4.5,0-8.6-1-12.2-3.1c-3.6-2-6.4-4.9-8.4-8.6s-3.1-8-3.1-12.9s1-9.2,3-12.9
			c2-3.7,4.8-6.6,8.4-8.6s7.7-3,12.4-3c4.5,0,8.5,1,12,2.9c3.5,2,6.2,4.7,8.2,8.2c2,3.5,2.9,7.6,2.9,12.2
			C335,75.5,334.9,77.1,334.7,78.5z M324.8,70.6c-0.1-3.6-1.4-6.5-3.9-8.7s-5.7-3.3-9.4-3.3c-3.4,0-6.3,1.1-8.7,3.2
			c-2.4,2.2-3.9,5.1-4.3,8.7L324.8,70.6L324.8,70.6z"/>
		<path class="st3" d="M361.3,52.5c2.9-1.5,6.1-2.2,9.7-2.2c4.2,0,8,1,11.4,3s6.1,4.9,8,8.6c2,3.7,2.9,7.9,2.9,12.7
			c0,4.8-1,9-2.9,12.8c-2,3.8-4.6,6.7-8.1,8.8c-3.4,2.1-7.2,3.1-11.3,3.1c-3.7,0-6.9-0.7-9.8-2.2c-2.8-1.4-5.1-3.3-6.8-5.5v6.9h-9.8
			V34.8h9.8v23.4C356.2,55.9,358.4,54,361.3,52.5z M381.3,66.2c-1.4-2.4-3.1-4.2-5.3-5.4c-2.2-1.2-4.6-1.9-7.1-1.9s-4.8,0.6-7,1.9
			c-2.2,1.3-4,3.1-5.3,5.5c-1.4,2.4-2,5.3-2,8.5c0,3.3,0.7,6.1,2,8.6c1.3,2.4,3.1,4.3,5.3,5.6c2.2,1.3,4.6,1.9,7,1.9
			c2.5,0,4.9-0.6,7.1-1.9s4-3.2,5.3-5.6c1.3-2.5,2-5.3,2-8.6C383.4,71.4,382.7,68.5,381.3,66.2z"/>
		<path class="st3" d="M403.6,43c-1.2-1.2-1.8-2.7-1.8-4.5s0.6-3.3,1.8-4.5c1.2-1.2,2.7-1.8,4.5-1.8c1.7,0,3.2,0.6,4.4,1.8
			c1.2,1.2,1.8,2.7,1.8,4.5s-0.6,3.3-1.8,4.5c-1.2,1.2-2.7,1.8-4.4,1.8C406.3,44.8,404.8,44.2,403.6,43z M412.9,51.1v47.5h-9.8V51.1
			H412.9z"/>
		<path class="st3" d="M437.3,59.1v26.3c0,1.8,0.4,3.1,1.2,3.8s2.3,1.2,4.3,1.2h6v8.2H441c-4.4,0-7.8-1-10.2-3.1
			c-2.4-2.1-3.5-5.4-3.5-10.1V59.1h-5.6v-8h5.6V39.3h9.9v11.8h11.5v8H437.3z"/>
		<path class="st3" d="M499.9,52.8c2.7-4.7,6.4-8.3,11.1-10.9s9.8-3.9,15.4-3.9c6.4,0,12.1,1.6,17,4.7c5,3.1,8.6,7.6,10.8,13.3
			h-11.8c-1.6-3.2-3.7-5.5-6.5-7.1s-5.9-2.3-9.6-2.3c-4,0-7.5,0.9-10.6,2.7c-3.1,1.8-5.5,4.3-7.3,7.7c-1.8,3.3-2.6,7.2-2.6,11.6
			s0.9,8.3,2.6,11.6c1.8,3.3,4.2,5.9,7.3,7.7c3.1,1.8,6.6,2.7,10.6,2.7c3.6,0,6.8-0.8,9.6-2.3c2.8-1.6,4.9-3.9,6.5-7.1h11.8
			c-2.2,5.7-5.8,10.2-10.8,13.3c-5,3.1-10.6,4.7-17,4.7c-5.6,0-10.8-1.3-15.4-3.9c-4.7-2.6-8.3-6.2-11.1-10.9
			c-2.7-4.7-4.1-9.9-4.1-15.8C495.8,62.7,497.2,57.4,499.9,52.8z"/>
		<path class="st3" d="M566.5,52.8c2.7-4.7,6.4-8.3,11.1-10.9c4.7-2.6,9.8-3.9,15.4-3.9c6.4,0,12.1,1.6,17,4.7
			c5,3.1,8.6,7.6,10.8,13.3H609c-1.6-3.2-3.7-5.5-6.5-7.1s-5.9-2.3-9.6-2.3c-4,0-7.5,0.9-10.6,2.7s-5.5,4.3-7.3,7.7
			c-1.8,3.3-2.6,7.2-2.6,11.6s0.9,8.3,2.6,11.6c1.8,3.3,4.2,5.9,7.3,7.7c3.1,1.8,6.6,2.7,10.6,2.7c3.6,0,6.8-0.8,9.6-2.3
			c2.8-1.6,4.9-3.9,6.5-7.1h11.8c-2.2,5.7-5.8,10.2-10.8,13.3c-5,3.1-10.6,4.7-17,4.7c-5.6,0-10.8-1.3-15.4-3.9
			c-4.7-2.6-8.3-6.2-11.1-10.9c-2.7-4.7-4.1-9.9-4.1-15.8C562.4,62.7,563.8,57.4,566.5,52.8z"/>
		<polygon class="st3" points="470.7,103.9 487.8,33.8 480.9,33.8 463.9,103.9 		"/>
	</g>
	<g>
		<path class="st3" d="M264.2,147.2c-0.9-1.7-2-3.1-3.5-4.3l-0.2,0.3l0.2-0.3c-1.1-0.9-2.3-1.5-3.5-1.9c2-0.8,3.6-2,4.9-3.6l0,0
			c1.6-1.9,2.3-4.3,2.3-7.2c0-2.3-0.6-4.4-1.7-6.3l0,0c-1.2-1.9-2.9-3.3-5.2-4.4l0,0c-2.3-1.1-5.1-1.6-8.3-1.6H232v47.7h17.9
			c3.2,0,6-0.6,8.3-1.7c2.4-1.1,4.2-2.7,5.4-4.7c1.3-2,1.9-4.2,1.9-6.6C265.4,150.8,265,148.9,264.2,147.2L264.2,147.2z
			 M248.7,138.2h-9.9v-14.4h9.8c2.9,0,5.1,0.7,6.5,1.9c1.5,1.3,2.2,3,2.2,5.3s-0.7,4-2.2,5.3S251.5,138.2,248.7,138.2z M256.1,157.8
			c-1.6,1.4-3.9,2.1-6.9,2.1h-10.4v-15.8H249c2.9,0,5.2,0.7,6.9,2.2c1.7,1.4,2.5,3.3,2.5,5.9C258.5,154.6,257.7,156.4,256.1,157.8
			l0.3,0.3L256.1,157.8z"/>
		<path class="st3" d="M302.1,133.8c-1.2-1.7-2.7-3.1-4.7-4.2l0,0c-2.4-1.4-5.3-2.1-8.6-2.1c-3.3,0-6.4,0.8-9.1,2.4
			s-4.9,3.9-6.4,6.8l0,0c-1.6,2.9-2.3,6.3-2.3,10.1s0.8,7.2,2.3,10.1c1.6,3,3.7,5.3,6.4,7c2.7,1.7,5.8,2.5,9.1,2.5
			c3.2,0,6.1-0.7,8.6-2.2c2-1.2,3.6-2.6,4.8-4.3v5.9h7V128h-7L302.1,133.8L302.1,133.8z M289.9,160.1c-2.2,0-4.2-0.5-6.1-1.6
			c-1.8-1.1-3.3-2.6-4.4-4.6s-1.6-4.4-1.6-7.2c0-2.7,0.5-5.1,1.6-7.1s2.5-3.5,4.4-4.6c1.8-1,3.8-1.6,6.1-1.6c2.2,0,4.2,0.5,6.1,1.6
			l0,0c1.8,1.1,3.3,2.6,4.4,4.6l0,0c1.1,2,1.6,4.3,1.6,7.1c0,2.7-0.5,5.1-1.6,7.1s-2.6,3.6-4.4,4.6
			C294.2,159.6,292.2,160.1,289.9,160.1z"/>
		<path class="st3" d="M347.9,131.8l0.3-0.3c-2.9-2.8-6.6-4.2-11.2-4.2c-2.6,0-4.9,0.5-7.1,1.6c-1.8,0.9-3.2,2.1-4.4,3.5V128h-6.9
			v37.7h6.9v-20.8c0-3.8,0.9-6.6,2.8-8.5c1.8-1.9,4.3-2.9,7.4-2.9s5.5,0.9,7.2,2.8c1.7,1.9,2.6,4.6,2.7,8.2v21.3h6.9v-22.1
			c0-5.2-1.4-9.2-4.3-12L347.9,131.8z"/>
		<polygon class="st3" points="391.9,128 382.2,128 368.6,143.7 368.6,115.1 361.7,115.1 361.7,165.7 368.6,165.7 368.6,150 
			382.5,165.7 382.7,165.7 392,165.7 374.2,146.8 		"/>
		<path class="st3" d="M440.8,129.8c-2.9-1.6-6.1-2.4-9.7-2.4s-6.8,0.8-9.7,2.4c-2.9,1.6-5.2,3.9-6.9,6.8l0,0
			c-1.7,3-2.5,6.4-2.5,10.2c0,3.9,0.8,7.3,2.4,10.3s3.9,5.2,6.8,6.9l0,0c2.9,1.6,6.1,2.4,9.6,2.4c3.6,0,6.8-0.8,9.7-2.4
			c2.9-1.6,5.3-3.9,7-6.8c1.7-3,2.6-6.4,2.6-10.3c0-3.9-0.8-7.3-2.5-10.2C445.9,133.6,443.7,131.3,440.8,129.8z M437,159l-0.2-0.4
			c-1.9,1-3.9,1.5-6,1.5s-4.1-0.5-5.9-1.5s-3.2-2.4-4.2-4.4c-1.1-2-1.6-4.5-1.6-7.4s0.6-5.4,1.6-7.3l0,0c1.1-2,2.5-3.5,4.3-4.5
			s3.8-1.5,6-1.5c2.1,0,4.1,0.5,5.9,1.5s3.3,2.4,4.4,4.5l0,0c1.1,2,1.7,4.4,1.7,7.3c0,2.9-0.6,5.3-1.7,7.3c-1.2,2-2.7,3.5-4.5,4.5
			L437,159z"/>
		<path class="st3" d="M486.8,129.8c-2.7-1.6-5.8-2.4-9.1-2.4c-3.2,0-6.1,0.7-8.6,2.2l0,0c-2,1.2-3.6,2.6-4.8,4.3V128h-6.9v55.2h6.9
			v-23.4c1.2,1.7,2.9,3.1,4.9,4.3c2.5,1.5,5.3,2.2,8.5,2.2c3.3,0,6.4-0.8,9.1-2.5s4.9-4,6.4-7c1.6-3,2.3-6.4,2.3-10.1
			c0-3.8-0.8-7.2-2.3-10.1C491.7,133.7,489.6,131.4,486.8,129.8z M482.5,158.5c-1.8,1.1-3.9,1.6-6.1,1.6s-4.2-0.5-6-1.6
			s-3.3-2.6-4.4-4.6s-1.7-4.4-1.7-7.1c0-2.7,0.6-5,1.7-7s2.6-3.6,4.4-4.6c1.8-1.1,3.8-1.6,6-1.6s4.2,0.5,6.1,1.6
			c1.8,1,3.3,2.5,4.4,4.6l0,0c1.1,2,1.6,4.3,1.6,7.1s-0.6,5.2-1.6,7.2l0,0C485.8,155.9,484.4,157.4,482.5,158.5z"/>
		<path class="st3" d="M511.2,118.7h-6.9v9.3h-4.8v5.8h4.8v21.3c0,3.6,0.9,6.4,2.7,8c1.8,1.7,4.5,2.5,7.9,2.5h5.9v-6h-4.9
			c-1.8,0-3.1-0.4-3.7-1c-0.6-0.6-1-1.8-1-3.5v-21.3h9.6V128h-9.6L511.2,118.7L511.2,118.7z"/>
		<path class="st3" d="M534.1,115c-0.8-0.9-1.9-1.3-3.1-1.3c-1.3,0-2.4,0.4-3.2,1.3c-0.9,0.9-1.3,2-1.3,3.2c0,1.3,0.4,2.4,1.3,3.2
			l0,0c0.9,0.9,2,1.3,3.2,1.3s2.3-0.5,3.1-1.3c0.9-0.9,1.3-2,1.3-3.2C535.4,117,535,115.9,534.1,115L534.1,115z"/>
		<polygon class="st3" points="527.4,128 527.4,165.7 534.3,165.7 534.3,128 533.9,128 		"/>
		<path class="st3" d="M570.4,129.8c-2.9-1.6-6.1-2.4-9.7-2.4c-3.6,0-6.8,0.8-9.7,2.4s-5.2,3.9-6.9,6.8l0,0c-1.7,3-2.5,6.4-2.5,10.2
			c0,3.9,0.8,7.3,2.4,10.3c1.6,3,3.9,5.2,6.8,6.9l0,0c2.9,1.6,6.1,2.4,9.6,2.4c3.6,0,6.8-0.8,9.7-2.4c2.9-1.6,5.3-3.9,7-6.8
			c1.7-3,2.6-6.4,2.6-10.3c0-3.9-0.8-7.3-2.5-10.2C575.6,133.6,573.3,131.3,570.4,129.8z M566.6,159l-0.2-0.4c-1.9,1-3.9,1.5-6,1.5
			s-4.1-0.5-5.9-1.5c-1.8-1-3.2-2.4-4.2-4.4c-1.1-2-1.6-4.5-1.6-7.4s0.6-5.4,1.6-7.3l0,0c1.1-2,2.5-3.5,4.3-4.5s3.8-1.5,6-1.5
			c2.1,0,4.1,0.5,5.9,1.5c1.8,1,3.3,2.4,4.4,4.5l0,0c1.1,2,1.7,4.4,1.7,7.3c0,2.9-0.6,5.3-1.7,7.3c-1.2,2-2.7,3.5-4.5,4.5L566.6,159
			z"/>
		<path class="st3" d="M616.6,131.5L616.6,131.5c-2.9-2.8-6.6-4.2-11.2-4.2c-2.6,0-4.9,0.5-7.1,1.6c-1.8,0.9-3.2,2.1-4.4,3.5V128
			H587v37.7h6.9v-20.8c0-3.8,0.9-6.6,2.8-8.5c1.8-1.9,4.3-2.9,7.4-2.9c3.1,0,5.5,0.9,7.2,2.8c1.7,1.9,2.6,4.6,2.7,8.2v21.3h6.9
			v-22.1C620.9,138.4,619.5,134.3,616.6,131.5z"/>
	</g>
</g>
</svg>
