<?xml version="1.0" encoding="utf-8"?>
<!-- Generator: Adobe Illustrator 19.1.1, SVG Export Plug-In . SVG Version: 6.00 Build 0)  -->
<svg version="1.0" id="Layer_1" xmlns="http://www.w3.org/2000/svg" xmlns:xlink="http://www.w3.org/1999/xlink" x="0px" y="0px"
	 viewBox="-307.3 241.4 310.8 79.3" style="enable-background:new -307.3 241.4 310.8 79.3;" xml:space="preserve">
<style type="text/css">
	.st0{fill:#1A1F71;}
	.st1{fill:#FF5F00;}
	.st2{fill:#EB001B;}
	.st3{fill:#F79E1B;}
</style>
<title>mcvs_acc_hrz</title>
<path class="st0" d="M-237.6,253.2l-23.3,55.6h-15.2l-11.4-44.4c-0.7-2.8-1.3-3.7-3.4-4.8c-4.5-2.2-9.3-3.8-14.2-4.7l0.3-1.6h24.5
	c3.3,0,6.1,2.4,6.6,5.7l6,32.1l15-37.8H-237.6z M-177.9,290.5c0-14.7-20.2-15.5-20.1-22c0-2.1,1.9-4.1,6.2-4.7
	c4.9-0.5,9.8,0.4,14.2,2.5l2.5-11.7c-4.3-1.7-8.9-2.5-13.5-2.5c-14.2,0-24.2,7.6-24.3,18.3c-0.1,8.1,7.2,12.5,12.6,15.1
	c5.4,2.6,7.5,4.5,7.5,6.9c0,3.7-4.5,5.4-8.7,5.4c-5.2,0.1-10.3-1.1-14.8-3.5l-2.6,12.2c5.1,2,10.5,3,16,2.9
	C-187.9,309.6-178,302.1-177.9,290.5 M-140.3,308.7h13.3l-11.6-55.6h-12.3c-2.7,0-5.1,1.6-6.2,4.1l-21.7,51.5h15.1l2.9-8.4h18.5
	L-140.3,308.7z M-156.5,289.1l7.6-20.8l4.4,20.8H-156.5z M-217,253.2l-11.9,55.6h-14.4l11.9-55.6H-217z"/>
<g>
	<path id="_Compound_Path_" d="M-81.7,318.1v-5c0.1-1.6-1-3-2.6-3.2c-0.1,0-0.3,0-0.5,0c-1.1,0-2.2,0.5-2.8,1.4
		c-0.6-0.9-1.6-1.5-2.7-1.4c-0.9,0-1.9,0.4-2.4,1.2v-1h-1.6v8h1.6v-4.6c-0.1-1,0.6-1.9,1.6-2.1c0.1,0,0.2,0,0.4,0
		c1.2,0,1.8,0.7,1.8,2.1v4.6h1.6v-4.6c-0.1-1,0.6-1.9,1.6-2.1c0.1,0,0.2,0,0.4,0c1.2,0,1.8,0.7,1.8,2.1v4.6H-81.7z M-55.7,310.3
		h-2.9v-2.4h-1.6v2.4h-1.7v1.4h1.7v3.7c0,1.8,0.7,2.9,2.7,2.9c0.8,0,1.5-0.2,2.2-0.6l-0.5-1.4c-0.4,0.3-1,0.4-1.5,0.4
		c-0.6,0.1-1.2-0.4-1.3-1.1c0-0.1,0-0.2,0-0.3v-3.8h2.9C-55.7,311.6-55.7,310.3-55.7,310.3z M-40.9,310c-0.9,0-1.7,0.4-2.2,1.2v-1
		h-1.6v8h1.6v-4.5c0-1.3,0.7-2.2,1.7-2.2c0.4,0,0.7,0.1,1.1,0.2l0.5-1.5C-40.2,310.1-40.6,310-40.9,310z M-63.3,310.8
		c-1-0.6-2.1-0.9-3.2-0.8c-2,0-3.2,0.9-3.2,2.5c0,1.3,0.9,2.1,2.7,2.3l0.8,0.1c0.9,0.2,1.5,0.5,1.5,0.9c0,0.6-0.7,1-1.9,1
		c-1,0-1.9-0.3-2.7-0.8l-0.8,1.2c1,0.7,2.2,1,3.4,1c2.3,0,3.6-1.1,3.6-2.6c0-1.5-1-2.1-2.7-2.3l-0.8-0.1c-0.7-0.1-1.4-0.3-1.4-0.8
		c0-0.5,0.7-1,1.6-1c0.9,0,1.7,0.3,2.5,0.7L-63.3,310.8z M-39.1,314.2c-0.1,2.2,1.5,4,3.7,4.2c0.2,0,0.3,0,0.5,0
		c1,0.1,2-0.3,2.8-0.9l-0.8-1.2c-0.6,0.5-1.3,0.7-2.1,0.7c-1.5-0.1-2.6-1.4-2.4-2.9c0.1-1.3,1.1-2.3,2.4-2.4c0.8,0,1.5,0.3,2.1,0.7
		l0.8-1.2c-0.8-0.6-1.8-1-2.8-0.9c-2-0.2-3.9,1.2-4.1,3.3C-39.1,313.7-39.1,313.9-39.1,314.2z M-50.3,310c-2.3,0-3.9,1.7-3.9,4.2
		c-0.1,2.2,1.5,4,3.6,4.2c0.1,0,0.3,0,0.4,0c1.2,0,2.3-0.4,3.2-1.1l-0.8-1.2c-0.7,0.5-1.5,0.8-2.3,0.8c-1.2,0-2.3-0.9-2.4-2.1h5.9
		v-0.7C-46.6,311.7-48.1,310-50.3,310z M-50.3,311.5c1.1-0.1,2,0.8,2.1,1.9c0,0,0,0.1,0,0.1h-4.3C-52.5,312.3-51.5,311.4-50.3,311.5
		z M-71.9,314.2v-4h-1.6v1c-0.6-0.8-1.6-1.2-2.6-1.2c-2.3,0-4.2,1.9-4.2,4.2s1.9,4.2,4.2,4.2c1,0.1,2-0.4,2.6-1.2v1h1.6V314.2z
		 M-78.3,314.2c0.1-1.4,1.3-2.4,2.7-2.3c1.4,0.1,2.4,1.3,2.3,2.7c-0.1,1.3-1.2,2.3-2.5,2.3c-1.3,0-2.5-1-2.5-2.4
		C-78.3,314.3-78.3,314.2-78.3,314.2z M-16.9,310c-0.9,0-1.7,0.4-2.2,1.2v-1h-1.6v8h1.6v-4.5c0-1.3,0.7-2.2,1.7-2.2
		c0.4,0,0.7,0.1,1.1,0.2l0.5-1.5C-16.2,310.1-16.5,310-16.9,310z M-23.1,314.2v-4h-1.6v1c-0.6-0.8-1.6-1.2-2.6-1.2
		c-2.3,0-4.2,1.9-4.2,4.2s1.9,4.2,4.2,4.2c1,0.1,2-0.4,2.6-1.2v1h1.6V314.2z M-29.5,314.2c0.1-1.4,1.3-2.4,2.7-2.3
		c1.4,0.1,2.4,1.3,2.3,2.7c-0.1,1.3-1.2,2.3-2.5,2.3C-28.6,316.9-29.5,315.7-29.5,314.2z M-7,314.2V307h-1.6v4.2
		c-0.6-0.8-1.6-1.2-2.6-1.2c-2.3,0-4.2,1.9-4.2,4.2s1.9,4.2,4.2,4.2c1,0.1,2-0.4,2.6-1.2v1H-7V314.2z M-13.4,314.2
		c0.1-1.4,1.3-2.4,2.7-2.3c1.4,0.1,2.4,1.3,2.3,2.7c-0.1,1.3-1.2,2.3-2.5,2.3c-1.3,0-2.5-1-2.5-2.4
		C-13.5,314.3-13.5,314.2-13.4,314.2L-13.4,314.2z"/>
	<rect x="-65.1" y="249.7" class="st1" width="28.8" height="47"/>
	<path id="_Path_" class="st2" d="M-62.1,273.2c0-9.2,4.2-17.8,11.4-23.5c-13-10.2-31.8-8-42,5c-10.2,13-8,31.8,5,42
		c5.3,4.2,11.8,6.4,18.5,6.4c6.7,0,13.2-2.2,18.4-6.4C-57.9,291-62.1,282.4-62.1,273.2z"/>
	<path class="st3" d="M-2.3,273.2c0,16.5-13.4,29.9-29.9,29.9c-6.7,0-13.2-2.2-18.4-6.4c13-10.3,15.2-29.1,4.9-42.1
		c-1.4-1.8-3.1-3.5-4.9-4.9c13-10.2,31.8-7.9,42,5.1C-4.6,260-2.3,266.5-2.3,273.2z"/>
</g>
</svg>
