<?xml version="1.0" encoding="UTF-8" standalone="no"?>
<!-- Generator: Adobe Illustrator 19.1.1, SVG Export Plug-In . SVG Version: 6.00 Build 0)  -->

<svg
   xmlns:dc="http://purl.org/dc/elements/1.1/"
   xmlns:cc="http://creativecommons.org/ns#"
   xmlns:rdf="http://www.w3.org/1999/02/22-rdf-syntax-ns#"
   xmlns:svg="http://www.w3.org/2000/svg"
   xmlns="http://www.w3.org/2000/svg"
   xmlns:sodipodi="http://sodipodi.sourceforge.net/DTD/sodipodi-0.dtd"
   xmlns:inkscape="http://www.inkscape.org/namespaces/inkscape"
   version="1.0"
   id="Layer_1"
   x="0px"
   y="0px"
   viewBox="-307.3 241.4 545.09304 75.124051"
   xml:space="preserve"
   sodipodi:docname="credit-card-secured.svg"
   width="545.09302"
   height="75.124054"
   inkscape:version="0.92.2 2405546, 2018-03-11"><metadata
   id="metadata21"><rdf:RDF><cc:Work
       rdf:about=""><dc:format>image/svg+xml</dc:format><dc:type
         rdf:resource="http://purl.org/dc/dcmitype/StillImage" /><dc:title>mcvs_acc_hrz</dc:title></cc:Work></rdf:RDF></metadata><defs
   id="defs19" /><sodipodi:namedview
   pagecolor="#ffffff"
   bordercolor="#666666"
   borderopacity="1"
   objecttolerance="10"
   gridtolerance="10"
   guidetolerance="10"
   inkscape:pageopacity="0"
   inkscape:pageshadow="2"
   inkscape:window-width="1920"
   inkscape:window-height="1056"
   id="namedview17"
   showgrid="false"
   fit-margin-top="0"
   fit-margin-left="0"
   fit-margin-right="0"
   fit-margin-bottom="0"
   inkscape:zoom="0.75933079"
   inkscape:cx="144.85755"
   inkscape:cy="3.0968893"
   inkscape:window-x="1920"
   inkscape:window-y="0"
   inkscape:window-maximized="1"
   inkscape:current-layer="Layer_1" />
<style
   type="text/css"
   id="style2">
	.st0{fill:#1A1F71;}
	.st1{fill:#FF5F00;}
	.st2{fill:#EB001B;}
	.st3{fill:#F79E1B;}
</style>
<title
   id="title4">mcvs_acc_hrz</title>


<g
   id="g59"
   transform="translate(-2.2,-1.8912586)"><path
     id="path6"
     d="m -237.6,253.2 -23.3,55.6 h -15.2 l -11.4,-44.4 c -0.7,-2.8 -1.3,-3.7 -3.4,-4.8 -4.5,-2.2 -9.3,-3.8 -14.2,-4.7 l 0.3,-1.6 h 24.5 c 3.3,0 6.1,2.4 6.6,5.7 l 6,32.1 15,-37.8 h 15.1 z m 59.7,37.3 c 0,-14.7 -20.2,-15.5 -20.1,-22 0,-2.1 1.9,-4.1 6.2,-4.7 4.9,-0.5 9.8,0.4 14.2,2.5 l 2.5,-11.7 c -4.3,-1.7 -8.9,-2.5 -13.5,-2.5 -14.2,0 -24.2,7.6 -24.3,18.3 -0.1,8.1 7.2,12.5 12.6,15.1 5.4,2.6 7.5,4.5 7.5,6.9 0,3.7 -4.5,5.4 -8.7,5.4 -5.2,0.1 -10.3,-1.1 -14.8,-3.5 l -2.6,12.2 c 5.1,2 10.5,3 16,2.9 15,0.2 24.9,-7.3 25,-18.9 m 37.6,18.2 h 13.3 l -11.6,-55.6 h -12.3 c -2.7,0 -5.1,1.6 -6.2,4.1 l -21.7,51.5 h 15.1 l 2.9,-8.4 h 18.5 z m -16.2,-19.6 7.6,-20.8 4.4,20.8 z m -60.5,-35.9 -11.9,55.6 h -14.4 l 11.9,-55.6 z"
     class="st0"
     inkscape:connector-curvature="0"
     style="fill:#1a1f71" /><g
     id="g14">
	<path
   d="m -81.7,318.1 v -5 c 0.1,-1.6 -1,-3 -2.6,-3.2 -0.1,0 -0.3,0 -0.5,0 -1.1,0 -2.2,0.5 -2.8,1.4 -0.6,-0.9 -1.6,-1.5 -2.7,-1.4 -0.9,0 -1.9,0.4 -2.4,1.2 v -1 h -1.6 v 8 h 1.6 v -4.6 c -0.1,-1 0.6,-1.9 1.6,-2.1 0.1,0 0.2,0 0.4,0 1.2,0 1.8,0.7 1.8,2.1 v 4.6 h 1.6 v -4.6 c -0.1,-1 0.6,-1.9 1.6,-2.1 0.1,0 0.2,0 0.4,0 1.2,0 1.8,0.7 1.8,2.1 v 4.6 z m 26,-7.8 h -2.9 v -2.4 h -1.6 v 2.4 h -1.7 v 1.4 h 1.7 v 3.7 c 0,1.8 0.7,2.9 2.7,2.9 0.8,0 1.5,-0.2 2.2,-0.6 l -0.5,-1.4 c -0.4,0.3 -1,0.4 -1.5,0.4 -0.6,0.1 -1.2,-0.4 -1.3,-1.1 0,-0.1 0,-0.2 0,-0.3 v -3.8 h 2.9 c 0,0.1 0,-1.2 0,-1.2 z m 14.8,-0.3 c -0.9,0 -1.7,0.4 -2.2,1.2 v -1 h -1.6 v 8 h 1.6 v -4.5 c 0,-1.3 0.7,-2.2 1.7,-2.2 0.4,0 0.7,0.1 1.1,0.2 l 0.5,-1.5 c -0.4,-0.1 -0.8,-0.2 -1.1,-0.2 z m -22.4,0.8 c -1,-0.6 -2.1,-0.9 -3.2,-0.8 -2,0 -3.2,0.9 -3.2,2.5 0,1.3 0.9,2.1 2.7,2.3 l 0.8,0.1 c 0.9,0.2 1.5,0.5 1.5,0.9 0,0.6 -0.7,1 -1.9,1 -1,0 -1.9,-0.3 -2.7,-0.8 l -0.8,1.2 c 1,0.7 2.2,1 3.4,1 2.3,0 3.6,-1.1 3.6,-2.6 0,-1.5 -1,-2.1 -2.7,-2.3 l -0.8,-0.1 c -0.7,-0.1 -1.4,-0.3 -1.4,-0.8 0,-0.5 0.7,-1 1.6,-1 0.9,0 1.7,0.3 2.5,0.7 z m 24.2,3.4 c -0.1,2.2 1.5,4 3.7,4.2 0.2,0 0.3,0 0.5,0 1,0.1 2,-0.3 2.8,-0.9 l -0.8,-1.2 c -0.6,0.5 -1.3,0.7 -2.1,0.7 -1.5,-0.1 -2.6,-1.4 -2.4,-2.9 0.1,-1.3 1.1,-2.3 2.4,-2.4 0.8,0 1.5,0.3 2.1,0.7 l 0.8,-1.2 c -0.8,-0.6 -1.8,-1 -2.8,-0.9 -2,-0.2 -3.9,1.2 -4.1,3.3 -0.1,0.1 -0.1,0.3 -0.1,0.6 z M -50.3,310 c -2.3,0 -3.9,1.7 -3.9,4.2 -0.1,2.2 1.5,4 3.6,4.2 0.1,0 0.3,0 0.4,0 1.2,0 2.3,-0.4 3.2,-1.1 l -0.8,-1.2 c -0.7,0.5 -1.5,0.8 -2.3,0.8 -1.2,0 -2.3,-0.9 -2.4,-2.1 h 5.9 v -0.7 c 0,-2.4 -1.5,-4.1 -3.7,-4.1 z m 0,1.5 c 1.1,-0.1 2,0.8 2.1,1.9 0,0 0,0.1 0,0.1 h -4.3 c 0,-1.2 1,-2.1 2.2,-2 z m -21.6,2.7 v -4 h -1.6 v 1 c -0.6,-0.8 -1.6,-1.2 -2.6,-1.2 -2.3,0 -4.2,1.9 -4.2,4.2 0,2.3 1.9,4.2 4.2,4.2 1,0.1 2,-0.4 2.6,-1.2 v 1 h 1.6 z m -6.4,0 c 0.1,-1.4 1.3,-2.4 2.7,-2.3 1.4,0.1 2.4,1.3 2.3,2.7 -0.1,1.3 -1.2,2.3 -2.5,2.3 -1.3,0 -2.5,-1 -2.5,-2.4 0,-0.2 0,-0.3 0,-0.3 z m 61.4,-4.2 c -0.9,0 -1.7,0.4 -2.2,1.2 v -1 h -1.6 v 8 h 1.6 v -4.5 c 0,-1.3 0.7,-2.2 1.7,-2.2 0.4,0 0.7,0.1 1.1,0.2 l 0.5,-1.5 c -0.4,-0.1 -0.7,-0.2 -1.1,-0.2 z m -6.2,4.2 v -4 h -1.6 v 1 c -0.6,-0.8 -1.6,-1.2 -2.6,-1.2 -2.3,0 -4.2,1.9 -4.2,4.2 0,2.3 1.9,4.2 4.2,4.2 1,0.1 2,-0.4 2.6,-1.2 v 1 h 1.6 z m -6.4,0 c 0.1,-1.4 1.3,-2.4 2.7,-2.3 1.4,0.1 2.4,1.3 2.3,2.7 -0.1,1.3 -1.2,2.3 -2.5,2.3 -1.6,0 -2.5,-1.2 -2.5,-2.7 z m 22.5,0 V 307 h -1.6 v 4.2 c -0.6,-0.8 -1.6,-1.2 -2.6,-1.2 -2.3,0 -4.2,1.9 -4.2,4.2 0,2.3 1.9,4.2 4.2,4.2 1,0.1 2,-0.4 2.6,-1.2 v 1 H -7 Z m -6.4,0 c 0.1,-1.4 1.3,-2.4 2.7,-2.3 1.4,0.1 2.4,1.3 2.3,2.7 -0.1,1.3 -1.2,2.3 -2.5,2.3 -1.3,0 -2.5,-1 -2.5,-2.4 -0.1,-0.2 -0.1,-0.3 0,-0.3 z"
   id="_Compound_Path_"
   inkscape:connector-curvature="0" />
	<rect
   id="rect9"
   height="47"
   width="28.799999"
   class="st1"
   y="249.7"
   x="-65.099998"
   style="fill:#ff5f00" />
	<path
   d="m -62.1,273.2 c 0,-9.2 4.2,-17.8 11.4,-23.5 -13,-10.2 -31.8,-8 -42,5 -10.2,13 -8,31.8 5,42 5.3,4.2 11.8,6.4 18.5,6.4 6.7,0 13.2,-2.2 18.4,-6.4 -7.1,-5.7 -11.3,-14.3 -11.3,-23.5 z"
   class="st2"
   id="_Path_"
   inkscape:connector-curvature="0"
   style="fill:#eb001b" />
	<path
   id="path12"
   d="m -2.3,273.2 c 0,16.5 -13.4,29.9 -29.9,29.9 -6.7,0 -13.2,-2.2 -18.4,-6.4 13,-10.3 15.2,-29.1 4.9,-42.1 -1.4,-1.8 -3.1,-3.5 -4.9,-4.9 13,-10.2 31.8,-7.9 42,5.1 4,5.2 6.3,11.7 6.3,18.4 z"
   class="st3"
   inkscape:connector-curvature="0"
   style="fill:#f79e1b" />
</g><g
     transform="matrix(0.99999999,0,0,1.1002187,9.3256161,255.67639)"
     id="g3732"><path
       style="fill:#d24a46"
       inkscape:connector-curvature="0"
       class="st0"
       d="m 5.4,7.1 v -6 C 9.7,0.4 13.2,0 17.1,0 c 4.3,0 7.1,0.7 9.2,2.1 1.8,1.4 2.5,3.9 2.1,6.7 0,2.5 -0.7,4.6 -2.1,6.4 -1.1,1.8 -2.5,2.8 -4.6,3.2 v 0.4 c 4.6,0.7 6.4,3.5 5.7,9.2 -0.4,3.5 -1.8,6.4 -4.3,8.2 C 20.3,38 16.7,39 11.7,39 8.9,39 5,38.6 0,37.9 l 0.7,-6 c 5.3,0.4 8.5,0.4 9.9,0.4 5,-0.4 7.4,-2.1 8.2,-5.7 0.4,-1.8 0,-2.8 -0.7,-3.5 C 17.7,22 16.3,21.7 14.2,21.7 L 6.8,21.3 7.5,15.6 h 7.1 c 2.1,0 3.5,-0.4 4.3,-1.4 1.1,-0.4 1.4,-1.8 1.8,-3.5 0,-1.4 0,-2.5 -0.7,-3.2 -0.7,-0.4 -2.1,-0.7 -4.6,-0.7 -2.9,0 -6.1,0 -10,0.3 z"
       id="path3715" /><path
       style="fill:#ebae45"
       inkscape:connector-curvature="0"
       class="st1"
       d="M 29.2,38.4 34.5,0.8 C 39.1,0.4 43.7,0.4 48,0.4 c 4.3,0 7.4,0.7 9.6,1.8 2.1,1.1 3.9,3.2 4.6,6 0.7,2.8 0.7,6.7 0.4,11.7 -0.7,3.9 -1.4,7.4 -2.1,9.9 -1.1,2.5 -2.1,4.3 -3.5,5.7 -1.4,1.4 -3.2,2.1 -5.3,2.8 C 49.6,38.7 47.1,39 43.9,39 39.1,38.7 34.5,38.7 29.2,38.4 Z M 41.9,6.8 38.4,32.3 h 5 c 1.8,0 3.2,0 4.3,-0.4 1.1,-0.4 2.1,-1.1 2.8,-1.8 0.7,-1.1 1.4,-2.1 2.1,-3.9 0.4,-1.8 1.1,-3.9 1.4,-6.7 0.4,-2.8 0.7,-5 0.7,-6.4 C 54.7,11.7 54.3,10.3 54,9.2 53.6,8.1 52.9,7.8 51.9,7.4 50.8,7 49.8,7 48,7 Z"
       id="path3717" /><path
       style="fill:#4a6493"
       inkscape:connector-curvature="0"
       class="st2"
       d="M 88.4,24.2 81.3,21.4 C 78.5,20.3 76.7,18.9 76,17.1 74.9,15.3 74.6,13.2 74.9,10.4 75.6,6.5 76.7,3.7 79.2,2.2 81.3,0.8 84.5,0.1 89.5,0.1 c 4.6,0 8.9,0.4 12.4,1.4 l -1.1,5.7 H 89.1 c -2.1,0 -3.5,0 -4.6,0.4 -0.7,0.4 -1.4,1.4 -1.4,3.2 -0.4,1.1 0,2.1 0.4,2.5 0.4,0.4 1.4,1.1 2.8,1.4 l 6.7,2.5 c 2.8,1.1 4.6,2.5 5.7,4.3 0.7,1.8 1.1,4.3 0.7,7.1 -0.7,4.3 -1.8,7.1 -3.9,8.5 -2.1,1.4 -5.7,2.1 -10.6,2.1 -4.3,0 -8.5,-0.4 -12.8,-1.4 l 0.7,-6 c 7.4,0 11.4,0.4 11.4,0.4 2.5,0 4.3,-0.4 5.3,-0.7 1,-0.3 1.4,-1.4 1.8,-3.2 0,-1.1 0,-2.1 -0.4,-2.5 -0.4,-0.9 -1.4,-1.3 -2.5,-1.6 z m 36.9,7.8 0.7,5 c -2.8,1.4 -7.1,1.8 -11.7,1.8 -5,0 -8.5,-1.1 -10.6,-3.5 -1.8,-2.5 -2.5,-6 -2.1,-11 0.7,-5.3 2.1,-8.9 4.6,-10.6 2.1,-1.8 5.7,-2.8 10.6,-2.8 4.6,0 7.8,0.7 9.6,2.5 1.8,1.4 2.5,3.9 1.8,6.7 -0.4,2.5 -1.4,4.3 -3.2,5.3 -1.8,1.1 -4.3,1.8 -7.8,2.1 l -7.8,0.7 c 0,1.8 0.4,2.8 1.4,3.5 0.7,0.7 2.1,1.1 3.9,1.1 3.5,-0.1 7.1,-0.5 10.6,-0.8 z m -15.3,-8.9 6.4,-0.7 c 1.4,0 2.5,-0.4 3.2,-0.7 0.4,-0.4 0.7,-1.1 1.1,-2.5 0,-1.1 0,-1.8 -0.7,-2.1 -0.7,-0.4 -1.8,-0.4 -3.5,-0.4 -2.1,0 -3.5,0.4 -4.3,1.4 -1.1,0.8 -1.8,2.5 -2.2,5 z m 40.8,8.9 0.7,5.3 c -2.8,1.1 -6.4,1.8 -10.3,1.8 -5,0 -8.2,-1.1 -10.3,-3.5 -1.8,-2.1 -2.5,-6 -1.8,-11 0.7,-5 2.1,-8.5 4.3,-10.6 2.1,-2.1 5.7,-3.2 10.3,-3.2 4.3,0 7.8,0.7 10.3,1.8 l -1.1,5 h -8.2 c -2.5,0 -4.3,0.4 -5.3,1.4 -1,1 -1.8,2.8 -2.1,6 -0.4,3.2 -0.4,5.3 0.4,6 0.7,1.1 2.5,1.4 4.6,1.4 3.6,-0.1 6.4,-0.1 8.5,-0.4 z m 31.6,-20.6 -3.5,27 h -6 v -5 c -3.9,3.9 -7.8,5.7 -11.7,5.7 -2.5,0 -4.6,-0.7 -5.7,-2.1 -1.1,-1.4 -1.4,-3.2 -1.1,-5.7 l 2.8,-19.9 h 8.2 l -2.5,17.7 c 0,1.1 0,1.8 0.4,2.5 -0.4,0.4 0,0.7 1.1,0.7 1.1,0 2.1,-0.4 3.5,-1.1 1.1,-0.7 2.5,-1.8 4.3,-3.2 l 2.1,-16.7 c 0,0.1 8.1,0.1 8.1,0.1 z m 23.1,-0.7 -1.8,7.4 h -2.1 c -1.1,0 -2.5,0.4 -3.5,0.7 -1.1,0.7 -2.8,1.4 -5.3,2.5 L 190.7,38 h -8.2 l 3.9,-27 h 6.4 v 5 c 3.9,-3.2 7.4,-5.3 11,-5.3 z m 21.6,21.3 0.7,5 c -2.8,1.4 -7.1,1.8 -11.7,1.8 -5,0 -8.5,-1.1 -10.6,-3.5 -1.8,-2.5 -2.5,-6 -2.1,-11 0.7,-5.3 2.1,-8.9 4.6,-10.6 2.1,-1.8 6,-2.8 11,-2.8 4.6,0 7.8,0.7 9.6,2.5 1.8,1.4 2.5,3.9 1.8,6.7 -0.4,2.5 -1.4,4.3 -3.2,5.3 -1.8,1.1 -4.3,1.8 -7.8,2.1 l -7.8,0.7 c 0,1.8 0.4,2.8 1.4,3.5 0.7,0.7 2.1,1.1 3.9,1.1 3.5,-0.1 7,-0.5 10.2,-0.8 z m -14.9,-8.9 6.4,-0.7 c 1.4,0 2.5,-0.4 3.2,-0.7 0.7,-0.4 1.1,-1.4 1.1,-2.5 0,-1.1 0,-1.8 -0.7,-2.1 -0.7,-0.3 -1.8,-0.4 -3.5,-0.4 -2.1,0 -3.5,0.4 -4.6,1.4 -0.8,0.8 -1.5,2.5 -1.9,5 z"
       id="path3719" /></g></g></svg>