<svg xmlns="http://www.w3.org/2000/svg" viewBox="0 0 522.94 132.29"><defs><style>.cls-1{fill:#929597;}.cls-2{fill:#404041;}.cls-3{fill:#f5931e;}</style></defs><g id="Layer_2" data-name="Layer 2"><g id="Layer_1-2" data-name="Layer 1"><path class="cls-1" d="M357.81,93.13l-1.49,31.61H344.17l3.65-77.58H360L359.56,56h.26q7.1-10.09,19.72-10.09,10.92,0,16.84,7.08t5.36,19.2q-.63,13.31-8.09,21.33t-19.37,8q-10.86,0-16.21-8.41Zm.62-15.23a13.6,13.6,0,0,0,3.65,10.4,13.37,13.37,0,0,0,10.25,4.21,14.77,14.77,0,0,0,12.05-5.41q4.44-5.4,4.89-15,.39-8.22-3.28-12.71c-2.44-3-6-4.49-10.65-4.49a15.66,15.66,0,0,0-11.63,4.71,17.51,17.51,0,0,0-5,11.91Z"/><path class="cls-1" d="M522.94,47.16l-28,60.14q-8.34,18-22.57,18a25.22,25.22,0,0,1-7.51-.91l.45-9.52a15.4,15.4,0,0,0,6.14,1.25q6.84,0,10.42-7.06l4.4-8.84-20.16-53h13.51l12,37.9a43.9,43.9,0,0,1,1.1,5.09h.26a40.53,40.53,0,0,1,1.64-5l16.12-38Z"/><path class="cls-1" d="M436.55,45.91a42.65,42.65,0,0,0-20.45,4.8l-.47,9.95a33,33,0,0,1,19.22-6.2q11.23,0,10.67,11.86l-16.7,2.12q-19.32,2.49-20,17.48-.35,7.17,4.3,11.39t13.07,4.23a20.75,20.75,0,0,0,12.82-4l1.12-8.43a14.45,14.45,0,0,1-10,3.73,10.36,10.36,0,0,1-6.93-2.23,6.76,6.76,0,0,1-2.48-5.74,8.23,8.23,0,0,1,2.87-6.34q2.65-2.16,8.9-2.93L445.16,74l-.22,4.71a15.25,15.25,0,0,1-.14,1.53l-.69,12h.14l-.33,7.1,0,1h11.73l1.58-33.58Q458.23,45.91,436.55,45.91Z"/><path class="cls-2" d="M178.47,60.42l.94-22h28.67c0-.26-.06-.51-.1-.82a13.12,13.12,0,0,1-.16-2.14,15.08,15.08,0,0,1,.27-2c.17-.82.34-1.6.54-2.35H161l-3,69.64h47.68c-.06-.54-.15-1.29-.28-2.25a13.15,13.15,0,0,1-.16-2.15,15.42,15.42,0,0,1,.28-2c.06-.32.14-.61.21-.92H177.06l1.11-26h28.26c-.05-.39-.1-.82-.17-1.33a13.12,13.12,0,0,1-.16-2.14,13.84,13.84,0,0,1,.28-2c.09-.5.21-1,.32-1.43H178.47Z"/><path class="cls-2" d="M269,61.85c.09-.5.21-1,.32-1.43H241l.94-22h28.67c0-.26-.06-.51-.1-.82a13.12,13.12,0,0,1-.16-2.14,13.64,13.64,0,0,1,.27-2c.17-.82.34-1.6.54-2.35H223.53l-3,70.15c.33,0,1.63-.08,3.89-.25s4.1-.26,5.52-.26c.33,0,2.29.14,5.86.41.92.07,2.08.1,3.5.1l1.45-33.85H269c-.05-.39-.11-.82-.17-1.33a13.12,13.12,0,0,1-.16-2.14A13.84,13.84,0,0,1,269,61.85Z"/><path class="cls-2" d="M342.74,33.58c.15-.72.33-1.55.54-2.51H278.84c.06.48.16,1.07.29,1.79a10.85,10.85,0,0,1,.15,2.51,11.72,11.72,0,0,1-.27,1.89c-.08.36-.16.75-.26,1.17h16.54c2-.06,4.18-.1,6.51-.1v.1h0l-2.69,62.78c.33,0,1.63-.08,3.89-.25s4.09-.26,5.51-.26c.34,0,2.29.14,5.87.41.91.07,2.08.1,3.5.1l2.69-62.89h22.11c0-.12,0-.23-.07-.36a11.46,11.46,0,0,1-.14-2.6A10.4,10.4,0,0,1,342.74,33.58Z"/><path class="cls-3" d="M121.28,29.61,45.87,105a4.44,4.44,0,1,1-6.29-6.28L115.82,22.5A66.13,66.13,0,0,0,0,66.15c0,.86.05,1.7.08,2.56L23.62,45.16a4.45,4.45,0,0,1,6.29,6.29L1.47,79.89A65.77,65.77,0,0,0,7.33,96.4L58.56,45.16a4.45,4.45,0,0,1,6.29,6.29L12.07,104.22A66.38,66.38,0,0,0,45.62,129l56.1-56.1A4.45,4.45,0,1,1,108,79.22L55.77,131.45A66.13,66.13,0,0,0,121.28,29.61Z"/></g></g></svg>