<svg xmlns="http://www.w3.org/2000/svg" viewBox="0 0 748 144"><defs><style>.a{fill:#868586;}.b{fill:#13243e;}</style></defs><title>Gcen</title><path class="a" d="M60,34h60A16,16,0,0,1,136,49H180V45A45,45,0,0,0,135,0H45A45,45,0,0,0,0,45V99a45,45,0,0,0,45,45h90a45,45,0,0,0,45-45V61H84V91h52v3a16,16,0,0,1-16,16H60A16,16,0,0,1,44,94V50A16,16,0,0,1,60,34Z"/><path class="b" d="M326,91v3a16,16,0,0,1-16,16H250a16,16,0,0,1-16-16V50a16,16,0,0,1,16-16h60A16,16,0,0,1,326,49H370V45A45,45,0,0,0,325,0H235a45,45,0,0,0-45,45V99a45,45,0,0,0,45,45h90a45,45,0,0,0,45-45V91Z"/><path class="b" d="M440,34h60a16,16,0,0,1,16,15h44V45A45,45,0,0,0,515,0H425a45,45,0,0,0-45,45V55h-6V85h6V99a45,45,0,0,0,45,45h90a45,45,0,0,0,45-45V91H516v3a16,16,0,0,1-16,16H440a16,16,0,0,1-16-16V85h50V55H424V50A16,16,0,0,1,440,34Z"/><polygon class="b" points="706 0 706 103.5 637 0 614 0 585 0 572 0 572 39.99 604.01 72 572 104.01 572 144 614 144 614 43.5 681 144 706 144 733 144 748 144 748 0 706 0"/></svg>