<?xml version="1.0" encoding="utf-8"?>
<!-- Generator: Adobe Illustrator 22.1.0, SVG Export Plug-In . SVG Version: 6.00 Build 0)  -->
<svg version="1.1" id="Layer_1" xmlns="http://www.w3.org/2000/svg" xmlns:xlink="http://www.w3.org/1999/xlink" x="0px" y="0px"
	 viewBox="0 0 832 167" style="enable-background:new 0 0 832 167;" xml:space="preserve">
<style type="text/css">
	.st0{fill:#9D2A32;}
	.st1{fill:url(#SVGID_1_);}
</style>
<title>Asset 3FINIX LTD</title>
<g>
	<path class="st0" d="M213,49.5V54h9.1v58.4H213v4.4h28.5v-4.4h-9.6V85.6h5.6c1.8,0,3.6,0.1,5.3,0.3c1.2,0.1,2.3,0.6,3.1,1.5
		c0.9,1,1.5,2.2,1.7,3.5c0.4,2.2,0.7,4.4,0.8,6.6v0.4h4V69.6h-4v0.4c-0.1,2.2-0.4,4.3-0.9,6.4c-0.3,1.2-0.9,2.3-1.8,3.2
		c-0.9,0.7-2,1.2-3.1,1.2c-1.7,0.2-3.4,0.2-5.1,0.2h-5.6V54h13.6c2.5,0,4.9,0.2,7.3,0.6c1.7,0.3,3.3,1,4.6,2.2
		c1.3,1.3,2.2,2.8,2.7,4.6c0.8,2.6,1.3,5.2,1.6,7.9v0.3h3.9l-1-20L213,49.5z"/>
	<polygon class="st0" points="290.8,54 299.9,54 299.9,112.4 290.8,112.4 290.8,116.8 318.8,116.8 318.8,112.4 309.6,112.4 
		309.6,54 318.8,54 318.8,49.5 290.8,49.5 	"/>
	<polygon class="st0" points="386.5,54 395.7,54 395.7,98.5 364.1,49.5 343.1,49.5 343.1,54 352.2,54 352.2,112.4 343.1,112.4 
		343.1,116.8 365.3,116.8 365.3,112.4 357.1,112.4 357.1,56.7 396.3,117.5 400.6,117.5 400.6,117.1 400.6,54 409.7,54 409.7,49.5 
		386.5,49.5 	"/>
	<polygon class="st0" points="433.6,54 442.7,54 442.7,112.4 433.6,112.4 433.6,116.8 461.6,116.8 461.6,112.4 452.4,112.4 
		452.4,54 461.6,54 461.6,49.5 433.6,49.5 	"/>
	<polygon class="st0" points="521.1,81 541.5,54 549.5,54 549.5,49.5 527.8,49.5 527.8,54 535.3,54 518.2,76.6 503.5,54 511.5,54 
		511.5,49.5 483.5,49.5 483.5,54 491.8,54 511.6,84.4 490.5,112.4 482,112.4 482,116.8 504.4,116.8 504.4,112.4 496.7,112.4 
		514.5,88.7 530,112.4 521.9,112.4 521.9,116.8 550,116.8 550,112.4 541.7,112.4 	"/>
	<path class="st0" d="M665.3,93.2c-0.3,2.5-0.8,4.9-1.3,7.3c-0.4,1.8-1,3.5-1.8,5.2c-0.6,1.3-1.4,2.4-2.5,3.4c-1,0.9-2.1,1.6-3.4,2
		c-1.5,0.5-3.1,0.9-4.6,1c-1.8,0.2-3.9,0.3-6.2,0.3h-10.4V54h9.1v-4.4h-28V54h9.1v58.4h-9.1v4.4h52l1-23.9h-3.9L665.3,93.2z"/>
	<path class="st0" d="M690.5,49.5v0.4L689.2,70h4v-0.3c0.2-2,0.6-4,1.1-5.9c0.3-1.5,0.8-2.9,1.5-4.2c0.5-1.1,1.2-2,2-2.8
		c0.8-0.8,1.8-1.3,2.8-1.7c1.3-0.4,2.6-0.7,3.9-0.8c1.7-0.2,3.5-0.2,5.2-0.2h3.1v58.4h-10.1v4.4h29.8v-4.4h-10V54h3.3
		c2.4,0,4.9,0.2,7.3,0.6c1.7,0.3,3.3,1.1,4.6,2.2c1.3,1.3,2.3,3,2.7,4.8c0.8,2.7,1.3,5.4,1.6,8.2v0.3h4l-1.1-20.5L690.5,49.5z"/>
	<path class="st0" d="M830.4,68.9c-1-3.8-2.9-7.4-5.5-10.4c-2.8-3-6.3-5.3-10.2-6.6c-5-1.7-10.3-2.5-15.6-2.3h-28V54h9.1v58.4H771
		v4.4h27.3c4.1,0.1,8.1-0.4,12-1.3c3.2-0.8,6.2-2,9-3.7c2.4-1.5,4.5-3.4,6.2-5.7c1.6-2.2,2.9-4.6,3.9-7.1c1-2.6,1.6-5.3,2-8
		c0.4-2.8,0.6-5.7,0.6-8.5C832.1,77.8,831.5,73.3,830.4,68.9z M789.9,54h8.9c2.8,0,5.7,0.2,8.4,0.8c2.1,0.4,4.2,1.2,6,2.3
		c1.6,1,3,2.3,4,3.8c1.1,1.7,2,3.5,2.5,5.5c0.6,2.4,1.1,4.8,1.2,7.2c0.2,2.7,0.3,5.7,0.3,8.9c0.1,4.9-0.3,9.9-1.1,14.8
		c-0.5,3.3-1.8,6.4-3.7,9.1c-1.8,2.3-4.3,3.9-7.2,4.7c-3.8,1-7.7,1.5-11.6,1.4h-7.9L789.9,54z"/>
</g>
<linearGradient id="SVGID_1_" gradientUnits="userSpaceOnUse" x1="0" y1="272.5" x2="154.0929" y2="272.5" gradientTransform="matrix(1 0 0 -1 0 356)">
	<stop  offset="0" style="stop-color:#52151A"/>
	<stop  offset="1" style="stop-color:#BA2026"/>
</linearGradient>
<path class="st1" d="M162.8,79.3L125.5,42l-42-42L0,83.5l41.2,41.2L83.5,167L167,83.5L162.8,79.3z M16.6,83.5l66.9-66.9L113,46.1
	l-12.5,12.2L83.3,41.1L40.9,83.5l16.7,16.7l-12.3,12L16.6,83.5z M70.1,96.1L57.5,83.5l25.8-25.8l13,13l12.8,12.8l-25.8,25.8
	L70.1,96.1z M83.5,150.4l-29.8-29.8l12.3-12l17.4,17.4l42.4-42.4l-4.2-4.2l-12.7-12.7l12.5-12.2l29.1,29.1L83.5,150.4z"/>
</svg>
