<?xml version="1.0" standalone="no"?>
<!DOCTYPE svg PUBLIC "-//W3C//DTD SVG 20010904//EN"
 "http://www.w3.org/TR/2001/REC-SVG-20010904/DTD/svg10.dtd">
<svg version="1.0" xmlns="http://www.w3.org/2000/svg"
 width="1417.000000pt" height="374.000000pt" viewBox="0 0 1417.000000 374.000000"
 preserveAspectRatio="xMidYMid meet">

<g transform="translate(0.000000,374.000000) scale(0.100000,-0.100000)"
fill="#002a5b" stroke="none">
<path d="M13200 2523 c0 -627 4 -1106 10 -1161 13 -118 39 -180 101 -236 94
-84 216 -107 502 -91 l137 7 0 183 0 182 -70 5 c-83 6 -115 25 -129 75 -7 25
-11 384 -11 1071 l0 1032 -270 0 -270 0 0 -1067z"/>
<path d="M190 1820 l0 -1710 3420 0 3420 0 0 1710 0 1710 -3420 0 -3420 0 0
-1710z m1081 1263 c65 -33 105 -87 118 -158 20 -109 -24 -208 -114 -254 -64
-33 -189 -37 -245 -7 -103 54 -148 159 -120 277 16 66 85 141 146 157 77 20
156 14 215 -15z m1449 -554 c41 -6 100 -27 159 -55 270 -131 415 -447 381
-833 -22 -248 -105 -431 -260 -574 -76 -71 -213 -139 -322 -161 -157 -32 -365
-14 -478 42 -48 23 -61 37 -100 101 l-45 74 -3 -386 -2 -387 -235 0 -235 0 0
1075 0 1075 235 0 234 0 3 -112 3 -111 56 84 c44 66 66 90 105 111 121 65 310
87 504 57z m1555 -6 c116 -21 213 -70 284 -140 68 -69 94 -116 123 -221 19
-71 21 -115 28 -592 4 -283 10 -522 13 -530 3 -8 8 -36 11 -63 l6 -47 -228 2
-227 3 -16 110 c-13 94 -17 106 -26 85 -62 -146 -65 -149 -163 -188 -132 -52
-316 -68 -433 -37 -222 58 -357 226 -357 445 0 340 317 540 856 540 l107 0 -6
95 c-12 172 -71 235 -224 235 -123 0 -200 -62 -225 -181 l-12 -59 -221 0 -221
0 7 58 c10 81 18 109 50 176 70 142 197 242 376 295 138 41 325 47 498 14z
m-2895 -808 l0 -785 -230 0 -230 0 0 785 0 785 230 0 230 0 0 -785z m4045 218
c92 -312 172 -582 177 -601 5 -19 11 -32 14 -30 2 3 78 258 169 569 91 310
170 579 176 597 l11 32 249 0 c139 0 249 -4 249 -9 0 -19 -644 -1653 -689
-1747 -81 -169 -156 -270 -252 -334 -118 -81 -245 -107 -452 -95 l-127 7 0
153 0 153 118 4 c98 2 125 7 165 27 54 26 107 89 133 157 l17 44 -318 808
c-174 444 -319 813 -322 820 -4 9 51 12 254 12 l260 0 168 -567z"/>
<path d="M2299 2207 c-98 -28 -183 -119 -221 -237 -26 -81 -37 -330 -19 -437
25 -144 110 -259 227 -303 48 -18 73 -21 139 -18 94 5 153 28 215 84 56 51 84
97 117 191 24 70 27 93 27 218 0 104 -4 157 -17 205 -37 139 -105 233 -202
280 -59 30 -191 38 -266 17z"/>
<path d="M3990 1604 c-85 -18 -146 -50 -184 -97 -29 -36 -31 -44 -31 -117 0
-64 4 -84 21 -106 31 -42 90 -68 166 -72 56 -4 75 0 120 21 62 30 75 40 110
87 35 47 58 136 58 227 l0 73 -97 -1 c-54 0 -127 -7 -163 -15z"/>
<path d="M7330 3110 l0 -230 -140 0 -140 0 0 -170 0 -169 138 -3 137 -3 5
-600 c6 -663 5 -651 73 -752 87 -131 295 -186 614 -163 77 5 154 13 171 16
l32 7 0 167 0 167 -107 5 c-120 6 -168 21 -201 63 -44 55 -46 85 -46 600 l-1
490 193 3 192 2 0 170 0 170 -195 0 -195 0 0 230 0 230 -265 0 -265 0 0 -230z"/>
<path d="M10390 3110 l0 -230 -140 0 -140 0 0 -170 0 -170 139 0 139 0 5 -582
c5 -612 8 -652 53 -739 81 -157 295 -224 641 -199 77 5 154 13 171 16 l32 7 0
168 0 169 -80 0 c-157 0 -236 37 -262 123 -10 32 -13 167 -13 537 l0 495 193
3 192 2 0 170 0 170 -195 0 -195 0 0 230 0 230 -270 0 -270 0 0 -230z"/>
<path d="M9016 2930 c-445 -70 -727 -369 -776 -822 -13 -122 -1 -303 29 -418
82 -323 294 -544 607 -635 245 -71 570 -51 780 49 327 155 507 462 507 866 0
496 -251 838 -693 941 -98 23 -357 34 -454 19z m350 -398 c105 -53 175 -151
216 -300 29 -107 32 -392 4 -497 -68 -259 -243 -390 -461 -345 -158 32 -258
141 -312 340 -26 95 -26 408 0 500 66 232 202 345 407 336 71 -3 95 -8 146
-34z"/>
<path d="M12005 2924 c-258 -43 -460 -180 -553 -374 -39 -82 -62 -169 -62
-237 l0 -33 255 0 254 0 6 38 c17 105 69 188 142 223 66 33 208 34 268 2 88
-47 116 -104 123 -254 l4 -106 -178 -6 c-322 -11 -529 -63 -696 -173 -168
-112 -261 -297 -244 -489 13 -148 57 -249 147 -337 189 -185 539 -220 824 -83
l70 34 39 97 c22 54 41 93 43 88 2 -5 11 -63 21 -129 l18 -120 263 -3 263 -2
-6 37 c-20 128 -26 262 -26 623 -1 452 -11 686 -35 775 -78 298 -326 447 -740
444 -66 -1 -156 -7 -200 -15z m408 -1064 l29 0 -4 -117 c-3 -104 -7 -126 -32
-181 -56 -121 -169 -189 -302 -179 -147 11 -224 81 -224 204 0 71 14 113 55
161 63 75 239 127 389 116 32 -2 72 -4 89 -4z"/>
<path d="M8597 814 c-4 -4 -7 -128 -7 -276 l0 -268 60 0 60 0 0 119 c0 165 16
201 89 201 52 0 61 -26 61 -182 l0 -138 61 0 62 0 -5 153 c-3 83 -10 164 -17
179 -31 79 -202 93 -237 21 -6 -12 -11 18 -14 87 l-5 105 -50 3 c-28 2 -54 0
-58 -4z"/>
<path d="M7992 798 c-17 -17 -15 -64 4 -82 47 -48 126 14 89 70 -17 27 -72 33
-93 12z"/>
<path d="M9585 786 c-33 -50 23 -104 81 -77 18 8 24 18 24 44 0 42 -15 57 -57
57 -23 0 -37 -7 -48 -24z"/>
<path d="M10080 540 l0 -270 60 0 60 0 0 58 c0 33 6 66 14 77 12 17 16 15 59
-41 26 -32 52 -67 59 -77 11 -15 25 -17 82 -15 l69 3 -82 100 c-44 55 -81 103
-81 107 0 3 36 45 81 92 l81 86 -68 0 -69 0 -70 -82 -70 -83 -3 158 -3 157
-59 0 -60 0 0 -270z"/>
<path d="M7480 525 l0 -255 55 0 54 0 3 103 3 102 108 3 107 3 0 -106 0 -105
60 0 60 0 0 255 0 256 -57 -3 -58 -3 -3 -107 -3 -108 -109 0 -110 0 0 110 0
110 -55 0 -55 0 0 -255z"/>
<path d="M9140 526 l0 -256 60 0 60 0 0 100 0 100 46 0 c78 0 88 -13 114 -142
l11 -58 66 0 c55 0 64 2 54 14 -6 7 -18 48 -26 90 -17 88 -27 111 -56 127 -21
11 -20 11 9 29 43 27 62 59 62 108 0 108 -47 135 -252 140 l-148 4 0 -256z
m258 148 c16 -11 22 -25 22 -55 0 -36 -3 -41 -35 -55 -19 -7 -55 -14 -80 -14
l-45 0 0 70 0 70 58 0 c36 0 66 -6 80 -16z"/>
<path d="M10610 526 l0 -256 60 0 60 0 0 95 0 95 80 0 c107 0 153 22 182 87
37 83 12 164 -63 208 -29 17 -57 20 -176 24 l-143 3 0 -256z m243 153 c12 -7
25 -17 29 -23 13 -19 9 -60 -8 -84 -13 -19 -24 -22 -80 -22 l-64 0 0 70 0 70
51 0 c28 0 60 -5 72 -11z"/>
<path d="M13310 710 c0 -49 -1 -50 -30 -50 -28 0 -30 -3 -30 -35 0 -32 2 -35
30 -35 l30 0 0 -136 c0 -74 4 -144 10 -154 12 -22 61 -40 111 -40 57 0 69 8
69 46 0 31 -3 34 -30 34 -42 0 -50 23 -50 144 l0 106 40 0 c39 0 40 1 40 35 0
34 -1 35 -40 35 l-40 0 0 50 0 50 -55 0 -55 0 0 -50z"/>
<path d="M8222 649 c-62 -31 -94 -91 -96 -177 -1 -50 4 -77 20 -107 49 -95
176 -124 254 -59 l30 26 0 -25 c0 -82 -55 -127 -130 -107 -22 6 -44 20 -50 30
-9 16 -21 20 -66 20 -53 0 -55 -1 -49 -22 19 -65 76 -106 159 -115 106 -11
194 28 227 101 16 36 19 68 19 244 l0 202 -55 0 c-49 0 -55 -2 -55 -21 0 -20
-1 -20 -31 5 -40 34 -114 36 -177 5z m177 -84 c62 -80 22 -215 -64 -215 -66 0
-106 69 -92 157 9 54 42 83 93 83 34 0 47 -5 63 -25z"/>
<path d="M9803 655 c-36 -15 -73 -68 -73 -103 0 -35 27 -80 58 -96 15 -7 53
-21 84 -30 71 -20 93 -50 58 -78 -27 -22 -56 -16 -87 18 -18 19 -32 24 -73 24
-44 0 -50 -2 -50 -21 0 -12 15 -36 33 -54 98 -98 307 -55 307 63 0 55 -36 96
-103 118 -90 29 -109 42 -105 72 4 39 50 43 74 8 14 -23 23 -26 70 -26 37 0
54 4 54 13 0 26 -39 74 -73 90 -42 21 -130 21 -174 2z"/>
<path d="M11105 656 c-41 -18 -73 -56 -81 -94 l-6 -32 54 0 c50 0 54 2 65 30
9 25 17 30 45 30 41 0 58 -15 58 -52 0 -24 -4 -28 -30 -28 -58 0 -132 -22
-161 -49 -59 -53 -54 -135 11 -179 30 -20 43 -23 90 -18 45 4 59 10 77 33 l23
28 0 -27 c0 -27 2 -28 56 -28 l56 0 -3 158 c-4 177 -12 202 -74 228 -43 18
-140 18 -180 0z m135 -250 c0 -56 -67 -88 -104 -50 -36 36 1 84 64 84 39 0 40
-1 40 -34z"/>
<path d="M11950 642 l-30 -30 0 24 0 24 -123 0 -124 0 -38 -132 c-21 -73 -42
-140 -46 -148 -7 -13 -22 30 -76 217 l-18 63 -63 0 c-56 0 -63 -2 -58 -17 3
-10 39 -101 79 -203 59 -147 72 -189 64 -206 -10 -24 -46 -44 -77 -44 -16 0
-20 -7 -20 -35 l0 -35 53 0 c62 0 105 23 134 71 11 19 58 131 104 249 l84 215
3 -193 2 -192 60 0 60 0 0 130 c0 158 11 190 65 190 57 0 65 -23 65 -182 l0
-138 54 0 53 0 6 136 c6 159 16 184 73 184 52 0 64 -37 64 -195 l0 -125 55 0
55 0 0 155 c0 173 -8 203 -60 230 -34 18 -103 20 -133 3 -12 -6 -30 -22 -40
-34 l-18 -23 -28 31 c-24 27 -36 32 -89 36 -58 4 -63 3 -92 -26z"/>
<path d="M12542 649 c-67 -34 -96 -86 -100 -178 -2 -64 1 -82 20 -116 30 -50
77 -82 136 -91 52 -8 121 7 157 34 21 15 65 80 65 96 0 3 -24 6 -53 6 -48 0
-56 -3 -75 -30 -35 -47 -101 -41 -127 11 -31 58 -29 59 126 59 l142 0 -7 53
c-10 74 -48 134 -99 158 -57 25 -131 24 -185 -2z m140 -76 c9 -10 19 -28 22
-40 7 -23 6 -23 -73 -23 l-81 0 11 27 c6 15 15 33 21 40 16 19 82 16 100 -4z"/>
<path d="M13025 658 c-11 -6 -28 -21 -37 -32 -17 -21 -17 -21 -18 7 0 26 -2
27 -55 27 l-55 0 0 -195 0 -195 54 0 54 0 3 129 c4 113 7 133 25 158 26 34 77
43 105 17 17 -15 19 -32 19 -161 l0 -143 60 0 60 0 0 138 c0 214 -20 253 -133
259 -37 2 -70 -1 -82 -9z"/>
<path d="M13600 663 c-64 -24 -96 -84 -79 -147 11 -40 50 -68 119 -86 59 -15
90 -36 90 -60 0 -45 -86 -45 -110 0 -9 16 -21 20 -65 20 -62 0 -66 -7 -35 -57
24 -40 68 -63 134 -70 112 -11 186 38 186 123 0 55 -25 83 -95 108 -94 33
-115 45 -115 65 0 44 71 54 85 11 5 -17 15 -20 61 -20 46 0 54 3 54 19 0 27
-39 71 -76 87 -33 14 -125 18 -154 7z"/>
<path d="M7980 465 l0 -195 55 0 55 0 0 195 0 195 -55 0 -55 0 0 -195z"/>
<path d="M9580 465 l0 -195 55 0 55 0 0 195 0 195 -55 0 -55 0 0 -195z"/>
</g>
</svg>
