<svg xmlns="http://www.w3.org/2000/svg" viewBox="0 0 432.28 159.84"><defs><style>.cls-1{fill:#fff;}</style></defs><g id="Layer_2" data-name="Layer 2"><g id="Layer_1-2" data-name="Layer 1"><path class="cls-1" d="M223.06,115.58A44.89,44.89,0,1,1,268,70.69a26.71,26.71,0,0,1-.21,3.94l-.05.47-63,1.82V75.63l5.6-1.9c14.2-4.81,35.54-12,37.35-13.72-3.64-9.65-13.52-16.13-24.61-16.13a26.81,26.81,0,1,0,23,40.61l.16-.26h19.65l-.24.72a44.84,44.84,0,0,1-42.56,30.63"/><path class="cls-1" d="M44.89,115.58A44.89,44.89,0,1,1,89.77,70.69a26.71,26.71,0,0,1-.21,3.94l0,.47-63,1.82V75.63l5.6-1.9c14.2-4.81,35.54-12,37.35-13.72C65.85,50.36,56,43.88,44.89,43.88a26.81,26.81,0,1,0,23,40.61l.16-.26H87.69l-.25.72a44.83,44.83,0,0,1-42.55,30.63"/><polygon class="cls-1" points="135.5 77.16 112.29 28.73 85.67 28.73 134.3 115.58 135.3 115.58 181.72 28.73 156.71 28.73 135.5 77.16"/><path class="cls-1" d="M390.18,114.29c-8.26,0-13.34-2.55-18.71-7.58s-8.19-11.57-8.19-19.51l.07-40.59H348.3V28.91h15.13L382.12,0h1.29l.07,28.91H408v17.7H383.48l-.07,37.91c0,7.61,2.43,12,8.79,12,4.41,0,8.42-1.37,11-4.2l.11-.11,10.25,10.24-.08.11c-5.58,8.24-13,11.76-23.28,11.76"/><path class="cls-1" d="M307.76,115.4c-12,0-24.73-4.32-32.52-13.19L284.37,90c19.22,20.59,48.64,5.8,32.24-7.56C313,80,304.78,77.54,301.33,76.59c-12.24-3.84-21.68-11.72-22.35-24a25.27,25.27,0,0,1,14-22.81c14-6.85,34.66-4.42,46.91,5.25l-8.33,13c-6.65-6.05-19-10.12-26.72-4.83-5.59,3.87-6.9,10.74-.61,14.38,7.82,5.16,25.69,7.35,32.21,14.32,3.68,3.75,5.54,8.71,5.54,14.75C341.74,105.18,327.11,115.76,307.76,115.4Z"/><path class="cls-1" d="M420.76,104.13c-.07,0-.11,0-.11-.12V97.62c0-.05,0-.07-.07-.07h-2c-.08,0-.11,0-.11-.12v-1c0-.08,0-.12.11-.12h5.57a.11.11,0,0,1,.12.12v1a.11.11,0,0,1-.12.12h-2c-.05,0-.07,0-.07.07V104c0,.08,0,.12-.11.12Z"/><path class="cls-1" d="M425.34,96.45c0-.08,0-.12.11-.12h1a.19.19,0,0,1,.2.12l2.14,4.8h.05l2.1-4.8a.2.2,0,0,1,.2-.12h1c.07,0,.11,0,.11.12V104c0,.08,0,.12-.11.12h-1c-.08,0-.11,0-.11-.12V99.24H431l-1.65,3.67a.23.23,0,0,1-.22.15h-.66a.23.23,0,0,1-.22-.15l-1.65-3.67h-.05V104c0,.08,0,.12-.11.12h-1c-.07,0-.11,0-.11-.12Z"/><path class="cls-1" d="M22.5,138.22v20.9a12.26,12.26,0,0,1-3.29.29l-9.29-14-.56-1.12.06,1.31v13.67a8.32,8.32,0,0,1-1.75.2,8.35,8.35,0,0,1-1.72-.2V138.42a6.93,6.93,0,0,1,3.31-.33l9.26,14,.57,1L19,151.66V138.22a7.67,7.67,0,0,1,3.48,0Z"/><path class="cls-1" d="M44.4,150.94V138.22a8.3,8.3,0,0,1,1.78-.2,8.89,8.89,0,0,1,1.82.2V150.9c0,3.26,1.65,5.42,4.75,5.42s4.76-2.16,4.76-5.42V138.22a8,8,0,0,1,1.75-.2,8.24,8.24,0,0,1,1.75.2v12.65c0,5.78-3.38,9-8.29,9S44.4,156.78,44.4,150.94Z"/><path class="cls-1" d="M102.78,138.28v21a8,8,0,0,1-1.66.2,8.5,8.5,0,0,1-1.72-.2V147.75l.16-3.06L99,146.27l-4.56,11.11a9.3,9.3,0,0,1-3.1,0L86.64,146.2l-.57-1.47.13,3v11.53a7,7,0,0,1-3.32,0v-21a7.2,7.2,0,0,1,1.91-.26,7.9,7.9,0,0,1,1.72.17l6.19,14.22.38,1.06.31-1.06,5.82-14.22a8.53,8.53,0,0,1,1.69-.13A7.71,7.71,0,0,1,102.78,138.28Z"/><path class="cls-1" d="M139.51,153.3c0,4-2.72,6.47-8.38,6.47a31.1,31.1,0,0,1-6.26-.52v-20.7A30.61,30.61,0,0,1,131,138c5.29,0,7.6,2.1,7.6,5.81a4.64,4.64,0,0,1-2.53,4.54A4.85,4.85,0,0,1,139.51,153.3Zm-3.57-.06c0-2.11-1.47-3.16-4.16-3.16H128.4v6.41a23.53,23.53,0,0,0,2.85.16C134.57,156.65,135.94,155.6,135.94,153.24Zm-7.54-12.1V147h3.1c2.63,0,3.66-1.12,3.66-3.09,0-1.81-1.34-2.86-3.94-2.86A27.36,27.36,0,0,0,128.4,141.14Z"/><path class="cls-1" d="M173.8,157.54a6.34,6.34,0,0,1-.22,1.74H160.44V138.19H173.3a8,8,0,0,1,.19,1.71,7.7,7.7,0,0,1-.19,1.67H164v5.23h8.29a7.83,7.83,0,0,1,.18,1.67,8.21,8.21,0,0,1-.18,1.68H164v5.78h9.6A5.58,5.58,0,0,1,173.8,157.54Z"/><path class="cls-1" d="M210.09,159.08a10.37,10.37,0,0,1-2.81.33,6.89,6.89,0,0,1-1.13-.06l-4.47-7.82h-.47c-.94,0-1.94,0-2.94-.07v7.82a8.18,8.18,0,0,1-1.79.2,8.59,8.59,0,0,1-1.78-.2V138.51a31.09,31.09,0,0,1,6.41-.69c5.57,0,8,2.6,8,6.54a6.61,6.61,0,0,1-3.91,6.35Zm-8.79-10.74c3,0,4.19-1.64,4.19-3.78s-1.34-3.52-4.22-3.52a29.17,29.17,0,0,0-3,.17v7.06C199.3,148.34,200.33,148.34,201.3,148.34Z"/><path class="cls-1" d="M229.05,157.18a4.15,4.15,0,0,1,1.85-2.93,7.83,7.83,0,0,0,5.41,2.11c2.69,0,3.88-1.19,3.88-2.86,0-1.38-.62-2.4-4.35-3.35-3.22-.79-6.16-2.17-6.19-6.34,0-3.65,2.78-6.15,7-6.15a10.19,10.19,0,0,1,6.69,2.1,4.12,4.12,0,0,1-1.72,3,8,8,0,0,0-5.1-1.71c-2.16,0-3.44,1.08-3.44,2.46s.63,2.14,4.07,3c3.91,1,6.47,2.66,6.5,6.53,0,4.28-2.84,6.71-7.41,6.71A9.91,9.91,0,0,1,229.05,157.18Z"/><path class="cls-1" d="M304.2,159.08a10.37,10.37,0,0,1-2.81.33,6.89,6.89,0,0,1-1.13-.06l-4.47-7.82h-.47c-.94,0-1.94,0-2.94-.07v7.82a8.18,8.18,0,0,1-1.79.2,8.59,8.59,0,0,1-1.78-.2V138.51a31.09,31.09,0,0,1,6.41-.69c5.57,0,8,2.6,8,6.54a6.61,6.61,0,0,1-3.91,6.35Zm-8.79-10.74c3,0,4.19-1.64,4.19-3.78s-1.34-3.52-4.22-3.52a29.17,29.17,0,0,0-3,.17v7.06C293.41,148.34,294.44,148.34,295.41,148.34Z"/><path class="cls-1" d="M324.32,150.94V138.22a8.39,8.39,0,0,1,1.79-.2,8.87,8.87,0,0,1,1.81.2V150.9c0,3.26,1.66,5.42,4.75,5.42s4.76-2.16,4.76-5.42V138.22a8,8,0,0,1,1.75-.2,8.24,8.24,0,0,1,1.75.2v12.65c0,5.78-3.38,9-8.29,9S324.32,156.78,324.32,150.94Z"/><path class="cls-1" d="M375.29,157.57a8.77,8.77,0,0,1-.19,1.71H362.81V138.19a8,8,0,0,1,1.75-.2,8.3,8.3,0,0,1,1.78.2v17.74h8.76A7.64,7.64,0,0,1,375.29,157.57Z"/><path class="cls-1" d="M408.79,157.54a6.74,6.74,0,0,1-.21,1.74H395.44V138.19h12.85a7.41,7.41,0,0,1,.19,1.71,7.13,7.13,0,0,1-.19,1.67H399v5.23h8.29a7.25,7.25,0,0,1,.19,1.67,7.59,7.59,0,0,1-.19,1.68H399v5.78h9.61A5.94,5.94,0,0,1,408.79,157.54Z"/></g></g></svg>