<?xml version="1.0" encoding="utf-8"?>
<!-- Generator: Adobe Illustrator 22.1.0, SVG Export Plug-In . SVG Version: 6.00 Build 0)  -->
<svg version="1.1" id="Layer_1" xmlns="http://www.w3.org/2000/svg" xmlns:xlink="http://www.w3.org/1999/xlink" x="0px" y="0px"
	 viewBox="0 0 150 31" style="enable-background:new 0 0 150 31;" xml:space="preserve">
<style type="text/css">
	.st0{fill:url(#SVGID_1_);}
</style>
<linearGradient id="SVGID_1_" gradientUnits="userSpaceOnUse" x1="95" y1="11.8898" x2="95" y2="-17.2902" gradientTransform="matrix(1 0 0 -1 -20 11.8898)">
	<stop  offset="0" style="stop-color:#FF382D"/>
	<stop  offset="1" style="stop-color:#FF2D8B"/>
</linearGradient>
<path class="st0" d="M29.7,0v29.8H0V0H29.7z M7.7,6.2l12.7,18.4l1.5-1L9.2,5.2L7.7,6.2z M59.2,4.7h1.5v19.7h-1.3l-11.6-17v17h-1.5
	V4.7h1.3l11.6,16.9V4.7z M78.8,10.3h1.4v14.1h-1.4v-3.2c-1.2,2.2-3.5,3.5-6.1,3.5c-4,0-7.3-3.2-7.3-7.3c0-4,3.2-7.3,7.2-7.3
	c0,0,0.1,0,0.1,0c2.7,0,4.9,1.4,6.1,3.5V10.3z M72.8,23.3c3.3,0,5.9-2.6,5.9-5.9c0,0,0-0.1,0-0.1c0-3.3-2.6-5.9-5.8-6
	c0,0-0.1,0-0.1,0c-3.3,0-5.9,2.6-6,5.9c0,0,0,0.1,0,0.1C66.9,20.7,69.5,23.3,72.8,23.3z M86.6,14c0,3.8,8.5,1.5,8.5,6.7
	c0,2.3-2,4-5,4c-2.8,0-4.7-1.3-5.3-3.1l1.2-0.7c0.5,1.5,2,2.5,4.1,2.5c2,0,3.6-0.9,3.6-2.7c0-3.8-8.5-1.6-8.5-6.7c0-2.2,1.9-4,4.8-4
	c2.3,0,4,1.1,4.8,2.8l-1.2,0.7C93,12,91.5,11.3,90,11.3C88.2,11.3,86.6,12.3,86.6,14z M107.1,10c4,0,7.3,3.2,7.3,7.2
	c0,0,0,0.1,0,0.1c0.1,4-3.1,7.3-7.1,7.3c0,0-0.1,0-0.1,0c-2.5,0.1-4.9-1.3-6.1-3.6V30h-1.4V10.3h1.4v3.3
	C102.2,11.3,104.6,9.9,107.1,10z M107,23.3c3.3,0,5.9-2.6,6-5.9c0,0,0-0.1,0-0.1c0-3.3-2.6-6-5.8-6c0,0-0.1,0-0.1,0
	c-3.3,0-5.9,2.6-6,5.9c0,0,0,0.1,0,0.1C101.1,20.7,103.7,23.3,107,23.3z M131.3,10.3h1.4v14.1h-1.4v-3.2c-1.2,2.2-3.5,3.5-6.1,3.5
	c-4,0-7.3-3.2-7.3-7.3c0-4,3.2-7.3,7.2-7.3c0,0,0.1,0,0.1,0c2.7,0,4.9,1.4,6.1,3.5V10.3z M125.4,23.3c3.3,0,5.9-2.6,5.9-5.9
	c0,0,0-0.1,0-0.1c0-3.3-2.6-5.9-5.8-6c0,0-0.1,0-0.1,0c-3.3,0-5.9,2.6-6,5.9c0,0,0,0.1,0,0.1C119.4,20.7,122,23.3,125.4,23.3z
	 M143.6,22.8l-5.7-12.5h-1.5l6.5,14.3l-0.3,0.8c-0.9,2-2.3,3.5-4.2,3.3V30c2.4,0.2,4.5-1.6,5.6-4.3l6.1-15.4h-1.5L143.6,22.8z"/>
</svg>
