<svg xmlns="http://www.w3.org/2000/svg" viewBox="0 0 1824.1 321.81"><defs><style>.cls-1{fill:#00c4cc;}</style></defs><g id="Layer_2" data-name="Layer 2"><g id="Layer_1-2" data-name="Layer 1"><path class="cls-1" d="M93.76,56.45q26.47,0,48,12.24a88.94,88.94,0,0,1,33.75,33.75q12.35,21.53,12.36,48,0,26.28-12.36,47.77A88.53,88.53,0,0,1,141.77,232q-21.53,12.25-48,12.24-23.88,0-43.25-10.22A77.76,77.76,0,0,1,20.2,205.94V310.75a10,10,0,0,1-2.73,7.37,9.81,9.81,0,0,1-7.37,2.74,10.09,10.09,0,0,1-7.25-2.74A9.76,9.76,0,0,1,0,310.75V148.43a93.86,93.86,0,0,1,12.72-46.94A88.49,88.49,0,0,1,46.46,68.33,95.93,95.93,0,0,1,93.76,56.45Zm0,169a73.31,73.31,0,0,0,37.55-9.74,71.07,71.07,0,0,0,26.62-26.86,76.69,76.69,0,0,0,9.75-38.38,76.18,76.18,0,0,0-9.75-38.27,73,73,0,0,0-64.17-37,72.48,72.48,0,0,0-37.67,10,71.39,71.39,0,0,0-26.38,27q-9.54,17.12-9.51,38.27t9.51,38.38a70.32,70.32,0,0,0,26.38,26.86A73.85,73.85,0,0,0,93.76,225.43Z"/><path class="cls-1" d="M322.19,56.45A95.16,95.16,0,0,1,370,68.69a88.94,88.94,0,0,1,33.75,33.75q12.21,21.53,12.24,48v81.64a10,10,0,0,1-2.74,7.24,9.5,9.5,0,0,1-7.36,2.86,9.78,9.78,0,0,1-10.11-10.1V205.94A77.59,77.59,0,0,1,365.32,234q-19.24,10.24-43.13,10.22-26.52,0-48-12.24a88.11,88.11,0,0,1-33.75-33.75q-12.26-21.48-12.24-47.77,0-26.47,12.24-48a88.53,88.53,0,0,1,33.75-33.75Q295.66,56.48,322.19,56.45Zm0,169a73.33,73.33,0,0,0,37.55-9.74,69.48,69.48,0,0,0,26.38-26.86,77.23,77.23,0,0,0,9.62-38.38,76.71,76.71,0,0,0-9.62-38.27,70.53,70.53,0,0,0-26.38-27,73.77,73.77,0,0,0-101.73,27,76,76,0,0,0-9.74,38.27A76.48,76.48,0,0,0,258,188.83a71.05,71.05,0,0,0,26.5,26.86A73.86,73.86,0,0,0,322.19,225.43Z"/><path class="cls-1" d="M1054,56.45a95.1,95.1,0,0,1,47.77,12.24,88.94,88.94,0,0,1,33.75,33.75q12.21,21.53,12.24,48v81.64a10.06,10.06,0,0,1-2.73,7.24,9.51,9.51,0,0,1-7.37,2.86,9.77,9.77,0,0,1-10.1-10.1V205.94A77.73,77.73,0,0,1,1097.12,234q-19.24,10.24-43.14,10.22-26.51,0-48-12.24a88.11,88.11,0,0,1-33.75-33.75Q960,176.74,960,150.45q0-26.47,12.24-48A88.53,88.53,0,0,1,1006,68.69Q1027.45,56.48,1054,56.45Zm0,169a73.31,73.31,0,0,0,37.55-9.74,69.51,69.51,0,0,0,26.39-26.86,77.34,77.34,0,0,0,9.62-38.38,76.81,76.81,0,0,0-9.62-38.27,70.55,70.55,0,0,0-26.39-27,73.77,73.77,0,0,0-101.72,27,76,76,0,0,0-9.74,38.27,76.48,76.48,0,0,0,9.74,38.38,71.05,71.05,0,0,0,26.5,26.86A73.85,73.85,0,0,0,1054,225.43Z"/><path class="cls-1" d="M612.43,58.7c4.28,1.85,6.41,4.4,6.41,7.73a15.52,15.52,0,0,1-1.3,4.75L504.64,315.75c-2.08,4-4.63,6.06-7.72,6.06a15,15,0,0,1-4.75-.95q-6.42-2.78-6.42-7.85a14.19,14.19,0,0,1,1.42-4.63l33.52-72.61a26.94,26.94,0,0,1-1.31-2.38L445.82,72.25a12.2,12.2,0,0,1-1.31-5.46c0-3.33,1.9-5.89,5.71-7.73a11.83,11.83,0,0,1,5.34-1.31c3.33,0,5.89,1.91,7.73,5.71L531.5,212.6,600.07,63.81q2.94-6.06,7.72-6.06A12.91,12.91,0,0,1,612.43,58.7Z"/><path class="cls-1" d="M846.3,56.09a65.49,65.49,0,0,1,35.89,10.1,66.51,66.51,0,0,1,24.48,28.05q8.77,18,8.79,40.76v97.09a10.06,10.06,0,0,1-2.73,7.24,9.51,9.51,0,0,1-7.37,2.86,9.77,9.77,0,0,1-10.1-10.1V135q0-25.75-13.79-42.31T846.3,76.17q-23.53,0-38,15.57t-13.78,40.88v99.47a10,10,0,0,1-2.74,7.24,9.49,9.49,0,0,1-7.36,2.86,9.63,9.63,0,0,1-7.13-2.86,9.76,9.76,0,0,1-2.86-7.24V135q0-25.75-13.78-42.31T725.33,76.17q-23.18,0-38,14.86t-14.74,38.26v102.8a10.06,10.06,0,0,1-2.73,7.24,9.51,9.51,0,0,1-7.37,2.86,9.77,9.77,0,0,1-10.1-10.1V68.45a9.36,9.36,0,0,1,2.85-7.25,10.09,10.09,0,0,1,7.25-2.73,9.8,9.8,0,0,1,7.37,2.73,9.61,9.61,0,0,1,2.73,7.25V81.64a64.24,64.24,0,0,1,23.18-18.78,66.2,66.2,0,0,1,29.59-6.77,64.71,64.71,0,0,1,34.93,9.63A68.36,68.36,0,0,1,784.74,92a67.51,67.51,0,0,1,25.2-26.26Q826.07,56.09,846.3,56.09Z"/><path class="cls-1" d="M1263.09,244.21a107.91,107.91,0,0,1-38-6.9,71.71,71.71,0,0,1-30.42-21,8.58,8.58,0,0,1-2.37-6.06c0-3.09,1.45-5.64,4.39-7.72,1.25-1.1,3.15-1.67,5.71-1.67a9.75,9.75,0,0,1,7.72,3.69q16.76,20.58,54.07,20.55,26.47,0,39.1-9.38t12.59-24.25q0-26.46-51.33-33.86-32.71-4.72-49.32-17.83t-16.64-31.61q0-24.47,18-38t46.94-13.66q42.29,0,64.17,30.18a8.65,8.65,0,0,1,2,5.71c0,3.17-1.78,5.76-5.35,7.72a16,16,0,0,1-5.11,1.31,10.13,10.13,0,0,1-8.32-4.28q-17.1-21.84-48.12-21.87-20.46,0-32.57,8.92t-12.12,22q0,13.45,11.53,21.51t38.86,12.12q35.65,5,51.22,19t15.68,33.75a40.79,40.79,0,0,1-10,27.22q-9.88,11.76-26.38,18.18A98.89,98.89,0,0,1,1263.09,244.21Z"/><path class="cls-1" d="M1463.7,221.75A9.79,9.79,0,0,1,1474,232.09a9.79,9.79,0,0,1-2.85,7.24,10.1,10.1,0,0,1-7.49,2.86H1456q-18.54,0-33-8.32a59.67,59.67,0,0,1-22.46-23.06q-8.1-14.61-8.08-33.15V83.3h-26.14a8.86,8.86,0,0,1-6.54-2.49,9.07,9.07,0,0,1-2.49-6.54,8.87,8.87,0,0,1,2.49-6.53,8.68,8.68,0,0,1,6.54-2.62h26.14V10.34a10.1,10.1,0,0,1,2.86-7.49A9.79,9.79,0,0,1,1402.5,0a10.32,10.32,0,0,1,7.61,2.85,10.13,10.13,0,0,1,2.85,7.49V65.12h44.33a8.69,8.69,0,0,1,6.53,2.62,8.83,8.83,0,0,1,2.5,6.53,9,9,0,0,1-2.5,6.54,8.87,8.87,0,0,1-6.53,2.49H1413v94.36q0,19.51,12,31.85t31.38,12.24Z"/><path class="cls-1" d="M1592.31,56.68q24.6,0,43.85,11.65a80.23,80.23,0,0,1,30.06,32.09q10.79,20.44,10.82,46.7a8.85,8.85,0,0,1-2.74,6.89,10,10,0,0,1-7,2.5H1526.47A75.92,75.92,0,0,0,1536.93,192a66.56,66.56,0,0,0,25.19,24.36,72,72,0,0,0,35.3,8.67,80.18,80.18,0,0,0,26.26-4.51c8.85-3.09,15.86-7.07,21-12a11.34,11.34,0,0,1,7.13-2.62,8.73,8.73,0,0,1,6,2c2.52,2,3.8,4.34,3.8,7a9.1,9.1,0,0,1-3.09,6.42q-10.7,9.77-28,16.16a96.38,96.38,0,0,1-33,6.3q-26.65,0-47.3-11.88a85.56,85.56,0,0,1-32.32-33.28Q1506,177.3,1506,150.45q0-27.19,10.82-48.49a81.14,81.14,0,0,1,30.54-33.27Q1567.09,56.71,1592.31,56.68Zm0,18.9q-26.16,0-44.21,17.47t-21.27,46h130.72q-2.41-28.53-20.2-46T1592.31,75.58Z"/><path class="cls-1" d="M1798.55,56.45q25.53,0,25.55,11a8.59,8.59,0,0,1-.36,2.73,8.68,8.68,0,0,1-3.21,5.23,10.4,10.4,0,0,1-5.82,1.43,62.71,62.71,0,0,1-7.84-.6,60.07,60.07,0,0,0-8.32-.71q-16.75,0-30,7.13a51.44,51.44,0,0,0-20.44,19.49,53.2,53.2,0,0,0-7.37,27.81V232.09a10.06,10.06,0,0,1-2.73,7.24,9.51,9.51,0,0,1-7.37,2.86,9.77,9.77,0,0,1-10.1-10.1V68.45a9.36,9.36,0,0,1,2.85-7.25,10.09,10.09,0,0,1,7.25-2.73,9.8,9.8,0,0,1,7.37,2.73,9.61,9.61,0,0,1,2.73,7.25V89.36a71,71,0,0,1,24.84-24.12A64.29,64.29,0,0,1,1798.55,56.45Z"/></g></g></svg>