<svg xmlns="http://www.w3.org/2000/svg" xmlns:xlink="http://www.w3.org/1999/xlink" viewBox="0 0 640 186.65"><defs><style>.cls-1{fill:url(#linear-gradient);}.cls-2{fill:url(#linear-gradient-2);}.cls-3{fill:url(#linear-gradient-3);}.cls-4{fill:url(#linear-gradient-4);}.cls-5{fill:#1f2331;}</style><linearGradient id="linear-gradient" x1="56.18" y1="66.19" x2="155.39" y2="-17.05" gradientTransform="matrix(1, 0, 0, -1, 0, 148.35)" gradientUnits="userSpaceOnUse"><stop offset="0" stop-color="#50bc85"/><stop offset="1" stop-color="#0fb8a7"/></linearGradient><linearGradient id="linear-gradient-2" x1="52.93" y1="150.28" x2="174.56" y2="48.23" xlink:href="#linear-gradient"/><linearGradient id="linear-gradient-3" x1="36.02" y1="90.48" x2="74.42" y2="58.26" xlink:href="#linear-gradient"/><linearGradient id="linear-gradient-4" x1="71.44" y1="74.23" x2="116.86" y2="36.12" xlink:href="#linear-gradient"/></defs><title>Asset 1Ozow</title><g id="Layer_2" data-name="Layer 2"><g id="Layer_1-2" data-name="Layer 1"><path class="cls-1" d="M42.34,126.46c-3.5,3.57-6.89,6.84-10,10.3-.42.47-.19,2.14.31,2.8a74.13,74.13,0,0,0,37.53,26.83c24.3,7.66,47.17,4.2,68.09-10.11,5.68-3.89,10.3-9.25,15.32-14.07,2.06-2,4.08-3.74,7.12-3.7,6.18.08,10.15,6.81,6.76,12.06a51,51,0,0,1-7.5,8.86c-14.93,14.43-32.59,23.41-53.28,26.13a88.55,88.55,0,0,1-12.44,1.09c-25.39-.35-47.29-9.52-65.41-27.14-5.44-5.29-9.76-11.78-14.23-18-2.84-3.89-2.41-7.39.94-10.85Q27,119,38.76,107.52c4.16-4,9.72-3.11,12.75,1.83,2.22,3.65,4,7.66,6.54,11,19.67,26.17,60,23.25,75.71-5.4a45,45,0,0,0-5.84-51.92,33.33,33.33,0,0,1-3-3.85c-2.41-3.5-2.06-7.66.82-10.26s7.66-3.11,10.61-.24a67.08,67.08,0,0,1,9.3,10.93c23.52,35.74,3.73,84.85-38.11,93.44-25.2,5.18-46.35-2.8-62.49-23.21C44.28,129,43.54,128,42.34,126.46Z"/><path class="cls-2" d="M95.42,15.83c-21,.42-38.46,6.84-53.16,20.26a41.75,41.75,0,0,1-4,3.34,7.77,7.77,0,0,1-9.95-11.9c4.51-4.12,9.1-8.36,14.15-11.7C61.2,3.42,81.92-2.06,104.32.7c34.92,4.36,60.12,22.75,75,54.6,3.5,7.46,5.21,15.86,7.2,24,1.44,5.75-1.17,9.88-6,11A7.42,7.42,0,0,1,171.4,85c-1.6-5.79-2.37-11.86-4.51-17.42-11.08-28.89-32-46-62.61-50.9C101,16.22,97.59,16.06,95.42,15.83Z"/><path class="cls-3" d="M94.25,31.61c4,.47,7.93.78,11.86,1.4,4.67.74,7.93,5,7.15,9.1-.93,4.71-5.17,7.47-10.11,6.61-16.29-2.91-30.52,1.52-42.23,13C43.66,78.55,26.74,95.82,9.71,112.89c-.66.66-1.28,1.32-2,1.9-2.53,2-5.45,1.36-6.42-1.63-2-6.22-2.18-12.21,3-17.34C20.17,79.91,36,63.85,52,48.14,62.4,37.84,78.93,31.81,94.25,31.61Z"/><path class="cls-4" d="M123.57,95a29.51,29.51,0,1,1-58.91-3.7C65.9,74.23,79.94,63,95,63.73,112.68,64.67,124.93,78.47,123.57,95Zm-15.91-2A13.46,13.46,0,0,0,94.48,79.68,13.62,13.62,0,0,0,80.6,93.09,13.82,13.82,0,0,0,94,106.74,13.6,13.6,0,0,0,107.66,93.09Z"/><path class="cls-5" d="M449.89,17.19A48,48,0,0,1,498.49,65c.18,26.46-21.53,48.11-48.28,48.14a48,48,0,0,1-.32-95.95Zm27.93,48a27.5,27.5,0,0,0-55,0,27.5,27.5,0,0,0,55,0Z"/><path class="cls-5" d="M307.68,65.23a48.18,48.18,0,0,1-96.36-.12c0-26.49,21.88-48.15,48.54-48A48,48,0,0,1,307.68,65.23Zm-75.62,0a27.53,27.53,0,1,0,27.27-27.51A27.63,27.63,0,0,0,232.06,65.26Z"/><path class="cls-5" d="M396.57,110.52H315.65c-.66-8.3-1.18-15.53,5.51-22.44,13.42-13.87,25.75-28.81,38.52-43.31,1.28-1.46,2.51-3,4.54-5.35-2.68-.2-4.36-.43-6-.43-9.91,0-19.82,0-29.73,0-10.27,0-13.23-3-13.21-13.28,0-1.8,0-3.6,0-5.91h81.27c0,4.83.22,9.59-.13,14.3-.12,1.56-1.53,3.2-2.7,4.47Q372.23,62,350.64,85.19c-1.43,1.54-2.81,3.13-4.95,5.53,2.57.19,4.1.41,5.63.41,11.07,0,22.13,0,33.2.06,9.06,0,11.9,2.8,12,11.75C396.6,105.37,396.57,107.79,396.57,110.52Z"/><path class="cls-5" d="M640,19.34c-4.55,0-8.46,0-12.35,0-7.3.08-11.41,3-13.65,9.9-2.31,7.06-4.52,14.15-6.8,21.22-2.52,7.78-5.07,15.55-8.07,24.73-1.19-2.8-1.91-4.2-2.4-5.68-4-12.07-8-24.14-11.9-36.23-4.58-14.14-4.54-14-19.2-14-3.47,0-4.87,1.25-5.88,4.41-4.54,14.15-9.31,28.22-14,42.31-.86,2.57-1.82,5.1-3.16,8.85-.94-2.3-1.41-3.28-1.75-4.3-4.45-13.66-9-27.3-13.29-41-1.57-5-4.41-9-9.53-9.68-5.58-.76-11.34-.17-17.38-.17.56,2.07.91,3.67,1.42,5.22q12.39,37.37,24.84,74.72C530.69,111,530.8,111,543,111a37.14,37.14,0,0,1,5,0c3.35.45,5-.85,6.08-4.14,4.34-13.52,8.94-26.95,13.47-40.41.86-2.56,1.8-5.09,3.06-8.62,1,2.07,1.53,3,1.88,4.07,3.69,11,7.3,21.93,11,32.87,1.8,5.29,2.39,12.49,6.14,15.18s10.8.72,16.38,1.11c3.62.25,5.15-1.22,6.25-4.61,7.24-22.3,14.69-44.53,22.1-66.77,1.83-5.49,3.74-11,5.62-16.43Z"/><path class="cls-5" d="M215.18,160.63a6.62,6.62,0,0,1-2.83-2.24,5.66,5.66,0,0,1-1-3.38h3.92a3.53,3.53,0,0,0,1.15,2.38,4,4,0,0,0,2.85.94,4.41,4.41,0,0,0,3-.92,3,3,0,0,0,1.06-2.37,2.57,2.57,0,0,0-.66-1.83,4.51,4.51,0,0,0-1.64-1.1c-.66-.25-1.56-.53-2.72-.84a24.32,24.32,0,0,1-3.56-1.17,5.85,5.85,0,0,1-2.33-1.85,5.31,5.31,0,0,1-1-3.35,5.91,5.91,0,0,1,1-3.38,6.07,6.07,0,0,1,2.7-2.22,9.76,9.76,0,0,1,4-.77,8.39,8.39,0,0,1,5.32,1.62,6,6,0,0,1,2.31,4.46h-4.06a3,3,0,0,0-1.16-2.09,4.28,4.28,0,0,0-2.8-.87,4,4,0,0,0-2.58.8,2.82,2.82,0,0,0-1,2.32,2.34,2.34,0,0,0,.62,1.69,4.46,4.46,0,0,0,1.6,1,23.45,23.45,0,0,0,2.64.84,26,26,0,0,1,3.62,1.22,6.1,6.1,0,0,1,2.38,1.88,5.39,5.39,0,0,1,1,3.4,6.11,6.11,0,0,1-.91,3.22,6.67,6.67,0,0,1-2.68,2.43,8.83,8.83,0,0,1-4.13.92A10.1,10.1,0,0,1,215.18,160.63Z"/><path class="cls-5" d="M249.37,153.69H235.82a4.89,4.89,0,0,0,1.57,3.41,5,5,0,0,0,3.48,1.29,4.31,4.31,0,0,0,4.19-2.48h4a8,8,0,0,1-2.92,4,8.54,8.54,0,0,1-5.23,1.56,9.07,9.07,0,0,1-4.55-1.14,8.09,8.09,0,0,1-3.16-3.22,9.83,9.83,0,0,1-1.14-4.81,10.08,10.08,0,0,1,1.11-4.82,7.82,7.82,0,0,1,3.12-3.2,9.3,9.3,0,0,1,4.62-1.13,9,9,0,0,1,4.48,1.1,7.73,7.73,0,0,1,3.06,3.07,9.26,9.26,0,0,1,1.09,4.56A11,11,0,0,1,249.37,153.69Zm-3.7-3a4.18,4.18,0,0,0-1.45-3.25,5.15,5.15,0,0,0-3.51-1.23,4.73,4.73,0,0,0-3.25,1.21,5.07,5.07,0,0,0-1.61,3.27Z"/><path class="cls-5" d="M254.93,147.49a7.89,7.89,0,0,1,3.07-3.2,9.82,9.82,0,0,1,9.84.4,7.61,7.61,0,0,1,2.85,4.36h-4a4.31,4.31,0,0,0-1.55-2.06,4.59,4.59,0,0,0-2.67-.74,4.42,4.42,0,0,0-3.59,1.6,8.11,8.11,0,0,0,0,8.93,4.39,4.39,0,0,0,3.59,1.61,4.08,4.08,0,0,0,4.22-2.8h4a8,8,0,0,1-2.9,4.3,8.58,8.58,0,0,1-5.28,1.59,8.81,8.81,0,0,1-4.51-1.14,8,8,0,0,1-3.07-3.22,10.91,10.91,0,0,1,0-9.63Z"/><path class="cls-5" d="M292.35,143.45v17.74h-3.67V159.1a5.9,5.9,0,0,1-2.27,1.72,7.14,7.14,0,0,1-3,.63,8,8,0,0,1-3.75-.87,6.27,6.27,0,0,1-2.6-2.58,8.26,8.26,0,0,1-.95-4.12V143.45h3.63v9.89A5.13,5.13,0,0,0,281,157a4.21,4.21,0,0,0,3.25,1.27,4.3,4.3,0,0,0,3.27-1.27,5.13,5.13,0,0,0,1.2-3.65v-9.89Z"/><path class="cls-5" d="M304.93,143.92a6.25,6.25,0,0,1,3.17-.76V147h-.94a4.49,4.49,0,0,0-3.27,1.1c-.74.73-1.11,2-1.11,3.8v9.33h-3.67V143.45h3.67V146A5.73,5.73,0,0,1,304.93,143.92Z"/><path class="cls-5" d="M329.54,153.69H316a4.9,4.9,0,0,0,5.06,4.7,4.29,4.29,0,0,0,4.18-2.48h4a7.93,7.93,0,0,1-2.91,4,8.54,8.54,0,0,1-5.23,1.56,9.08,9.08,0,0,1-4.56-1.14,8.13,8.13,0,0,1-3.15-3.22,9.83,9.83,0,0,1-1.15-4.81,10.09,10.09,0,0,1,1.12-4.82,7.82,7.82,0,0,1,3.12-3.2,9.3,9.3,0,0,1,4.62-1.13,9,9,0,0,1,4.47,1.1,7.73,7.73,0,0,1,3.06,3.07,9.27,9.27,0,0,1,1.1,4.56A12.27,12.27,0,0,1,329.54,153.69Zm-3.7-3a4.21,4.21,0,0,0-1.45-3.25,5.18,5.18,0,0,0-3.51-1.23,4.73,4.73,0,0,0-3.25,1.21,5,5,0,0,0-1.61,3.27Z"/><path class="cls-5" d="M360.35,148.7a6,6,0,0,1-2.58,2.46,9.45,9.45,0,0,1-4.53,1h-4.06v9.08h-3.67V138.82h7.73a9.77,9.77,0,0,1,4.36.88,6.15,6.15,0,0,1,2.67,2.4,6.59,6.59,0,0,1,.89,3.38A6.72,6.72,0,0,1,360.35,148.7Zm-4-.53a3.46,3.46,0,0,0,1-2.69c0-2.45-1.39-3.67-4.15-3.67h-4.06v7.31h4.06A4.5,4.5,0,0,0,356.36,148.17Z"/><path class="cls-5" d="M366.48,147.51a8.13,8.13,0,0,1,3-3.2,8,8,0,0,1,4.23-1.15,7.84,7.84,0,0,1,3.66.82,7.37,7.37,0,0,1,2.49,2.05v-2.58h3.71v17.74h-3.71v-2.64a7.16,7.16,0,0,1-2.54,2.09,8.25,8.25,0,0,1-7.86-.33,8.41,8.41,0,0,1-3-3.29,10.09,10.09,0,0,1-1.11-4.78A9.81,9.81,0,0,1,366.48,147.51Zm12.66,1.61a5.38,5.38,0,0,0-2-2.06,5.33,5.33,0,0,0-5.28,0,5.16,5.16,0,0,0-2,2,6.28,6.28,0,0,0-.76,3.17,6.52,6.52,0,0,0,.76,3.22,5.34,5.34,0,0,0,2,2.11,5.17,5.17,0,0,0,2.63.73,5.23,5.23,0,0,0,2.64-.71,5.44,5.44,0,0,0,2-2.08,6.55,6.55,0,0,0,.75-3.2A6.46,6.46,0,0,0,379.14,149.12Z"/><path class="cls-5" d="M406.33,143.45l-10.89,26.08h-3.8l3.61-8.63-7-17.45h4.09l5,13.53,5.19-13.53Z"/><path class="cls-5" d="M436.25,144a6.24,6.24,0,0,1,2.61,2.58,8.39,8.39,0,0,1,.95,4.12v10.46h-3.64v-9.92a5.17,5.17,0,0,0-1.19-3.65,4.23,4.23,0,0,0-3.25-1.27,4.27,4.27,0,0,0-3.27,1.27,5.13,5.13,0,0,0-1.21,3.65v9.92h-3.64v-9.92a5.13,5.13,0,0,0-1.19-3.65,4.23,4.23,0,0,0-3.25-1.27,4.3,4.3,0,0,0-3.27,1.27,5.13,5.13,0,0,0-1.2,3.65v9.92H411V143.45h3.67v2a6.13,6.13,0,0,1,2.28-1.71,7.36,7.36,0,0,1,3-.61,7.87,7.87,0,0,1,3.8.9,6.19,6.19,0,0,1,2.58,2.61,6,6,0,0,1,2.51-2.56,7.46,7.46,0,0,1,3.67-1A7.92,7.92,0,0,1,436.25,144Z"/><path class="cls-5" d="M462.54,153.69H449a4.94,4.94,0,0,0,1.58,3.41,5,5,0,0,0,3.48,1.29,4.31,4.31,0,0,0,4.19-2.48h4a8,8,0,0,1-2.92,4,8.54,8.54,0,0,1-5.23,1.56,9.11,9.11,0,0,1-4.56-1.14,8.13,8.13,0,0,1-3.15-3.22,9.83,9.83,0,0,1-1.14-4.81,10.08,10.08,0,0,1,1.11-4.82,7.82,7.82,0,0,1,3.12-3.2,9.3,9.3,0,0,1,4.62-1.13,9.07,9.07,0,0,1,4.48,1.1,7.76,7.76,0,0,1,3.05,3.07,9.27,9.27,0,0,1,1.1,4.56A11,11,0,0,1,462.54,153.69Zm-3.7-3a4.21,4.21,0,0,0-1.45-3.25,5.18,5.18,0,0,0-3.51-1.23,4.73,4.73,0,0,0-3.25,1.21,5.07,5.07,0,0,0-1.61,3.27Z"/><path class="cls-5" d="M480.91,144a6.19,6.19,0,0,1,2.59,2.58,8.5,8.5,0,0,1,.93,4.12v10.46h-3.64v-9.92a5.13,5.13,0,0,0-1.19-3.65,4.21,4.21,0,0,0-3.25-1.27,4.3,4.3,0,0,0-3.27,1.27,5.13,5.13,0,0,0-1.2,3.65v9.92h-3.67V143.45h3.67v2a6.12,6.12,0,0,1,2.3-1.71,7.49,7.49,0,0,1,3-.61A8,8,0,0,1,480.91,144Z"/><path class="cls-5" d="M495.31,146.45v9.82a1.89,1.89,0,0,0,.47,1.43,2.31,2.31,0,0,0,1.59.43h2.26v3.06h-2.9a5.56,5.56,0,0,1-3.8-1.16,4.77,4.77,0,0,1-1.32-3.76v-9.82h-2.09v-3h2.09V139h3.7v4.41h4.32v3Z"/><path class="cls-5" d="M507.63,160.72a6.47,6.47,0,0,1-2.62-2.06,5,5,0,0,1-1-2.91h3.8a2.61,2.61,0,0,0,1.07,1.89,4,4,0,0,0,2.47.75,4.21,4.21,0,0,0,2.4-.59,1.82,1.82,0,0,0,.85-1.53,1.59,1.59,0,0,0-1-1.49,18.73,18.73,0,0,0-3-1.06,28.34,28.34,0,0,1-3.25-1.06,5.72,5.72,0,0,1-2.18-1.58,4.12,4.12,0,0,1-.91-2.8,4.34,4.34,0,0,1,.83-2.59,5.61,5.61,0,0,1,2.4-1.85,9,9,0,0,1,3.59-.68,7.42,7.42,0,0,1,4.88,1.53,5.52,5.52,0,0,1,2,4.17h-3.67a2.64,2.64,0,0,0-1-1.9,3.62,3.62,0,0,0-2.35-.71,3.87,3.87,0,0,0-2.22.55,1.71,1.71,0,0,0-.77,1.45,1.57,1.57,0,0,0,.51,1.19,3.69,3.69,0,0,0,1.26.76q.74.27,2.19.69a22.54,22.54,0,0,1,3.17,1.05,5.86,5.86,0,0,1,2.14,1.56,4.11,4.11,0,0,1,.93,2.73,4.67,4.67,0,0,1-.83,2.71,5.6,5.6,0,0,1-2.37,1.87,9.79,9.79,0,0,1-7.34-.09Z"/></g></g></svg>