<?xml version="1.0" encoding="UTF-8" standalone="no"?>
<!-- Created with Inkscape (http://www.inkscape.org/) -->

<svg
   xmlns:dc="http://purl.org/dc/elements/1.1/"
   xmlns:cc="http://creativecommons.org/ns#"
   xmlns:rdf="http://www.w3.org/1999/02/22-rdf-syntax-ns#"
   xmlns:svg="http://www.w3.org/2000/svg"
   xmlns="http://www.w3.org/2000/svg"
   xmlns:sodipodi="http://sodipodi.sourceforge.net/DTD/sodipodi-0.dtd"
   xmlns:inkscape="http://www.inkscape.org/namespaces/inkscape"
   id="svg4253"
   version="1.1"
   inkscape:version="0.91 r13725"
   width="166.12532"
   height="67.481323">
  <metadata
     id="metadata4259">
    <rdf:RDF>
      <cc:Work
         rdf:about="">
        <dc:format>image/svg+xml</dc:format>
        <dc:type
           rdf:resource="http://purl.org/dc/dcmitype/StillImage" />
      </cc:Work>
    </rdf:RDF>
  </metadata>
  <defs
     id="defs4257" />
  <sodipodi:namedview
     pagecolor="#ffffff"
     bordercolor="#666666"
     borderopacity="1"
     objecttolerance="10"
     gridtolerance="10"
     guidetolerance="10"
     inkscape:pageopacity="0"
     inkscape:pageshadow="2"
     inkscape:window-width="640"
     inkscape:window-height="480"
     id="namedview4255" />
  <inkscape:clipboard
     style="color:#000000;clip-rule:nonzero;display:inline;overflow:visible;visibility:visible;opacity:1;isolation:auto;mix-blend-mode:normal;color-interpolation:sRGB;color-interpolation-filters:linearRGB;solid-color:#000000;solid-opacity:1;fill:#097df7;fill-opacity:1;fill-rule:nonzero;stroke-width:1;stroke-linecap:butt;stroke-linejoin:miter;stroke-miterlimit:4;stroke-dasharray:none;stroke-dashoffset:0;stroke-opacity:1;filter-blend-mode:normal;filter-gaussianBlur-deviation:0;color-rendering:auto;image-rendering:auto;shape-rendering:auto;text-rendering:auto;enable-background:accumulate"
     min="-715.46242,-1041.7279"
     max="-549.3371,-974.24654" />
  <g
     id="g4247"
     transform="translate(715.46242,-1041.7284)">
    <path
       id="path6520-3-7"
       style="font-variant:normal;font-weight:100;font-stretch:normal;font-size:medium;font-family:'Roboto Thin';-inkscape-font-specification:Roboto-Thin;writing-mode:lr-tb;fill:#449dfd;fill-opacity:1;fill-rule:nonzero;stroke:none"
       d="m -661.55055,1049.1984 6.20203,0 q 3.39817,0 5.15059,1.6457 1.73717,1.6458 1.73717,4.8307 0,3.2 -1.73717,4.8458 -1.75242,1.6458 -5.15059,1.6458 l -4.67819,0 0,9.7829 -1.52384,0 0,-22.7509 z m 1.52384,1.2648 0,10.4535 4.67819,0 q 2.54482,0 3.93151,-1.3562 1.40193,-1.3561 1.40193,-3.8857 0,-2.4839 -1.40193,-3.8553 -1.38669,-1.3563 -3.93151,-1.3563 l -4.67819,0 z m 28.26262,11.7489 0,9.7372 -1.38669,0 0,-4.6324 q -1.17336,3.3981 -3.10864,4.3277 -1.53908,0.7467 -3.06292,0.7467 -2.54482,0 -4.00771,-1.3563 -1.46288,-1.3714 -1.46288,-4.0228 0,-2.6516 1.90481,-4.2364 1.9048,-1.6 6.2325,-1.6 l 3.47435,0 0,-0.2742 q 0,-2.2707 -1.29526,-3.7335 -1.28002,-1.4629 -4.23628,-1.4629 -1.46287,0 -2.98672,0.5485 -0.97526,0.3506 -2.52958,1.4173 l 0,-1.5087 q 1.35621,-0.8381 2.52958,-1.1885 1.7067,-0.5029 3.27625,-0.5029 3.01721,0 4.96772,1.8287 1.69147,1.5695 1.69147,5.9125 z m -5.22677,0.1059 q -3.38293,0 -4.8763,1.2039 -1.49336,1.2037 -1.49336,3.52 0,2.2554 1.23431,3.2001 1.23431,0.9448 2.92577,0.9448 3.20008,0 4.60201,-2.7125 1.41716,-2.7125 1.41716,-5.1048 l 0,-1.0515 -3.80959,0 z m 13.94447,11.2154 q -0.9143,2.2706 -1.96575,3.1392 -1.41717,1.1734 -2.77339,1.1734 l -2.08767,0 0,-1.1886 1.78291,0 q 1.1124,0 1.95051,-0.7162 1.08193,-0.9296 1.78289,-2.7278 l 0.50286,-1.2648 -6.81156,-17.0669 1.49337,0 6.06488,15.208 6.08012,-15.208 1.47813,0 -7.4973,18.6517 z m 20.84663,-14.9336 q 0.79241,-2.0572 2.4991,-3.1086 1.61528,-1.0209 3.84008,-1.0209 2.22482,0 3.5658,1.5695 1.35621,1.5544 1.35621,5.6078 l 0,10.301 -1.3867,0 0,-10.2096 q 0,-3.5353 -0.97525,-4.785 -0.97526,-1.2495 -2.59053,-1.2495 -2.34672,0 -4.14485,1.4477 -1.96575,1.5695 -1.96575,5.1506 l 0,9.6458 -1.40194,0 0,-10.2096 q 0,-3.4134 -0.94478,-4.724 -0.94479,-1.3105 -2.62101,-1.3105 -2.34671,0 -4.14484,1.463 -1.96575,1.5695 -1.96575,5.1353 l 0,9.6458 -1.40193,0 0,-17.0669 1.40193,0 0,3.2 q 0.74668,-1.6762 2.31624,-2.6515 1.58478,-0.9599 3.88579,-0.9599 1.49336,0 2.88005,1.0057 1.0667,0.7771 1.79813,3.1238 z m 26.91104,3.8096 q 0,-3.5962 -1.61527,-5.2419 -1.35622,-1.463 -3.6877,-1.463 -2.54482,0 -4.26675,1.524 -1.5848,1.417 -1.9048,5.1809 l 11.47452,0 z m 1.41717,0.3048 0,0.8839 -12.95264,0 q 0,4.1144 1.60002,5.76 1.76766,1.8287 5.25726,1.8287 0.9143,0 2.4229,-0.3963 1.52384,-0.3961 3.01721,-1.1885 l 0,1.4781 q -1.50861,0.6399 -3.0934,0.9752 -1.58479,0.3353 -2.51434,0.3353 -3.94675,0 -5.94298,-2.1334 -2.16385,-2.2704 -2.16385,-6.6591 0,-4.5563 1.981,-6.7963 2.0267,-2.3315 5.63821,-2.3315 3.35244,0 5.05915,2.2095 1.69146,2.3163 1.69146,6.0344 z m 14.47491,-1.0666 0,10.301 -1.40194,0 0,-10.2096 q 0,-3.322 -1.06668,-4.6783 -1.06669,-1.3562 -3.13911,-1.3562 -2.42291,0 -4.14486,1.463 -1.73717,1.478 -1.73717,5.1353 l 0,9.6458 -1.40193,0 0,-17.0669 1.40193,0 0,3.2 q 0.74668,-1.5542 1.96575,-2.3772 1.79813,-1.2342 3.97723,-1.2342 2.52958,0 4.03818,1.7219 1.5086,1.7067 1.5086,5.4554 z m 4.28419,-11.6117 0,4.8458 5.77535,0 0,1.1885 -5.77535,0 0,10.2555 q 0,1.9506 0.50285,2.7277 1.03622,1.7067 3.01721,1.7067 l 2.25529,0 0,1.1885 -2.17909,0 q -2.08766,0 -3.55055,-1.2189 -1.46289,-1.2191 -1.46289,-4.404 l 0,-10.2555 -2.04195,0 0,-1.1885 2.04195,0 0,-4.8458 1.41718,0 z m -146.0105,-8.3075 26.16691,31.1909 -40.50638,23.6549 0.20934,-37.471 c 0,0 0,-5.1288 2.30269,-7.3268 2.30268,-2.1979 11.82744,-10.048 11.82744,-10.048 z"
       inkscape:connector-curvature="0" />
    <g
       id="g6618-4-5"
       style="fill:#097df7;fill-opacity:1"
       transform="matrix(1.3405483,0,0,1.3405483,84.169284,11642.346)">
      <path
         inkscape:connector-curvature="0"
         id="path6587-2-3"
         d="m -595.62152,-7865.0115 10.71067,-4.5823 c 0,0 -0.82815,12.4773 -0.93857,12.2565 -0.11042,-0.2209 -9.7721,-7.6742 -9.7721,-7.6742 z"
         style="fill:#097df7;fill-opacity:1;fill-rule:evenodd;stroke:none;stroke-width:1px;stroke-linecap:butt;stroke-linejoin:miter;stroke-opacity:1" />
      <path
         inkscape:connector-curvature="0"
         d="m -546.02529,-7875.3834 0,1.0264 q -0.91031,-0.83 -1.93664,-1.2316 -1.03526,-0.4106 -2.19549,-0.4106 -2.51674,0 -3.84651,1.5885 -1.3387,1.5886 -1.3387,4.5962 0,3.0077 1.3387,4.6051 1.32977,1.5975 3.84651,1.5975 1.16023,0 2.19549,-0.4105 1.02633,-0.4194 1.93664,-1.2494 l 0,1.0799 q -0.946,0.6426 -2.00805,0.9639 -1.0531,0.3212 -2.23118,0.3212 -2.80233,0 -4.40878,-1.8474 -1.60642,-1.8562 -1.60642,-5.0603 0,-3.2128 1.60642,-5.0603 1.60645,-1.8562 4.40878,-1.8562 1.19592,0 2.24902,0.3391 1.06204,0.3302 1.99021,1.0085 z m 8.79337,6.631 q 0,-2.1062 -0.94601,-3.0701 -0.79431,-0.8567 -2.15977,-0.8567 -1.49043,0 -2.49892,0.8924 -0.92816,0.8299 -1.11556,3.0344 l 6.72026,0 z m 0.82998,0.1785 0,0.5177 -7.58595,0 q 0,2.4096 0.93707,3.3735 1.03528,1.0708 3.07901,1.0708 0.53549,0 1.41903,-0.232 0.89247,-0.232 1.76709,-0.6962 l 0,0.8659 q -0.88355,0.3747 -1.81171,0.5711 -0.92816,0.1963 -1.47256,0.1963 -2.31151,0 -3.48062,-1.2494 -1.26731,-1.3298 -1.26731,-3.9 0,-2.6686 1.16019,-3.9805 1.18699,-1.3654 3.30213,-1.3654 1.96343,0 2.96299,1.2941 0.99063,1.3564 0.99063,3.5341 z m 8.47752,-0.6247 0,6.0329 -0.82107,0 0,-5.9795 q 0,-1.9454 -0.62471,-2.7399 -0.62474,-0.7941 -1.83849,-0.7941 -1.41902,0 -2.42752,0.8567 -1.01741,0.8656 -1.01741,3.0075 l 0,5.6493 -0.82107,0 0,-9.9955 0.82107,0 0,1.8742 q 0.4373,-0.9104 1.15128,-1.3922 1.05312,-0.7229 2.32934,-0.7229 1.4815,0 2.36504,1.0084 0.88354,0.9996 0.88354,3.1951 z m 2.5091,-6.8006 0,2.838 3.38245,0 0,0.6962 -3.38245,0 0,6.0062 q 0,1.1423 0.29452,1.5975 0.6069,0.9996 1.76708,0.9996 l 1.32085,0 0,0.696 -1.27621,0 q -1.22268,0 -2.07945,-0.7138 -0.85677,-0.714 -0.85677,-2.5793 l 0,-6.0062 -1.19591,0 0,-0.6962 1.19591,0 0,-2.838 0.82998,0 z m 10.75638,7.2468 q 0,-2.1062 -0.94602,-3.0701 -0.7943,-0.8567 -2.15978,-0.8567 -1.49041,0 -2.4989,0.8924 -0.92815,0.8299 -1.11559,3.0344 l 6.72029,0 z m 0.82998,0.1785 0,0.5177 -7.58597,0 q 0,2.4096 0.9371,3.3735 1.03526,1.0708 3.079,1.0708 0.53547,0 1.41902,-0.232 0.89247,-0.232 1.76709,-0.6962 l 0,0.8659 q -0.88356,0.3747 -1.8117,0.5711 -0.92817,0.1963 -1.47257,0.1963 -2.31149,0 -3.48062,-1.2494 -1.2673,-1.3298 -1.2673,-3.9 0,-2.6686 1.16021,-3.9805 1.18697,-1.3654 3.30212,-1.3654 1.96343,0 2.96298,1.2941 0.99064,1.3564 0.99064,3.5341 z m 6.35345,-3.8822 q -0.19635,-0.097 -0.53548,-0.1696 -0.30345,-0.054 -0.76754,-0.054 -1.51719,0 -2.51674,1.1245 -0.78539,0.9104 -0.78539,3.1236 l 0,5.2655 -0.8032,0 0,-9.9956 0.8032,0 0,1.8741 q 0.40162,-0.8033 1.12451,-1.3565 0.99958,-0.7586 2.35611,-0.7586 0.34806,0 0.60687,0.028 0.26776,0 0.51765,0.062 l 0,0.8569 z"
         style="font-variant:normal;font-weight:100;font-stretch:normal;font-size:medium;font-family:'Roboto Thin';-inkscape-font-specification:Roboto-Thin;writing-mode:lr-tb;fill:#097df7;fill-opacity:1;fill-rule:nonzero;stroke:none"
         id="path6544-1-2-5" />
    </g>
  </g>
</svg>
