<svg xmlns="http://www.w3.org/2000/svg" viewBox="0 0 566.94 194.57"><defs><style>.cls-1{fill:#ec2028;}.cls-2{fill:#010202;}</style></defs><title>Asset 1payfast</title><g id="Layer_2" data-name="Layer 2"><g id="Layer_1-2" data-name="Layer 1"><path class="cls-1" d="M523.64,50.62c-11.95-.12-21.84-1.45-31.19-5.5a35.39,35.39,0,0,1-12.18-8.3c-7-7.55-6.43-17.89,1.23-24.78C487.94,6.24,495.72,3.3,504,1.69c14.54-2.82,28.94-2.24,43,2.72a39.93,39.93,0,0,1,13,7.41c9.69,8.4,9.12,20.85-1.23,28.49-7.65,5.66-16.42,8.26-25.66,9.5C529.36,50.34,525.57,50.46,523.64,50.62Zm-1.07-14.93a57.05,57.05,0,0,0,16.06-2.43c5.11-1.5,10.13-3.33,14-7.26,3.38-3.42,3.36-6.85,0-10.25A25,25,0,0,0,543.38,10a67.91,67.91,0,0,0-46.84-.57c-3.92,1.35-7.67,3.23-10.47,6.49s-2.86,6.27.18,9.11A33.1,33.1,0,0,0,494,30.44C502.24,34.5,511.21,35.63,522.57,35.69Z"/><path class="cls-1" d="M564.77,64.7c3,4.84,2.12,12.23-1.87,17.24s-9.51,8.18-15.47,10.4c-10.5,3.89-21.4,4.87-32.47,4.11-8.73-.63-17.21-2.32-25.08-6.29-5.14-2.57-9.75-5.86-12.74-11A16.49,16.49,0,0,1,475,70.08c1.07.85,1.87,1.53,2.72,2.18,6.69,5.07,14.36,7.77,22.54,9.1a88.21,88.21,0,0,0,37.77-2c9.87-2.72,19.08-6.89,26.35-14.47C564.39,64.82,564.53,64.8,564.77,64.7Z"/><path class="cls-1" d="M475.27,49.23c10,7.23,21.07,9.61,32.66,10.17a92.52,92.52,0,0,0,26-2.25C545.6,54.37,556.09,49.51,564,39.8a15.52,15.52,0,0,1,1.41,15c-2.1,5.06-6.05,8.5-10.72,11.18a59.87,59.87,0,0,1-24.21,7.23c-12,1.17-23.89.28-35.38-3.85a37.61,37.61,0,0,1-14.8-9.18A17.33,17.33,0,0,1,475.27,49.23Z"/><path class="cls-1" d="M135.67,130.94v-.53h.18v-.87H136v-.88h.17V128h.18v-.87h.17v-.88h.18v-.87h.17v-.7h.18v-.88h.17v-.87h.18V122h.17v-.7h.17v-.87h.18v-.87h.18v-.88h.17V118h.18v-.88h.17v-.87h.17v-.87H139v-.7h.17v-.88h.18V113h.17v-.87h.18v-.7h.17v-.87H140v-.88h.18v-.87h.17v-.7h.18v-.87h.18v-.88h.17v-.87h.17v-.87h.18v-.7h.17V103h.18v-.87h.17v-.88H142v-.69h.17v-.88h.18v-.87h.17v-.87h.17v-.71h.18v-.87H143v-.87h.18V94c0-.14,0-.28,0-.42h.14V90.08h-.09q0-.51-.09-1v-.73h-.1c0-.14-.05-.27-.08-.41v-.81h-.17v-.52h-.13c0-.06,0-.11,0-.16v-.37h-.11l-.06-.17h0v-.18h0l-.12-.34h0v-.17h-.07c0-.1-.07-.19-.11-.28v-.25H142s-.05-.11-.07-.17h0v-.35h-.16l0,0v-.5h-.17v-.17h-.16l0,0V83.1h-.17v-.36h-.18v-.17H141a.35.35,0,0,1-.05-.08v-.27h-.17v-.35h-.18V81.7h-.18v-.35h-.17v-.18H140v-.35h-.17v-.17h-.17v-.17h-.18V80.3h-.17v-.18h-.18V80H139V79.6h-.18v-.17h-.34v-.18h-.18v-.17h-.17V78.9h-.18v-.17h-.18v-.18h-.17v-.17h-.35v-.16h-.17V78h-.18v-.17h-.17v-.18h-.18V77.5h-.35v-.17h-.34v-.18h-.3l-.05,0V77h-.22l-.14-.08v-.09H135l-.2-.13v-.05h-.09l-.08,0v-.12h-.27l-.09,0v-.14H134l-.07,0v-.14h-.29l0,0v-.15h-.35v-.16h-.18v-.17h-.65l-.05,0v-.16h-.46l-.06,0v-.15h-.44l-.26-.09v-.09h-.26l-.26-.06v-.12h-.51l-.19,0v-.13h-.52v-.17h-.88v-.17h-1.39l-.18,0v-.15h-33v.52h-.18v.88h-.17v.87h-.17v.87h-.18v.88h-.17v.87h-.18V80h-.17v.87h-.18v.88h-.17v.87h-.18v.87H92v1h-.17v.86h-.18v.35h32v.18h.88v.17H125v.17h.52v.18h.53v.18h.34v.17h.18v.18h.35v.17h.35v.17h.17v.18h.35v.17H128v.18h.17V88h.18v.18h.17v.17h.17v.17h.18v.18H129v.17h.18V89h.18v.34h.17v.17h.18v.35h.17v.35h.17v.35h.18V91h.17v.52h.18V92h.17v.52H131v1.4h.17v1.75H131v1.22h-.18v.87h-.17v.7h-.18v1.22h-.17v.52H99.87v.16l-.15,0H98.31v.18h-1v.17h-.7v.16H96v.1l-.34.07h-.35v.09l-.3.09h-.4v.13l-.17.05h-.53v.16h-.7v.18h-.35V102h-.52v.18H92v.17h-.35v.15l-.07,0h-.28v.12l-.15.06H91v.08l-.18.09h-.17v.09l-.17.09H90.1v.18h-.35v.17H89.4v.17h-.35v.17H88.7v.18h-.35v.18h-.17v.17h-.35v.18h-.18v.16H87.3v.17h-.17v.15l0,0h-.3v.17h-.35v.18h-.18v.17h-.34v.18h-.17v.17h-.36V106h-.17v.17H85v.17h-.17v.18h-.35v.18h-.17v.17h-.18V107H84v.17h-.36v.17h-.17v.18h-.17v.17h-.17v.18h-.18v.17h-.18v.18h-.17v.17h-.18v.17h-.17v.18h-.17v.17h-.18v.18h-.17v.18h-.18v.17h-.17v.17h-.18v.18H81V110h-.18v.35h-.17v.18H80.5v.17h-.18v.3l0,0h-.14v.17H80v.18h-.18v.24a.76.76,0,0,1-.08.11h-.09v.1s0,0-.05.08h-.12v.16h-.18v.25l-.06.09H79.1v.18h-.17v.18h-.17v.32l0,0h-.16v.17H78.4v.32l0,0h-.15v.17h-.18v.35h-.17v.32l0,0H77.7v.29l0,.05h-.15v.27s0,0,0,.08h-.13v.23l-.06.12h-.11v.2a1.09,1.09,0,0,0-.08.15H77v.17l-.07.18h-.1v.23l-.06.12h-.12v.28l0,.07h-.14v.34H76.3v.35h-.17V118H76v.52h-.17v.52h-.17v.53h-.18v.52h-.17v.53h-.18v.69H74.9v.53h-.17v.87h-.17v.7h-.17v.87h-.18v.7H74v1.42s0,.1,0,.15h-.15v1.7c0,.07,0,.15,0,.22h-.17v.88h.15c0,.45,0,.89,0,1.32v.94h.08c0,.25,0,.5.09.75v1h.18v.52h.12a1.83,1.83,0,0,0,.06.25v.28h.07l.1.31V135h.06c0,.12.07.25.11.37v.16h.06a2.83,2.83,0,0,1,.11.31V136H75l.1.25v.27h.12l.06.14v.56h.17v.17h.18v.34h.17v.36H76v.17h.13l0,.09v.26h.15l0,0V139h.18v.35h.17v.17h.18v.35H77V140h.18v.18h.17v.35h.17v.18h.18v.17h.18v.17h.17v.17h.18v.18h.17v.18h.17v.17h.18v.18h.17v.17h.18v.18h.17v.17h.18v.17h.32l0,0v.15H80V143h.17v.18h.18v.18h.18v.17h.34v.17h.29l.06,0v.13h.18V144h.29l.06,0v.14h.22a.57.57,0,0,0,.13.08v.09h.13l.21.12v.06h.13l0,0v.15h.29l.06,0v.14h.3l.05,0v.15h.31l0,0v.15h.18v.18h.53v.17h.53l.16.06v.12h.34l.19.07v.1h.3l.22.08v.1h.41l.29.06v.11h.46l.06,0v.15H88v.17h1.23v.17H90.8V147h41.55v-.87h.17v-.7h.18v-.87h.18v-.88h.17v-.87h.18v-.7h.17v-.88h.18v-.87h.17v-.87h.17v-.7h.18v-.87h.17v-.87h.18v-.88h.18v-.69h.17v-.87H135v-.88h.17v-.87h.18v-.7h.18v-.88h.17Zm-8-18.86v.52h-.18v.87h-.17v.88h-.17v.87h-.18v.87h-.17V117h-.18v.87h-.18v.87h-.17v.88h-.17v.87h-.17v.87h-.18v.88h-.18v.87h-.17V124h-.18v.87H125v.88h-.18v.87h-.17v.87h-.17v.88h-.18v.87h-.17v.87H124v.88h-.18v.87h-.17v.87h-.17v.87h-.17v.88h-.18v.87h-.18v.18H94.11v-.18H92.89v-.18h-.52V135h-.7v-.17h-.53v-.17H90.8v-.18h-.35v-.18h-.18v-.17h-.35v-.18h-.34v-.17h-.35v-.18h-.18v-.17h-.18v-.17H88.7V133h-.17v-.17h-.18v-.18h-.17v-.18H88v-.17h-.17v-.17h-.18V132h-.17v-.18H87.3v-.34h-.17v-.35H87v-.17h-.18v-.35h-.17v-.35h-.18v-.53h-.18v-.52h-.17v-.53h-.17v-1.39h-.17V125.7h.17v-1.22h.17v-.88h.17v-.7h.18v-.69h.18v-.53h.17v-.53H87v-.51h.17v-.36h.17v-.35h.18v-.34h.17v-.35h.18v-.35H88v-.35h.18v-.17h.17V118h.18v-.18h.17v-.18h.17v-.35h.18v-.17h.18V117h.17v-.18h.18v-.17h.17v-.18h.17v-.17h.18v-.18h.17v-.17h.18v-.17h.17v-.18h.18v-.17H91v-.18h.17V115h.18v-.17h.35v-.17h.18v-.17H92v-.18h.35v-.18h.17V114h.35v-.18h.18v-.17h.35v-.18h.34v-.17h.35v-.17h.36V113h.34v-.17h.53v-.18h.35v-.18h.52v-.17h.7v-.17h.69v-.17h1.05v-.18h29Z"/><path class="cls-1" d="M218.26,74.19H206.91v.18h-.18v.87h-.17v.87h-.17V77h-.17v.88H206v.86h-.18v.7h-.17v.87h-.18v.87h-.17v.88h-.18v.87H205v.69h-.17v.88h-.18v.87h-.17v.87h-.18v.88h-.18v.7h-.17v.87h-.17v.87h-.17v.88h-.18v.87h-.18v.87h-.17v.7h-.18v.87h-.17v.88h-.17v.87h-.18v.87h-.17v.7H202v.88h-.17v.87h-.18v.87h-.17v.88h-.18v.69h-.17v.88H201V103h-.18v.87h-.18v.87h-.17v.88h-.18v.69h-.17v.88h-.17v.87h-.18v.87h-.17v.88h-.18v.7h-.17v.87h-.18v.87h-.17v.88h-.17V114h-.18v.7h-.17v.87h-.18v.87H198v.87h-.17v.88h-.17v.87h-.18v.7h-.17v.88h-.18v.87H197v.87h-.18v.88h-.17V124h-.18v.87h-.17v.88h-.17v.87h-.18v.87h-.17v.7h-.18V129h-.18v.88h-.17v.87H195v.87h-.17v.86h-.18v.71h-.18v.87h-.17V135h-.18v.35h-30v-.18h-1V135h-.52v-.17H162v-.17h-.7v-.18H161v-.18h-.17v-.17h-.36v-.18h-.35v-.17h-.17v-.18h-.35v-.17h-.17v-.17h-.18V133h-.35v-.17h-.17v-.18h-.17v-.18h-.18v-.17h-.17v-.17H158v-.35h-.18v-.18h-.17v-.17h-.17v-.35h-.18v-.35h-.17v-.17H157v-.35h-.17v-.53h-.18v-.52h-.17v-.53h-.18v-.87h-.17V125h.17v-1h.18v-.87h.17v-.7h.18v-.87H157v-.87h.18v-.88h.17v-.87h.18V118h.17v-.71h.17v-.87H158v-.87h.18v-.87h.17v-.88h.18V113h.17v-.7h.17v-.87h.18v-.87h.17v-.88h.18v-.87h.17v-.7h.18v-.87h.17v-.88h.17v-.87h.18v-.87h.17v-.88h.18V103h.18v-.87H161v-.88h.17v-.87h.18v-.87h.17v-.88h.18v-.69h.17v-.88H162v-.87h.17v-.87h.18v-.87h.17v-.88h.17v-.7h.18V92h.17v-.88h.18v-.87h.18v-.87h.17v-.87h.17v-.69H164v-.87h.18v-.88h.18v-.87h.17v-.87h.18v-.71h.17v-.87H165v-.87h.18V81h.17v-.87h.18v-.87h.17v-.7h.18v-.87h.18v-.87h.17v-.88h.17v-.87h.17v-.87H154.88v.69h-.17v.88h-.18v.87h-.18v.87h-.17v.71H154v.87h-.17V80h-.17v.87h-.18v.88h-.17v.87h-.18v.7H153v.87h-.18V85h-.18v.88h-.17v.87h-.17v.87h-.17v.7h-.18v.88h-.18v.87h-.17V91h-.18v.88h-.17v.86H151v.69h-.18v.88h-.17v.87h-.18V96h-.17v.88h-.18v.69H150v.88h-.17v.87h-.18v.87h-.17v.87h-.18V102h-.18v.7h-.17v.87h-.18v.88h-.17v.87h-.17v.87h-.18V107h-.17v.69h-.18v.87h-.17v.88h-.18v.87h-.17v.87h-.17v.88H147v.7h-.17v.87h-.18v.88h-.18v.87h-.17v.87h-.17v.87H146v.7h-.18v.87h-.18v.88h-.17v.87h-.18v.87h-.17v.88h-.18v.69h-.17v.87h-.17v.88h-.18v1.21h-.17v1.43c0,.17,0,.33,0,.49h-.14v2.1h.09c0,.43.05.87.09,1.29V132h.09c0,.16.05.31.08.47v.92h.18v.52h.12c0,.07,0,.13.05.19v.34h.1l.07.25V135H145l.09.28v.25h.09a1.8,1.8,0,0,1,.08.21V136h.12l.06.14v.38h.17v.53h.18v.17H146l0,0v.31h.16v.35h.17v.18h.12a.41.41,0,0,0,.05.09v.26h.16l0,0v.3h.18v.35H147v.18h.18v.35h.17v.17h.17V140h.18v.35h.17v.18h.18v.18h.17v.17h.18v.17h.17v.17h.17v.18h.18v.18h.17v.17h.18v.18h.18v.17h.17v.18H150l0,0v.15h.17v.17h.18v.18h.17V143h.18v.18h.17v.18h.35v.17h.32l0,0v.15h.24l.11.07v.1h.15l0,0V144h.25l.09.07v.11h.18l.17.1v.07h.15l.2.1v.08h.18v.16h.35v.16H154v.17h.35v.17h.36v.18h.54l.15,0v.12h.33l.2.07v.11h.3l.22.08V146h.38l.32.08v.1h.4l.12,0v.15h.53v.17h1.1l.12,0v.16h1.2l.2,0v.15h31.25v.35h-.18v.87h-.17v.69h-.18v.88h-.17v.7h-.17v.87H191v.52h-.17v.53h-.18v.52h-.17v.53h-.18v.34h-.17v.18H190v.35h-.18v.35h-.17v.35h-.18v.34h-.18v.18h-.17v.35h-.18v.18h-.17v.17h-.17v.35h-.18v.17h-.17v.18h-.18V157h-.17v.35h-.18v.17h-.17v.18h-.17v.17h-.18V158H187v.18h-.18v.17h-.35v.18h-.17v.17h-.17v.17H186v.18h-.18v.17h-.35v.18h-.17v.17h-.35v.18h-.17v.17h-.35v.17h-.18v.18h-.35v.17h-.34v.18h-.36v.18h-.35V161h-.34v.17h-.35v.17h-.35v.18h-.53v.18h-.7v.17H180V162h-.87v.17H137.94v.35h-.18v.7h-.17v.87h-.17V165h-.18v.88h-.17v.69h-.18v.88h-.17v.87h-.18v.87h-.17v.7h-.18v.88H136v.87h-.17v.87h-.18v.63h.05l-.13.59H175a26.4,26.4,0,0,0,5.5-.59h.26v-.06l.19,0h.51v-.11l.28-.07h.42v-.11l.2-.07h.32v-.1l.21-.07h.49v-.15l.06,0H184v-.17h.36V172h.52v-.18h.35v-.17h.35v-.16l0,0H186v-.13l.08,0h.27v-.11l.13-.06h.21V171l.12-.06H187v-.13l.08,0h.27v-.14l.07,0h.27v-.15l.05,0h.3v-.16l0,0h.5v-.17h.17v-.18h.35v-.17h.17v-.17h.36v-.18h.17v-.18h.35V169h.17v-.17h.35v-.17h.18v-.17h.35v-.18h.17v-.17h.35V168h.17v-.17h.18v-.18h.35v-.17h.17v-.17h.17v-.18h.18v-.17h.18v-.18h.35v-.18h.17v-.17h.18v-.17H194V166h.17v-.17h.18v-.18h.17v-.17h.18v-.18h.18v-.17H195V165h.17v-.17h.17v-.17h.18v-.18h.18v-.17h.17v-.18h.18v-.18h.17v-.17h.17v-.17h.18v-.34h.17v-.18H197v-.17h.17v-.27l.07-.08h.11v-.13l0,0h.14v-.18h.18V162a1.58,1.58,0,0,1,.12-.15h.05v-.07a.61.61,0,0,0,.07-.1h.1v-.15l0,0h.15v-.22l.09-.13h.09V161l0,0h.14v-.17h.18v-.18h.17v-.35h.17v-.18h.18v-.34h.17v-.18h.18v-.35h.17v-.35h.18v-.34h.17v-.32l0,0h.15v-.27a.41.41,0,0,0,0-.09h.13v-.25a.42.42,0,0,0,0-.1h.13v-.28l0-.06h.15v-.35H201v-.35h.17v-.35h.17v-.35h.18v-.52h.17v-.52h.17v-.46l0-.06H202v-.35h.18v-.52h.17v-.53h.18v-.52h.17v-.88h.17v-.87h.18v-.87h.17v-.7h.18v-.87h.18v-.87h.17v-.88h.17v-.87h.17v-.87h.18v-.71h.18V143h.17v-.87h.18v-.88H205v-.87h.17v-.87h.18v-.7h.17v-.87h.18v-.87h.17v-.88H206v-.87h.18v-.87h.17v-.88h.17v-.69h.17V132h.18v-.88h.18v-.87h.17v-.87h.18v-.88h.17v-.7h.17v-.87H208v-.87h.17v-.88h.18v-.87h.17v-.87h.18v-.7h.17v-.87H209V121h.18v-.87h.17v-.87h.18v-.87h.18v-.71h.17v-.87h.18v-.87h.17V115h.17v-.87h.18v-.87h.17v-.7h.18v-.87h.17v-.87h.18V110h.17v-.87h.17v-.87h.18v-.7H212v-.87h.18v-.88h.18v-.87h.17v-.87h.17v-.87h.17v-.87H213v-.7h.18v-.87h.17v-.88h.18V99h.17v-.87h.18v-.88h.17v-.69h.17v-.87h.18v-.88h.17v-.87h.18v-.87H215v-.88h.17v-.7h.17V90.6h.17v-.87h.18v-.88h.18V88H216v-.87h.18v-.7h.17v-.87h.17v-.88h.18v-.87h.17v-.87H217v-.87h.17v-.7h.18v-.87h.17V79.6h.18v-.87h.17v-.87h.17V77h.18v-.87h0l.4-1.91Z"/><path class="cls-1" d="M87.07,80.81l2.07-10c1.27-6.3.16-11.6-3.32-16s-8.39-6.49-14.69-6.49H20.52L0,146.92H11.36l9-43.68H59.61a27.34,27.34,0,0,0,17.5-6.48A27.05,27.05,0,0,0,87.07,80.81Zm-16.38,8A13.48,13.48,0,0,1,62,92H22.73l6.78-32.45H68.77a8.8,8.8,0,0,1,9,11.21l-2.07,10A13.87,13.87,0,0,1,70.69,88.78Z"/><path class="cls-2" d="M318.77,135.55l4.79-23.94h-27.7a14,14,0,0,0-8.9,3.29,13.34,13.34,0,0,0-5,8.08l-.29,1.21a9,9,0,0,0,1.71,8.08,9.44,9.44,0,0,0,7.57,3.28Zm9.13,11.37H288.53q-9.88,0-15.19-6.42c-3.54-4.29-4.62-9.74-3.21-16.31l.29-1.21a27,27,0,0,1,10-16.31,27.83,27.83,0,0,1,17.89-6.44H326.1l.15-1.34.45-2A9.58,9.58,0,0,0,325,88.86a8.93,8.93,0,0,0-7.41-3.3H285.18l2.24-11.37h32.4q9.87,0,15.26,6.21c3.6,4.14,4.73,9.46,3.44,15.94"/><path class="cls-2" d="M403.39,127.47a22.71,22.71,0,0,1-10,14.82,29.81,29.81,0,0,1-17.08,4.93H337.38l2.41-11.37H378.7q11.52,0,13.17-8.38l.6-2.69q1.78-8.4-9.73-8.39H365.23q-9.74,0-15-4.93-6-5.38-4-14.83l.6-2.68a22.57,22.57,0,0,1,10-14.82,29.8,29.8,0,0,1,17.06-4.94H413l-2.25,11.37H371.66q-11.52,0-13.32,8.39l-.59,2.68q-1.67,8.4,9.88,8.39h17.5q9.74,0,15,4.94,5.83,5.39,3.89,14.82"/><path class="cls-2" d="M456,146.79H437.72c-6.59,0-11.68-2.17-15.27-6.45s-4.69-9.72-3.28-16.31L427.25,85h-7.18l2.54-11.67h7.18l5.39-26h11.67l-5.38,26h24.24L463.18,85H438.92L430.83,124A8.93,8.93,0,0,0,440,135.4h18.27"/><path class="cls-2" d="M307.92,58.66H260.23a15.08,15.08,0,0,0-14.11,11.41l-4.45,21.78h29.75L269,103.41h-29.6l-9.2,43.66H218.66l15.91-77a29.1,29.1,0,0,1,28.07-22.82h47.68"/><path d="M224,181.71h-9.59l-2.16,6h-3.11l8.74-22.89h2.64l8.76,22.89h-3.1Zm-8.68-2.47h7.78l-3.9-10.71Z"/><path d="M240.34,187.7V164.81h6.46a10.4,10.4,0,0,1,5.28,1.32,9,9,0,0,1,3.55,3.76,12.24,12.24,0,0,1,1.26,5.59v1.46a12.22,12.22,0,0,1-1.25,5.68,8.81,8.81,0,0,1-3.56,3.74,11.08,11.08,0,0,1-5.4,1.34Zm3-20.42v17.95h3.17a6.92,6.92,0,0,0,5.43-2.17,9,9,0,0,0,1.95-6.19v-1.33a9.13,9.13,0,0,0-1.83-6.07,6.54,6.54,0,0,0-5.2-2.19Z"/><path d="M264.47,178.74v9h-3V164.81h8.44a8.47,8.47,0,0,1,5.89,1.92,6.48,6.48,0,0,1,2.13,5.07,6.41,6.41,0,0,1-2.08,5.14,8.87,8.87,0,0,1-6,1.8Zm0-2.47h5.42a5.42,5.42,0,0,0,3.71-1.14,4.17,4.17,0,0,0,1.29-3.3,4.32,4.32,0,0,0-1.29-3.28,5.06,5.06,0,0,0-3.53-1.27h-5.6Z"/><path d="M299.37,177a14.23,14.23,0,0,1-1.13,5.87,8.65,8.65,0,0,1-3.21,3.83,8.84,8.84,0,0,1-12.88-3.8A13.56,13.56,0,0,1,281,177.2v-1.66a13.91,13.91,0,0,1,1.15-5.83,8.49,8.49,0,0,1,8.05-5.22,8.93,8.93,0,0,1,4.85,1.33,8.62,8.62,0,0,1,3.23,3.85,14.33,14.33,0,0,1,1.13,5.87Zm-3-1.48a10.29,10.29,0,0,0-1.64-6.25,5.83,5.83,0,0,0-9.08,0,10.11,10.11,0,0,0-1.69,6.05V177a10.3,10.3,0,0,0,1.66,6.2,5.8,5.8,0,0,0,9.09.13,10.28,10.28,0,0,0,1.66-6.11Z"/><path d="M328.7,180.43A8.41,8.41,0,0,1,326,186a8.8,8.8,0,0,1-6,2,8.07,8.07,0,0,1-6.5-2.91,11.69,11.69,0,0,1-2.44-7.78v-2.2a13,13,0,0,1,1.14-5.61,8.54,8.54,0,0,1,3.23-3.72,9,9,0,0,1,4.84-1.3,8.27,8.27,0,0,1,5.85,2,8.52,8.52,0,0,1,2.56,5.63h-3a6.55,6.55,0,0,0-1.71-4,5.15,5.15,0,0,0-3.67-1.23,5.37,5.37,0,0,0-4.53,2.14,9.81,9.81,0,0,0-1.65,6.09v2.22a10.09,10.09,0,0,0,1.56,5.93,5,5,0,0,0,4.35,2.2,5.79,5.79,0,0,0,3.86-1.14,6.33,6.33,0,0,0,1.79-4Z"/><path d="M331.59,179a10,10,0,0,1,1-4.49,7.26,7.26,0,0,1,2.73-3.08,7.39,7.39,0,0,1,4-1.09,7.15,7.15,0,0,1,5.62,2.41,9.24,9.24,0,0,1,2.15,6.4v.2a10.21,10.21,0,0,1-.95,4.46,7.26,7.26,0,0,1-2.72,3.07,7.59,7.59,0,0,1-4.07,1.1,7.16,7.16,0,0,1-5.6-2.4,9.23,9.23,0,0,1-2.15-6.37Zm2.93.35a7.29,7.29,0,0,0,1.31,4.54,4.44,4.44,0,0,0,7,0,8,8,0,0,0,1.31-4.87,7.24,7.24,0,0,0-1.33-4.53,4.21,4.21,0,0,0-3.53-1.74,4.16,4.16,0,0,0-3.47,1.72A7.88,7.88,0,0,0,334.52,179.38Z"/><path d="M353.46,170.69l.08,1.88a6.3,6.3,0,0,1,5-2.2q3.57,0,4.86,2.74a6.4,6.4,0,0,1,2.21-2,6.47,6.47,0,0,1,3.22-.76c3.73,0,5.62,2,5.69,5.93v11.4h-2.91V176.47a4,4,0,0,0-.83-2.73,3.69,3.69,0,0,0-2.8-.9,3.83,3.83,0,0,0-2.69,1,3.89,3.89,0,0,0-1.24,2.6V187.7h-2.93V176.55q0-3.7-3.63-3.71a3.88,3.88,0,0,0-3.91,2.44V187.7h-2.91v-17Z"/><path d="M393.31,179.38a10.17,10.17,0,0,1-1.78,6.26,5.68,5.68,0,0,1-4.81,2.37,6.23,6.23,0,0,1-4.87-2v8.19h-2.91V170.69h2.66l.14,1.88a6,6,0,0,1,4.94-2.2,5.81,5.81,0,0,1,4.85,2.31,10.37,10.37,0,0,1,1.78,6.43Zm-2.91-.33a7.55,7.55,0,0,0-1.22-4.54,4,4,0,0,0-3.37-1.67,4.27,4.27,0,0,0-4,2.34v8.13a4.29,4.29,0,0,0,4,2.33,4,4,0,0,0,3.33-1.66A8.24,8.24,0,0,0,390.4,179.05Z"/><path d="M407.5,187.7a6.38,6.38,0,0,1-.4-1.8,6.5,6.5,0,0,1-4.85,2.11,6,6,0,0,1-4.12-1.42,4.59,4.59,0,0,1-1.61-3.61,4.81,4.81,0,0,1,2-4.13,9.5,9.5,0,0,1,5.68-1.47h2.83v-1.33a3.29,3.29,0,0,0-.91-2.43,3.69,3.69,0,0,0-2.69-.91,4.26,4.26,0,0,0-2.61.79,2.33,2.33,0,0,0-1,1.9h-2.93a4,4,0,0,1,.91-2.46,6.25,6.25,0,0,1,2.45-1.88,8.23,8.23,0,0,1,3.4-.69,6.73,6.73,0,0,1,4.61,1.47,5.3,5.3,0,0,1,1.73,4v7.83a9.71,9.71,0,0,0,.59,3.72v.26Zm-4.82-2.22a5.1,5.1,0,0,0,2.59-.71,4.26,4.26,0,0,0,1.78-1.84v-3.49h-2.28c-3.56,0-5.35,1.05-5.35,3.13a2.65,2.65,0,0,0,.92,2.14A3.49,3.49,0,0,0,402.68,185.48Z"/><path d="M417.27,170.69l.09,2.13a6.22,6.22,0,0,1,5.1-2.45q5.39,0,5.43,6.09V187.7H425V176.44a4,4,0,0,0-.85-2.72,3.35,3.35,0,0,0-2.57-.88,4.14,4.14,0,0,0-2.48.76,5.13,5.13,0,0,0-1.67,2V187.7h-2.9v-17Z"/><path d="M437.84,183.44l4-12.75h3.12l-6.84,19.63q-1.59,4.25-5.05,4.25l-.55,0-1.08-.21V192l.78.06a3.87,3.87,0,0,0,2.31-.6,4.38,4.38,0,0,0,1.36-2.18l.64-1.73-6.07-16.82h3.18Z"/></g></g></svg>