<?xml version="1.0" encoding="utf-8"?>
<!-- Generator: Adobe Illustrator 24.1.2, SVG Export Plug-In . SVG Version: 6.00 Build 0)  -->
<svg version="1.1" id="MARCA" xmlns="http://www.w3.org/2000/svg" xmlns:xlink="http://www.w3.org/1999/xlink" x="0px" y="0px"
	 viewBox="0 0 1018 283.9" style="enable-background:new 0 0 1018 283.9;" xml:space="preserve">
<style type="text/css">
	.st0{fill:#F9C32F;}
	.st1{fill:#001BA9;}
	.st2{fill:#FFFFFF;}
</style>
<rect x="-4.7" y="2234.3" class="st0" width="1321.1" height="566.1"/>
<rect x="1686.3" y="2234.3" class="st0" width="514.7" height="566.1"/>
<g>
	<path class="st1" d="M1947.3,2375.4c-0.1,0-3.9,0-3.9,0h-108.3v0.3v40.8v239.1h44.8v-239l38,0h29.3c73.6,0,73.9,111.9,0,111.9
		h-13.7l-30.7,41.2h44.4C2081.3,2568.8,2080.9,2375.4,1947.3,2375.4z"/>
	<polygon class="st2" points="2058.5,2655.7 1933.7,2528.4 1897.4,2565 1987.8,2655.7 	"/>
</g>
<g>
	<g>
		<g>
			<path class="st1" d="M492.3,2460.6v40.7h-27.1v-125.7h52c14.9,0,26.8,3.9,35.4,11.6c8.8,7.7,13.1,17.9,13.1,30.8
				c0,12.9-4.4,23.1-13,31c-8.6,7.7-20.5,11.6-35.4,11.6L492.3,2460.6L492.3,2460.6z M492.3,2396.9v42.4h22.1
				c16.3,0,24.3-9.1,24.3-21.3c0-12.1-7.9-21.1-24-21.1L492.3,2396.9L492.3,2396.9z"/>
			<path class="st1" d="M640.3,2501.3v-14.4c-7.2,11.2-17.3,16.9-30.1,16.9c-11.7,0-21.5-4.4-29.6-13.1
				c-8.1-8.7-12.1-19.6-12.1-32.7c0-12.9,4-23.6,12.1-32.2c8.1-8.7,17.9-13.1,29.6-13.1c12.8,0,22.9,5.5,30.1,16.8v-14.4h24.3v86.1
				L640.3,2501.3L640.3,2501.3z M599.6,2475.5c4.4,4.5,10,6.7,16.5,6.7c10.5,0,19.8-6.2,24.2-14.3v-19.4
				c-4.7-8.2-13.8-14.3-24.2-14.3c-6.5,0-11.9,2.4-16.5,6.9c-4.4,4.5-6.7,10.1-6.7,16.9C593,2465.1,595.2,2471,599.6,2475.5z"/>
			<path class="st1" d="M736.1,2513c-3.5,14.8-12.4,21.8-28.7,21.8h-16.8l-4.7-18.6h18.9c5.6,0,9.1-2.4,10.3-7.2l2.5-8.9h-23.6
				l-21-85h25.4l13.8,66.4h9.1l13.8-66.4h25.6L736.1,2513z"/>
			<path class="st1" d="M538.9,2655.8l-19.1-44.6h-27.5v44.6h-27.1v-125.7h55.9c14.5,0,26.1,3.9,34.3,11.4
				c8.2,7.5,12.4,17.4,12.4,29.7c0,16.1-8.1,28.7-22.2,35.2l21.9,49.4L538.9,2655.8L538.9,2655.8z M492.3,2551.4v40.7h24
				c15.9,0,23.5-8.6,23.5-20.4c0-11.6-7.5-20.3-23.1-20.3H492.3z"/>
			<path class="st1" d="M666,2625.6c-2.3,9.9-7.7,17.9-15.9,23.8s-17.9,8.9-28.9,8.9c-13.7,0-25-4.4-34-13.1
				c-8.9-8.7-13.5-19.8-13.5-33c0-12.6,4.5-23.1,13.5-31.8c9.1-8.7,20.3-13.1,33.6-13.1c14.4,0,25.8,4.9,34,14.4
				c8.2,9.6,12.4,20.9,12.4,34.2h-71.6c1.6,13.9,11.6,22.3,25.6,22.3c9.8,0,19.1-4.7,22.6-12.6L666,2625.6L666,2625.6z M597,2602.5
				h46.2c-2.8-10.1-10.9-15.9-22.2-15.9C609.3,2586.6,600.4,2592.6,597,2602.5z"/>
			<path class="st1" d="M726.5,2588.6h-15.8v67.2h-25v-67.2h-15.6v-18.9h15.6v-24.1h25v24.1h15.8V2588.6z"/>
			<path class="st1" d="M801.8,2655.8v-14.4c-7.2,11.2-17.3,16.9-30.1,16.9c-11.7,0-21.5-4.4-29.6-13.1
				c-8.1-8.7-12.1-19.6-12.1-32.7c0-12.9,4-23.6,12.1-32.2c8.1-8.7,17.9-13.1,29.6-13.1c12.8,0,22.9,5.5,30.1,16.8v-14.4h24.3v86.1
				L801.8,2655.8L801.8,2655.8z M761.1,2629.9c4.4,4.5,10,6.7,16.5,6.7c10.5,0,19.8-6.2,24.2-14.3V2603
				c-4.7-8.2-13.8-14.3-24.2-14.3c-6.5,0-11.9,2.4-16.5,6.9c-4.4,4.5-6.7,10.1-6.7,16.9C754.5,2619.6,756.8,2625.4,761.1,2629.9z"/>
			<path class="st1" d="M867.8,2554.7h-25v-24.6h25V2554.7z M867.8,2655.8h-25v-86.1h25V2655.8z"/>
			<path class="st1" d="M909.3,2655.8h-25v-125.7h25V2655.8z"/>
			<path class="st1" d="M1014.3,2625.6c-2.3,9.9-7.7,17.9-15.9,23.8s-17.9,8.9-28.9,8.9c-13.7,0-25-4.4-34-13.1
				c-8.9-8.7-13.5-19.8-13.5-33c0-12.6,4.5-23.1,13.5-31.8c9.1-8.7,20.3-13.1,33.6-13.1c14.4,0,25.8,4.9,34,14.4
				c8.2,9.6,12.4,20.9,12.4,34.2h-71.6c1.6,13.9,11.6,22.3,25.6,22.3c9.8,0,19.1-4.7,22.6-12.6L1014.3,2625.6L1014.3,2625.6z
				 M945.3,2602.5h46.2c-2.8-10.1-10.9-15.9-22.2-15.9C957.5,2586.6,948.6,2592.6,945.3,2602.5z"/>
			<path class="st1" d="M1081.9,2593.8c-11.7,0-23.5,4.2-29.3,8.9v53.1h-25.1v-86.1h25.1v13.9c7.4-10.9,17.2-16.3,29.3-16.3V2593.8z
				"/>
			<path class="st1" d="M1089.6,2655.8v-19.4h38c8.6,0,12.8-3,12.8-9.1c0-5.7-4.2-8.6-12.6-8.6h-11c-17.3,0-28.4-10.1-28.4-24.6
				c0-7,2.8-12.9,8.2-17.4c5.4-4.7,12.3-7,20.5-7h41.9v19.3h-38.9c-5.1,0-8.1,2.5-8.1,6c0,4,2.6,6,8.1,6h12.1
				c20.5,0,31.3,11.1,31.3,26.6c0,16.1-11.9,28.2-32.4,28.2L1089.6,2655.8L1089.6,2655.8z"/>
		</g>
	</g>
	<g>
		<path class="st1" d="M257.7,2374.4c-0.1,0-3.9,0-3.9,0H145.5v0.3v40.8v239.1h44.8v-239l38,0h29.3c73.6,0,73.9,111.9,0,111.9H244
			l-30.7,41.2h44.4C391.6,2567.9,391.2,2374.4,257.7,2374.4z"/>
		<polygon class="st2" points="368.8,2654.8 244.1,2527.5 207.7,2564.1 298.1,2654.8 		"/>
	</g>
</g>
<g>
	<g>
		<g>
			<g>
				<path class="st1" d="M346.8,86.1v40.7h-27.1V1.2h52c14.9,0,26.8,3.9,35.4,11.6c8.8,7.7,13.1,17.9,13.1,30.8s-4.4,23.1-13,31
					c-8.6,7.7-20.5,11.6-35.4,11.6L346.8,86.1L346.8,86.1z M346.8,22.4v42.4h22.1c16.3,0,24.3-9.1,24.3-21.3
					c0-12.1-7.9-21.1-24-21.1L346.8,22.4L346.8,22.4z"/>
				<path class="st1" d="M494.7,126.9v-14.4c-7.2,11.2-17.3,16.9-30.1,16.9c-11.7,0-21.5-4.4-29.6-13.1
					c-8.1-8.7-12.1-19.6-12.1-32.7c0-12.9,4-23.6,12.1-32.2c8.1-8.7,17.9-13.1,29.6-13.1c12.8,0,22.9,5.5,30.1,16.8V40.7h24.3v86.2
					L494.7,126.9L494.7,126.9z M454.1,101.1c4.4,4.5,10,6.7,16.5,6.7c10.5,0,19.8-6.2,24.2-14.3V74.1c-4.7-8.2-13.8-14.3-24.2-14.3
					c-6.5,0-11.9,2.4-16.5,6.9c-4.4,4.5-6.7,10.1-6.7,16.9C447.4,90.7,449.7,96.5,454.1,101.1z"/>
				<path class="st1" d="M590.6,138.6c-3.5,14.8-12.4,21.8-28.7,21.8h-16.8l-4.7-18.6h18.9c5.6,0,9.1-2.4,10.3-7.2l2.4-8.9h-23.6
					l-21-85h25.4l13.8,66.4h9.1l13.8-66.4h25.6L590.6,138.6z"/>
				<path class="st1" d="M393.4,281.3l-19.1-44.6h-27.5v44.6h-27.1V155.6h55.9c14.5,0,26.1,3.9,34.3,11.4
					c8.2,7.5,12.4,17.4,12.4,29.7c0,16.1-8.1,28.7-22.2,35.2l21.9,49.4L393.4,281.3L393.4,281.3z M346.8,176.9v40.7h24
					c15.9,0,23.5-8.5,23.5-20.5c0-11.6-7.5-20.3-23.1-20.3H346.8z"/>
				<path class="st1" d="M520.5,251.2c-2.3,9.9-7.7,17.9-15.9,23.8c-8.2,5.9-17.9,8.9-28.9,8.9c-13.7,0-25-4.4-34-13.1
					c-8.9-8.7-13.5-19.8-13.5-33c0-12.6,4.5-23.1,13.5-31.8c9.1-8.7,20.3-13.1,33.6-13.1c14.4,0,25.8,4.9,34,14.4
					c8.2,9.5,12.4,21,12.4,34.2h-71.6c1.6,13.9,11.6,22.3,25.6,22.3c9.8,0,19.1-4.7,22.6-12.6H520.5z M451.5,228h46.2
					c-2.8-10.1-10.9-15.9-22.2-15.9C463.8,212.1,454.8,218.1,451.5,228z"/>
				<path class="st1" d="M580.9,214.1h-15.8v67.2h-25v-67.2h-15.6v-18.9h15.6V171h25v24.1h15.8V214.1z"/>
				<path class="st1" d="M656.2,281.3v-14.4c-7.2,11.2-17.3,16.9-30.1,16.9c-11.7,0-21.5-4.4-29.6-13.1
					c-8.1-8.7-12.1-19.6-12.1-32.7c0-12.9,4-23.6,12.1-32.2c8.1-8.7,17.9-13.1,29.6-13.1c12.8,0,22.9,5.5,30.1,16.8v-14.4h24.3v86.1
					L656.2,281.3L656.2,281.3z M615.6,255.5c4.4,4.5,10,6.7,16.5,6.7c10.5,0,19.8-6.2,24.2-14.3v-19.4c-4.7-8.2-13.8-14.3-24.2-14.3
					c-6.5,0-11.9,2.4-16.5,6.9c-4.4,4.5-6.7,10.1-6.7,16.9C609,245.1,611.2,251,615.6,255.5z"/>
				<path class="st1" d="M722.3,180.3h-25v-24.6h25V180.3z M722.3,281.3h-25v-86.1h25V281.3z"/>
				<path class="st1" d="M763.8,281.3h-25V155.6h25V281.3z"/>
				<path class="st1" d="M868.7,251.2c-2.3,9.9-7.7,17.9-15.9,23.8s-17.9,8.9-28.9,8.9c-13.7,0-25-4.4-34-13.1
					c-8.9-8.7-13.5-19.8-13.5-33c0-12.6,4.5-23.1,13.5-31.8c9.1-8.7,20.3-13.1,33.6-13.1c14.4,0,25.8,4.9,34,14.4
					c8.2,9.5,12.4,21,12.4,34.2h-71.6c1.6,13.9,11.6,22.3,25.6,22.3c9.8,0,19.1-4.7,22.6-12.6H868.7z M799.7,228H846
					c-2.8-10.1-10.9-15.9-22.2-15.9C812,212.1,803,218.1,799.7,228z"/>
				<path class="st1" d="M936.4,219.3c-11.7,0-23.5,4.2-29.3,8.9v53.1h-25.1v-86.1h25.1v13.9c7.4-10.9,17.2-16.3,29.3-16.3V219.3z"
					/>
				<path class="st1" d="M944.1,281.3v-19.4h38c8.6,0,12.8-3,12.8-9c0-5.7-4.2-8.5-12.6-8.5h-11c-17.3,0-28.4-10.1-28.4-24.6
					c0-7,2.8-12.9,8.2-17.4c5.4-4.7,12.3-7,20.5-7h41.9v19.3h-38.9c-5.1,0-8.1,2.5-8.1,6c0,4,2.6,6,8.1,6h12.1
					c20.5,0,31.3,11.1,31.3,26.6c0,16.1-11.9,28.2-32.4,28.2L944.1,281.3L944.1,281.3z"/>
			</g>
		</g>
	</g>
	<g>
		<path class="st1" d="M112.1,0c-0.1,0-3.9,0-3.9,0H0v0.3v40.8v239.1h44.8v-239l38,0h29.3c73.6,0,73.9,111.9,0,111.9H98.5
			l-30.7,41.2h44.4C246,193.4,245.6,0,112.1,0z"/>
		<polygon class="st0" points="223.2,280.3 98.5,153.1 62.2,189.6 152.5,280.3 		"/>
	</g>
</g>
</svg>
