<svg data-name="Layer 1" xmlns="http://www.w3.org/2000/svg" viewBox="0 0 569.11 166.55">
								<defs>
									<style>.cls-1{fill:#6772e5;}</style>
								</defs>
								<path class="cls-1" d="M78.63,42.15H53.08V85.06H78.63c25.21,0,25.47-42.91,0-42.91"></path>
								<path class="cls-1" d="M132.3,0H4.09A4.2,4.2,0,0,0,0,4.27V130.43l28.53,15V42.3H14.94V18.44h67.4c53.62,0,53,90.32,0,90.32h-30v49.36l16,8.43,68-36.12V4.27A4.19,4.19,0,0,0,132.3,0"></path>
								<path class="cls-1" d="M169,39a16.77,16.77,0,0,1,16.74-16.77h11.47c7.26.25,13.92-.12,20.93,3.2,9,4.32,13.18,14.29,13.18,23.91,0,9.09-3.21,17.73-11.45,22.78-6.54,4.07-14.66,5.18-22.55,5.18H185.56v31.17H169Zm16.61,23.52h12.57c8.12,0,16.15-3.21,16.15-12.81,0-11.21-6.15-12.82-16.76-12.82h-9.85c-2.11,0-2.11,2-2.11,4.08Z"></path>
								<path class="cls-1" d="M269.57,102.53a24.16,24.16,0,0,1-17.38,7.41c-12.79,0-22.26-8.63-22.64-21.17-.25-11.85,8.62-19.61,18.6-21l21.18-3.08c-.49-6.29-10.36-8.52-14.66-8.52a42.24,42.24,0,0,0-17.11,3.83h-1.74V45.77c6.17-1.73,12.33-3.21,19.11-3.21,14.78,0,29.17,5.55,29.68,21.81v44.1h-15ZM255,96.14c4.94,0,9.87-2,13.92-4.43V77.18c-5.27,1-10.7,1.47-16.13,2.58-4.31.86-7.51,3.19-7.51,8.13,0,6,4.55,8.25,9.72,8.25"></path>
								<path class="cls-1" d="M337.08,43.92h14.55l-28.46,78.46C318.37,134.83,309.74,138,295,138h-2.82V124.48c11.8.12,15.75,0,18.84-8.5l3-8.15-28.1-63.91H303l18.34,43.35Z"></path>
								<path class="cls-1" d="M337.16 37.27 337.16 22.23 401.24 22.23 401.24 37.27 377.33 37.27 377.33 108.47 360.7 108.47 360.7 37.27 337.16 37.27z"></path>
								<path class="cls-1" d="M435.83,102.53a24.18,24.18,0,0,1-17.35,7.41c-12.83,0-22.32-8.63-22.67-21.17-.25-11.85,8.62-19.61,18.6-21l21.18-3.08c-.5-6.29-10.36-8.52-14.66-8.52a42.25,42.25,0,0,0-17.12,3.83h-1.74V45.77c6.16-1.73,12.34-3.21,19.1-3.21,14.79,0,29.2,5.55,29.71,21.81v44.1H435.83ZM421.3,96.14c4.92,0,9.85-2,13.91-4.43V77.18c-5.28,1-10.72,1.47-16.14,2.58-4.31.86-7.51,3.19-7.51,8.13,0,6,4.56,8.25,9.74,8.25"></path>
								<path class="cls-1" d="M477.45,109.83A15.56,15.56,0,0,1,462,94.17v-76h15.62V45.75c4.08-2.58,8.14-3.19,12.44-3.19a29.36,29.36,0,0,1,22.58,10c5.15,6.66,6.51,14.42,6.74,22.67,0,7.15-1.23,14.54-4.78,20.81-5.79,9.61-15.28,13.53-26.59,13.82Zm3.84-13.94h5.18c4.16,0,9.09-.73,12.3-3.92,4-4.08,4.44-11.47,4.44-16.77.12-4.31-.62-9.13-2.84-12.82-2.71-4.3-7-5.67-11.81-5.9a47,47,0,0,0-11,1.6V92.32a3.69,3.69,0,0,0,3.72,3.57"></path>
								<path class="cls-1" d="M522.43,106.61V92.81h2a54.19,54.19,0,0,0,18.13,3.47c4.42-.13,11.81-.88,11.81-6.9,0-3.33-4.8-4.94-7.75-6-5.54-2.1-10.85-3.69-15.65-6.15-6-3.09-9.13-9.73-9.13-16.13,0-12.33,11.48-18.61,22.19-18.49,7.87.13,13.18,1.48,19.82,3.44V59.19h-2.08a48.48,48.48,0,0,0-15.77-3c-2.47,0-9.37.49-9.37,4.2,0,2,3.57,4,6.29,4.81,5.3,2,11.58,3.69,16.51,6.28,7.27,3.58,9.73,10.59,9.73,17.12,0,14.79-13.67,21.2-27.24,21.2a64.44,64.44,0,0,1-19.44-3.22"></path>
							</svg>