<?xml version="1.0" encoding="utf-8"?>
<!-- Generator: Adobe Illustrator 22.1.0, SVG Export Plug-In . SVG Version: 6.00 Build 0)  -->
<svg version="1.1"
	 id="Слой_1" xmlns:cc="http://creativecommons.org/ns#" xmlns:dc="http://purl.org/dc/elements/1.1/" xmlns:rdf="http://www.w3.org/1999/02/22-rdf-syntax-ns#" xmlns:svg="http://www.w3.org/2000/svg"
	 xmlns="http://www.w3.org/2000/svg" xmlns:xlink="http://www.w3.org/1999/xlink" x="0px" y="0px" viewBox="0 0 574.5 102.7"
	 style="enable-background:new 0 0 574.5 102.7;" xml:space="preserve">
<style type="text/css">
	.st0{fill:url(#SVGID_1_);}
	.st1{fill:url(#SVGID_2_);}
	.st2{fill:url(#SVGID_3_);}
</style>
<g>
	<path d="M120.4,30.2c4.2,0,8.2,0,12.3,0c0,1.9,0,3.6,0,5.7c0.6-0.4,0.9-0.6,1.1-0.9c7.3-9,21.7-7.3,28.5,1.8
		c6.3,8.3,6.3,22.6,0.1,31c-7,9.3-21.2,10.4-28.5,2.3c-0.2-0.2-0.5-0.4-1.1-0.9c0,6.5,0,12.6,0,18.8c-4.3,0-8.3,0-12.5,0
		C120.4,68.8,120.4,49.6,120.4,30.2z M154.6,52c-0.1-0.9-0.2-2.2-0.5-3.5c-1.2-5-5.4-8.5-10.1-8.7c-4.8-0.1-9,3-10.5,7.9
		c-1,3.2-1,6.4,0,9.6c2.3,6.9,9.8,9.8,15.7,6.1C153,60.8,154.3,56.8,154.6,52z"/>
	<path d="M365.3,74.6c-4.1,0-8.1,0-12.4,0c0-0.9,0-1.7,0-2.5c0-7.1,0-14.2,0-21.4c0-1.2-0.1-2.5-0.3-3.7c-0.8-4.3-3.3-6.4-7.5-6.4
		c-4.2,0-6.8,2.2-7.6,6.3c-0.3,1.4-0.3,2.8-0.3,4.1c0,7.7,0,15.5,0,23.4c-4.2,0-8.2,0-12.4,0c0-20.1,0-40.2,0-60.5
		c4.1,0,8.1,0,12.4,0c0,7.2,0,14.4,0,22c0.7-0.7,1.1-1,1.4-1.3c4.7-5.3,10.4-6.7,17-4.7c6.3,1.9,9.3,6.8,9.6,12.9
		C365.6,53.3,365.3,63.8,365.3,74.6z"/>
	<path d="M440.6,29.1c13.6,0,23.9,10.1,23.9,23.2c0,13.2-10.6,23.3-24.4,23.2c-13.4-0.1-23.7-10.1-23.8-23.1
		C416.3,39.3,426.8,29.1,440.6,29.1z M452,52.6c0.1-7.2-5-12.6-11.7-12.6c-6.7,0-11.6,5.1-11.6,12.1c0,7.1,5,12.6,11.8,12.6
		C447.2,64.8,452,59.7,452,52.6z"/>
	<path d="M573.2,67.3c-5.7,7.2-15.7,10.1-25.4,7.3c-8.8-2.5-15.1-10-16-19.1c-0.4-4.2,0-8.3,1.5-12.3c3.6-9.3,12.4-14.8,22.3-13.9
		c9.8,0.8,16.9,7.2,18.8,17.3c0.6,3.3,0.6,6.7,0.9,10.4c-10.6,0-20.7,0-30.8,0c0.7,8.4,12.5,12.1,21.5,4.3c1.2,1,2.4,2,3.6,3.1
		C570.9,65.2,572,66.2,573.2,67.3z M562.9,49c-0.8-6.4-4.3-10-9.6-9.7c-4.7,0.2-8.5,4.4-8.8,9.7C550.6,49,556.7,49,562.9,49z"/>
	<path d="M181.5,33.2c7.7-3.4,15.4-4.5,23.4-2.9c8.1,1.6,12.9,7.1,13.2,15.7c0.3,9.4,0.1,18.9,0.1,28.5c-3.9,0-7.8,0-11.9,0
		c0-1.2,0-2.5,0-4.1c-0.6,0.4-1,0.6-1.3,0.8c-5.7,4.9-12.2,5.6-19.1,3.1c-5.2-1.9-8-6.3-8.1-12.1c-0.1-5.9,2.3-10.2,7.7-12.6
		c5.6-2.4,11.4-2.3,17.3-1.1c1.1,0.2,2.1,0.5,3.1,0.8c0.7-4.3-1.6-7.6-5.9-8.5c-4.3-0.9-8.5-0.1-12.6,1.1c-0.9,0.3-1.7,0.6-2.8,0.9
		C183.6,39.5,182.6,36.4,181.5,33.2z M196.7,66.8c6,0,9.9-3.3,9.7-8.5c0-0.7-0.5-1.7-1.1-2c-3.8-1.5-7.6-1.9-11.5-0.5
		c-3.1,1.1-4.5,3.9-3.8,6.8C190.6,65.3,193.1,66.8,196.7,66.8z"/>
	<path d="M477.7,30.1c4.1,0,8,0,12.3,0c0,1.8,0,3.6,0,5.9c0.8-0.7,1.2-1.1,1.5-1.4c4.8-5.3,11.2-6.9,17.7-4.5
		c6.4,2.4,8.9,7.8,9,14.1c0.2,10,0.1,20,0.1,30.1c-4.1,0-8.1,0-12.5,0c0-0.8,0-1.6,0-2.4c0-7.1,0-14.2,0-21.4c0-1.3-0.1-2.6-0.4-3.9
		c-0.8-4-3.3-6.1-7.2-6.1c-4.1,0-6.9,2-7.7,5.9c-0.3,1.4-0.4,2.8-0.4,4.1c0,7,0,14.1,0,21.1c0,0.8,0,1.7,0,2.6c-4.2,0-8.2,0-12.4,0
		C477.7,59.8,477.7,45.1,477.7,30.1z"/>
	<path d="M231.5,85.7c1.5-3.3,2.9-6.2,4.1-8.9c1.8,0.5,3.5,1.2,5.2,1.3c3.5,0.3,5.1-1.9,3.9-5.1c-5.2-13.4-10.4-26.8-15.5-40.2
		c-0.3-0.8-0.6-1.6-1-2.6c4.3,0,8.3-0.1,12.3,0.1c0.6,0,1.3,1.1,1.6,1.8c2.9,8.6,5.8,17.3,8.7,25.9c0.2,0.7,0.4,1.3,0.9,2.6
		c0.5-1.3,0.8-2.1,1.1-2.9c2.7-8.5,5.4-16.9,8-25.4c0.5-1.6,1.1-2.2,2.9-2.1c3.5,0.2,7.1,0,10.8,0c-0.3,1-0.5,1.7-0.8,2.4
		c-5.3,14.3-10.6,28.7-16,43c-0.4,1.1-0.8,2.2-1.3,3.2c-3.9,8.7-9.9,11.6-19.1,9.1C235.3,87.3,233.5,86.5,231.5,85.7z"/>
	<path d="M311.2,63.2c0,3,0.1,5.9-0.1,8.8c0,0.6-0.7,1.4-1.2,1.6c-4.8,2.3-9.9,2.7-14.9,0.9c-4.9-1.7-6.4-5.8-6.5-10.5
		c-0.2-6.8-0.1-13.6-0.1-20.4c0-0.8,0-1.7,0-2.7c-1.8,0-3.4,0-5.2,0c0-3.7,0-7.1,0-10.7c1.7,0,3.3,0,5.1,0c0-3.8,0-7.4,0-11.2
		c4.3,0,8.3,0,12.6,0c0,3.6,0,7.2,0,11.1c3.6,0,6.9,0,10.4,0c0,3.7,0,7,0,10.6c-3.4,0-6.7,0-10.3,0c0,2,0,3.7,0,5.5
		c0,4.4,0,8.8,0,13.2c0,4.2,1.6,5.6,5.8,4.9C308.1,64.1,309.5,63.6,311.2,63.2z"/>
	<path d="M407.6,42.1c-0.7,0.1-1.3,0.2-2,0.3c-7,0.8-11.1,4.5-11.8,11.5c-0.5,5.2-0.3,10.5-0.4,15.8c0,1.5,0,3.1,0,4.8
		c-4.2,0-8.3,0-12.4,0c0-14.8,0-29.4,0-44.2c4.1,0,8,0,12.3,0c0,2.5,0,5,0,7.7c2.1-2.3,3.8-4.6,6-6.5c2.3-1.9,5.2-2.5,8.4-2.2
		C407.6,33.5,407.6,37.7,407.6,42.1z"/>
</g>
<g>
	<linearGradient id="SVGID_1_" gradientUnits="userSpaceOnUse" x1="0" y1="45.0299" x2="44.5139" y2="45.0299">
		<stop  offset="0" style="stop-color:#9A3BDC"/>
		<stop  offset="1" style="stop-color:#3F69B4"/>
	</linearGradient>
	<polygon class="st0" points="44.5,42.3 44.5,75 0,47.7 0,15.1 	"/>
	<linearGradient id="SVGID_2_" gradientUnits="userSpaceOnUse" x1="110.2758" y1="72.9281" x2="21.9193" y2="72.9281">
		<stop  offset="0" style="stop-color:#FF0B63"/>
		<stop  offset="1" style="stop-color:#E59231"/>
	</linearGradient>
	<polygon class="st1" points="110.3,43.2 66.1,70.2 21.9,43.2 21.9,75.6 66.1,102.6 66.1,102.7 66.1,102.6 66.1,102.7 66.1,102.6 
		110.3,75.6 	"/>
	<linearGradient id="SVGID_3_" gradientUnits="userSpaceOnUse" x1="65.6173" y1="58.9624" x2="65.6173" y2="1.452298e-02">
		<stop  offset="0" style="stop-color:#FF0B63"/>
		<stop  offset="1" style="stop-color:#E59231"/>
	</linearGradient>
	<path class="st2" d="M65.6,0C49.3,0,36.1,13.2,36.1,29.5S49.3,59,65.6,59s29.5-13.2,29.5-29.5S81.9,0,65.6,0z M65.6,44.8
		c-8.5,0-15.3-6.9-15.3-15.3s6.9-15.3,15.3-15.3S81,21,81,29.5S74.1,44.8,65.6,44.8z"/>
</g>
</svg>
