<svg xmlns="http://www.w3.org/2000/svg" viewBox="0 0 634.62 120.15"><defs><style>.cls-1{fill:#e27542;}.cls-2{fill:#7a7b77;}</style></defs><title>Asset 4PeachPayments</title><g id="Layer_2" data-name="Layer 2"><g id="Layer_1-2" data-name="Layer 1"><path class="cls-1" d="M66.33,0a31.17,31.17,0,0,1,2.25,2.2A6.23,6.23,0,0,1,69,9.44a5.27,5.27,0,0,1-2.12,1.81c-2.51,1-5.09,1.92-7.66,2.8-2.77,1-5.32,2.29-6.58,5.07a31,31,0,0,0-1.7,5.65c-.57,2.39-.82,4.86-2,7.1a6.1,6.1,0,0,1-5.19,3.51,5.68,5.68,0,0,1-4.57-1.89,40.31,40.31,0,0,1-4.4-5.21A3.43,3.43,0,0,0,31,26.79c-6.44.8-10.77,4.58-14,9.86a33,33,0,0,0-4.35,12.77,45.14,45.14,0,0,0-.3,10.19,57.6,57.6,0,0,0,4.76,18.57A67.93,67.93,0,0,0,27.7,95.09c4.88,5.66,10.49,10.36,17.62,13A24.12,24.12,0,0,0,56,109.53,40.36,40.36,0,0,0,78,101c6.69-5.36,11.18-12.32,14.54-20.09A61.69,61.69,0,0,0,96.62,68.3a46.69,46.69,0,0,0,.77-11.37C97,48.81,95,41.2,90.17,34.47a20.68,20.68,0,0,0-13.71-8.62,20.78,20.78,0,0,0-17.07,4,13.71,13.71,0,0,0-3.46,4.5,53.83,53.83,0,0,0-5.22,14.77,75.45,75.45,0,0,0-1.62,13.07,66.92,66.92,0,0,0,1.48,15.34c.8,4.16,1.48,8.35,2.19,12.54a6.18,6.18,0,0,1,0,1.55,2.11,2.11,0,0,1-.34.69c-.22-.15-.54-.26-.65-.47a8.38,8.38,0,0,1-.35-1.14q-2.07-5.34-4.15-10.66a44.14,44.14,0,0,1-2.89-12,58.2,58.2,0,0,1-.12-10.64,79.13,79.13,0,0,1,6.71-27,19.6,19.6,0,0,1,13.7-11c9.43-2.32,18.1-.3,26,5.19,5.35,3.7,8.59,9,10.94,14.86a54.76,54.76,0,0,1,3.21,12.35,58.79,58.79,0,0,1,.45,12.36,54.47,54.47,0,0,1-4.56,17.92A79.59,79.59,0,0,1,88.4,102.61c-5.46,6.47-11.8,11.82-19.76,15A33.54,33.54,0,0,1,59,120a2.26,2.26,0,0,0-.48.16H52.26c-.22-.05-.43-.13-.65-.17A49.51,49.51,0,0,1,46,119,58.69,58.69,0,0,1,12.81,95.07a93,93,0,0,1-9.5-18.71A45.79,45.79,0,0,1,.51,65C.35,63.56.17,62.17,0,60.77V52.44c.29-2.22.53-4.45.88-6.65A45.31,45.31,0,0,1,6.61,29.5,28.21,28.21,0,0,1,19.16,17.89,31.09,31.09,0,0,1,33,15.39,16.74,16.74,0,0,1,44.35,20s.15,0,.11,0a31.49,31.49,0,0,1,1-3.41C48.2,9.81,53.17,5.14,59.58,1.94A48.81,48.81,0,0,1,64.94,0Z"/><path class="cls-2" d="M634.62,72.4a11.81,11.81,0,0,1-1.92,4.35,12.36,12.36,0,0,1-8.19,4.51,15.83,15.83,0,0,1-11.66-2.76c-.05.1-.1.16-.13.23-.8,2.11-.86,2.14-3.29,1.77-.12-3.91-.24-7.85-.36-11.74.17-.08.22-.13.27-.13,2-.1,2-.09,2.75,1.76a13.56,13.56,0,0,0,5.92,7.2,9.31,9.31,0,0,0,8,.47,4.85,4.85,0,0,0,3.21-4.34c.25-2.22-.4-4.19-2.42-5.24a53.81,53.81,0,0,0-6.51-2.66,24.67,24.67,0,0,1-6.8-3.27,9.31,9.31,0,0,1-1.69-12.91c2.51-3.35,6-4.42,10-4.36A18.3,18.3,0,0,1,629,46.93c.33-.55.53-1.37,1-1.55a7.42,7.42,0,0,1,2.43-.06c.18,3.62.36,7.23.54,11a18.65,18.65,0,0,1-2.13,0c-.19,0-.42-.39-.49-.64A10.53,10.53,0,0,0,626,49.27c-2.7-1.76-6.67-1.68-8.86.06-2.66,2.1-2.15,6.44.4,7.77a61.89,61.89,0,0,0,6.73,2.79,24.72,24.72,0,0,1,7,3.44,8.08,8.08,0,0,1,3.23,5.22c0,.08.1.14.14.21Z"/><path class="cls-2" d="M504.18,78.19v2.32H487.47V78.22c.89-.13,1.78-.18,2.64-.39a2.63,2.63,0,0,0,2.3-2.89c0-6.22.06-12.44,0-18.66A6.92,6.92,0,0,0,490,50.67c-2-1.64-4.3-1.33-6.56-.57a9.23,9.23,0,0,0-4.95,4,2.29,2.29,0,0,0-.28,1.22c0,6.22,0,12.44,0,18.66,0,3.05,1.18,3.36,3.15,4a13.23,13.23,0,0,0,1.69.28v2.31H466.74V78.23c.95-.16,1.87-.24,2.75-.47a2.42,2.42,0,0,0,1.92-2.46c0-6.6.11-13.2,0-19.79-.07-3-1.9-5.61-5.08-6a8.37,8.37,0,0,0-6.15,1.81,18.89,18.89,0,0,0-2.75,3,1.91,1.91,0,0,0-.23,1.14c0,6.11,0,12.21,0,18.32,0,2.53,1,3.72,3.52,4.18l1.49.24v2.29H445.6V78.21a24.85,24.85,0,0,0,2.65-.38A2.64,2.64,0,0,0,450.57,75q0-10.85,0-21.7c0-2-1.7-3.69-4.11-4.11l-1.4-.22v-2.3c.8-.08,1.59-.17,2.39-.23,2.76-.19,5.52-.38,8.29-.54,1.14-.07,1.25.07,1.26,1.19v4.38c.91-.89,1.65-1.59,2.37-2.32a12.42,12.42,0,0,1,7.77-3.75c4.41-.41,8,1,10.38,5.35l.34.61c.71-.67,1.39-1.28,2-1.92a13.09,13.09,0,0,1,10.79-4,8.28,8.28,0,0,1,7.77,6.74,18.86,18.86,0,0,1,.53,4.44c.06,5.78,0,11.57,0,17.36,0,2.57.84,3.59,3.37,4.06C503,78.05,503.53,78.1,504.18,78.19Z"/><path class="cls-1" d="M286.66,51.15a19,19,0,0,1,6.12-4.71,12.3,12.3,0,0,1,10.13-.21c2.86,1.29,4.22,3.81,4.73,6.78a28.73,28.73,0,0,1,.36,4.73c0,5.38.08,10.76,0,16.14-.06,3.2,1.48,3.53,3.45,4.07a14.5,14.5,0,0,0,1.56.26V80.5H296.11V78.21c.64-.08,1.29-.21,1.94-.24,2.19-.1,3.28-1.07,3.3-3.24q.07-9,0-18a8,8,0,0,0-1.57-5.1,5.48,5.48,0,0,0-5.27-2.09,10.45,10.45,0,0,0-6.46,3.13,4.61,4.61,0,0,0-1.42,3.44c.08,5.85.1,11.69,0,17.54-.06,3.21,1.48,3.69,3.6,4.26.5.13,1,.15,1.58.24v2.33H275.1V78.21c.88-.13,1.76-.22,2.62-.41a2.65,2.65,0,0,0,2.35-3c0-3.27,0-6.54,0-9.81,0-10,.06-20.08,0-30.11,0-3.44-1.77-4.75-4.6-4.86-.63,0-1.25-.15-1.95-.23V27.51l3.21-.24c2.7-.18,5.41-.34,8.11-.51l.53,0c1.07,0,1.32.23,1.32,1.31v23.1Z"/><path class="cls-1" d="M131.33,93.61c1-.12,1.95-.23,2.92-.37A2.77,2.77,0,0,0,137,90.13c0-2.78,0-5.55,0-8.33,0-9.35,0-18.69,0-28a4.42,4.42,0,0,0-4.22-4.63c-.49-.05-1-.13-1.5-.21V46.63c.74-.08,1.48-.19,2.21-.24,2.94-.19,5.87-.38,8.81-.54,1.11-.06,1.25.13,1.25,1.23s0,2,0,3c1-.83,1.89-1.63,2.85-2.34,6-4.36,13.31-2.62,17.57,2.55,3.35,4.06,4.45,8.77,4.27,13.92a18.51,18.51,0,0,1-3.63,10.68,15.13,15.13,0,0,1-10.38,6.34,14.29,14.29,0,0,1-10.11-1.9c-.14-.08-.3-.12-.56-.23V89.27a3.22,3.22,0,0,0,2.85,3.62c.66.16,1.34.28,2,.41s1.35.22,2,.33V96H131.33Zm12.26-30.46q0,4.7,0,9.37a2.61,2.61,0,0,0,.11.93c1.87,4.58,7.56,7.22,12.24,3.87a11.21,11.21,0,0,0,4.12-6.58,25.77,25.77,0,0,0,.74-9.58,18,18,0,0,0-2.3-7.67,8.6,8.6,0,0,0-9.33-4,9.28,9.28,0,0,0-5.05,3.08,2.12,2.12,0,0,0-.52,1.26C143.57,56.91,143.59,60,143.59,63.15Z"/><path class="cls-2" d="M352.06,93.72c.17,2.27.17,2.27-2,2.27H332.9V93.62c1-.12,1.93-.23,2.89-.38,2-.3,2.79-1.26,2.79-3.27q0-10.06,0-20.14c0-5.29,0-10.58,0-15.88a4.43,4.43,0,0,0-4.32-4.82c-.45,0-.9-.14-1.39-.22v-2.3c.87-.08,1.72-.17,2.57-.22,2.65-.19,5.3-.35,8-.53,1.53-.1,1.63,0,1.64,1.52,0,.83,0,1.67,0,2.51a.19.19,0,0,0,.07.12c1.32-1,2.56-2.06,3.94-2.92a12.28,12.28,0,0,1,14.79,1.55,17.75,17.75,0,0,1,5.81,11.88,20.32,20.32,0,0,1-2,11.91,15.71,15.71,0,0,1-11.26,8.73,14.33,14.33,0,0,1-10.59-1.68l-.53-.29-.14.06c0,.13,0,.29,0,.45,0,3.36,0,6.71,0,10.07a2.83,2.83,0,0,0,2.29,3C349,93.11,350.49,93.38,352.06,93.72Zm-6.9-30.48c0,3.1,0,6.19,0,9.29a2.65,2.65,0,0,0,.11,1,8.3,8.3,0,0,0,9.7,5A8.8,8.8,0,0,0,360.81,73a24.72,24.72,0,0,0,.92-15.41,11.2,11.2,0,0,0-4.09-6.71,8.91,8.91,0,0,0-12.16,1.83,1.88,1.88,0,0,0-.31,1.11C345.14,56.94,345.16,60.09,345.16,63.24Z"/><path class="cls-2" d="M554.06,51.2c1.16-1.06,2.12-2,3.16-2.87a12.58,12.58,0,0,1,12.39-2.39c3,.92,4.49,3.32,5.25,6.17a16.33,16.33,0,0,1,.53,4c.05,6,0,11.92,0,17.88,0,2.86,1.15,3.36,3.31,4a13.56,13.56,0,0,0,1.65.26V80.5h-16.7V78.21c1-.13,1.91-.18,2.83-.38A2.59,2.59,0,0,0,568.81,75c0-6.27.08-12.55,0-18.83,0-2.76-1.13-5.16-3.89-6.31a7.13,7.13,0,0,0-5.85.45,12.92,12.92,0,0,0-3.07,1.9,5.09,5.09,0,0,0-2,4.18c.13,5.72,0,11.45,0,17.18,0,2.68,1,3.88,3.66,4.35l1.62.24v2.31H542.63V78.2c.53-.07,1-.18,1.54-.21,2.83-.15,3.37-1.47,3.42-3.78,0-2.14,0-4.28,0-6.42,0-4.52,0-9,0-13.54a8.09,8.09,0,0,0-.28-2.13,4,4,0,0,0-3.54-3l-1.65-.23c0-.62,0-1.25,0-1.87a.74.74,0,0,1,.52-.48c2.79-.21,5.58-.37,8.38-.55.6,0,1.2-.13,1.8-.16,1.09-.05,1.22.09,1.23,1.15Z"/><path class="cls-1" d="M240.05,77.62a2.67,2.67,0,0,1,.07.27c.09,2,.1,2-1.82,2.66a11,11,0,0,1-5.6.55,5.57,5.57,0,0,1-4.54-4c-.08-.25-.14-.5-.24-.82-.89.79-1.7,1.59-2.59,2.29A12.71,12.71,0,0,1,213.86,81c-4.34-1.15-6.47-5.16-5.92-9.56a9.07,9.07,0,0,1,5.68-7.53c1-.45,2-.86,3-1.23,3.4-1.23,6.79-2.45,10.2-3.63a1.25,1.25,0,0,0,1-1.5,34.88,34.88,0,0,0-.28-4.48c-1.15-5.08-5.47-6.22-9.73-4.41-1.38.59-1.4.73-1.13,2.24a16.21,16.21,0,0,1,.45,3.22,3.56,3.56,0,0,1-3.43,3.16c-1.51.1-2.85-.12-3.58-1.64a4.83,4.83,0,0,1,.53-5.42,13,13,0,0,1,8.3-4.68,18.72,18.72,0,0,1,9.22.46,8.07,8.07,0,0,1,6,7.55c.27,4.34.11,8.71.12,13.07,0,2.52-.1,5,0,7.55.05,2.09,1.49,3.32,3.78,3.42C238.69,77.64,239.35,77.62,240.05,77.62Zm-12.3-16.16c-2.64,1.07-5.3,2-7.8,3.2-3.19,1.57-5.21,4.07-5,7.87s2.52,5,5.47,5,5-1.45,6.79-3.46a1.55,1.55,0,0,0,.4-.82,21.61,21.61,0,0,0,.12-2.41C227.75,67.81,227.75,64.78,227.75,61.46Z"/><path class="cls-2" d="M407.27,77.69c0,2.72.47,2-1.93,2.88a9.78,9.78,0,0,1-4.84.62c-3.22-.54-4.36-1.6-5.39-4.88-.8.71-1.55,1.45-2.37,2.1a12.69,12.69,0,0,1-12,2.48c-4.26-1.27-6.12-5.23-5.61-9.46.57-4.71,3.74-7,7.8-8.4,3.46-1.22,6.93-2.41,10.38-3.66,1.73-.62,1.77-.67,1.7-2.47a18.23,18.23,0,0,0-.45-4.45c-1.28-4.17-4.68-5.41-8.83-4.06-2.2.71-2.25,1-1.73,3.18a18.31,18.31,0,0,1,.28,2,3.45,3.45,0,0,1-3.4,3.77c-1.35.11-2.63,0-3.41-1.35a4.69,4.69,0,0,1-.19-4.78,10.26,10.26,0,0,1,5.39-4.51,18.15,18.15,0,0,1,13-.48,7.94,7.94,0,0,1,5.71,7.59c.24,4.4.08,8.83.08,13.25,0,2.43,0,4.86,0,7.29a3.19,3.19,0,0,0,2.77,3.16C405.2,77.61,406.21,77.62,407.27,77.69Zm-12.4-16c-3,1-6.13,1.82-8.87,3.61A7.8,7.8,0,0,0,382.16,73a4.59,4.59,0,0,0,3.43,4.29,8,8,0,0,0,7.19-1.64c1.51-1.12,2.46-2.4,2.09-4.36a2.06,2.06,0,0,1,0-.43Z"/><path class="cls-2" d="M416.88,92.18a33.79,33.79,0,0,0,2.51-2.81,38.21,38.21,0,0,0,4.67-8.44,1.77,1.77,0,0,0,0-1.2q-5.58-13.68-11.19-27.35a6.07,6.07,0,0,0-4.42-3.52c-.82-.22-1.09-.55-1-1.34a10.41,10.41,0,0,0,0-1.25h15.62v2.38c-.94.22-1.87.39-2.77.66-1.2.35-1.31.55-.85,1.7,1.26,3.24,2.56,6.46,3.86,9.68,1.4,3.47,2.82,6.92,4.23,10.38.08.2.19.4.34.72,1.19-2.83,2.37-5.52,3.48-8.25q2.13-5.22,4.16-10.49c.84-2.17.56-2.83-1.57-3.74-.78-.33-1.61-.57-2.48-.87V46.26h12.7c0,.64,0,1.24,0,1.83a.76.76,0,0,1-.46.5,8.28,8.28,0,0,0-5.35,5.22c-3.56,8.72-7.22,17.4-10.9,26.07A54.71,54.71,0,0,1,421.58,91a13,13,0,0,1-4.67,4.29A7.23,7.23,0,0,1,409,94.17a4.23,4.23,0,0,1,0-5.51,3.76,3.76,0,0,1,5.1,0,11.22,11.22,0,0,1,1.4,1.52C416,90.77,416.34,91.36,416.88,92.18Z"/><path class="cls-1" d="M203.15,62.33h-23c.07,1.09.09,2.15.21,3.19a16.73,16.73,0,0,0,2.32,7.4c2.32,3.59,5.72,4.85,9.85,4.59,3.95-.25,6.33-2.67,8.2-5.82l.48-.8,2.57,1.58c-.74,1.1-1.37,2.2-2.16,3.16a14.6,14.6,0,0,1-9.16,5.58c-8.49,1.29-16-2.54-18.41-11.56-1.48-5.65-1.22-11.18,1.64-16.38,2.43-4.43,6.13-7.28,11.19-7.88,3.87-.47,7.66,0,10.92,2.48a11.85,11.85,0,0,1,4.55,7.51C202.83,57.62,202.9,59.93,203.15,62.33Zm-22.92-3h15.88c-.27-2-.4-3.91-.83-5.76-.61-2.58-1.94-4.74-4.74-5.37a7.16,7.16,0,0,0-7.14,2.2C181.05,52.9,180.48,56,180.23,59.33Z"/><path class="cls-2" d="M537.87,62.32h-22.6c-.31,4.56,1,11.31,5.65,13.81a10.37,10.37,0,0,0,11.21-.24,12.09,12.09,0,0,0,3.51-4.1c.17-.27.32-.54.54-.9l2.5,1.55c-2.23,4.09-5.29,7.21-9.8,8.4a16,16,0,0,1-14.63-2.76,14.91,14.91,0,0,1-5.2-8.35c-1.5-5.79-1.25-11.41,1.77-16.71,2.46-4.32,6.12-7.07,11.09-7.63,4.55-.51,8.89.22,12.26,3.75a12.75,12.75,0,0,1,3.36,7.42C537.77,58.43,537.76,60.34,537.87,62.32Zm-22.73-3H531c-.27-1.94-.39-3.83-.81-5.66-.58-2.55-1.82-4.71-4.58-5.42a7.05,7.05,0,0,0-7.25,2.07C516,52.82,515.4,56,515.14,59.34Z"/><path class="cls-1" d="M270.93,71.05l2.21,1.46c-2.62,4.49-6.23,7.81-11.39,8.68C254,82.49,247.19,79.07,244.59,71c-2-6-1.83-12,1.41-17.67a15.07,15.07,0,0,1,10.5-7.75c4.18-.8,8.25-.43,11.8,2.34a8,8,0,0,1,2.41,8.59c-.74,1.89-2.23,2.59-4.51,2.13a3.44,3.44,0,0,1-3-3.72,34.08,34.08,0,0,1,.67-4c.25-1.22,0-2-1.16-2.4a7.44,7.44,0,0,0-8.49,1.93,15.15,15.15,0,0,0-3.15,7.62,28,28,0,0,0-.15,8.18c.48,3.6,1.71,6.89,4.55,9.32a9.42,9.42,0,0,0,12.73-1.11C269.13,73.42,270,72.26,270.93,71.05Z"/><path class="cls-2" d="M605.77,76.65c0,.58,0,1.3,0,2a.8.8,0,0,1-.43.53,20.7,20.7,0,0,1-10,2.07c-3.81-.27-6.16-2.51-6.5-6.32-.1-1.15-.16-2.3-.17-3.45q0-10.29,0-20.57v-1h-6v-3.5h6.18V35.84h6.44V46.36h9.73v3.43h-9.64c0,.3-.07.52-.07.74,0,6.56,0,13.13.06,19.7a15.13,15.13,0,0,0,.48,3.66,3.84,3.84,0,0,0,4,3C601.73,76.89,603.71,76.74,605.77,76.65Z"/></g></g></svg>