<?xml version="1.0" encoding="utf-8"?>
<!-- Generator: Adobe Illustrator 22.1.0, SVG Export Plug-In . SVG Version: 6.00 Build 0)  -->
<svg version="1.1" id="Layer_1" xmlns="http://www.w3.org/2000/svg" xmlns:xlink="http://www.w3.org/1999/xlink" x="0px" y="0px"
	 viewBox="0 0 57.1 20" style="enable-background:new 0 0 57.1 20;" xml:space="preserve">
<style type="text/css">
	.st0{fill:#939598;}
	.st1{fill:#32BCAD;}
</style>
<g>
	<path class="st0" d="M23.2,18.9c-0.1,0-0.2-0.1-0.2-0.2V7.2c0-2.2,1.8-4,4-4h3.4c2.2,0,4,1.8,4,4v2.4c0,2.2-1.8,4-4,4h-4.8
		c-0.1,0-0.2-0.1-0.2-0.2s0.1-0.2,0.2-0.2h4.8c2,0,3.6-1.6,3.6-3.6V7.2c0-2-1.6-3.6-3.6-3.6h-3.4c-2,0-3.6,1.6-3.6,3.6v11.5
		C23.4,18.8,23.3,18.9,23.2,18.9L23.2,18.9z"/>
	<path class="st0" d="M38.2,13.7c-0.1,0-0.2-0.1-0.2-0.2V4.9c0-0.8-0.6-1.4-1.4-1.4h-1.5c-0.1,0-0.2-0.1-0.2-0.2s0.1-0.2,0.2-0.2
		h1.5c1,0,1.8,0.8,1.8,1.8v8.6C38.4,13.6,38.3,13.7,38.2,13.7L38.2,13.7z"/>
	<path class="st1" d="M37.9,2l-0.7-0.7c-0.2-0.2-0.2-0.4,0-0.6l0,0l0.7-0.7c0.2-0.2,0.4-0.2,0.6,0l0.7,0.7c0.2,0.2,0.2,0.4,0,0.6
		l0,0L38.5,2C38.3,2.2,38.1,2.2,37.9,2L37.9,2"/>
	<path class="st0" d="M48.7,8.1c-0.3,0-0.7-0.1-0.9-0.4l-3.4-3.4c-0.5-0.5-1.2-0.8-1.9-0.8H41c-0.1,0-0.2-0.1-0.2-0.2
		s0.1-0.2,0.2-0.2h1.5c0.8,0,1.6,0.3,2.1,0.9L48,7.5c0.4,0.4,1,0.4,1.3,0l0,0l3.4-3.4c0.6-0.6,1.3-0.9,2.1-0.9h1.2
		c0.1,0,0.2,0.1,0.2,0.2s-0.1,0.2-0.2,0.2h-1.2c-0.7,0-1.4,0.3-1.9,0.8l-3.4,3.4l0,0C49.4,8,49,8.1,48.7,8.1L48.7,8.1z"/>
	<path class="st0" d="M42.5,13.6H41c-0.1,0-0.2-0.1-0.2-0.2s0.1-0.2,0.2-0.2h1.5c0.7,0,1.4-0.3,1.9-0.8l3.4-3.4
		c0.5-0.5,1.3-0.5,1.9,0l3.4,3.4c0.5,0.5,1.2,0.8,1.9,0.8h1.2c0.1,0,0.2,0.1,0.2,0.2s-0.1,0.2-0.2,0.2h-1.2c-0.8,0-1.6-0.3-2.1-0.9
		l-3.4-3.4C49,9,48.4,9,48,9.3l-3.4,3.4C44.1,13.3,43.3,13.6,42.5,13.6L42.5,13.6z"/>
	<path class="st1" d="M14.5,15.6c-0.7,0-1.4-0.3-1.9-0.8L9.8,12c-0.2-0.2-0.5-0.2-0.7,0l-2.8,2.8c-0.5,0.5-1.2,0.8-1.9,0.8H3.8
		l3.5,3.5c1.1,1.1,2.9,1.1,4,0l3.5-3.6H14.5L14.5,15.6z"/>
	<path class="st1" d="M4.3,5.7c0.7,0,1.4,0.3,1.9,0.8l2.8,2.8c0.2,0.2,0.5,0.2,0.7,0l2.8-2.8c0.5-0.5,1.2-0.8,1.9-0.8h0.3l-3.5-3.5
		c-1.1-1.1-2.9-1.1-4,0l0,0L3.8,5.7L4.3,5.7L4.3,5.7z"/>
	<path class="st1" d="M17.8,8.7l-2.2-2.2c0,0-0.1,0-0.2,0h-1c-0.5,0-1,0.2-1.3,0.6l-2.8,2.8c-0.5,0.5-1.4,0.5-1.9,0L5.7,7.1
		C5.3,6.7,4.8,6.5,4.3,6.5H3.1c0,0-0.1,0-0.1,0L0.8,8.7c-1.1,1.1-1.1,2.9,0,4L3,14.8c0,0,0.1,0,0.1,0h1.2c0.5,0,1-0.2,1.3-0.6
		l2.8-2.8c0.5-0.5,1.4-0.5,1.9,0l2.8,2.8c0.4,0.4,0.8,0.6,1.3,0.6h1c0,0,0.1,0,0.2,0l2.2-2.2C18.9,11.5,18.9,9.8,17.8,8.7L17.8,8.7"
		/>
	<path class="st0" d="M26.1,17.7c-0.2,0-0.3,0-0.5,0.1v0.7c0.1,0,0.3,0.1,0.4,0.1c0.3,0,0.5-0.1,0.5-0.4
		C26.5,17.8,26.4,17.7,26.1,17.7 M25.5,19v-1.4h0.1v0.1c0.2,0,0.4-0.1,0.6-0.1c0.1,0,0.3,0,0.4,0.1c0.1,0.1,0.2,0.3,0.2,0.4
		s-0.1,0.4-0.2,0.4c-0.1,0.1-0.3,0.1-0.4,0.1s-0.3,0-0.4-0.1V19L25.5,19L25.5,19z"/>
	<path class="st0" d="M27.5,17.7c-0.3,0-0.5,0.1-0.5,0.4s0.2,0.4,0.5,0.4s0.5-0.1,0.5-0.4S27.9,17.7,27.5,17.7 M28,18.5
		c-0.1,0.1-0.3,0.1-0.5,0.1s-0.3,0-0.5-0.1c-0.1-0.1-0.2-0.2-0.2-0.4s0-0.3,0.2-0.4c0.1-0.1,0.3-0.1,0.5-0.1s0.3,0,0.5,0.1
		c0.1,0.1,0.2,0.2,0.2,0.4S28.1,18.5,28,18.5"/>
	<path class="st0" d="M29.7,18.6l-0.4-0.8l0,0l-0.4,0.8h-0.1l-0.4-1h0.1l0.3,0.9l0,0l0.4-0.9h0.1l0.4,0.9l0,0l0.3-0.9h0.1l-0.4,1
		H29.7L29.7,18.6z"/>
	<path class="st0" d="M30.9,17.7c-0.3,0-0.4,0.1-0.5,0.4h0.9C31.4,17.8,31.3,17.7,30.9,17.7 M30.9,18.6c-0.2,0-0.3,0-0.4-0.1
		c-0.1-0.1-0.2-0.3-0.2-0.4s0-0.3,0.2-0.4c0.1-0.1,0.3-0.1,0.4-0.1c0.1,0,0.3,0,0.4,0.1c0.2,0.1,0.2,0.3,0.2,0.5h-1
		c0,0.2,0.1,0.4,0.5,0.4c0.2,0,0.3,0,0.5-0.1v0.1C31.3,18.6,31.1,18.7,30.9,18.6"/>
	<path class="st0" d="M31.8,18.6v-1h0.1v0.1c0.2,0,0.3-0.1,0.5-0.1h0v0.1h0c-0.2,0-0.3,0-0.5,0.1v0.9H31.8L31.8,18.6z"/>
	<path class="st0" d="M33.2,17.7c-0.3,0-0.4,0.1-0.4,0.4h0.9C33.6,17.8,33.5,17.7,33.2,17.7 M33.2,18.6c-0.2,0-0.3,0-0.4-0.1
		c-0.1-0.1-0.2-0.3-0.2-0.4s0.1-0.3,0.2-0.4c0.1-0.1,0.3-0.1,0.4-0.1c0.1,0,0.3,0,0.4,0.1c0.2,0.1,0.2,0.3,0.2,0.5h-1
		c0,0.2,0.1,0.4,0.5,0.4c0.2,0,0.3,0,0.5-0.1v0.1C33.5,18.6,33.3,18.7,33.2,18.6"/>
	<path class="st0" d="M35,17.8c-0.1,0-0.3-0.1-0.4-0.1c-0.3,0-0.5,0.1-0.5,0.4c0,0.3,0.1,0.4,0.4,0.4c0.2,0,0.3,0,0.5-0.1L35,17.8
		L35,17.8z M35.1,18.6L35.1,18.6c-0.2,0-0.4,0-0.6,0c-0.1,0-0.3,0-0.4-0.1C34,18.5,34,18.3,34,18.1c0-0.2,0.1-0.4,0.2-0.4
		c0.1-0.1,0.3-0.1,0.4-0.1c0.1,0,0.3,0,0.4,0.1v-0.5h0.1L35.1,18.6L35.1,18.6L35.1,18.6z"/>
	<path class="st0" d="M36.9,17.7c-0.2,0-0.3,0-0.5,0.1v0.7c0.1,0,0.3,0.1,0.4,0.1c0.3,0,0.5-0.1,0.5-0.4
		C37.3,17.8,37.2,17.7,36.9,17.7 M37.2,18.6c-0.1,0.1-0.3,0.1-0.4,0.1c-0.2,0-0.3,0-0.4-0.1v0h-0.1v-1.4h0.1v0.5
		c0.2,0,0.3-0.1,0.5-0.1c0.1,0,0.3,0,0.4,0.1c0.1,0.1,0.2,0.3,0.2,0.4S37.4,18.5,37.2,18.6"/>
	<path class="st0" d="M37.6,19v-0.1c0.1,0,0.1,0,0.2,0c0.2,0,0.2,0,0.3-0.2l0-0.1l-0.5-1h0.1l0.4,0.9l0,0l0.4-0.9h0.1l-0.6,1.1
		C38,19,37.9,19,37.7,19C37.7,19,37.6,19,37.6,19"/>
	<path class="st0" d="M40.3,18h-0.4v0.4h0.4c0.3,0,0.4,0,0.4-0.2C40.7,18.1,40.6,18,40.3,18 M40.3,17.5h-0.3v0.4h0.3
		c0.3,0,0.4,0,0.4-0.2C40.6,17.5,40.5,17.5,40.3,17.5 M40.9,18.5c-0.1,0.1-0.3,0.1-0.6,0.1h-0.6v-1.4h0.6c0.3,0,0.4,0,0.6,0.1
		c0.1,0.1,0.2,0.2,0.1,0.3c0,0.1-0.1,0.2-0.2,0.3l0,0c0.2,0,0.3,0.1,0.3,0.3C41,18.4,41,18.5,40.9,18.5"/>
	<path class="st0" d="M42.2,18.2c-0.1,0-0.2,0-0.4,0c-0.2,0-0.3,0-0.3,0.1s0.1,0.1,0.2,0.1c0.1,0,0.3,0,0.4-0.1
		C42.2,18.4,42.2,18.2,42.2,18.2z M42.3,18.6L42.3,18.6c-0.2,0-0.4,0-0.6,0c-0.1,0-0.2,0-0.3-0.1c-0.1-0.1-0.2-0.3,0-0.4
		c0,0,0.1-0.1,0.1-0.1c0.1,0,0.3,0,0.4,0c0.1,0,0.3,0,0.4,0v0c0-0.2-0.1-0.2-0.4-0.2c-0.1,0-0.2,0-0.4,0v-0.2c0.1,0,0.3,0,0.4,0
		c0.2,0,0.4,0,0.5,0.1s0.1,0.2,0.1,0.4v0.6L42.3,18.6L42.3,18.6z"/>
	<path class="st0" d="M43.8,18.6v-0.6c0-0.2-0.1-0.3-0.3-0.3c-0.1,0-0.3,0-0.4,0.1v0.8h-0.3v-1h0.2v0.1c0.2,0,0.4-0.1,0.6-0.1
		c0.1,0,0.3,0,0.3,0.1c0.1,0.1,0.1,0.2,0.1,0.3v0.6H43.8L43.8,18.6z"/>
	<path class="st0" d="M44.9,18.6c-0.1,0-0.3,0-0.4-0.1c-0.1-0.1-0.2-0.3-0.2-0.4c0-0.2,0.1-0.3,0.2-0.4c0.1-0.1,0.3-0.1,0.4-0.1
		c0.1,0,0.2,0,0.3,0v0.2c-0.1,0-0.2,0-0.3,0c-0.3,0-0.4,0.1-0.4,0.3c0,0.2,0.1,0.3,0.3,0.3c0.1,0,0.3,0,0.4,0v0.2
		C45.2,18.6,45,18.6,44.9,18.6"/>
	<path class="st0" d="M46.2,17.8c-0.3,0-0.4,0.1-0.4,0.3s0.1,0.3,0.4,0.3s0.4-0.1,0.4-0.3S46.5,17.8,46.2,17.8 M46.7,18.5
		c-0.1,0.1-0.3,0.1-0.5,0.1s-0.4,0-0.5-0.1c-0.1-0.1-0.2-0.2-0.2-0.4s0.1-0.3,0.2-0.4c0.1-0.1,0.3-0.1,0.5-0.1s0.4,0,0.5,0.1
		c0.1,0.1,0.2,0.3,0.2,0.4S46.8,18.5,46.7,18.5"/>
	<path class="st0" d="M48.5,18.6c-0.2,0-0.3,0-0.5-0.1c-0.2-0.1-0.2-0.4-0.2-0.6c0-0.2,0.1-0.4,0.3-0.6c0.2-0.1,0.4-0.1,0.6-0.1
		c0.2,0,0.3,0,0.5,0v0.3c-0.2,0-0.3,0-0.5,0c-0.4,0-0.6,0.1-0.6,0.5s0.2,0.5,0.4,0.5c0.2,0,0.4,0,0.6-0.1v0.2
		C49,18.6,48.7,18.6,48.5,18.6"/>
	<path class="st0" d="M50,17.8c-0.2,0-0.3,0.1-0.3,0.2h0.7C50.4,17.9,50.3,17.8,50,17.8 M50,18.7c-0.2,0-0.3,0-0.4-0.1
		s-0.2-0.3-0.2-0.4c0-0.1,0.1-0.3,0.2-0.4c0.1-0.1,0.3-0.1,0.4-0.1c0.1,0,0.3,0,0.4,0.1c0.2,0.1,0.2,0.3,0.2,0.5h-1
		c0,0.1,0.1,0.3,0.4,0.3c0.2,0,0.4,0,0.5,0v0.2C50.4,18.6,50.2,18.6,50,18.7"/>
	<path class="st0" d="M51.9,18.6v-0.6c0-0.2-0.1-0.3-0.3-0.3c-0.1,0-0.3,0-0.4,0.1v0.8h-0.3v-1h0.2v0.1c0.2,0,0.4-0.1,0.6-0.1
		c0.1,0,0.3,0,0.3,0.1c0.1,0.1,0.1,0.2,0.1,0.3v0.6H51.9L51.9,18.6z"/>
	<path class="st0" d="M53,18.6c-0.1,0-0.3,0-0.3-0.1c-0.1-0.1-0.1-0.2-0.1-0.3v-0.4h-0.2v-0.2h0.2l0-0.3h0.3v0.3h0.4v0.2h-0.4v0.3
		c0,0.1,0,0.1,0,0.2c0,0.1,0.1,0.1,0.2,0.1c0.1,0,0.1,0,0.2,0v0.2C53.2,18.6,53.1,18.6,53,18.6"/>
	<path class="st0" d="M53.5,18.6v-1h0.2v0.1c0.2,0,0.3-0.1,0.5-0.1c0,0,0,0,0,0v0.3h-0.1c-0.1,0-0.3,0-0.4,0v0.8L53.5,18.6
		L53.5,18.6z"/>
	<path class="st0" d="M55.3,18.2c-0.1,0-0.2,0-0.4,0c-0.2,0-0.3,0-0.3,0.1s0.1,0.1,0.2,0.1c0.1,0,0.3,0,0.4-0.1L55.3,18.2L55.3,18.2
		z M55.4,18.6L55.4,18.6c-0.2,0-0.4,0-0.6,0c-0.1,0-0.2,0-0.3-0.1c-0.1-0.1-0.1-0.1-0.1-0.2c0-0.1,0.1-0.2,0.2-0.3
		c0.1,0,0.3,0,0.4,0c0.1,0,0.3,0,0.4,0v0c0-0.2-0.1-0.2-0.4-0.2c-0.1,0-0.2,0-0.4,0v-0.2c0.1,0,0.3,0,0.4,0c0.2,0,0.4,0,0.5,0.1
		s0.1,0.2,0.1,0.4v0.6L55.4,18.6L55.4,18.6z"/>
	<path class="st0" d="M56,17.2h0.3v1.4H56V17.2z"/>
</g>
</svg>
