<?xml version="1.0" encoding="utf-8"?>
<!-- Generator: Adobe Illustrator 22.1.0, SVG Export Plug-In . SVG Version: 6.00 Build 0)  -->
<svg version="1.1" id="Layer_1" xmlns="http://www.w3.org/2000/svg" xmlns:xlink="http://www.w3.org/1999/xlink" x="0px" y="0px"
	 viewBox="0 0 310.8 79.3" style="enable-background:new 0 0 310.8 79.3;" xml:space="preserve">
<style type="text/css">
	.st0{fill:#4FA24F;}
	.st1{fill:#010102;}
</style>
<g>
	<title>mcvs_acc_hrz</title>
	<path class="st0" d="M290,46.9c1.7-4,3.2-7.8,4.8-11.5c1-2.3,2-4.6,2.9-7c0.5-1.2,1.1-1.8,2.6-1.8c2.4,0.1,4.8,0,7.6,0
		c-2.4,5.4-4.6,10.6-6.9,15.7c-2.7,5.9-5.1,12-8.1,17.8c-3.6,6.7-8.7,7-14.4,6.8c-0.8,0-1.2-0.2-1-1.2c0.4-1.4,0.5-2.8,0.8-4.2
		c0.1-0.5,0.2-1.2,1.1-1c4.4,0.8,5.9-2.2,7.3-5.6c-4.4-0.8-5.9-3.9-6.2-7.9c-0.5-6.2-1-12.4-1.6-18.6c-0.1-1.3,0.2-1.8,1.5-1.7
		c2.1,0.1,4.2,0.1,6.3,0c1.4-0.1,1.7,0.6,1.7,1.8c0.1,4.7,0.2,9.4,0.3,14.1C288.8,43.9,288.7,45.4,290,46.9z"/>
	<path class="st1" d="M118.7,26.3c-1.2,5.6-2.3,10.9-3.4,16.3c-0.4,1.9-1.8,4.3,1.3,5.3c2.6,0.8,6.2-1.2,6.8-3.8c1.1-4.7,2-9.3,3-14
		c0.8-3.7,0.8-3.7,4.5-3.7c1.7,0,3.4,0,5,0c0.2,0,0.3,0.1,0.6,0.2c-1.9,9.1-3.8,18.2-5.7,27.3c-0.2,0.9-0.7,1.2-1.6,1.2
		c-2.5,0-5,0-7.7,0c0.3-1.5,0.6-2.9,0.9-4.3c-2.9,4-7,4.7-11.5,4.4c-4.3-0.3-6.8-3-6.1-7.2c1.1-6.9,2.7-13.7,4.1-20.5
		c0.2-0.9,0.6-1.2,1.6-1.2C113.2,26.4,115.8,26.3,118.7,26.3z"/>
	<path class="st1" d="M194.2,29.6c2.5-2.6,5.4-3.7,8.9-3.5c3.1,0.2,4.6,1.7,4.7,4.8c0.1,2.7,0.4,6.4-1.5,7.6
		c-1.9,1.3-5.3,0.3-8.1,0.3c0.2-0.9,0.4-1.7,0.5-2.5c0.1-0.9,0.4-1.9-0.6-2.5c-1-0.6-2-0.4-2.9,0.1c-1.7,0.8-2.2,2.4-2.6,4.1
		c-1.1,5.1-2.2,10.2-3.2,15.3c-0.3,1.5-0.9,2.1-2.5,2c-2.4-0.1-4.9,0-7.5,0c2-9.3,4-18.4,5.9-27.5c0.2-0.9,0.6-1.2,1.5-1.2
		c1.8,0.1,3.7,0.1,5.6,0c1.8-0.1,2.8,0.2,1.9,2.3C194.3,28.9,194.3,29.2,194.2,29.6z"/>
	<path class="st1" d="M152.7,14.2c-1.9,9.1-3.8,18-5.7,26.9c-0.9,4.1-1.8,8.2-2.6,12.3c-0.2,1.2-0.7,1.8-2,1.6c-0.7-0.1-1.3,0-2,0
		c-6,0-5.9,0-4.7-5.7c2.4-11,4.7-22,7-33c0.4-1.7,0.9-2.4,2.7-2.2C147.8,14.4,150.1,14.2,152.7,14.2z"/>
	<path class="st1" d="M42.1,23.9c0.9-6.7-1.5-9.5-8.1-9.6c-7.2-0.1-14.5,0-21.7-0.1c-1.3,0-1.7,0.4-2,1.6C7.7,28.2,5.1,40.6,2.4,53
		c-0.3,1.5-0.2,2,1.6,2.1c2.1,0,4,0,6.1,0c2.2,0,3.4-0.3,3.6-2.8c0.2-2.2,0.9-4.3,1.3-6.4c1.3-6.6,1.3-6.6,8-6.4
		c3.4,0.1,4.6,1.4,4,4.8c-0.5,3.1-1,6.3-1.7,9.4c-0.2,1.2,0.1,1.5,1.2,1.4c2.8,0,5.6-0.1,8.3,0c1.3,0.1,1.5-0.7,1.7-1.7
		c0.7-3.8,1.3-7.6,1.9-11.4c0.6-3.9-0.5-5.6-4.4-7C40.1,33.6,41.4,28.9,42.1,23.9z M27.4,31.4c-0.7,0.1-1.3,0.1-2,0.1
		c-2.4,0-4.8,0-7.3,0c1-8.3,1-8.3,9-8.3c1.5,0,3.5-0.3,3.7,1.9C31.2,28,29.4,31.1,27.4,31.4z"/>
	<path class="st0" d="M249.1,21.7c-0.2-4-2.4-6.1-6.4-7c-4.3-1-8.7-0.2-12.3-0.5c-4.2,0-7.7,0.1-11.1,0c-1.5,0-2.2,0.3-2.5,2
		c-1,5.4-2.3,10.8-3.4,16.2c-1.5,6.9-3,13.8-4.4,20.7c-0.3,1.2-0.3,2.1,1.4,2c2.6-0.1,5.2-0.1,7.8,0c1.2,0,1.6-0.6,1.8-1.6
		c0.5-2.4,1.1-4.7,1.5-7.1c0.2-1.4,0.8-1.8,2.1-1.8c3.2,0.1,6.4,0.1,9.6,0c4.4-0.2,8.8-0.8,11.4-4.8C248,34.3,249.3,28.1,249.1,21.7
		z M236,32.8c-0.6,1.8-2.2,2.1-3.9,2.1c-1.1,0-2.2,0-3.3,0c-5,0-5,0-4-4.8c0.4-2.1,0-5,1.6-6c1.6-1,4.2-0.3,6.4-0.4
		c0.8,0,1.5,0.1,2.3,0.1c0.9,0,1.7,0.5,2,1.3C238.3,27.8,236.8,30.3,236,32.8z"/>
	<path class="st1" d="M100.2,26.3c-4.4,0-4.4,0-5.1,4.3c0,0.1-0.1,0.2-0.2,0.3c-0.7-2.7-1.4-3.9-3.3-4.4c-5.7-1.2-13.4-0.7-16.2,7.7
		c-1.4,4.2-2.3,8.4-2.7,12.8c-0.4,4.4,1.7,7,6.1,7.8c4.2,0.8,8,0.2,11.5-3.6c-0.1,3-0.6,5.2-1.5,7.3c-1,2.6-3.4,2.3-5.6,2.3
		c-1.6,0-3.1-0.3-3-2.5c0-0.9-0.6-0.8-1.2-0.9c-2.1,0-4.2,0-6.3,0c-0.5,0-1,0-1.3,0.5c-1.8,2.7,0,8.2,3.2,9
		c4.9,1.2,9.8,1.1,14.7,0.1c5.9-1.2,8.4-5.5,9.6-10.8c1.9-8.3,3.7-16.7,5.4-25.1C105.2,26.4,105.2,26.3,100.2,26.3z M93.3,36.9
		c-0.3,2.2-0.7,4.5-1.3,6.7c-0.8,3-2.4,4.1-5.5,4.1c-3.4,0-4.4-1-3.8-4.2c0.4-2.5,0.8-5,1.8-7.3c1-2.5,5.9-3.8,8-2.2
		C93.4,34.7,93.4,35.8,93.3,36.9z"/>
	<path class="st1" d="M174.5,26.5c-4.4-0.7-8.9-0.6-13.3,0c-4.1,0.6-7.1,3.3-8,7.1c-0.2,0.7-0.6,1.5,0.8,1.5c2.4-0.1,4.9,0,7.3,0
		c0.5,0,0.9-0.1,1.2-0.7c1.1-2.8,3.5-2.5,5.8-2.3c1.4,0.1,2.2,1,2,2.4c-0.3,1.9-0.7,3.7-1.2,5.8c-2.2-3.4-5.3-2.9-8.2-2.8
		c-7.6,0.1-11.2,3.5-11.8,11.1c-0.3,4.1,1.4,6.2,5.4,6.5c4.1,0.3,8.2,0.6,11.9-2.9c-0.1,1.3-0.2,2-0.2,2.8c2.7,0,5.3,0,7.9,0
		c0.7,0,1.3,0,1.5-0.9c1.4-7.1,3.4-14,4.2-21.2C180.2,29.1,178.3,27,174.5,26.5z M162,49.1c-1.4-0.2-3.2-0.2-3.2-2.5
		c0-1.9,2.4-3.7,4.8-3.5c1.2,0.1,2.9,0.1,2.9,2.1C166.7,47.5,164.7,49.2,162,49.1z"/>
	<path class="st0" d="M270.5,26.4c-4-0.4-8.1-0.5-12.1,0c-4.5,0.5-7.6,3.2-8.6,7.1c-0.3,1.1-0.1,1.6,1.1,1.5c1.7-0.1,3.4,0,5,0
		c1.6,0,3,0.1,3.9-1.8c0.7-1.4,4.3-1.8,5.8-0.9c1.8,1,1.1,2.6,0.9,4c-0.2,1.3-0.6,2.6-0.9,4.1c-1.9-3.6-5.3-2.9-8.3-2.9
		c-7.3,0-11.4,3.4-11.7,12.3c-0.1,2.6,1.2,4.5,3.7,5c4.8,1,9.7,1.5,14.2-2.9c-1.6,3.4,0.1,3.5,2.2,3.4c1.6-0.1,3.2-0.1,4.8,0
		c1,0,1.6-0.4,1.8-1.3c1.3-6.7,2.9-13.3,4-20C277.1,29.2,275.1,26.9,270.5,26.4z M258.7,49.1c-1.3-0.1-3-0.2-3.3-2.3
		c-0.2-1.8,2.3-3.8,4.7-3.7c1.3,0,3.1,0,3.2,2C263.4,47.4,261.5,49.1,258.7,49.1z"/>
	<path class="st1" d="M71,32.8c-0.2-3.1-1.5-5-4.6-5.9c-3.6-1.1-7.3-0.9-11-0.6c-6.1,0.4-10,3.5-11.8,9.3c-1.2,3.9-2.2,7.9-2.1,12.1
		c0.1,4,1.6,6.3,5.5,7c5,1,10,1.1,15-0.4c3.7-1.1,5.8-3.8,6.9-7.4c0.3-1.1,0.2-1.7-1.2-1.7c-2.2,0.1-4.4,0-6.6,0
		c-0.6,0-1,0.1-1.4,0.8c-1.5,2.4-4.1,3.3-6.9,2.5c-2.5-0.7-1.7-2.6-1.8-4.4c-0.1-1.9,1.1-1.9,2.5-1.9c2.4,0,4.7,0,7.1,0
		c2.4,0,4.9-0.1,7.3,0c1.5,0.1,2.1-0.4,2.4-1.8C70.8,38,71.1,35.4,71,32.8z M61.8,36c-0.1,1.2-1,1.1-1.9,1.1c-0.9,0-1.8,0-2.8,0
		c-0.7,0-1.3,0-2,0c-0.9,0-2,0.2-2.3-0.4c-0.4-0.9,0.4-1.9,1-2.7c1.1-1.4,5.6-1.8,7-0.8C61.9,33.9,61.9,34.9,61.8,36z"/>
</g>
</svg>
