<svg xmlns="http://www.w3.org/2000/svg" viewBox="0 0 1184.72 187.23"><defs><style>.cls-1{fill:#fff;}.cls-2{fill:#f49a22;}.cls-3{fill:#231f20;}</style></defs><title>Asset 1logo</title><g id="Layer_2" data-name="Layer 2"><g id="Layer_1-2" data-name="Layer 1"><path d="M0,0V187.23H1184.72V0ZM1171.47,173.31H275.41V12.85h896.06Z"/><path d="M379.68,144.68c-12.77-33.14-25.55-66.29-38.48-99.83h78.51c-12.87,33.61-25.59,66.82-38.3,100ZM366.1,61.46c4.87,13.36,9.5,26.06,14.53,39.84l14.22-39.84Z"/><path d="M106,96.12c-4.28-11.67-8.55-23.35-13.08-35.72h27L107.11,96.09Z"/><path class="cls-1" d="M366.1,61.46h28.75L380.63,101.3C375.6,87.52,371,74.82,366.1,61.46Z"/><path class="cls-1" d="M768.68,114.36h-20.1l9.58-28.72,1,.06C762.31,95.11,765.42,104.52,768.68,114.36Z"/><path class="cls-2" d="M66.76,42.76c.66,2.21,1,3.79,1.6,5.28Q86,93.83,103.69,139.6l.14.28,2.58,6.78,2.16-5.62a6.88,6.88,0,0,0,.73-1.36Q124.7,99.95,140,60.14c2.16-5.61,4.11-11.29,6.31-17.38ZM119.9,60.4,107.11,96.09l-1.1,0c-4.28-11.67-8.55-23.35-13.08-35.72Z"/><path d="M464,60.32V49.82c0-.51,0-1,0-1.52a6.66,6.66,0,0,0,0-1.3V44.61h-2.74c-.3,0-.63,0-1,0l-4.82,0H424.64V60.54a3.57,3.57,0,0,0,1.19-.22h9.11c0,20,0,45.76,0,65.18H424.64v15.67h39.3V125.5H453.66c0-20.34,0-45,0-65.18Z"/><path d="M613.73,45H556.46V60.87h19.28v80.8h18.71V60.43h19.28Z"/><path d="M708.15,44.62c-22,0-43.61,0-65.13.08v-.08H626.36V64.74h0c0,14.09,0,28.18,1.09,42.18,2.28,28.38,27.32,40.48,52,33.92,19-5.06,27.28-19.94,28.38-38.1C709.05,83.67,708.15,64.48,708.15,44.62ZM690.52,90.54h0c0,3.77-.19,7.53-.55,11.27-1.31,13.91-5.75,21.19-21.21,23.51-10.48,1.57-22.62-7.16-23.39-18.13q-.21-3.1-.36-6.19h0v-.12c-.6-12.29-.54-24.63-.6-36.94a.91.91,0,0,1,.05-.21l-.05-3.12H658.9l31.62-.29V85.07q0,2.22,0,4.44Z"/><path d="M798.12,141.53,759.36,41.75,758,41.69c-12.82,33-25.63,66.06-38.75,99.87h19.31l4.23-11.07c6.64,0,13.1.26,19.49.09h12l3.2,6.88a5.88,5.88,0,0,0,.78,1.69l1.12,2.41H785c2.74.07,5.55,0,8.57,0h4.54l0,0Zm-29.44-27.17h-20.1l10-30.24.52,1.58h.05c3.11,9.41,6.22,18.82,9.48,28.66Z"/><path d="M1022.26,141.53c-13.17-33.92-26-66.85-38.76-99.78l-1.37-.06c-12.82,33-25.63,66.06-38.75,99.87h19.31l4.23-11.07c6.64,0,13.1.26,19.49.09h12l3.2,6.88a5.88,5.88,0,0,0,.78,1.69l1.12,2.41h5.65c2.74.07,5.55,0,8.57,0h4.54l0,0Zm-29.44-27.17h-20.1l10-30.24.52,1.58h.05c3.11,9.41,6.22,18.82,9.48,28.66Z"/><path d="M826,123.4V44.94H808.2v96.62h52.7V123.4Z"/><path d="M1107.1,44.63l.18-.17h-21.35l-6.44,8.86c-5.71,7.81-11.41,15.69-17.29,23.78l-21.14-28.55L1040,47a5.57,5.57,0,0,0-.39-.49l-1.39-1.88h-6.11c-4.88-.06-9.87,0-15.29,0,.57.89,1.07,1.69,1.53,2.42l33.86,46.55v48h19.46V93.68l35.66-49.05Z"/><path class="cls-2" d="M222.45,71.53h0c0-.26,0-.52,0-.79V70.6c0-.62-.06-1.24-.12-1.85a.61.61,0,0,0,0-.14,1.49,1.49,0,0,0,0-.21c-.65-6.77-3.15-12.37-7.58-16.62a29.12,29.12,0,0,0-21.45-9.45H155.64V60.4l13.69,21H155.64v58l.44-.27v.27h19.19V100.64c3.54,0,6.59.22,9.49.1h8.49A29.22,29.22,0,0,0,216.7,88.88a26.53,26.53,0,0,0,5.72-16.26C222.44,72.26,222.45,71.9,222.45,71.53Zm-45.07-11h17.1l.42.06,0,.07a10.36,10.36,0,0,1-1.62,20.6h-2.88Z"/><path class="cls-3" d="M937.73,90.84h0a26.07,26.07,0,0,0,5.61-16h0c0-.36,0-.71,0-1.06s0-.51,0-.79h0v-.11h0c0-.61-.06-1.22-.11-1.82h0v-.14l0-.2h0c-.64-6.67-3.09-12.13-7.42-16.3h0a28.67,28.67,0,0,0-21.09-9.29H877.57V62.51l14.11,21.65H877.57v56.61l.44-.26v.64H896.2V102.41h.5c2.75,0,5.2.13,7.49.13.67,0,1.33,0,2,0h8.51a28.75,28.75,0,0,0,23.05-11.65ZM914.68,84h-3.15l-13.14-21-.48-.76H916l.45.07.62.11,0,.09A10.85,10.85,0,0,1,914.68,84Z"/><path class="cls-3" d="M552.88,141.15l-25.34-39.81a28.89,28.89,0,0,0,15-10.49h0a26.07,26.07,0,0,0,5.61-16h0c0-.36,0-.71,0-1.06s0-.51,0-.79h0v-.11h0c0-.61-.06-1.22-.12-1.82h0v-.14l0-.2h0c-.64-6.67-3.09-12.13-7.42-16.3h0a28.63,28.63,0,0,0-21.08-9.29H482.42V62.51l7.07,10.84,7,10.81h-14.1v56.61l.44-.26v.64h18.19V102.41h.5c2.53,0,4.79.1,6.92.12l25.13,38.62ZM517,62.31h3.79l.45.07.62.11,0,.09A10.85,10.85,0,0,1,519.53,84h-3L507,69h0l-3.72-5.94-.48-.76Z"/></g></g></svg>