<?xml version="1.0" encoding="utf-8"?>
<!-- Generator: Adobe Illustrator 19.1.1, SVG Export Plug-In . SVG Version: 6.00 Build 0)  -->
<svg version="1.0" id="Layer_1" xmlns="http://www.w3.org/2000/svg" xmlns:xlink="http://www.w3.org/1999/xlink" x="0px" y="0px"
	 viewBox="-381.4 243 162.8 60" style="enable-background:new -381.4 243 162.8 60;" xml:space="preserve">
<style type="text/css">
	.st0{fill:#00AFD8;}
	.st1{fill:#006E90;}
	.st2{fill:url(#SVGID_1_);}
	.st3{fill:url(#SVGID_2_);}
	.st4{fill:url(#SVGID_3_);}
</style>
<g>
	<path class="st0" d="M-373.3,301.7v-16.8h-4.9v-5.2h15.9v5.2h-4.9v16.8L-373.3,301.7L-373.3,301.7z"/>
	<path class="st0" d="M-359.5,301.7v-22h6.3c2.5,0,4.2,0.1,5.1,0.3c1,0.2,1.8,0.6,2.5,1.1c0.8,0.6,1.4,1.4,1.8,2.3
		c0.4,0.9,0.6,2,0.6,3.1c0,1.7-0.4,3.1-1.3,4.2c-0.8,1.1-2.1,1.8-3.7,2.1l6,8.9h-6.8l-5.1-8.6v8.6L-359.5,301.7L-359.5,301.7z
		 M-353.8,290.1h1.1c1.3,0,2.2-0.2,2.8-0.7c0.6-0.4,0.9-1.1,0.9-2.1c0-1.1-0.3-1.9-0.8-2.4c-0.6-0.5-1.5-0.7-2.8-0.7h-1.2V290.1z"/>
	<path class="st0" d="M-342.3,301.7l7.6-22h7.5l7.6,22h-6l-1.1-3.9h-8.5l-1.1,3.9H-342.3z M-333.9,293.5h6l-2.2-7.3
		c-0.1-0.2-0.2-0.6-0.3-1.1c-0.1-0.5-0.3-1.1-0.5-1.9c-0.1,0.5-0.3,1.1-0.4,1.5c-0.1,0.5-0.3,1-0.4,1.4L-333.9,293.5z"/>
	<path class="st0" d="M-317.5,301.7v-22h5.8l8.3,11.3c0.2,0.2,0.4,0.7,0.8,1.4c0.4,0.7,0.8,1.5,1.2,2.5c-0.1-0.9-0.2-1.7-0.3-2.4
		c-0.1-0.7-0.1-1.3-0.1-1.9v-10.9h5.8v22h-5.8l-8.3-11.4c-0.2-0.2-0.4-0.7-0.8-1.4c-0.4-0.7-0.8-1.5-1.2-2.5
		c0.1,0.9,0.2,1.7,0.3,2.5c0.1,0.7,0.1,1.3,0.1,1.9v10.9H-317.5z"/>
	<path class="st0" d="M-290.3,294.6c0.9,1,1.8,1.8,2.6,2.3c0.9,0.5,1.7,0.8,2.6,0.8c0.8,0,1.5-0.2,2-0.6c0.5-0.4,0.8-1,0.8-1.6
		c0-0.7-0.2-1.3-0.7-1.7c-0.4-0.4-1.5-0.8-3-1.2c-2.2-0.6-3.7-1.3-4.6-2.3c-0.9-0.9-1.3-2.2-1.3-3.8c0-2.1,0.7-3.8,2.1-5.1
		c1.4-1.3,3.2-2,5.5-2c1.2,0,2.4,0.2,3.5,0.5c1.1,0.3,2.1,0.8,3.1,1.5l-1.9,4.3c-0.7-0.6-1.4-1-2.1-1.3c-0.7-0.3-1.4-0.4-2.1-0.4
		c-0.7,0-1.3,0.2-1.8,0.5c-0.5,0.3-0.7,0.8-0.7,1.3c0,0.6,0.2,1,0.6,1.3c0.4,0.3,1.2,0.6,2.3,0.9l0.3,0.1c2.4,0.7,4.1,1.4,4.8,2.2
		c0.5,0.5,0.9,1.2,1.2,1.9c0.3,0.8,0.4,1.6,0.4,2.5c0,2.3-0.8,4.2-2.3,5.6c-1.5,1.4-3.6,2.1-6.1,2.1c-1.5,0-2.9-0.3-4.2-0.8
		s-2.5-1.3-3.6-2.5L-290.3,294.6z"/>
	<path class="st0" d="M-273.4,301.7v-22h13.5v4.8h-7.6v3.8h7.2v4.7h-7.2v8.6H-273.4z"/>
	<path class="st0" d="M-256.6,301.7v-22h13.5v4.8h-7.6v3.8h7.2v4.7h-7.2v3.7h7.6v4.9L-256.6,301.7L-256.6,301.7z"/>
	<path class="st0" d="M-239.1,301.7v-22h6.3c2.5,0,4.2,0.1,5.1,0.3c1,0.2,1.8,0.6,2.5,1.1c0.8,0.6,1.4,1.4,1.8,2.3
		c0.4,0.9,0.6,2,0.6,3.1c0,1.7-0.4,3.1-1.3,4.2c-0.8,1.1-2.1,1.8-3.7,2.1l6,8.9h-6.8l-5.1-8.6v8.6L-239.1,301.7L-239.1,301.7z
		 M-233.5,290.1h1.1c1.3,0,2.2-0.2,2.8-0.7c0.6-0.4,0.9-1.1,0.9-2.1c0-1.1-0.3-1.9-0.8-2.4c-0.6-0.5-1.5-0.7-2.8-0.7h-1.2V290.1z"/>
</g>
<g>
	<path class="st1" d="M-309.5,243.9l4,15.1c0.2,0.7,0.4,1.4,0.5,2.1c0.2,0.7,0.3,1.6,0.5,2.5c0.2-1.1,0.4-2.1,0.6-2.8
		c0.2-0.7,0.3-1.4,0.4-1.9l3.7-15.1h8.8l-9,31.8h-8l-3.9-13.6c-0.1-0.5-0.4-1.4-0.7-2.8c-0.1-0.6-0.3-1.1-0.3-1.5
		c-0.1,0.3-0.2,0.7-0.3,1.3c-0.3,1.4-0.6,2.4-0.8,3l-3.9,13.6h-8.1l-9-31.8h8.8l3.6,15.2c0.2,0.8,0.3,1.6,0.5,2.3s0.3,1.6,0.5,2.4
		c0.1-0.6,0.3-1.2,0.4-1.9c0.2-0.7,0.4-1.6,0.7-2.8l4-15.2L-309.5,243.9L-309.5,243.9z"/>
	<path class="st1" d="M-287.7,275.7v-31.8h8.8v31.8H-287.7z"/>
	<path class="st1" d="M-272,275.7v-31.8h9.1c3.5,0,6,0.2,7.4,0.5c1.4,0.3,2.6,0.9,3.6,1.6c1.1,0.9,2,2,2.6,3.3
		c0.6,1.3,0.9,2.8,0.9,4.5c0,2.5-0.6,4.5-1.8,6c-1.2,1.5-3,2.6-5.3,3.1l8.7,12.8h-9.8l-7.3-12.4v12.4L-272,275.7L-272,275.7z
		 M-263.9,258.9h1.6c1.9,0,3.2-0.3,4.1-1c0.9-0.6,1.3-1.6,1.3-3c0-1.6-0.4-2.7-1.2-3.4c-0.8-0.7-2.2-1-4.1-1h-1.7V258.9z"/>
	<path class="st1" d="M-243.5,275.7v-31.8h19.5v7h-11v5.5h10.4v6.8H-235v5.4h11v7.1H-243.5z"/>
</g>
<linearGradient id="SVGID_1_" gradientUnits="userSpaceOnUse" x1="-378.0001" y1="317.2037" x2="-338.329" y2="317.2037" gradientTransform="matrix(1 0 0 -1 0 564)">
	<stop  offset="0" style="stop-color:#41E700;stop-opacity:0"/>
	<stop  offset="0.7362" style="stop-color:#3ACD00"/>
	<stop  offset="0.7811" style="stop-color:#36BE00"/>
	<stop  offset="0.9265" style="stop-color:#299100"/>
	<stop  offset="1" style="stop-color:#248000"/>
</linearGradient>
<rect x="-378" y="243.6" class="st2" width="39.7" height="6.3"/>
<linearGradient id="SVGID_2_" gradientUnits="userSpaceOnUse" x1="-378.0001" y1="304.9826" x2="-338.329" y2="304.9826" gradientTransform="matrix(1 0 0 -1 0 564)">
	<stop  offset="0" style="stop-color:#41E700;stop-opacity:0"/>
	<stop  offset="0.7362" style="stop-color:#3ACD00"/>
	<stop  offset="0.7811" style="stop-color:#36BE00"/>
	<stop  offset="0.9265" style="stop-color:#299100"/>
	<stop  offset="1" style="stop-color:#248000"/>
</linearGradient>
<rect x="-378" y="255.9" class="st3" width="39.7" height="6.3"/>
<linearGradient id="SVGID_3_" gradientUnits="userSpaceOnUse" x1="-378.0001" y1="291.65" x2="-338.329" y2="291.65" gradientTransform="matrix(1 0 0 -1 0 564)">
	<stop  offset="0" style="stop-color:#41E700;stop-opacity:0"/>
	<stop  offset="0.7362" style="stop-color:#3ACD00"/>
	<stop  offset="0.7811" style="stop-color:#36BE00"/>
	<stop  offset="0.9265" style="stop-color:#299100"/>
	<stop  offset="1" style="stop-color:#248000"/>
</linearGradient>
<rect x="-378" y="269.2" class="st4" width="39.7" height="6.3"/>
</svg>
