<?xml version="1.0" encoding="utf-8"?>
<!-- Generator: Adobe Illustrator 26.0.2, SVG Export Plug-In . SVG Version: 6.00 Build 0)  -->
<svg version="1.1" id="Layer_1" xmlns="http://www.w3.org/2000/svg" xmlns:xlink="http://www.w3.org/1999/xlink" x="0px" y="0px"
	 viewBox="0 0 1200 200" style="enable-background:new 0 0 1200 200;" xml:space="preserve">
<style type="text/css">
	.st0{fill:#FCBF30;}
	.st1{fill:#F6A036;}
	.st2{fill:#FFFFFF;}
	.st3{fill:#020203;}
</style>
<g>
	<g>
		<path class="st0" d="M178.1,100c0,43.1-35,78.1-78.1,78.1c-43.1,0-78.1-35-78.1-78.1c0-43.1,35-78.1,78.1-78.1
			C143.1,21.9,178.1,56.9,178.1,100z"/>
		<path class="st0" d="M100,0C44.8,0,0,44.8,0,100c0,55.2,44.8,100,100,100c55.2,0,100-44.8,100-100C200,44.8,155.2,0,100,0z
			 M100,186.7c-47.9,0-86.7-38.8-86.7-86.7c0-47.9,38.8-86.7,86.7-86.7c47.9,0,86.7,38.8,86.7,86.7
			C186.7,147.9,147.9,186.7,100,186.7z"/>
		<path class="st1" d="M155.1,44.6L121.6,78L117.5,95l-17.2,4.4l-10.9,0.4l-0.3,10.7l-44.5,44.5c14.1,14.2,33.7,23,55.4,23
			c43.1,0,78.1-35,78.1-78.1C178.1,78.3,169.3,58.8,155.1,44.6z"/>
		<path class="st2" d="M125.7,96.1c0,0,7.5-4.3,7.5-13.1c0-9.6-7.7-17.7-22.8-18.4V51.8c0-0.2-0.2-0.4-0.4-0.4h-8.2
			c-0.2,0-0.4,0.2-0.4,0.4v12.7H94V51.8c0-0.2-0.2-0.4-0.4-0.4h-8.2c-0.2,0-0.4,0.2-0.4,0.4v12.7H67c-1.2,0-1.4,0.6-1.4,1.4v7.2
			c0,1.5,0.9,1.8,1.8,1.8H75c2,0,2.6,1.1,2.6,2.8v43.1c0,2.3-1.4,2.8-3.2,2.8H69c-0.8,0-1.5,0.1-1.8,1.8l-0.9,5.8v0
			c-0.6,3.4,0.8,3.7,2.2,3.7H85v12.4c0,0.2,0.2,0.4,0.4,0.4h8.2c0.2,0,0.4-0.2,0.4-0.4V135h7.5v12.4c0,0.2,0.2,0.4,0.4,0.4h8.2
			c0.2,0,0.4-0.2,0.4-0.4V135h0.6c17.6,0,27.7-10.9,27.7-22.2C138.7,100.1,125.7,96.1,125.7,96.1z M116,84.7c0,6.2-6.5,9.2-11.6,9.2
			H93.9V75.5h9.9C108.8,75.5,116,78.5,116,84.7z M107.4,123.6H93.9v-19.9h16c4.9,0,9.9,5,9.9,9.9C119.8,121,112.4,123.6,107.4,123.6
			z"/>
		<path class="st1" d="M170.5,29.1l-9.4,9.4c15.8,15.7,25.6,37.5,25.6,61.5c0,47.9-38.8,86.7-86.7,86.7c-24,0-45.8-9.8-61.5-25.6
			l-9.4,9.4C47.2,188.7,72.3,200,100,200c55.2,0,100-44.8,100-100C200,72.3,188.7,47.2,170.5,29.1z"/>
	</g>
</g>
<g>
	<g>
		<path class="st3" d="M262.6,82.2c4.2,2.2,7.5,5.3,9.8,9.3c2.3,4,3.5,8.8,3.5,14.1c0,5.4-1.2,10.1-3.5,14c-2.3,4-5.6,7-9.8,9.1
			c-4.2,2.1-9.2,3.2-14.8,3.2h-17.3V79h17.3C253.4,79,258.4,80.1,262.6,82.2z M262,119.9c3.3-3.4,5-8.1,5-14.2c0-6.2-1.7-11-5-14.4
			c-3.3-3.5-8.1-5.2-14.3-5.2h-8.6v38.8h8.6C254,124.9,258.7,123.2,262,119.9z"/>
		<path class="st3" d="M322.7,114.2h-32.1c0.3,3.4,1.5,6.1,3.7,8.1c2.2,2,5,3.1,8.2,3.1c4.7,0,8-2,9.9-5.9h9.4
			c-1.3,3.9-3.6,7-6.9,9.5c-3.3,2.5-7.5,3.7-12.4,3.7c-4,0-7.6-0.9-10.8-2.7c-3.2-1.8-5.7-4.3-7.5-7.6c-1.8-3.3-2.7-7.1-2.7-11.4
			c0-4.3,0.9-8.1,2.6-11.4c1.8-3.3,4.2-5.8,7.4-7.6c3.2-1.8,6.8-2.7,10.9-2.7c4,0,7.5,0.9,10.6,2.6c3.1,1.7,5.5,4.2,7.2,7.3
			c1.7,3.1,2.6,6.7,2.6,10.8C323,111.5,322.9,113,322.7,114.2z M314,107.2c-0.1-3.2-1.2-5.8-3.4-7.7c-2.2-1.9-5-2.9-8.3-2.9
			c-3,0-5.6,1-7.7,2.9c-2.1,1.9-3.4,4.5-3.8,7.7H314z"/>
		<path class="st3" d="M346.3,91.2c2.6-1.3,5.4-1.9,8.6-1.9c3.7,0,7.1,0.9,10.1,2.7c3,1.8,5.4,4.3,7.1,7.6c1.7,3.3,2.6,7,2.6,11.2
			c0,4.2-0.9,8-2.6,11.3c-1.7,3.3-4.1,5.9-7.1,7.8c-3,1.9-6.4,2.8-10,2.8c-3.3,0-6.1-0.6-8.7-1.9c-2.5-1.3-4.5-2.9-6-4.9v6.1h-8.7
			V75.6h8.7v20.7C341.7,94.2,343.8,92.5,346.3,91.2z M364,103.3c-1.2-2.1-2.8-3.7-4.7-4.8c-2-1.1-4.1-1.6-6.3-1.6
			c-2.2,0-4.3,0.6-6.2,1.7c-2,1.1-3.5,2.7-4.7,4.9c-1.2,2.1-1.8,4.7-1.8,7.5c0,2.9,0.6,5.4,1.8,7.6c1.2,2.2,2.8,3.8,4.7,4.9
			c2,1.1,4,1.7,6.2,1.7c2.2,0,4.3-0.6,6.3-1.7c2-1.1,3.5-2.8,4.7-5c1.2-2.2,1.8-4.7,1.8-7.6C365.8,107.9,365.2,105.4,364,103.3z"/>
		<path class="st3" d="M383.7,82.8c-1.1-1.1-1.6-2.4-1.6-4c0-1.6,0.5-2.9,1.6-4c1.1-1.1,2.4-1.6,4-1.6c1.5,0,2.8,0.5,3.9,1.6
			c1.1,1.1,1.6,2.4,1.6,4c0,1.6-0.5,2.9-1.6,4c-1.1,1.1-2.4,1.6-3.9,1.6C386.1,84.4,384.8,83.9,383.7,82.8z M392,90v42h-8.7V90H392z
			"/>
		<path class="st3" d="M413.6,97.1v23.3c0,1.6,0.4,2.7,1.1,3.4c0.7,0.7,2,1,3.8,1h5.3v7.2h-6.9c-3.9,0-6.9-0.9-9-2.7
			c-2.1-1.8-3.1-4.8-3.1-8.9V97.1h-5V90h5V79.5h8.8V90h10.2v7.1H413.6z"/>
		<path class="st3" d="M465.7,91.4c2.4-4.1,5.7-7.3,9.8-9.6c4.1-2.3,8.7-3.5,13.6-3.5c5.6,0,10.7,1.4,15.1,4.2
			c4.4,2.8,7.6,6.7,9.6,11.8h-10.4c-1.4-2.8-3.3-4.9-5.7-6.3c-2.4-1.4-5.3-2.1-8.5-2.1c-3.5,0-6.6,0.8-9.4,2.4
			c-2.7,1.6-4.9,3.8-6.4,6.8c-1.6,2.9-2.3,6.4-2.3,10.3c0,3.9,0.8,7.3,2.3,10.3c1.5,2.9,3.7,5.2,6.4,6.8c2.7,1.6,5.9,2.4,9.4,2.4
			c3.2,0,6-0.7,8.5-2.1c2.4-1.4,4.3-3.5,5.7-6.3h10.4c-2,5.1-5.2,9-9.6,11.7c-4.4,2.7-9.4,4.1-15.1,4.1c-5,0-9.5-1.2-13.6-3.5
			c-4.1-2.3-7.4-5.5-9.8-9.6c-2.4-4.1-3.6-8.8-3.6-14C462.1,100.2,463.3,95.6,465.7,91.4z"/>
		<path class="st3" d="M524.6,91.4c2.4-4.1,5.7-7.3,9.8-9.6c4.1-2.3,8.7-3.5,13.6-3.5c5.6,0,10.7,1.4,15.1,4.2
			c4.4,2.8,7.6,6.7,9.6,11.8h-10.4c-1.4-2.8-3.3-4.9-5.7-6.3c-2.4-1.4-5.3-2.1-8.5-2.1c-3.5,0-6.6,0.8-9.4,2.4
			c-2.7,1.6-4.9,3.8-6.4,6.8c-1.6,2.9-2.3,6.4-2.3,10.3c0,3.9,0.8,7.3,2.3,10.3c1.5,2.9,3.7,5.2,6.4,6.8c2.7,1.6,5.9,2.4,9.4,2.4
			c3.2,0,6-0.7,8.5-2.1c2.4-1.4,4.3-3.5,5.7-6.3h10.4c-2,5.1-5.2,9-9.6,11.7c-4.4,2.7-9.4,4.1-15.1,4.1c-5,0-9.5-1.2-13.6-3.5
			c-4.1-2.3-7.4-5.5-9.8-9.6c-2.4-4.1-3.6-8.8-3.6-14C521,100.2,522.2,95.6,524.6,91.4z"/>
		<path class="st3" d="M604.2,130c-3.2-1.8-5.7-4.3-7.5-7.6c-1.8-3.3-2.7-7.1-2.7-11.4c0-4.3,0.9-8.1,2.8-11.4
			c1.9-3.3,4.4-5.8,7.7-7.6c3.3-1.8,6.9-2.7,10.9-2.7c4,0,7.6,0.9,10.9,2.7c3.3,1.8,5.8,4.3,7.7,7.6c1.9,3.3,2.8,7.1,2.8,11.4
			c0,4.3-1,8.1-2.9,11.4c-1.9,3.3-4.6,5.9-7.9,7.7c-3.3,1.8-7,2.7-11,2.7C610.9,132.7,607.4,131.8,604.2,130z M621.2,123.5
			c2-1.1,3.5-2.7,4.8-4.8c1.2-2.1,1.8-4.7,1.8-7.8c0-3-0.6-5.6-1.8-7.7c-1.2-2.1-2.7-3.7-4.7-4.8c-1.9-1.1-4-1.6-6.3-1.6
			c-2.2,0-4.3,0.5-6.2,1.6c-1.9,1.1-3.4,2.7-4.5,4.8c-1.1,2.1-1.7,4.7-1.7,7.7c0,4.5,1.2,8,3.5,10.5c2.3,2.5,5.2,3.7,8.7,3.7
			C617.1,125.1,619.2,124.6,621.2,123.5z"/>
		<path class="st3" d="M675.4,91.4c2.6,1.4,4.7,3.4,6.1,6.1c1.5,2.7,2.2,5.9,2.2,9.8V132h-8.6v-23.5c0-3.8-0.9-6.6-2.8-8.7
			c-1.9-2-4.4-3-7.7-3c-3.3,0-5.8,1-7.7,3c-1.9,2-2.9,4.9-2.9,8.7V132h-8.7V90h8.7v4.8c1.4-1.7,3.2-3.1,5.5-4c2.2-1,4.6-1.4,7.1-1.4
			C669.8,89.3,672.8,90,675.4,91.4z"/>
		<path class="st3" d="M703.5,75.6V132h-8.7V75.6H703.5z"/>
		<path class="st3" d="M752.8,90L727,151.8h-9l8.5-20.4L710,90h9.7l11.8,32l12.3-32H752.8z"/>
	</g>
	<polygon class="st3" points="441.6,135.6 457.3,71 448.7,71 433.1,135.6 	"/>
</g>
</svg>
