<svg xmlns="http://www.w3.org/2000/svg" viewBox="0 0 16.96 16.96"><defs><style>.cls-1{fill:var(--primary-color1);}</style></defs><title>Layer 2</title><g id="Layer_2" data-name="Layer 2"><g id="Layer_1-2" data-name="Layer 1"><g id="Layer_2-2" data-name="Layer 2"><g id="Layer_1-2-2" data-name="Layer 1-2"><path class="cls-1" d="M8.48,4.17a4.24,4.24,0,0,0,0,8.48h0a4.29,4.29,0,0,0,4.24-4.24h0A4.18,4.18,0,0,0,8.58,4.17Z"/><path class="cls-1" d="M8.48,2.91a.82.82,0,0,1-.82-.82V.75A.79.79,0,0,1,8.49,0h.06A.8.8,0,0,1,9.3.75V2.09A.84.84,0,0,1,8.48,2.91Z"/><path class="cls-1" d="M8.48,13.91a.82.82,0,0,0-.82.82v1.34A1,1,0,0,0,8.4,17a1,1,0,0,0,.9-.74V14.8a.85.85,0,0,0-.81-.89Z"/><path class="cls-1" d="M12.34,4.55a.78.78,0,0,1-.09-1.1.38.38,0,0,1,.09-.09l1-1a.78.78,0,0,1,1.1-.09.38.38,0,0,1,.09.09.78.78,0,0,1,.09,1.1l-.09.09h0l-1,1A.92.92,0,0,1,12.34,4.55Z"/><path class="cls-1" d="M4.61,12.28a.78.78,0,0,0-1.1-.09l-.09.09h0l-1,1a.81.81,0,0,0,0,1.15.82.82,0,0,0,1.15,0h0l1-1a.8.8,0,0,0,0-1.11Z"/><path class="cls-1" d="M14,8.41a.83.83,0,0,1,.82-.82h1.34a.82.82,0,0,1,0,1.64H14.8A.82.82,0,0,1,14,8.41Z"/><path class="cls-1" d="M3,8.41a.84.84,0,0,0-.82-.82H.82a.82.82,0,0,0,0,1.64H2.16A.84.84,0,0,0,3,8.41Z"/><path class="cls-1" d="M12.34,12.28a.78.78,0,0,1,1.1-.09l.09.09h0l1,1a.84.84,0,0,1-1.19,1.19h0l-1-1a.78.78,0,0,1-.19-1.08l0,0C12.27,12.28,12.27,12.28,12.34,12.28Z"/><path class="cls-1" d="M4.61,4.55a.78.78,0,0,0,.09-1.1l-.09-.09h0l-1-1a.76.76,0,0,0-1.08-.1.47.47,0,0,0-.1.1.82.82,0,0,0,0,1.16l0,0,1,1A.93.93,0,0,0,4.61,4.55Z"/></g></g></g></g></svg>