<?xml version="1.0" encoding="utf-8"?>
<!-- Generator: Adobe Illustrator 19.1.1, SVG Export Plug-In . SVG Version: 6.00 Build 0)  -->
<svg version="1.1" id="Layer_1" xmlns="http://www.w3.org/2000/svg" xmlns:xlink="http://www.w3.org/1999/xlink" x="0px" y="0px"
	 viewBox="220 -140 640 480" style="enable-background:new 220 -140 640 480;" xml:space="preserve">
<style type="text/css">
	.st0{display:none;}
	.st1{display:inline;}
	.st2{fill:url(#SVGID_1_);}
	.st3{fill:#FFFFFF;}
	.st4{fill:#F7931A;}
	.st5{fill:url(#SVGID_2_);}
	.st6{fill:url(#SVGID_3_);}
	.st7{fill:url(#SVGID_4_);}
	.st8{fill:url(#SVGID_5_);}
	.st9{fill:url(#SVGID_6_);}
	.st10{fill:url(#SVGID_7_);}
	.st11{fill:url(#SVGID_8_);}
	.st12{fill:url(#SVGID_9_);}
	.st13{fill:url(#SVGID_10_);}
	.st14{fill:url(#SVGID_11_);}
	.st15{fill:url(#SVGID_12_);}
	.st16{fill:url(#SVGID_13_);}
	.st17{fill:url(#SVGID_14_);}
	.st18{fill:url(#SVGID_15_);}
	.st19{fill:url(#SVGID_16_);}
	.st20{fill:url(#SVGID_17_);}
	.st21{fill:url(#SVGID_18_);}
	.st22{fill:url(#SVGID_19_);}
	.st23{fill:url(#SVGID_20_);}
	.st24{fill:url(#SVGID_21_);}
	.st25{fill:url(#SVGID_22_);}
	.st26{fill:url(#SVGID_23_);}
	.st27{fill:url(#SVGID_24_);}
	.st28{fill:url(#SVGID_25_);}
	.st29{fill:url(#SVGID_26_);}
	.st30{fill:url(#SVGID_27_);}
	.st31{fill:url(#SVGID_28_);}
	.st32{fill:url(#SVGID_29_);}
	.st33{fill:url(#SVGID_30_);}
	.st34{fill:url(#SVGID_31_);}
	.st35{fill:url(#SVGID_32_);}
	.st36{fill:url(#SVGID_33_);}
	.st37{fill:url(#SVGID_34_);}
	.st38{fill:url(#SVGID_35_);}
	.st39{fill:url(#SVGID_36_);}
	.st40{display:inline;fill:url(#SVGID_37_);}
	.st41{display:inline;fill:url(#SVGID_38_);}
	.st42{display:inline;fill:url(#SVGID_39_);}
	.st43{display:inline;fill:url(#SVGID_40_);}
	.st44{display:inline;fill:url(#SVGID_41_);}
	.st45{display:inline;fill:url(#SVGID_42_);}
	.st46{display:inline;fill:url(#SVGID_43_);}
	.st47{display:inline;fill:url(#SVGID_44_);}
	.st48{fill:url(#SVGID_45_);}
	.st49{fill:url(#SVGID_46_);}
	.st50{fill:url(#SVGID_47_);}
	.st51{fill:url(#SVGID_48_);}
	.st52{fill:url(#SVGID_49_);}
	.st53{fill:url(#SVGID_50_);}
	.st54{fill:url(#SVGID_51_);}
	.st55{fill:url(#SVGID_52_);}
	.st56{display:inline;fill:url(#SVGID_53_);}
	.st57{display:inline;fill:url(#SVGID_54_);}
	.st58{display:inline;fill:url(#SVGID_55_);}
	.st59{display:inline;fill:url(#SVGID_56_);}
	.st60{display:inline;fill:url(#SVGID_57_);}
	.st61{display:inline;fill:url(#SVGID_58_);}
	.st62{display:inline;fill:url(#SVGID_59_);}
	.st63{display:inline;fill:url(#SVGID_60_);}
	.st64{fill:url(#SVGID_61_);}
	.st65{fill:url(#SVGID_62_);}
	.st66{fill:url(#SVGID_63_);}
	.st67{fill:url(#SVGID_64_);}
	.st68{fill:url(#SVGID_65_);}
	.st69{fill:url(#SVGID_66_);}
	.st70{fill:url(#SVGID_67_);}
	.st71{fill:url(#SVGID_68_);}
	.st72{display:inline;fill:url(#SVGID_69_);}
	.st73{display:inline;fill:url(#SVGID_70_);}
	.st74{display:inline;fill:url(#SVGID_71_);}
	.st75{display:inline;fill:url(#SVGID_72_);}
	.st76{display:inline;fill:url(#SVGID_73_);}
	.st77{display:inline;fill:url(#SVGID_74_);}
	.st78{display:inline;fill:url(#SVGID_75_);}
	.st79{display:inline;fill:url(#SVGID_76_);}
</style>
<g id="Layer_2" class="st0">
	<g class="st1">
		<g>
			
				<linearGradient id="SVGID_1_" gradientUnits="userSpaceOnUse" x1="554" y1="183" x2="554" y2="-297" gradientTransform="matrix(1 0 0 -1 0 200)">
				<stop  offset="0" style="stop-color:#FFFFFF"/>
				<stop  offset="1" style="stop-color:#D9D9D9"/>
			</linearGradient>
			<path class="st2" d="M872,497H236c-1.1,0-2-0.7-2-1.5v-477c0-0.8,0.9-1.5,2-1.5h636c1.1,0,2,0.7,2,1.5v477
				C874,496.3,873.1,497,872,497z"/>
		</g>
		<g>
			<g>
				<path class="st3" d="M769.9,257.5c0.3,113.9-91.8,206.4-205.7,206.6c-113.8,0.3-206.4-91.8-206.6-205.7
					C357.3,144.5,449.4,52,563.2,51.7C677.1,51.6,769.6,143.6,769.9,257.5z"/>
				<path class="st3" d="M630.3,248.1c-1.9-0.6-2.3-3.2-0.6-4.3c10.6-7.2,16.9-18.7,15.1-36.4c-2.7-27-25.4-36.4-54.5-39.2
					c-1.3-0.1-2.2-1.2-2.2-2.4l-0.1-33.6c0-1.4-1.1-2.5-2.5-2.5h-18.4c-1.4,0-2.5,1.1-2.5,2.5l0.1,32.4c0,1.4-1.1,2.4-2.4,2.5
					c-4.5,0-9.1,0.1-13.7,0.2c-1.4,0-2.5-1.1-2.5-2.4l-0.1-32.6c0-1.4-1.1-2.5-2.5-2.5h-18.4c-1.4,0-2.5,1.1-2.5,2.5l0.1,33.4
					c0,1.3-1.1,2.4-2.4,2.5c-4.2,0.1-8.4,0.2-12.4,0.2v-0.1l-29.7,0.1c-1.4,0-2.5,1.1-2.5,2.5l0.1,19.9c0,1.4,1.1,2.5,2.5,2.5
					c4.8-0.1,14.7-0.2,14.5,0c9.3,0,12.4,5.3,13.4,9.9c0,0.2,0.1,0.3,0.1,0.5l0.1,41.1c0,1.3,0.9,2.3,2.2,2.4c0.1,0,0.2,0,0.3,0l0,0
					c-1.4,0-2.4,1.1-2.4,2.5l0.1,58.5c0,0.1,0,0.3,0,0.4c-0.5,3-2.3,7.5-8.7,7.5c0.2,0.2-10.3,0.1-14.9,0.1c-1.2,0-2.2,0.9-2.4,2.1
					l-3.8,22.9c-0.2,1.5,0.9,2.9,2.4,2.9l27.5-0.1c4.8,0,9.5,0,14.2,0.1c1.3,0,2.4,1.1,2.4,2.5l0.1,33.9c0,1.4,1.1,2.5,2.5,2.5h18.4
					c1.4,0,2.5-1.1,2.5-2.5l-0.1-33.4c0-1.4,1.1-2.5,2.5-2.5c4.7,0.1,9.2,0.1,13.7,0.1c1.4,0,2.4,1.1,2.4,2.4l0.1,33.2
					c0,1.4,1.1,2.5,2.5,2.5h18.4c1.4,0,2.5-1.1,2.5-2.5l-0.1-33.9c0-1.3,1-2.4,2.3-2.5c38-2.6,64.4-12.9,67.6-49
					C660.8,267.5,649.3,254.2,630.3,248.1z M546.7,197.1c0-1.3,1.1-2.4,2.4-2.5c15.2-0.4,52.1-2.8,52.2,23.2
					c0.1,24.9-36.9,23.6-52,23.4c-1.3,0-2.4-1.1-2.4-2.5L546.7,197.1z M549.4,316.1c-1.3,0-2.4-1.1-2.4-2.5l-0.1-46.4
					c0-1.3,1.1-2.4,2.4-2.5c17.9-0.4,62.9-3.3,63,25.5C612.4,317.8,567.3,316.2,549.4,316.1z"/>
			</g>
			<g>
				<g>
					<g>
						<path class="st4" d="M769.9,256.5c0.3,113.9-91.8,206.4-205.7,206.6c-113.8,0.3-206.4-91.8-206.6-205.7
							C357.3,143.5,449.4,51,563.2,50.7C677.1,50.6,769.6,142.6,769.9,256.5z"/>
						<g>
							<g>
								<path class="st3" d="M630.3,247.1c-1.9-0.6-2.3-3.2-0.6-4.3c10.6-7.2,16.9-18.7,15.1-36.4c-2.7-27-25.4-36.4-54.5-39.2
									c-1.3-0.1-2.2-1.2-2.2-2.4l-0.1-33.6c0-1.4-1.1-2.5-2.5-2.5h-18.4c-1.4,0-2.5,1.1-2.5,2.5l0.1,32.4c0,1.4-1.1,2.4-2.4,2.5
									c-4.5,0-9.1,0.1-13.7,0.2c-1.4,0-2.5-1.1-2.5-2.4l-0.1-32.6c0-1.4-1.1-2.5-2.5-2.5h-18.4c-1.4,0-2.5,1.1-2.5,2.5l0.1,33.4
									c0,1.3-1.1,2.4-2.4,2.5c-4.2,0.1-8.4,0.2-12.4,0.2v-0.1l-29.7,0.1c-1.4,0-2.5,1.1-2.5,2.5l0.1,19.9c0,1.4,1.1,2.5,2.5,2.5
									c4.8-0.1,14.7-0.2,14.5,0c9.3,0,12.4,5.3,13.4,9.9c0,0.2,0.1,0.3,0.1,0.5l0.1,41.1c0,1.3,0.9,2.3,2.2,2.4c0.1,0,0.2,0,0.3,0
									l0,0c-1.4,0-2.4,1.1-2.4,2.5l0.1,58.5c0,0.1,0,0.3,0,0.4c-0.5,3-2.3,7.5-8.7,7.5c0.2,0.2-10.3,0.1-14.9,0.1
									c-1.2,0-2.2,0.9-2.4,2.1l-3.8,22.9c-0.2,1.5,0.9,2.9,2.4,2.9l27.5-0.1c4.8,0,9.5,0,14.2,0.1c1.3,0,2.4,1.1,2.4,2.5l0.1,33.9
									c0,1.4,1.1,2.5,2.5,2.5h18.4c1.4,0,2.5-1.1,2.5-2.5l-0.1-33.4c0-1.4,1.1-2.5,2.5-2.5c4.7,0.1,9.2,0.1,13.7,0.1
									c1.4,0,2.4,1.1,2.4,2.4l0.1,33.2c0,1.4,1.1,2.5,2.5,2.5h18.4c1.4,0,2.5-1.1,2.5-2.5l-0.1-33.9c0-1.3,1-2.4,2.3-2.5
									c38-2.6,64.4-12.9,67.6-49C660.8,266.5,649.3,253.2,630.3,247.1z M546.7,196.1c0-1.3,1.1-2.4,2.4-2.5
									c15.2-0.4,52.1-2.8,52.2,23.2c0.1,24.9-36.9,23.6-52,23.4c-1.3,0-2.4-1.1-2.4-2.5L546.7,196.1z M549.4,315.1
									c-1.3,0-2.4-1.1-2.4-2.5l-0.1-46.4c0-1.3,1.1-2.4,2.4-2.5c17.9-0.4,62.9-3.3,63,25.5C612.4,316.8,567.3,315.2,549.4,315.1z"
									/>
							</g>
						</g>
					</g>
				</g>
			</g>
		</g>
	</g>
</g>
<g id="Layer_3">
	<g>
		<g>
			<g>
				
					<linearGradient id="SVGID_2_" gradientUnits="userSpaceOnUse" x1="804.6584" y1="-18.9781" x2="934.9863" y2="131.184" gradientTransform="matrix(-1 0 0 -1 1544.2816 200)">
					<stop  offset="0" style="stop-color:#F36C39"/>
					<stop  offset="0.4004" style="stop-color:#D85E42"/>
					<stop  offset="0.7862" style="stop-color:#B24239"/>
					<stop  offset="1" style="stop-color:#6E042D"/>
				</linearGradient>
				<path class="st5" d="M667.5,74.2c-1.3-0.2-12.8-3.2-14.2-3.1c-1.4,0-3.6,2.2-4.9,4.3c-0.8,1.2-1.6,2-2.4,5.5
					c0,0-96.6,18.1-96.7,19.4s0.4,2.6,1.5,3.8l140.8,148.8c0.8,0.8,1.7,1.6,2.8,2.2c1.1,0.7,2.3,1.3,3.7,1.8s2.9,1,4.4,1.4
					c1.6,0.4,3.3,0.7,5,0.9c1.5,0.2,3,0.3,4.5,0.4c1.5,0.1,3.1,0.1,4.7,0c1.6-0.1,3.1-0.2,4.7-0.4c1.6-0.2,3.1-0.5,4.6-0.8
					l93.2-20.6c3.2-0.7,6-1.7,8.2-2.8s3.9-2.5,5-3.9s1.6-2.9,1.5-4.4s-0.9-3-2.4-4.5l-149.8-143L667.5,74.2L667.5,74.2z"/>
			</g>
			<g>
				<g>
					
						<linearGradient id="SVGID_3_" gradientUnits="userSpaceOnUse" x1="807.7006" y1="-8.5935" x2="957.9691" y2="164.5438" gradientTransform="matrix(-1 0 0 -1 1544.2816 200)">
						<stop  offset="0" style="stop-color:#FF9F63"/>
						<stop  offset="0.2185" style="stop-color:#F36C39"/>
						<stop  offset="0.5777" style="stop-color:#D85E42"/>
						<stop  offset="0.9343" style="stop-color:#B24239"/>
						<stop  offset="1" style="stop-color:#6E042D"/>
					</linearGradient>
					<path class="st6" d="M671.6,71.9c-1.3-0.2-97.2-48.1-98.6-48c-1.4,0-3.6,2.2-4.9,4.3c-0.8,1.2-1.6,2-2.4,5.5
						c0,0-12.3,63-12.4,64.3c-0.1,1.3,0.4,2.6,1.5,3.8l140.8,148.8c0.8,0.8,1.7,1.6,2.8,2.2c1.1,0.7,2.4,1.3,3.7,1.8
						c1.4,0.5,2.9,1,4.4,1.4c1.6,0.4,3.3,0.7,5,0.9c1.5,0.2,3,0.3,4.5,0.4c1.5,0.1,3.1,0.1,4.7,0c1.6-0.1,3.1-0.2,4.7-0.4
						c1.6-0.2,3.1-0.5,4.6-0.8l93.2-20.6c3.2-0.7,6-1.7,8.2-2.8s3.9-2.5,5-3.9s1.6-2.9,1.5-4.4s-0.9-3-2.4-4.4L685.8,77L671.6,71.9
						L671.6,71.9z"/>
				</g>
				<g>
					
						<linearGradient id="SVGID_4_" gradientUnits="userSpaceOnUse" x1="904.5426" y1="82.5067" x2="885.8606" y2="99.3513" gradientTransform="matrix(-1 0 0 -1 1544.2816 200)">
						<stop  offset="0" style="stop-color:#6C0630"/>
						<stop  offset="0.2523" style="stop-color:#CC5138"/>
						<stop  offset="0.411" style="stop-color:#FFA586"/>
						<stop  offset="0.5345" style="stop-color:#D85E42"/>
						<stop  offset="0.9343" style="stop-color:#B24239"/>
						<stop  offset="1" style="stop-color:#6E042D"/>
					</linearGradient>
					<path class="st7" d="M570.6,38c-2.3-2-3.7-4-4.4-6.1c0.7-2.2,1.4-2.9,2-3.9c1.3-2,3.5-4.2,4.9-4.3c1.4,0,97.3,47.9,98.6,48
						l14.1,5.1l82.9,79.1l-40,11.4c0,0-20.2,13.2-22.2,13.2L570.6,38z"/>
				</g>
				
					<linearGradient id="SVGID_5_" gradientUnits="userSpaceOnUse" x1="845.9547" y1="3.1708" x2="827.7324" y2="1.3332" gradientTransform="matrix(-1 0 0 -1 1544.2816 200)">
					<stop  offset="0" style="stop-color:#FF935A"/>
					<stop  offset="0.2191" style="stop-color:#F68166"/>
					<stop  offset="0.409" style="stop-color:#FF8D79"/>
					<stop  offset="0.5531" style="stop-color:#FFAEAA"/>
					<stop  offset="0.7145" style="stop-color:#FFA2A0"/>
					<stop  offset="1" style="stop-color:#EC8519"/>
				</linearGradient>
				<path class="st8" d="M703.5,171.2c3.3,3.9,3.3,7.9,2.2,14.3l-8.6,66.4c0.8,0.8,0.2,0.2,1.3,0.8c1.1,0.7,2.1,1.3,3.4,2.1
					c1.3,0.7,2.8,1.3,4.3,1.9c1.5,0.6,3.1,0.9,5,1.3c1.5,0.3,3.5,0,5.1,0.1c1.5,0.1,12.4-1.7,13.9-2l93.2-20.6
					c3.2-0.7,6-1.7,8.2-2.8s3.9-2.5,5-3.9s1.6-2.9,1.5-4.4s-0.5-3.1-0.9-4.9l-12.6-63c-0.5-1.8-1.1-4.8-3.4-7.2L703.5,171.2z"/>
				<g>
					<g>
						
							<linearGradient id="SVGID_6_" gradientUnits="userSpaceOnUse" x1="706.2691" y1="-2.2659" x2="831.8816" y2="-2.2659" gradientTransform="matrix(-1 0 0 -1 1544.2816 200)">
							<stop  offset="0" style="stop-color:#FF935A"/>
							<stop  offset="0.2191" style="stop-color:#F68166"/>
							<stop  offset="0.409" style="stop-color:#FF8D79"/>
							<stop  offset="0.5531" style="stop-color:#FFAEAA"/>
							<stop  offset="0.7145" style="stop-color:#FFA2A0"/>
							<stop  offset="1" style="stop-color:#EC8519"/>
						</linearGradient>
						<path class="st9" d="M712.4,258.1c6.3,0.3,16.3-1.6,17.8-1.9l93.1-20.7c3.2-0.7,6-1.7,8.2-2.8s3.9-2.5,5-3.9s1.6-2.9,1.5-4.4
							s-0.5-3.1-0.9-4.9l-12.5-63c-0.5-1.8-1.9-7.4-4.1-10.1l-91.2,30.2c-7.8,0.4-14,1.5-14.5,7.5L712.4,258.1z"/>
					</g>
				</g>
				<g>
					<g>
						
							<linearGradient id="SVGID_7_" gradientUnits="userSpaceOnUse" x1="713.0594" y1="12.8454" x2="831.2899" y2="-10.8422" gradientTransform="matrix(-1 0 0 -1 1544.2816 200)">
							<stop  offset="0" style="stop-color:#FFA69D"/>
							<stop  offset="2.656040e-002" style="stop-color:#FFBFF8"/>
							<stop  offset="4.714480e-002" style="stop-color:#FD8F78"/>
							<stop  offset="0.2191" style="stop-color:#F68166"/>
							<stop  offset="0.409" style="stop-color:#FF8D79"/>
							<stop  offset="0.5531" style="stop-color:#FFAEAA"/>
							<stop  offset="0.7145" style="stop-color:#FFA2A0"/>
							<stop  offset="1" style="stop-color:#EC8519"/>
						</linearGradient>
						<path class="st10" d="M814.2,156.4l-7.6-5.4l14-4.6c2.2,2.7,3.6,8.3,4.1,10.1l12.5,63c0.4,1.8,0.8,3.4,0.9,4.9
							c0.1,1.5-0.4,3-1.5,4.4c-0.1,0.1-0.1,0.1-0.2,0.2c-2.4-12.4-13-66.5-14.4-70.1C820.3,154.8,814.2,156.4,814.2,156.4z"/>
					</g>
					
						<linearGradient id="SVGID_8_" gradientUnits="userSpaceOnUse" x1="682.7848" y1="7.6748" x2="1019.355" y2="208.3627" gradientTransform="matrix(-1 0 0 -1 1544.2816 200)">
						<stop  offset="0" style="stop-color:#FFC4A2"/>
						<stop  offset="0.2185" style="stop-color:#FF9E7B"/>
						<stop  offset="0.2835" style="stop-color:#FFB1B2"/>
						<stop  offset="0.3572" style="stop-color:#FFB693"/>
						<stop  offset="0.512" style="stop-color:#FFAE69"/>
						<stop  offset="0.6248" style="stop-color:#F97B4B"/>
						<stop  offset="0.6746" style="stop-color:#FA8539"/>
						<stop  offset="0.7344" style="stop-color:#D85E42"/>
						<stop  offset="0.7915" style="stop-color:#E86F4D"/>
						<stop  offset="0.8858" style="stop-color:#9E1128"/>
					</linearGradient>
					<path class="st11" d="M666.9,6.4c1.4,0.2,2.8,0.4,4.2,0.7c1.3,0.3,2.6,0.7,3.7,1.1c1.2,0.4,2.2,0.9,3.2,1.5
						c0.9,0.5,1.8,1.1,2.4,1.8L819.3,145c1.4,1.3,2.2,2.7,2.4,4.1s-0.1,2.7-0.9,4c-0.8,1.3-2.2,2.4-4,3.4s-4.1,1.8-6.8,2.4l-77.7,17
						c-1.2,0.3-2.4,0.5-3.6,0.6c-1.2,0.1-2.4,0.2-3.6,0.3c-1.2,0-2.4,0-3.7,0c-1.2-0.1-2.4-0.2-3.6-0.3c-1.6-0.2-3.2-0.5-4.7-0.9
						s-2.9-0.8-4.2-1.4c-1.3-0.5-2.5-1.1-3.6-1.8c-1.1-0.7-2-1.4-2.7-2.2l-131.8-138c-1.1-1.2-1.6-2.4-1.6-3.5
						c0-1.2,0.5-2.3,1.5-3.4s2.4-2.1,4.2-2.9c1.8-0.8,4.1-1.5,6.6-2l72.4-13.6c1.1-0.2,2.1-0.4,3.2-0.5c1.1-0.1,2.2-0.2,3.3-0.2
						c1.1,0,2.2,0,3.3,0C664.8,6.2,665.8,6.3,666.9,6.4L666.9,6.4z"/>
				</g>
				<g>
					
						<linearGradient id="SVGID_9_" gradientUnits="userSpaceOnUse" x1="981.6755" y1="182.4749" x2="827.3229" y2="18.6283" gradientTransform="matrix(-1 0 0 -1 1544.2816 200)">
						<stop  offset="0" style="stop-color:#B94A35"/>
						<stop  offset="0.2185" style="stop-color:#FF964F"/>
						<stop  offset="0.3572" style="stop-color:#FF945F"/>
						<stop  offset="0.512" style="stop-color:#FF9A69"/>
						<stop  offset="0.6972" style="stop-color:#FF8A50"/>
						<stop  offset="0.8977" style="stop-color:#F77E38"/>
						<stop  offset="0.996" style="stop-color:#F17124"/>
					</linearGradient>
					<path class="st12" d="M701.5,165.8c5.2,5,11.3,8.5,16.5,10.7c-0.1,0-0.1,0-0.2,0c-1.6-0.2-3.2-0.5-4.7-0.9s-2.9-0.8-4.2-1.4
						c-1.3-0.5-2.5-1.1-3.6-1.8c-1.1-0.7-2-1.4-2.7-2.2l-131.8-138c-1.1-1.2-1.6-2.4-1.6-3.5c0-0.6,0.1-1.2,0.4-1.8
						C593,53,690.8,155.4,701.5,165.8z"/>
				</g>
				<g>
					
						<linearGradient id="SVGID_10_" gradientUnits="userSpaceOnUse" x1="786.2079" y1="23.2274" x2="822.9587" y2="243.8083" gradientTransform="matrix(-1 0 0 -1 1544.2816 200)">
						<stop  offset="0" style="stop-color:#FFBDB5"/>
						<stop  offset="0.3572" style="stop-color:#FF945F"/>
						<stop  offset="0.5246" style="stop-color:#FB813F"/>
						<stop  offset="0.7344" style="stop-color:#D85E42"/>
						<stop  offset="0.7915" style="stop-color:#B24239"/>
						<stop  offset="0.8858" style="stop-color:#6E042D"/>
					</linearGradient>
					<path class="st13" d="M817.6,147c-7.4-7.3-140.1-136.4-140.1-136.4s-4.6-3.3-16.1-4.5c0.7,0,1.4,0,2.2,0
						c1.1,0.1,2.2,0.1,3.2,0.3c1.4,0.2,2.8,0.4,4.2,0.7c1.3,0.3,2.6,0.7,3.7,1.1c1.2,0.4,2.2,0.9,3.2,1.5c0.9,0.5,1.8,1.1,2.4,1.8
						l139,133.5c1.4,1.3,2.2,2.7,2.4,4.1s-0.1,2.7-0.9,4c-0.8,1.3-2.2,2.4-4,3.4c-1.2,0.7-2.6,1.2-4.1,1.7
						C817.3,155.4,821.8,151.2,817.6,147z"/>
				</g>
			</g>
		</g>
		<g>
			<g>
				
					<linearGradient id="SVGID_11_" gradientUnits="userSpaceOnUse" x1="943.4064" y1="-50.2521" x2="1073.7356" y2="99.9114" gradientTransform="matrix(-1 0 0 -1 1544.2816 200)">
					<stop  offset="0" style="stop-color:#F36C39"/>
					<stop  offset="0.4004" style="stop-color:#D85E42"/>
					<stop  offset="0.7862" style="stop-color:#B24239"/>
					<stop  offset="1" style="stop-color:#6E042D"/>
				</linearGradient>
				<path class="st14" d="M528.8,105.5c-1.3-0.2-12.8-3.2-14.2-3.1c-1.4,0-3.6,2.2-4.9,4.3c-0.8,1.2-1.6,2-2.4,5.5
					c0,0-96.6,18.1-96.7,19.4c-0.1,1.3,0.4,2.6,1.5,3.8l140.8,148.8c0.8,0.8,1.7,1.6,2.8,2.2c1.1,0.7,2.3,1.3,3.7,1.8
					c1.4,0.5,2.9,1,4.4,1.4c1.6,0.4,3.3,0.7,5,0.9c1.5,0.2,3,0.3,4.5,0.4c1.5,0.1,3.1,0.1,4.7,0s3.1-0.2,4.7-0.4s3.1-0.5,4.6-0.8
					l93.2-20.6c3.2-0.7,6-1.7,8.2-2.8s3.9-2.5,5-3.9s1.6-2.9,1.5-4.4s-0.9-3-2.4-4.4L543,110.6L528.8,105.5L528.8,105.5z"/>
			</g>
			<g>
				<g>
					
						<linearGradient id="SVGID_12_" gradientUnits="userSpaceOnUse" x1="949.7766" y1="-40.4211" x2="1100.0453" y2="132.7165" gradientTransform="matrix(-1 0 0 -1 1544.2816 200)">
						<stop  offset="0" style="stop-color:#FF9F63"/>
						<stop  offset="0.2185" style="stop-color:#F36C39"/>
						<stop  offset="0.5777" style="stop-color:#D85E42"/>
						<stop  offset="0.9343" style="stop-color:#B24239"/>
						<stop  offset="1" style="stop-color:#6E042D"/>
					</linearGradient>
					<path class="st15" d="M529.5,103.7c-1.3-0.2-97.2-48.1-98.6-48c-1.4,0-3.6,2.2-4.9,4.3c-0.8,1.2-1.6,2-2.4,5.5
						c0,0-12.3,63-12.4,64.3c-0.1,1.3,0.4,2.6,1.5,3.8l140.8,148.8c0.8,0.8,1.7,1.6,2.8,2.2c1.1,0.7,2.3,1.3,3.7,1.8s2.9,1,4.4,1.4
						c1.6,0.4,3.3,0.7,5,0.9c1.5,0.2,3,0.3,4.5,0.4c1.5,0.1,3.1,0.1,4.7,0c1.6-0.1,3.1-0.2,4.7-0.4c1.6-0.2,3.1-0.5,4.6-0.8
						l93.2-20.6c3.2-0.7,6-1.7,8.2-2.8s3.9-2.5,5-3.9s1.6-2.9,1.5-4.4s-0.9-3-2.4-4.4l-149.8-143L529.5,103.7L529.5,103.7z"/>
				</g>
				<g>
					
						<linearGradient id="SVGID_13_" gradientUnits="userSpaceOnUse" x1="1046.6176" y1="50.6293" x2="1027.937" y2="67.4725" gradientTransform="matrix(-1 0 0 -1 1544.2816 200)">
						<stop  offset="0" style="stop-color:#6C0630"/>
						<stop  offset="0.2523" style="stop-color:#CC5138"/>
						<stop  offset="0.411" style="stop-color:#FFA586"/>
						<stop  offset="0.5345" style="stop-color:#D85E42"/>
						<stop  offset="0.9343" style="stop-color:#B24239"/>
						<stop  offset="1" style="stop-color:#6E042D"/>
					</linearGradient>
					<path class="st16" d="M428.5,69.9c-2.3-2-3.7-4-4.4-6.1c0.7-2.2,1.4-2.9,2-3.9c1.3-2,3.5-4.2,4.9-4.3c1.4,0,97.3,47.9,98.6,48
						l14.1,5.1l82.9,79.1l-40,11.4c0,0-20.2,13.2-22.2,13.2L428.5,69.9z"/>
				</g>
				
					<linearGradient id="SVGID_14_" gradientUnits="userSpaceOnUse" x1="988.0582" y1="-28.7293" x2="969.8361" y2="-30.5668" gradientTransform="matrix(-1 0 0 -1 1544.2816 200)">
					<stop  offset="0" style="stop-color:#FF935A"/>
					<stop  offset="0.2191" style="stop-color:#F68166"/>
					<stop  offset="0.409" style="stop-color:#FF8D79"/>
					<stop  offset="0.5531" style="stop-color:#FFAEAA"/>
					<stop  offset="0.7145" style="stop-color:#FFA2A0"/>
					<stop  offset="1" style="stop-color:#EC8519"/>
				</linearGradient>
				<path class="st17" d="M561.4,203c3.3,3.9,3.3,7.9,2.2,14.3l-8.6,66.4c0.8,0.8,0.2,0.2,1.3,0.9c1.1,0.7,2.1,1.3,3.4,2.1
					c1.3,0.7,2.8,1.3,4.3,1.9c1.5,0.6,3.1,0.9,5,1.3c1.5,0.3,3.5,0,5.1,0.1c1.5,0.1,12.4-1.7,13.9-2l93.2-20.6
					c3.2-0.7,6-1.7,8.2-2.8s3.9-2.5,5-3.9s1.6-2.9,1.5-4.4s-0.5-3.1-0.9-4.9l-12.6-63c-0.5-1.8-1.1-4.8-3.4-7.2L561.4,203z"/>
				<g>
					<g>
						
							<linearGradient id="SVGID_15_" gradientUnits="userSpaceOnUse" x1="848.2691" y1="-34.166" x2="973.9816" y2="-34.166" gradientTransform="matrix(-1 0 0 -1 1544.2816 200)">
							<stop  offset="0" style="stop-color:#FF935A"/>
							<stop  offset="0.2191" style="stop-color:#F68166"/>
							<stop  offset="0.409" style="stop-color:#FF8D79"/>
							<stop  offset="0.5531" style="stop-color:#FFAEAA"/>
							<stop  offset="0.7145" style="stop-color:#FFA2A0"/>
							<stop  offset="1" style="stop-color:#EC8519"/>
						</linearGradient>
						<path class="st18" d="M570.3,290c6.3,0.3,16.3-1.6,17.8-1.9l93.2-20.7c3.2-0.7,6-1.7,8.2-2.8c2.2-1.2,3.9-2.5,5-3.9
							s1.6-2.9,1.5-4.4s-0.5-3.1-0.9-4.9l-12.5-63c-0.5-1.8-1.9-7.4-4.1-10.1l-91.2,30.2c-7.8,0.4-14,1.5-14.5,7.5L570.3,290z"/>
					</g>
				</g>
				<g>
					<g>
						
							<linearGradient id="SVGID_16_" gradientUnits="userSpaceOnUse" x1="855.1501" y1="-19.0528" x2="973.3806" y2="-42.7404" gradientTransform="matrix(-1 0 0 -1 1544.2816 200)">
							<stop  offset="0" style="stop-color:#FFA69D"/>
							<stop  offset="2.656040e-002" style="stop-color:#FFBFF8"/>
							<stop  offset="4.714480e-002" style="stop-color:#FD8F78"/>
							<stop  offset="0.2191" style="stop-color:#F68166"/>
							<stop  offset="0.409" style="stop-color:#FF8D79"/>
							<stop  offset="0.5531" style="stop-color:#FFAEAA"/>
							<stop  offset="0.7145" style="stop-color:#FFA2A0"/>
							<stop  offset="1" style="stop-color:#EC8519"/>
						</linearGradient>
						<path class="st19" d="M672.1,188.3l-7.6-5.4l14-4.6c2.2,2.7,3.6,8.3,4.1,10.1l12.5,63c0.4,1.8,0.8,3.4,0.9,4.9s-0.4,3-1.5,4.4
							c-0.1,0.1-0.1,0.1-0.2,0.2c-2.4-12.4-13-66.5-14.4-70.1C678.2,186.6,672.1,188.3,672.1,188.3z"/>
					</g>
					
						<linearGradient id="SVGID_17_" gradientUnits="userSpaceOnUse" x1="813.8406" y1="-32.4042" x2="1152.5029" y2="172.4654" gradientTransform="matrix(-1 0 0 -1 1544.2816 200)">
						<stop  offset="0" style="stop-color:#FFC4A2"/>
						<stop  offset="0.2185" style="stop-color:#FF9E7B"/>
						<stop  offset="0.2835" style="stop-color:#FFB1B2"/>
						<stop  offset="0.3572" style="stop-color:#FFB693"/>
						<stop  offset="0.512" style="stop-color:#FFAE69"/>
						<stop  offset="0.6248" style="stop-color:#F97B4B"/>
						<stop  offset="0.6746" style="stop-color:#FA8539"/>
						<stop  offset="0.7344" style="stop-color:#D85E42"/>
						<stop  offset="0.7915" style="stop-color:#E86F4D"/>
						<stop  offset="0.8858" style="stop-color:#9E1128"/>
					</linearGradient>
					<path class="st20" d="M524.8,38.3c1.4,0.2,2.8,0.4,4.2,0.7c1.3,0.3,2.6,0.7,3.7,1.1c1.2,0.4,2.2,0.9,3.2,1.5
						c0.9,0.5,1.8,1.1,2.4,1.8l138.8,133.5c1.4,1.3,2.2,2.7,2.4,4.1c0.2,1.4-0.1,2.7-0.9,4s-2.2,2.4-4,3.4s-4.1,1.8-6.8,2.4
						l-77.7,17c-1.2,0.3-2.4,0.5-3.6,0.6c-1.2,0.1-2.4,0.2-3.6,0.3c-1.2,0-2.4,0-3.7,0c-1.2-0.1-2.4-0.2-3.6-0.3
						c-1.6-0.2-3.2-0.5-4.7-0.9s-2.9-0.8-4.2-1.4c-1.3-0.5-2.5-1.1-3.6-1.8c-1.1-0.7-2-1.4-2.7-2.2l-131.8-138
						c-1.1-1.2-1.6-2.4-1.6-3.5c0-1.2,0.5-2.3,1.5-3.4s2.4-2.1,4.2-2.9s4.1-1.5,6.6-2l72.4-13.6c1.1-0.2,2.1-0.4,3.2-0.5
						s2.2-0.2,3.3-0.2s2.2,0,3.3,0C522.7,38.1,523.7,38.2,524.8,38.3L524.8,38.3z"/>
				</g>
				<g>
					
						<linearGradient id="SVGID_18_" gradientUnits="userSpaceOnUse" x1="1123.8" y1="150.6008" x2="969.4485" y2="-13.2446" gradientTransform="matrix(-1 0 0 -1 1544.2816 200)">
						<stop  offset="0" style="stop-color:#B94A35"/>
						<stop  offset="0.2185" style="stop-color:#FF964F"/>
						<stop  offset="0.3572" style="stop-color:#FF945F"/>
						<stop  offset="0.512" style="stop-color:#FF9A69"/>
						<stop  offset="0.6972" style="stop-color:#FF8A50"/>
						<stop  offset="0.8977" style="stop-color:#F77E38"/>
						<stop  offset="0.996" style="stop-color:#F17124"/>
					</linearGradient>
					<path class="st21" d="M559.4,197.7c5.2,5.1,11.3,8.5,16.5,10.7c-0.1,0-0.1,0-0.2,0c-1.6-0.2-3.2-0.5-4.7-0.9s-2.9-0.8-4.2-1.4
						c-1.3-0.5-2.5-1.1-3.6-1.8c-1.1-0.7-2-1.4-2.7-2.2l-131.8-138c-1.1-1.2-1.6-2.4-1.6-3.5c0-0.6,0.1-1.2,0.4-1.8
						C450.9,84.9,548.7,187.3,559.4,197.7z"/>
				</g>
				<g>
					
						<linearGradient id="SVGID_19_" gradientUnits="userSpaceOnUse" x1="928.4131" y1="-8.6413" x2="965.1642" y2="211.942" gradientTransform="matrix(-1 0 0 -1 1544.2816 200)">
						<stop  offset="0" style="stop-color:#FFBDB5"/>
						<stop  offset="0.3572" style="stop-color:#FF945F"/>
						<stop  offset="0.5246" style="stop-color:#FB813F"/>
						<stop  offset="0.7344" style="stop-color:#D85E42"/>
						<stop  offset="0.7915" style="stop-color:#B24239"/>
						<stop  offset="0.8858" style="stop-color:#6E042D"/>
					</linearGradient>
					<path class="st22" d="M675.5,178.9c-7.4-7.4-140.1-136.4-140.1-136.4s-4.6-3.3-16.1-4.5c0.7,0,1.4,0,2.2,0
						c1.1,0,2.2,0.1,3.2,0.3c1.4,0.2,2.8,0.4,4.2,0.7c1.3,0.3,2.6,0.7,3.7,1.1c1.2,0.4,2.2,0.9,3.2,1.5c0.9,0.5,1.8,1.1,2.4,1.8
						L677,176.9c1.4,1.3,2.2,2.7,2.4,4.1c0.2,1.4-0.1,2.7-0.9,4s-2.2,2.4-4,3.4c-1.2,0.7-2.6,1.2-4.1,1.7
						C675.2,187.3,679.7,183.1,675.5,178.9z"/>
				</g>
			</g>
		</g>
		<g>
			<g>
				
					<linearGradient id="SVGID_20_" gradientUnits="userSpaceOnUse" x1="885.2855" y1="54.2891" x2="1035.5559" y2="227.4288" gradientTransform="matrix(-1 0 0 -1 1544.2816 200)">
					<stop  offset="0" style="stop-color:#FF9F63"/>
					<stop  offset="0.2185" style="stop-color:#F36C39"/>
					<stop  offset="0.5777" style="stop-color:#D85E42"/>
					<stop  offset="0.9343" style="stop-color:#B24239"/>
					<stop  offset="1" style="stop-color:#6E042D"/>
				</linearGradient>
				<path class="st23" d="M594,9c-1.3-0.2-97.2-48.1-98.6-48c-1.4,0-3.6,2.2-4.9,4.3c-0.8,1.2-1.6,2-2.4,5.5c0,0-12.3,63-12.4,64.3
					c-0.1,1.3,0.4,2.6,1.5,3.8L618,187.7c0.8,0.8,1.7,1.6,2.8,2.2c1.1,0.7,2.4,1.3,3.7,1.8c1.4,0.5,2.9,1,4.4,1.4
					c1.6,0.4,3.3,0.7,5,0.9c1.5,0.2,3,0.3,4.5,0.4s3.1,0.1,4.7,0c1.6-0.1,3.1-0.2,4.7-0.4c1.6-0.2,3.1-0.5,4.6-0.8l93.2-20.6
					c3.2-0.7,6-1.7,8.2-2.8c2.2-1.1,3.9-2.5,5-3.9s1.6-2.9,1.5-4.4s-0.9-3-2.4-4.4l-149.8-143L594,9L594,9z"/>
			</g>
			<g>
				
					<linearGradient id="SVGID_21_" gradientUnits="userSpaceOnUse" x1="982.143" y1="145.4066" x2="963.461" y2="162.251" gradientTransform="matrix(-1 0 0 -1 1544.2816 200)">
					<stop  offset="0" style="stop-color:#6C0630"/>
					<stop  offset="0.2523" style="stop-color:#CC5138"/>
					<stop  offset="0.411" style="stop-color:#FFA586"/>
					<stop  offset="0.5345" style="stop-color:#D85E42"/>
					<stop  offset="0.9343" style="stop-color:#B24239"/>
					<stop  offset="1" style="stop-color:#6E042D"/>
				</linearGradient>
				<path class="st24" d="M493-24.9c-2.3-2-3.7-4-4.4-6.1c0.7-2.2,1.3-2.9,2-3.9c1.3-2,3.5-4.2,4.9-4.3c1.4,0,97.3,47.9,98.6,48
					l14.1,5.1L691.1,93l-40,11.4c0,0-20.2,13.2-22.3,13.2L493-24.9z"/>
			</g>
			
				<linearGradient id="SVGID_22_" gradientUnits="userSpaceOnUse" x1="923.5467" y1="65.9782" x2="905.3245" y2="64.1407" gradientTransform="matrix(-1 0 0 -1 1544.2816 200)">
				<stop  offset="0" style="stop-color:#FF935A"/>
				<stop  offset="0.2191" style="stop-color:#F68166"/>
				<stop  offset="0.409" style="stop-color:#FF8D79"/>
				<stop  offset="0.5531" style="stop-color:#FFAEAA"/>
				<stop  offset="0.7145" style="stop-color:#FFA2A0"/>
				<stop  offset="1" style="stop-color:#EC8519"/>
			</linearGradient>
			<path class="st25" d="M626,108.3c3.3,3.9,3.3,7.9,2.2,14.3l-8.6,66.4c0.8,0.8,0.2,0.2,1.3,0.9c1.1,0.7,2.1,1.3,3.4,2.1
				c1.3,0.7,2.8,1.3,4.3,1.9s3.1,0.9,5,1.3c1.4,0.3,3.5,0,5.1,0.1c1.5,0.1,12.4-1.7,13.9-2l93.2-20.6c3.2-0.7,6-1.7,8.2-2.8
				c2.2-1.1,3.9-2.5,5-3.9s1.6-2.9,1.5-4.4s-0.5-3.1-0.9-4.9l-12.6-63c-0.5-1.8-1.1-4.8-3.4-7.2L626,108.3z"/>
			<g>
				<g>
					
						<linearGradient id="SVGID_23_" gradientUnits="userSpaceOnUse" x1="783.7691" y1="60.634" x2="909.4816" y2="60.634" gradientTransform="matrix(-1 0 0 -1 1544.2816 200)">
						<stop  offset="0" style="stop-color:#FF935A"/>
						<stop  offset="0.2191" style="stop-color:#F68166"/>
						<stop  offset="0.409" style="stop-color:#FF8D79"/>
						<stop  offset="0.5531" style="stop-color:#FFAEAA"/>
						<stop  offset="0.7145" style="stop-color:#FFA2A0"/>
						<stop  offset="1" style="stop-color:#EC8519"/>
					</linearGradient>
					<path class="st26" d="M634.8,195.2c6.3,0.3,16.3-1.6,17.8-1.9l93.2-20.7c3.2-0.7,6-1.7,8.2-2.8c2.2-1.1,3.9-2.5,5-3.9
						s1.6-2.9,1.5-4.4s-0.5-3.1-0.9-4.9l-12.5-63c-0.5-1.8-1.9-7.4-4.1-10.1l-91.2,30.2c-7.8,0.4-14,1.5-14.5,7.5L634.8,195.2z"/>
				</g>
			</g>
			<g>
				<g>
					
						<linearGradient id="SVGID_24_" gradientUnits="userSpaceOnUse" x1="790.6525" y1="75.7668" x2="908.895" y2="52.0767" gradientTransform="matrix(-1 0 0 -1 1544.2816 200)">
						<stop  offset="0" style="stop-color:#FFA69D"/>
						<stop  offset="2.656040e-002" style="stop-color:#FFBFF8"/>
						<stop  offset="4.714480e-002" style="stop-color:#FD8F78"/>
						<stop  offset="0.2191" style="stop-color:#F68166"/>
						<stop  offset="0.409" style="stop-color:#FF8D79"/>
						<stop  offset="0.5531" style="stop-color:#FFAEAA"/>
						<stop  offset="0.7145" style="stop-color:#FFA2A0"/>
						<stop  offset="1" style="stop-color:#EC8519"/>
					</linearGradient>
					<path class="st27" d="M736.6,93.5l-7.7-5.4l14-4.6c2.2,2.7,3.6,8.3,4.1,10.1l12.5,63c0.4,1.8,0.8,3.4,0.9,4.9
						c0.1,1.5-0.4,3-1.5,4.4c-0.1,0.1-0.1,0.1-0.2,0.2c-2.4-12.4-13-66.5-14.4-70.1C742.7,91.9,736.6,93.5,736.6,93.5z"/>
				</g>
				
					<linearGradient id="SVGID_25_" gradientUnits="userSpaceOnUse" x1="766.5004" y1="84.2948" x2="1103.071" y2="264.0778" gradientTransform="matrix(-1 0 0 -1 1544.2816 200)">
					<stop  offset="0" style="stop-color:#FFC4A2"/>
					<stop  offset="0.2185" style="stop-color:#FF9E7B"/>
					<stop  offset="0.2835" style="stop-color:#FFB1B2"/>
					<stop  offset="0.3572" style="stop-color:#FFB693"/>
					<stop  offset="0.512" style="stop-color:#FFAE69"/>
					<stop  offset="0.6248" style="stop-color:#F97B4B"/>
					<stop  offset="0.6746" style="stop-color:#FA8539"/>
					<stop  offset="0.7344" style="stop-color:#D85E42"/>
					<stop  offset="0.7915" style="stop-color:#E86F4D"/>
					<stop  offset="0.8858" style="stop-color:#9E1128"/>
				</linearGradient>
				<path class="st28" d="M589.3-56.5c1.4,0.2,2.8,0.4,4.1,0.7c1.3,0.3,2.6,0.7,3.7,1.1c1.2,0.4,2.2,0.9,3.2,1.5
					c0.9,0.5,1.8,1.1,2.4,1.8L741.5,82.1c1.4,1.3,2.2,2.7,2.4,4.1s-0.1,2.7-0.9,4c-0.8,1.3-2.2,2.4-4,3.4s-4.1,1.8-6.8,2.4l-77.7,17
					c-1.2,0.3-2.4,0.5-3.6,0.6c-1.2,0.1-2.4,0.2-3.6,0.3c-1.2,0-2.4,0-3.7,0c-1.2-0.1-2.4-0.2-3.6-0.3c-1.6-0.2-3.2-0.5-4.7-0.9
					s-2.9-0.8-4.2-1.4c-1.3-0.5-2.5-1.1-3.6-1.8c-1.1-0.7-2-1.4-2.7-2.2L493-30.7c-1.1-1.2-1.6-2.4-1.6-3.5c0-1.2,0.5-2.3,1.5-3.4
					s2.4-2.1,4.2-2.9c1.8-0.8,4.1-1.5,6.6-2l72.4-13.6c1.1-0.2,2.1-0.4,3.2-0.5c1.1-0.1,2.2-0.2,3.3-0.2s2.2,0,3.3,0
					C587.2-56.7,588.2-56.6,589.3-56.5L589.3-56.5z"/>
			</g>
			<g>
				
					<linearGradient id="SVGID_26_" gradientUnits="userSpaceOnUse" x1="1059.2611" y1="245.3595" x2="904.9067" y2="81.511" gradientTransform="matrix(-1 0 0 -1 1544.2816 200)">
					<stop  offset="0" style="stop-color:#B94A35"/>
					<stop  offset="0.2185" style="stop-color:#FF964F"/>
					<stop  offset="0.3572" style="stop-color:#FF945F"/>
					<stop  offset="0.512" style="stop-color:#FF9A69"/>
					<stop  offset="0.6972" style="stop-color:#FF8A50"/>
					<stop  offset="0.8977" style="stop-color:#F77E38"/>
					<stop  offset="0.996" style="stop-color:#F17124"/>
				</linearGradient>
				<path class="st29" d="M623.9,102.9c5.2,5,11.3,8.5,16.5,10.7c-0.1,0-0.1,0-0.2,0c-1.6-0.2-3.2-0.5-4.7-0.9s-2.9-0.8-4.2-1.4
					c-1.3-0.5-2.5-1.1-3.6-1.8c-1.1-0.7-2-1.4-2.7-2.2l-131.8-138c-1.1-1.2-1.6-2.4-1.6-3.5c0-0.6,0.1-1.2,0.4-1.8
					C515.4-9.9,613.2,92.5,623.9,102.9z"/>
			</g>
			<g>
				
					<linearGradient id="SVGID_27_" gradientUnits="userSpaceOnUse" x1="863.8696" y1="86.098" x2="900.6202" y2="306.6779" gradientTransform="matrix(-1 0 0 -1 1544.2816 200)">
					<stop  offset="0" style="stop-color:#FFBDB5"/>
					<stop  offset="0.3572" style="stop-color:#FF945F"/>
					<stop  offset="0.5246" style="stop-color:#FB813F"/>
					<stop  offset="0.7344" style="stop-color:#D85E42"/>
					<stop  offset="0.7915" style="stop-color:#B24239"/>
					<stop  offset="0.8858" style="stop-color:#6E042D"/>
				</linearGradient>
				<path class="st30" d="M740.1,84.1C732.7,76.8,600-52.2,600-52.2s-4.6-3.3-16.1-4.5c0.7,0,1.4,0,2.2,0c1.1,0.1,2.2,0.1,3.2,0.3
					c1.4,0.2,2.8,0.4,4.1,0.7c1.3,0.3,2.6,0.7,3.7,1.1c1.2,0.4,2.2,0.9,3.2,1.5c0.9,0.5,1.8,1.1,2.4,1.8L741.5,82.2
					c1.4,1.3,2.2,2.7,2.4,4.1s-0.1,2.7-0.9,4c-0.8,1.3-2.2,2.4-4,3.4c-1.2,0.7-2.6,1.2-4.1,1.7C739.7,92.5,744.3,88.3,740.1,84.1z"
					/>
			</g>
		</g>
		<g>
			<g>
				
					<linearGradient id="SVGID_28_" gradientUnits="userSpaceOnUse" x1="1087.6039" y1="-82.1626" x2="1217.9331" y2="68.0009" gradientTransform="matrix(-1 0 0 -1 1544.2816 200)">
					<stop  offset="0" style="stop-color:#F36C39"/>
					<stop  offset="0.4004" style="stop-color:#D85E42"/>
					<stop  offset="0.7862" style="stop-color:#B24239"/>
					<stop  offset="1" style="stop-color:#6E042D"/>
				</linearGradient>
				<path class="st31" d="M384.6,137.4c-1.3-0.2-12.8-3.2-14.2-3.1c-1.4,0-3.6,2.2-4.9,4.3c-0.8,1.2-1.6,2-2.4,5.5
					c0,0-96.6,18.1-96.7,19.4s0.4,2.6,1.5,3.8L408.6,316c0.8,0.8,1.7,1.6,2.8,2.2c1.1,0.7,2.4,1.3,3.7,1.8c1.4,0.5,2.9,1,4.4,1.4
					c1.6,0.4,3.3,0.7,5,0.9c1.5,0.2,3,0.3,4.5,0.4c1.5,0.1,3.1,0.1,4.7,0c1.6-0.1,3.1-0.2,4.7-0.4s3.1-0.5,4.6-0.8l93.2-20.6
					c3.2-0.7,6-1.7,8.2-2.8s3.9-2.5,5-3.9s1.6-2.9,1.5-4.4s-0.9-3-2.4-4.4l-149.8-143L384.6,137.4L384.6,137.4z"/>
			</g>
			<g>
				<g>
					
						<linearGradient id="SVGID_29_" gradientUnits="userSpaceOnUse" x1="1094.6956" y1="-71.37" x2="1244.9642" y2="101.7676" gradientTransform="matrix(-1 0 0 -1 1544.2816 200)">
						<stop  offset="0" style="stop-color:#FF9F63"/>
						<stop  offset="0.2185" style="stop-color:#F36C39"/>
						<stop  offset="0.5777" style="stop-color:#D85E42"/>
						<stop  offset="0.7862" style="stop-color:#B73F1D"/>
						<stop  offset="1" style="stop-color:#9F1229"/>
					</linearGradient>
					<path class="st32" d="M384.6,134.7c-1.3-0.2-97.2-48.1-98.6-48c-1.4,0-3.6,2.2-4.9,4.3c-0.8,1.2-1.6,2-2.4,5.5
						c0,0-12.3,63-12.4,64.3c-0.1,1.3,0.4,2.6,1.5,3.8l140.8,148.8c0.8,0.8,1.7,1.6,2.8,2.2c1.1,0.7,2.4,1.3,3.7,1.8
						c1.4,0.5,2.9,1,4.4,1.4c1.6,0.4,3.3,0.7,5,0.9c1.5,0.2,3,0.3,4.5,0.4c1.5,0.1,3.1,0.1,4.7,0c1.6-0.1,3.1-0.2,4.7-0.4
						s3.1-0.5,4.6-0.8l93.2-20.6c3.2-0.7,6-1.7,8.2-2.8s3.9-2.5,5-3.9s1.6-2.9,1.5-4.4s-0.9-3-2.4-4.5l-149.8-143L384.6,134.7
						L384.6,134.7z"/>
				</g>
				<g>
					
						<linearGradient id="SVGID_30_" gradientUnits="userSpaceOnUse" x1="1191.6405" y1="19.7088" x2="1172.9585" y2="36.5533" gradientTransform="matrix(-1 0 0 -1 1544.2816 200)">
						<stop  offset="0" style="stop-color:#6C0630"/>
						<stop  offset="0.2523" style="stop-color:#FFB7C9"/>
						<stop  offset="0.411" style="stop-color:#FFA586"/>
						<stop  offset="0.5345" style="stop-color:#D85E42"/>
						<stop  offset="0.9343" style="stop-color:#B24239"/>
						<stop  offset="1" style="stop-color:#6E042D"/>
					</linearGradient>
					<path class="st33" d="M283.5,100.8c-2.3-2-3.7-4-4.4-6.1c0.7-2.2,1.3-2.9,2-3.9c1.3-2,3.5-4.2,4.9-4.3c1.4,0,97.3,47.9,98.6,48
						l14.1,5.1l82.9,79.1l-40,11.4c0,0-20.2,13.2-22.2,13.2L283.5,100.8z"/>
				</g>
				
					<linearGradient id="SVGID_31_" gradientUnits="userSpaceOnUse" x1="1133.0245" y1="-59.7225" x2="1114.8022" y2="-61.56" gradientTransform="matrix(-1 0 0 -1 1544.2816 200)">
					<stop  offset="0" style="stop-color:#FF935A"/>
					<stop  offset="0.2191" style="stop-color:#F68166"/>
					<stop  offset="0.409" style="stop-color:#FF8D79"/>
					<stop  offset="0.5531" style="stop-color:#FFAEAA"/>
					<stop  offset="0.7145" style="stop-color:#FFA2A0"/>
					<stop  offset="1" style="stop-color:#EC8519"/>
				</linearGradient>
				<path class="st34" d="M416.5,234c3.3,3.9,3.3,7.9,2.2,14.3l-8.6,66.4c0.8,0.8,0.2,0.2,1.3,0.9s2.1,1.3,3.4,2.1
					c1.3,0.7,2.8,1.3,4.3,1.9c1.5,0.6,3.1,0.9,5,1.3c1.5,0.3,3.5,0,5.1,0.1c1.5,0.1,12.4-1.7,13.9-2l93.2-20.6
					c3.2-0.7,6-1.7,8.2-2.8s3.9-2.5,5-3.9s1.6-2.9,1.5-4.4s-0.5-3.1-0.9-4.9l-12.6-63c-0.5-1.8-1.1-4.8-3.4-7.2L416.5,234z"/>
				<g>
					<g>
						
							<linearGradient id="SVGID_32_" gradientUnits="userSpaceOnUse" x1="993.2691" y1="-65.066" x2="1118.9816" y2="-65.066" gradientTransform="matrix(-1 0 0 -1 1544.2816 200)">
							<stop  offset="0" style="stop-color:#FF935A"/>
							<stop  offset="0.2191" style="stop-color:#F68166"/>
							<stop  offset="0.409" style="stop-color:#FF8D79"/>
							<stop  offset="0.5531" style="stop-color:#FFAEAA"/>
							<stop  offset="0.7145" style="stop-color:#FFA2A0"/>
							<stop  offset="1" style="stop-color:#EC8519"/>
						</linearGradient>
						<path class="st35" d="M425.3,320.9c6.3,0.3,16.3-1.6,17.8-1.9l93.2-20.7c3.2-0.7,6-1.7,8.2-2.8c2.2-1.2,3.9-2.5,5-3.9
							s1.6-2.9,1.5-4.4s-0.5-3.1-0.9-4.9l-12.5-63c-0.5-1.8-1.9-7.4-4.1-10.1l-91.2,30.2c-7.8,0.4-14,1.5-14.5,7.5L425.3,320.9z"/>
					</g>
				</g>
				<g>
					<g>
						
							<linearGradient id="SVGID_33_" gradientUnits="userSpaceOnUse" x1="1000.1157" y1="-50.0458" x2="1118.3219" y2="-73.7286" gradientTransform="matrix(-1 0 0 -1 1544.2816 200)">
							<stop  offset="0" style="stop-color:#FFA69D"/>
							<stop  offset="2.656040e-002" style="stop-color:#FFBFF8"/>
							<stop  offset="4.714480e-002" style="stop-color:#FD8F78"/>
							<stop  offset="0.2191" style="stop-color:#F68166"/>
							<stop  offset="0.409" style="stop-color:#FF8D79"/>
							<stop  offset="0.5531" style="stop-color:#FFAEAA"/>
							<stop  offset="0.7145" style="stop-color:#FFA2A0"/>
							<stop  offset="1" style="stop-color:#EC8519"/>
						</linearGradient>
						<path class="st36" d="M527.1,219.3l-7.6-5.4l14-4.6c2.2,2.7,3.6,8.3,4.1,10.1l12.5,63c0.4,1.8,0.8,3.4,0.9,4.9s-0.4,3-1.5,4.4
							c-0.1,0.1-0.1,0.1-0.2,0.2c-2.4-12.4-13-66.5-14.4-70.1C533.2,217.6,527.1,219.3,527.1,219.3z"/>
					</g>
					
						<linearGradient id="SVGID_34_" gradientUnits="userSpaceOnUse" x1="991.1714" y1="-44.3579" x2="1290.1113" y2="137.5147" gradientTransform="matrix(-1 0 0 -1 1544.2816 200)">
						<stop  offset="0" style="stop-color:#FFC4A2"/>
						<stop  offset="0.2185" style="stop-color:#FF9E7B"/>
						<stop  offset="0.2835" style="stop-color:#FFB1B2"/>
						<stop  offset="0.3572" style="stop-color:#FFB693"/>
						<stop  offset="0.512" style="stop-color:#FFAE69"/>
						<stop  offset="0.6248" style="stop-color:#F97B4B"/>
						<stop  offset="0.6746" style="stop-color:#FA8539"/>
						<stop  offset="0.7344" style="stop-color:#D85E42"/>
						<stop  offset="0.7915" style="stop-color:#E86F4D"/>
						<stop  offset="0.8858" style="stop-color:#9E1128"/>
					</linearGradient>
					<path class="st37" d="M379.8,69.3c1.4,0.2,2.8,0.4,4.2,0.7c1.3,0.3,2.6,0.7,3.7,1.1c1.2,0.4,2.2,0.9,3.2,1.5
						c0.9,0.5,1.8,1.1,2.4,1.8l138.8,133.5c1.4,1.3,2.2,2.7,2.4,4.1c0.2,1.4-0.1,2.7-0.9,4s-2.2,2.4-4,3.4s-4.1,1.8-6.8,2.4
						l-77.7,17c-1.2,0.3-2.4,0.5-3.6,0.6s-2.4,0.2-3.7,0.3c-1.2,0-2.4,0-3.6,0c-1.2-0.1-2.4-0.2-3.6-0.3c-1.6-0.2-3.2-0.5-4.7-0.9
						s-2.9-0.8-4.2-1.4c-1.3-0.5-2.5-1.1-3.6-1.8s-2-1.4-2.7-2.2l-131.8-138c-1.1-1.2-1.6-2.4-1.6-3.5c0-1.2,0.5-2.3,1.5-3.4
						s2.4-2.1,4.2-2.9c1.8-0.8,4.1-1.5,6.6-2l72.4-13.6c1.1-0.2,2.1-0.4,3.2-0.5c1.1-0.1,2.2-0.2,3.3-0.2s2.2,0,3.3,0
						C377.7,69,378.8,69.1,379.8,69.3L379.8,69.3z"/>
				</g>
				<g>
					
						<linearGradient id="SVGID_35_" gradientUnits="userSpaceOnUse" x1="1268.7899" y1="119.5902" x2="1114.4351" y2="-44.2586" gradientTransform="matrix(-1 0 0 -1 1544.2816 200)">
						<stop  offset="0" style="stop-color:#B94A35"/>
						<stop  offset="0.2185" style="stop-color:#FF964F"/>
						<stop  offset="0.3572" style="stop-color:#FF945F"/>
						<stop  offset="0.512" style="stop-color:#FF9A69"/>
						<stop  offset="0.6972" style="stop-color:#FF8A50"/>
						<stop  offset="0.8977" style="stop-color:#F77E38"/>
						<stop  offset="0.996" style="stop-color:#F17124"/>
					</linearGradient>
					<path class="st38" d="M414.4,228.6c5.2,5,11.3,8.5,16.5,10.8c-0.1,0-0.1,0-0.2,0c-1.6-0.2-3.2-0.5-4.7-0.9s-2.9-0.8-4.2-1.4
						c-1.3-0.5-2.5-1.1-3.6-1.8c-1.1-0.7-2-1.4-2.7-2.2l-131.8-138c-1.1-1.2-1.6-2.4-1.6-3.5c0-0.6,0.1-1.2,0.4-1.8
						C305.9,115.8,403.7,218.2,414.4,228.6z"/>
				</g>
				<g>
					
						<linearGradient id="SVGID_36_" gradientUnits="userSpaceOnUse" x1="1073.3171" y1="-39.6167" x2="1110.068" y2="180.9642" gradientTransform="matrix(-1 0 0 -1 1544.2816 200)">
						<stop  offset="0" style="stop-color:#FFBDB5"/>
						<stop  offset="0.3572" style="stop-color:#FF945F"/>
						<stop  offset="0.5246" style="stop-color:#FB813F"/>
						<stop  offset="0.7344" style="stop-color:#D85E42"/>
						<stop  offset="0.7915" style="stop-color:#B24239"/>
						<stop  offset="0.8858" style="stop-color:#6E042D"/>
					</linearGradient>
					<path class="st39" d="M530.6,209.9c-7.4-7.4-140.1-136.4-140.1-136.4s-4.6-3.3-16.1-4.5c0.7,0,1.4,0,2.2,0
						c1.1,0,2.2,0.1,3.2,0.3c1.4,0.2,2.8,0.4,4.2,0.7c1.3,0.3,2.6,0.7,3.7,1.1c1.2,0.4,2.2,0.9,3.2,1.5c0.9,0.5,1.8,1.1,2.4,1.8
						l138.8,133.5c1.4,1.3,2.2,2.7,2.4,4.1c0.2,1.4-0.1,2.7-0.9,4s-2.2,2.4-4,3.4c-1.2,0.7-2.6,1.2-4.2,1.7
						C530.2,218.3,534.8,214.1,530.6,209.9z"/>
				</g>
			</g>
			<g class="st0">
				
					<linearGradient id="SVGID_37_" gradientUnits="userSpaceOnUse" x1="1141.1188" y1="-10.5772" x2="1138.3978" y2="107.7812" gradientTransform="matrix(-1 0 0 -1 1544.2816 200)">
					<stop  offset="0" style="stop-color:#FF9F63"/>
					<stop  offset="0.2185" style="stop-color:#F36C39"/>
					<stop  offset="0.3572" style="stop-color:#FF976A"/>
					<stop  offset="0.512" style="stop-color:#FFAE69"/>
					<stop  offset="0.6248" style="stop-color:#F97B4B"/>
					<stop  offset="0.7344" style="stop-color:#D85E42"/>
					<stop  offset="0.7915" style="stop-color:#B24239"/>
					<stop  offset="0.8858" style="stop-color:#6E042D"/>
				</linearGradient>
				<path class="st40" d="M398.3,107.7c0.2,0,0.3-0.1,0.5-0.1c3-0.5,5.7-0.6,8.2-0.4s4.7,0.7,6.7,1.5s3.6,1.8,4.7,3s1.6,2.3,1.4,3.4
					s-0.9,2.1-2.3,2.9c-1.4,0.8-3.2,1.4-5.6,1.8c-0.1,0-0.2,0-0.3,0c-1.6,0.3-3.4,0.5-5.4,0.6s-3.8,0.1-5.5,0.1
					c-0.4-0.7-0.9-1.3-1.4-1.8s-1-1-1.6-1.4l-1.5-0.2l-0.4-0.4c0.8-0.1,1.7-0.2,2.7-0.4c0.3,0,0.5-0.1,0.9-0.1
					c1.1-0.2,2.6-0.5,4.5-0.8l0.5,0.5l-1.8,0.4c-1,0.2-1.5,0.3-1.6,0.4s-0.1,0.1,0,0.2s0.4,0.5,1.1,1.2c0.5,0.5,1,1,1.5,1.5
					c2.4,0.1,4.4,0,6.2-0.3c0.1,0,0.2,0,0.2,0c3.2-0.6,5.1-1.6,5.9-3.1c0.6-1.3,0.2-2.7-1.2-4.3c-1.5-1.6-3.6-2.7-6.3-3.4
					c-2.5-0.6-5.3-0.7-8.4-0.2c-0.1,0-0.2,0-0.3,0.1c-1.6,0.3-3,0.7-4,1.1c-1.1,0.5-1.8,0.9-1.9,1.1c-0.1,0.1,0.1,0.5,0.7,1l0.5,0.6
					l-1,0.2c-1.2-1-2.2-1.8-3-2.4l1.2-0.4c1.4-0.5,2.6-0.9,3.6-1.2C396.4,108,397.3,107.8,398.3,107.7L398.3,107.7z"/>
				
					<linearGradient id="SVGID_38_" gradientUnits="userSpaceOnUse" x1="1165.6281" y1="-10.0287" x2="1162.9067" y2="108.3457" gradientTransform="matrix(-1 0 0 -1 1544.2816 200)">
					<stop  offset="0" style="stop-color:#FF9F63"/>
					<stop  offset="0.2185" style="stop-color:#F36C39"/>
					<stop  offset="0.3572" style="stop-color:#FF976A"/>
					<stop  offset="0.512" style="stop-color:#FFAE69"/>
					<stop  offset="0.6248" style="stop-color:#F97B4B"/>
					<stop  offset="0.7344" style="stop-color:#D85E42"/>
					<stop  offset="0.7915" style="stop-color:#B24239"/>
					<stop  offset="0.8858" style="stop-color:#6E042D"/>
				</linearGradient>
				<path class="st41" d="M385.8,123.1c-0.1,0-0.1,0-0.2,0c-1.6,0.3-3.3,0.3-4.9,0.1c-1.6-0.2-3.1-0.6-4.6-1.3
					c-1.5-0.7-2.7-1.6-3.8-2.7c-1.1-1.2-1.7-2.3-1.7-3.3s0.5-1.8,1.4-2.4s2.3-1.1,4-1.4c0.1,0,0.1,0,0.2,0c1.7-0.3,3.3-0.3,4.9-0.2
					c1.6,0.2,3.1,0.6,4.5,1.2c1.4,0.6,2.5,1.4,3.4,2.4c1.2,1.3,1.8,2.5,1.9,3.5c0.1,1.1-0.4,2-1.3,2.7
					C388.8,122.4,387.5,122.9,385.8,123.1L385.8,123.1z M374.4,111.6c-3.5,0.6-5.8,1.6-6.8,2.9c-1.1,1.4-0.8,3,0.8,4.7
					c1.8,1.9,4.5,3.3,8.1,4.1c3.6,0.9,7.3,1,11,0.4c0.1,0,0.2,0,0.2,0c2.2-0.4,3.9-0.9,5-1.7c1.2-0.8,1.8-1.7,1.9-2.8
					c0.1-1.1-0.5-2.3-1.6-3.5c-1.7-1.9-4.3-3.2-7.6-3.9c-3.3-0.8-6.9-0.8-10.6-0.2C374.7,111.5,374.5,111.6,374.4,111.6L374.4,111.6
					z"/>
				
					<linearGradient id="SVGID_39_" gradientUnits="userSpaceOnUse" x1="1184.7054" y1="-9.5878" x2="1181.9843" y2="108.7885" gradientTransform="matrix(-1 0 0 -1 1544.2816 200)">
					<stop  offset="0" style="stop-color:#FF9F63"/>
					<stop  offset="0.2185" style="stop-color:#F36C39"/>
					<stop  offset="0.3572" style="stop-color:#FF976A"/>
					<stop  offset="0.512" style="stop-color:#FFAE69"/>
					<stop  offset="0.6248" style="stop-color:#F97B4B"/>
					<stop  offset="0.7344" style="stop-color:#D85E42"/>
					<stop  offset="0.7915" style="stop-color:#B24239"/>
					<stop  offset="0.8858" style="stop-color:#6E042D"/>
				</linearGradient>
				<path class="st42" d="M352,115.4c1.9-0.3,3.5-0.5,4.6-0.7c0.3,0,0.7-0.1,1.2-0.2c0.9-0.2,2.2-0.4,3.8-0.7l0.5,0.5l-1.7,0.3
					c0,0,0,0-0.1,0c-0.7,0.1-1,0.3-1,0.5s0.8,1.2,2.4,2.9l4.4,4.6c1.5,1.6,2.4,2.4,2.8,2.6s1.1,0.3,2.1,0.4l0.4,0.5
					c-2.2,0.3-3.8,0.5-4.9,0.7l-7.5,1.3c-1.7,0.3-3,0.4-4,0.5c-1-0.9-2.2-1.9-3.4-2.9l1.1-0.2l2.8,1.8c0.9,0,1.8-0.1,2.7-0.2
					c1.2-0.1,2.8-0.4,4.8-0.7c0.4-0.1,0.7-0.1,1.1-0.2c0.6-0.1,1.3-0.2,2-0.4l-0.5-0.5l-2.2-2.4l-5.1-5.4c-1.2-1.3-1.9-2-2.2-2.1
					c-0.3-0.2-0.7-0.2-1.3-0.1l-2,0.3L352,115.4L352,115.4z"/>
				
					<linearGradient id="SVGID_40_" gradientUnits="userSpaceOnUse" x1="1209.3287" y1="-9.0054" x2="1206.608" y2="109.3459" gradientTransform="matrix(-1 0 0 -1 1544.2816 200)">
					<stop  offset="0" style="stop-color:#FF9F63"/>
					<stop  offset="0.2185" style="stop-color:#F36C39"/>
					<stop  offset="0.3572" style="stop-color:#FF976A"/>
					<stop  offset="0.512" style="stop-color:#FFAE69"/>
					<stop  offset="0.6248" style="stop-color:#F97B4B"/>
					<stop  offset="0.7344" style="stop-color:#D85E42"/>
					<stop  offset="0.7915" style="stop-color:#B24239"/>
					<stop  offset="0.8858" style="stop-color:#6E042D"/>
				</linearGradient>
				<path class="st43" d="M342.6,130c-0.1,0-0.2,0-0.3,0.1c-3,0.5-5.7,0.5-8.1-0.1c-2.9-0.7-5.3-1.9-7-3.8c-1.5-1.6-1.9-3-1-4.2
					c0.8-1.1,2.8-1.9,5.8-2.4c0.1,0,0.2,0,0.3,0c1.1-0.2,2.5-0.3,4.2-0.5c0.6,0.5,1.3,1.1,1.9,1.8l5.2,5.5c1,1,1.8,2,2.5,2.9
					C344.7,129.6,343.6,129.9,342.6,130L342.6,130z M329.7,119.1c-1.2,0.2-2.4,0.5-3.5,0.8c-1.3,0.4-2.4,0.9-3.1,1.6
					c-0.8,0.7-1.1,1.4-1.1,2.2c0,0.8,0.5,1.7,1.4,2.6c1.8,1.9,4.5,3.3,8.1,4.1c3.6,0.8,7.4,1,11.3,0.3l1.9-0.3
					c1.9-0.4,3.1-0.6,3.6-0.7c0.9-0.1,2-0.3,3.4-0.4l-0.4-0.4l-1.9-0.2c-1-0.8-2.5-2.4-4.6-4.5l-2.3-2.5c-0.9-1-1.7-1.9-2.2-2.6
					c-0.3-0.4-0.4-0.7-0.4-0.8c0.1-0.1,0.4-0.2,1.1-0.4l1.2-0.3l-0.5-0.5c-1.3,0.2-2.2,0.4-2.9,0.5c-0.2,0-0.4,0.1-0.6,0.1l-4.3,0.7
					l-3.5,0.5C330.1,119,329.9,119.1,329.7,119.1L329.7,119.1z"/>
			</g>
			<g class="st0">
				
					<linearGradient id="SVGID_41_" gradientUnits="userSpaceOnUse" x1="1124.5735" y1="85.5983" x2="1153.5791" y2="85.5983" gradientTransform="matrix(-1 0 0 -1 1544.2816 200)">
					<stop  offset="0" style="stop-color:#FF9F63"/>
					<stop  offset="0.2185" style="stop-color:#FF9E3B"/>
					<stop  offset="0.3572" style="stop-color:#FF976A"/>
					<stop  offset="0.7112" style="stop-color:#FFAE69"/>
					<stop  offset="0.994" style="stop-color:#F97B4B"/>
				</linearGradient>
				<path class="st44" d="M398.2,108.3c0.2,0,0.3-0.1,0.5-0.1c3-0.5,5.7-0.6,8.2-0.4s4.7,0.7,6.7,1.5s3.6,1.8,4.7,3
					c1.1,1.2,1.6,2.3,1.4,3.4c-0.2,1.1-0.9,2.1-2.3,2.9c-1.4,0.8-3.2,1.4-5.6,1.8c-0.1,0-0.2,0-0.3,0c-1.6,0.3-3.4,0.5-5.4,0.6
					s-3.8,0.1-5.5,0.1c-0.4-0.7-0.9-1.3-1.4-1.8s-1-1-1.6-1.4l-1.5-0.2l-0.4-0.4c0.8-0.1,1.7-0.2,2.7-0.4c0.3,0,0.5-0.1,0.9-0.1
					c1.1-0.2,2.6-0.5,4.5-0.8l0.5,0.5l-1.8,0.4c-1,0.2-1.5,0.3-1.6,0.4c-0.1,0-0.1,0.1,0,0.2s0.4,0.5,1.1,1.2c0.5,0.5,1,1,1.5,1.5
					c2.4,0.1,4.4,0,6.2-0.3c0.1,0,0.2,0,0.2,0c3.2-0.6,5.1-1.6,5.9-3.1c0.6-1.3,0.2-2.7-1.2-4.3c-1.5-1.6-3.6-2.7-6.3-3.4
					c-2.5-0.6-5.3-0.7-8.5-0.2c-0.1,0-0.2,0-0.3,0.1c-1.6,0.3-3,0.7-4,1.1c-1.1,0.5-1.7,0.9-1.9,1.1c-0.1,0.1,0.1,0.5,0.7,1l0.5,0.6
					l-1,0.2c-1.2-1-2.2-1.8-3-2.4l1.2-0.4c1.4-0.5,2.6-0.9,3.6-1.2C396.3,108.7,397.2,108.5,398.2,108.3L398.2,108.3z"/>
				
					<linearGradient id="SVGID_42_" gradientUnits="userSpaceOnUse" x1="1149.7709" y1="81.6748" x2="1177.436" y2="81.6748" gradientTransform="matrix(-1 0 0 -1 1544.2816 200)">
					<stop  offset="0" style="stop-color:#FF9F63"/>
					<stop  offset="0.2185" style="stop-color:#FF9E3B"/>
					<stop  offset="0.3572" style="stop-color:#FF976A"/>
					<stop  offset="0.7112" style="stop-color:#FFAE69"/>
					<stop  offset="0.994" style="stop-color:#F97B4B"/>
				</linearGradient>
				<path class="st45" d="M385.7,123.8c-0.1,0-0.1,0-0.2,0c-1.7,0.3-3.3,0.3-4.9,0.1c-1.6-0.2-3.1-0.6-4.6-1.3
					c-1.5-0.7-2.7-1.6-3.8-2.7c-1.1-1.2-1.7-2.3-1.7-3.3s0.5-1.8,1.4-2.4s2.3-1.1,4-1.4c0.1,0,0.1,0,0.2,0c1.7-0.3,3.3-0.3,4.9-0.2
					c1.6,0.2,3.1,0.6,4.5,1.2c1.4,0.6,2.5,1.4,3.4,2.4c1.2,1.3,1.8,2.5,1.9,3.5c0.1,1.1-0.4,2-1.3,2.7
					C388.6,123,387.3,123.5,385.7,123.8L385.7,123.8z M374.3,112.3c-3.5,0.6-5.8,1.6-6.8,2.9c-1.1,1.4-0.8,3,0.8,4.7
					c1.8,1.9,4.5,3.3,8.1,4.1c3.6,0.9,7.3,1,11,0.4c0.1,0,0.2,0,0.2,0c2.2-0.4,3.9-0.9,5-1.7c1.2-0.8,1.8-1.7,1.9-2.8
					c0.1-1.1-0.5-2.3-1.6-3.5c-1.7-1.9-4.3-3.2-7.6-3.9c-3.3-0.8-6.9-0.8-10.6-0.2C374.5,112.2,374.4,112.2,374.3,112.3L374.3,112.3
					z"/>
				
					<linearGradient id="SVGID_43_" gradientUnits="userSpaceOnUse" x1="1173.05" y1="78.15" x2="1192.921" y2="78.15" gradientTransform="matrix(-1 0 0 -1 1544.2816 200)">
					<stop  offset="0" style="stop-color:#FF9F63"/>
					<stop  offset="0.2185" style="stop-color:#FF9E3B"/>
					<stop  offset="0.3572" style="stop-color:#FF976A"/>
					<stop  offset="0.7112" style="stop-color:#FFAE69"/>
					<stop  offset="0.994" style="stop-color:#F97B4B"/>
				</linearGradient>
				<path class="st46" d="M351.9,116.1c1.9-0.3,3.5-0.5,4.6-0.7c0.3,0,0.7-0.1,1.2-0.2c0.9-0.2,2.2-0.4,3.8-0.7l0.5,0.5l-1.7,0.3
					c0,0,0,0-0.1,0c-0.7,0.1-1,0.3-1,0.5s0.8,1.2,2.4,2.9l4.4,4.6c1.5,1.6,2.4,2.4,2.7,2.6c0.4,0.2,1.1,0.3,2.1,0.4l0.4,0.4
					c-2.2,0.3-3.8,0.5-4.9,0.7l-7.5,1.3c-1.7,0.3-3,0.4-4,0.5c-1-0.9-2.2-1.9-3.4-2.9l1.1-0.2l2.8,1.8c0.9,0,1.8-0.1,2.7-0.2
					c1.2-0.1,2.8-0.4,4.8-0.7c0.4-0.1,0.7-0.1,1.1-0.2c0.6-0.1,1.3-0.2,2-0.4l-0.5-0.5l-2.2-2.4l-5-5.4c-1.2-1.3-1.9-2-2.3-2.1
					c-0.3-0.1-0.7-0.2-1.3-0.1l-2,0.3L351.9,116.1L351.9,116.1z"/>
				
					<linearGradient id="SVGID_44_" gradientUnits="userSpaceOnUse" x1="1192.7319" y1="75.186" x2="1222.3835" y2="75.186" gradientTransform="matrix(-1 0 0 -1 1544.2816 200)">
					<stop  offset="0" style="stop-color:#FF9F63"/>
					<stop  offset="0.2185" style="stop-color:#FF9E3B"/>
					<stop  offset="0.3572" style="stop-color:#FF976A"/>
					<stop  offset="0.7112" style="stop-color:#FFAE69"/>
					<stop  offset="0.994" style="stop-color:#F97B4B"/>
				</linearGradient>
				<path class="st47" d="M342.4,130.7c-0.1,0-0.2,0-0.3,0.1c-3,0.5-5.7,0.5-8.1-0.1c-2.9-0.7-5.3-1.9-7-3.8c-1.5-1.6-1.9-3-1-4.2
					c0.8-1.1,2.8-1.9,5.8-2.4c0.1,0,0.2,0,0.3,0c1.1-0.2,2.5-0.3,4.1-0.5c0.6,0.5,1.3,1.1,1.9,1.8l5.2,5.5c1,1,1.8,2,2.5,2.9
					C344.6,130.3,343.5,130.5,342.4,130.7L342.4,130.7z M329.6,119.8c-1.2,0.2-2.4,0.5-3.5,0.8c-1.3,0.4-2.4,0.9-3.1,1.6
					c-0.8,0.7-1.1,1.4-1.1,2.2c0,0.8,0.5,1.7,1.4,2.6c1.8,1.9,4.5,3.3,8.1,4.1c3.6,0.8,7.4,1,11.3,0.3l1.9-0.3
					c1.9-0.4,3.1-0.6,3.6-0.7c0.9-0.1,2-0.3,3.4-0.4l-0.4-0.4l-1.9-0.2c-1-0.8-2.5-2.4-4.6-4.5l-2.3-2.5c-0.9-1-1.7-1.9-2.2-2.6
					c-0.3-0.4-0.5-0.7-0.4-0.8c0.1-0.1,0.4-0.2,1.1-0.4l1.2-0.3l-0.5-0.5c-1.3,0.2-2.2,0.4-2.9,0.5c-0.2,0-0.4,0.1-0.6,0.1l-4.3,0.7
					l-3.5,0.5C330,119.7,329.8,119.7,329.6,119.8L329.6,119.8z"/>
			</g>
		</g>
		<g>
			<g>
				<g>
					
						<linearGradient id="SVGID_45_" gradientUnits="userSpaceOnUse" x1="1027.3192" y1="22.4996" x2="1177.5874" y2="195.6367" gradientTransform="matrix(-1 0 0 -1 1544.2816 200)">
						<stop  offset="0" style="stop-color:#FF9F63"/>
						<stop  offset="0.2185" style="stop-color:#F36C39"/>
						<stop  offset="0.5777" style="stop-color:#D85E42"/>
						<stop  offset="0.7862" style="stop-color:#B73F1D"/>
						<stop  offset="1" style="stop-color:#9F1229"/>
					</linearGradient>
					<path class="st48" d="M451.9,40.8c-1.3-0.2-97.2-48.1-98.6-48c-1.4,0-3.6,2.2-4.9,4.3c-0.8,1.2-1.6,2-2.4,5.5
						c0,0-12.3,63-12.4,64.3c-0.1,1.3,0.4,2.6,1.5,3.8L476,219.5c0.8,0.8,1.7,1.6,2.8,2.2c1.1,0.7,2.3,1.3,3.7,1.8
						c1.4,0.5,2.9,1,4.4,1.4c1.6,0.4,3.3,0.7,5,0.9c1.5,0.2,3,0.3,4.5,0.4c1.5,0.1,3.1,0.1,4.7,0s3.1-0.2,4.7-0.4s3.1-0.5,4.6-0.8
						l93.2-20.6c3.2-0.7,6-1.7,8.2-2.8c2.2-1.1,3.9-2.5,5-3.9s1.6-2.9,1.5-4.4s-0.9-3-2.4-4.5l-149.8-143L451.9,40.8L451.9,40.8z"/>
				</g>
				<g>
					
						<linearGradient id="SVGID_46_" gradientUnits="userSpaceOnUse" x1="1124.1925" y1="113.5018" x2="1105.5111" y2="130.3458" gradientTransform="matrix(-1 0 0 -1 1544.2816 200)">
						<stop  offset="0" style="stop-color:#6C0630"/>
						<stop  offset="0.2523" style="stop-color:#FFB7C9"/>
						<stop  offset="0.411" style="stop-color:#FFA586"/>
						<stop  offset="0.5345" style="stop-color:#D85E42"/>
						<stop  offset="0.9343" style="stop-color:#B24239"/>
						<stop  offset="1" style="stop-color:#6E042D"/>
					</linearGradient>
					<path class="st49" d="M350.9,7c-2.3-2-3.7-4-4.4-6.1c0.7-2.2,1.4-2.9,2-3.9c1.3-2,3.5-4.2,4.9-4.3c1.4,0,97.3,47.9,98.6,48
						l14.1,5.1L549,125l-40,11.4c0,0-20.2,13.2-22.2,13.2L350.9,7z"/>
				</g>
				
					<linearGradient id="SVGID_47_" gradientUnits="userSpaceOnUse" x1="1065.6498" y1="34.1685" x2="1047.4269" y2="32.3309" gradientTransform="matrix(-1 0 0 -1 1544.2816 200)">
					<stop  offset="0" style="stop-color:#FF935A"/>
					<stop  offset="0.2191" style="stop-color:#F68166"/>
					<stop  offset="0.409" style="stop-color:#FF8D79"/>
					<stop  offset="0.5531" style="stop-color:#FFAEAA"/>
					<stop  offset="0.7145" style="stop-color:#FFA2A0"/>
					<stop  offset="1" style="stop-color:#EC8519"/>
				</linearGradient>
				<path class="st50" d="M483.8,140.1c3.3,3.9,3.3,7.9,2.2,14.3l-8.6,66.4c0.8,0.8,0.2,0.2,1.3,0.9c1.1,0.7,2.1,1.3,3.4,2.1
					c1.3,0.7,2.8,1.3,4.3,1.9c1.5,0.6,3.1,0.9,5,1.3c1.4,0.3,3.5,0,5.1,0.1c1.5,0.1,12.4-1.7,13.9-2l93.2-20.6
					c3.2-0.7,6-1.7,8.2-2.8c2.2-1.1,3.9-2.5,5-3.9s1.6-2.9,1.5-4.4s-0.5-3.1-0.9-4.9l-12.6-63c-0.5-1.8-1.1-4.8-3.4-7.2L483.8,140.1
					z"/>
				<g>
					<g>
						
							<linearGradient id="SVGID_48_" gradientUnits="userSpaceOnUse" x1="925.8691" y1="28.734" x2="1051.5815" y2="28.734" gradientTransform="matrix(-1 0 0 -1 1544.2816 200)">
							<stop  offset="0" style="stop-color:#FF935A"/>
							<stop  offset="0.2191" style="stop-color:#F68166"/>
							<stop  offset="0.409" style="stop-color:#FF8D79"/>
							<stop  offset="0.5531" style="stop-color:#FFAEAA"/>
							<stop  offset="0.7145" style="stop-color:#FFA2A0"/>
							<stop  offset="1" style="stop-color:#EC8519"/>
						</linearGradient>
						<path class="st51" d="M492.7,227.1c6.3,0.3,16.3-1.6,17.8-1.9l93.2-20.7c3.2-0.7,6-1.7,8.2-2.8c2.2-1.1,3.9-2.5,5-3.9
							s1.6-2.9,1.5-4.4s-0.5-3.1-0.9-4.9l-12.5-63c-0.5-1.8-1.9-7.4-4.1-10.1l-91.2,30.2c-7.8,0.4-14,1.5-14.5,7.5L492.7,227.1z"/>
					</g>
				</g>
				<g>
					<g>
						
							<linearGradient id="SVGID_49_" gradientUnits="userSpaceOnUse" x1="932.7453" y1="43.8683" x2="1050.9757" y2="20.1807" gradientTransform="matrix(-1 0 0 -1 1544.2816 200)">
							<stop  offset="0" style="stop-color:#FFA69D"/>
							<stop  offset="2.656040e-002" style="stop-color:#FFBFF8"/>
							<stop  offset="4.714480e-002" style="stop-color:#FD8F78"/>
							<stop  offset="0.2191" style="stop-color:#F68166"/>
							<stop  offset="0.409" style="stop-color:#FF8D79"/>
							<stop  offset="0.5531" style="stop-color:#FFAEAA"/>
							<stop  offset="0.7145" style="stop-color:#FFA2A0"/>
							<stop  offset="1" style="stop-color:#EC8519"/>
						</linearGradient>
						<path class="st52" d="M594.5,125.4l-7.7-5.4l14-4.6c2.2,2.7,3.6,8.3,4.1,10.1l12.5,63c0.4,1.8,0.8,3.4,0.9,4.9s-0.4,3-1.5,4.4
							c-0.1,0.1-0.1,0.1-0.2,0.2c-2.4-12.4-13-66.5-14.4-70.1C600.6,123.8,594.5,125.4,594.5,125.4z"/>
					</g>
					
						<linearGradient id="SVGID_50_" gradientUnits="userSpaceOnUse" x1="930.327" y1="53.5608" x2="1229.2673" y2="235.4337" gradientTransform="matrix(-1 0 0 -1 1544.2816 200)">
						<stop  offset="0" style="stop-color:#FFC4A2"/>
						<stop  offset="0.2185" style="stop-color:#FF9E7B"/>
						<stop  offset="0.2835" style="stop-color:#FFB1B2"/>
						<stop  offset="0.3572" style="stop-color:#FFB693"/>
						<stop  offset="0.512" style="stop-color:#FFAE69"/>
						<stop  offset="0.6248" style="stop-color:#F97B4B"/>
						<stop  offset="0.6746" style="stop-color:#FA8539"/>
						<stop  offset="0.7344" style="stop-color:#D85E42"/>
						<stop  offset="0.7915" style="stop-color:#E86F4D"/>
						<stop  offset="0.8858" style="stop-color:#9E1128"/>
					</linearGradient>
					<path class="st53" d="M447.2-24.6c1.4,0.2,2.8,0.4,4.2,0.7c1.3,0.3,2.6,0.7,3.7,1.1c1.2,0.4,2.2,0.9,3.2,1.5
						c0.9,0.5,1.8,1.1,2.4,1.8L599.6,114c1.4,1.3,2.2,2.7,2.4,4.1c0.2,1.4-0.1,2.7-0.9,4c-0.8,1.3-2.2,2.4-4,3.4
						c-1.8,1-4.1,1.8-6.8,2.4l-77.7,17c-1.2,0.3-2.4,0.5-3.6,0.6s-2.4,0.2-3.6,0.3c-1.2,0-2.4,0-3.7,0c-1.2-0.1-2.4-0.2-3.6-0.3
						c-1.6-0.2-3.2-0.5-4.7-0.9s-2.9-0.8-4.2-1.4c-1.3-0.5-2.5-1.1-3.6-1.8c-1.1-0.7-2-1.4-2.7-2.2L351.1,1.2
						c-1.1-1.2-1.6-2.4-1.6-3.5c0-1.2,0.5-2.3,1.5-3.4s2.4-2.1,4.2-2.9s4.1-1.5,6.6-2l72.4-13.6c1.1-0.2,2.1-0.4,3.2-0.5
						c1.1-0.1,2.2-0.2,3.3-0.2s2.2,0,3.3,0C445.1-24.8,446.1-24.7,447.2-24.6L447.2-24.6z"/>
				</g>
				<g>
					
						<linearGradient id="SVGID_51_" gradientUnits="userSpaceOnUse" x1="1201.4343" y1="213.4373" x2="1047.0809" y2="49.5899" gradientTransform="matrix(-1 0 0 -1 1544.2816 200)">
						<stop  offset="0" style="stop-color:#B94A35"/>
						<stop  offset="0.2185" style="stop-color:#FF964F"/>
						<stop  offset="0.3572" style="stop-color:#FF945F"/>
						<stop  offset="0.512" style="stop-color:#FF9A69"/>
						<stop  offset="0.6972" style="stop-color:#FF8A50"/>
						<stop  offset="0.8977" style="stop-color:#F77E38"/>
						<stop  offset="0.996" style="stop-color:#F17124"/>
					</linearGradient>
					<path class="st54" d="M481.8,134.8c5.2,5.1,11.3,8.5,16.5,10.8c-0.1,0-0.1,0-0.2,0c-1.6-0.2-3.2-0.5-4.7-0.9s-2.9-0.8-4.2-1.4
						c-1.3-0.5-2.5-1.1-3.6-1.8c-1.1-0.7-2-1.4-2.7-2.2L351.1,1.3c-1.1-1.2-1.6-2.4-1.6-3.5c0-0.6,0.1-1.2,0.4-1.8
						C373.3,22,471.1,124.4,481.8,134.8z"/>
				</g>
				<g>
					
						<linearGradient id="SVGID_52_" gradientUnits="userSpaceOnUse" x1="1005.8641" y1="54.2645" x2="1042.6146" y2="274.8443" gradientTransform="matrix(-1 0 0 -1 1544.2816 200)">
						<stop  offset="0" style="stop-color:#FFBDB5"/>
						<stop  offset="0.3572" style="stop-color:#FF945F"/>
						<stop  offset="0.5246" style="stop-color:#FB813F"/>
						<stop  offset="0.7344" style="stop-color:#D85E42"/>
						<stop  offset="0.7915" style="stop-color:#B24239"/>
						<stop  offset="0.8858" style="stop-color:#6E042D"/>
					</linearGradient>
					<path class="st55" d="M598,116c-7.4-7.4-140.1-136.4-140.1-136.4s-4.6-3.3-16.1-4.5c0.7,0,1.4,0,2.2,0c1.1,0.1,2.2,0.1,3.2,0.3
						c1.4,0.2,2.8,0.4,4.2,0.7c1.3,0.3,2.6,0.7,3.7,1.1c1.2,0.4,2.2,0.9,3.2,1.5c0.9,0.5,1.8,1.1,2.4,1.8L599.6,114
						c1.4,1.3,2.2,2.7,2.4,4.1c0.2,1.4-0.1,2.7-0.9,4c-0.8,1.3-2.2,2.4-4,3.4c-1.2,0.7-2.6,1.2-4.1,1.7
						C597.6,124.4,602.2,120.2,598,116z"/>
				</g>
			</g>
			<g class="st0">
				
					<linearGradient id="SVGID_53_" gradientUnits="userSpaceOnUse" x1="1076.0205" y1="84.9384" x2="1073.2998" y2="203.2968" gradientTransform="matrix(-1 0 0 -1 1544.2816 200)">
					<stop  offset="0" style="stop-color:#FF9F63"/>
					<stop  offset="0.2185" style="stop-color:#F36C39"/>
					<stop  offset="0.3572" style="stop-color:#FF976A"/>
					<stop  offset="0.512" style="stop-color:#FFAE69"/>
					<stop  offset="0.6248" style="stop-color:#F97B4B"/>
					<stop  offset="0.7344" style="stop-color:#D85E42"/>
					<stop  offset="0.7915" style="stop-color:#B24239"/>
					<stop  offset="0.8858" style="stop-color:#6E042D"/>
				</linearGradient>
				<path class="st56" d="M463.5,12.1c0.2,0,0.3-0.1,0.5-0.1c3-0.5,5.7-0.6,8.2-0.4c2.4,0.2,4.7,0.7,6.7,1.5s3.6,1.8,4.7,3
					s1.6,2.3,1.4,3.4s-0.9,2.1-2.4,2.9c-1.4,0.8-3.2,1.4-5.6,1.8c-0.1,0-0.2,0-0.3,0c-1.6,0.3-3.4,0.5-5.4,0.6s-3.8,0.1-5.5,0.1
					c-0.4-0.7-0.9-1.3-1.4-1.8s-1-1-1.6-1.4l-1.5-0.2l-0.4-0.4c0.8-0.1,1.7-0.2,2.7-0.4c0.3,0,0.5-0.1,0.9-0.1
					c1.1-0.2,2.6-0.5,4.5-0.8l0.5,0.5l-1.8,0.4c-1,0.2-1.5,0.3-1.6,0.4c-0.1,0-0.1,0.1,0,0.2s0.4,0.5,1.1,1.2c0.5,0.5,1,1,1.5,1.5
					c2.4,0.1,4.4,0,6.2-0.3c0.1,0,0.2,0,0.2,0c3.2-0.6,5.1-1.6,5.8-3.1c0.6-1.3,0.3-2.7-1.2-4.3c-1.5-1.6-3.6-2.7-6.3-3.4
					c-2.5-0.6-5.3-0.7-8.4-0.2c-0.1,0-0.2,0-0.3,0.1c-1.6,0.3-3,0.7-4,1.1c-1.1,0.5-1.7,0.9-1.9,1.1c-0.1,0.1,0.1,0.5,0.7,1l0.5,0.6
					l-1,0.2c-1.2-1-2.2-1.8-3-2.4l1.2-0.4c1.4-0.5,2.6-0.9,3.6-1.2C461.6,12.5,462.5,12.3,463.5,12.1L463.5,12.1z"/>
				
					<linearGradient id="SVGID_54_" gradientUnits="userSpaceOnUse" x1="1100.4272" y1="85.4991" x2="1097.7064" y2="203.8579" gradientTransform="matrix(-1 0 0 -1 1544.2816 200)">
					<stop  offset="0" style="stop-color:#FF9F63"/>
					<stop  offset="0.2185" style="stop-color:#F36C39"/>
					<stop  offset="0.3572" style="stop-color:#FF976A"/>
					<stop  offset="0.512" style="stop-color:#FFAE69"/>
					<stop  offset="0.6248" style="stop-color:#F97B4B"/>
					<stop  offset="0.7344" style="stop-color:#D85E42"/>
					<stop  offset="0.7915" style="stop-color:#B24239"/>
					<stop  offset="0.8858" style="stop-color:#6E042D"/>
				</linearGradient>
				<path class="st57" d="M451,27.6c-0.1,0-0.1,0-0.2,0c-1.7,0.3-3.3,0.3-4.9,0.1c-1.6-0.2-3.1-0.6-4.6-1.3
					c-1.5-0.7-2.7-1.6-3.8-2.7c-1.1-1.2-1.7-2.3-1.7-3.3s0.5-1.8,1.4-2.4c0.9-0.6,2.3-1.1,4-1.4c0.1,0,0.1,0,0.2,0
					c1.7-0.3,3.3-0.3,4.9-0.2c1.6,0.2,3.1,0.6,4.5,1.2s2.5,1.4,3.4,2.4c1.2,1.3,1.8,2.5,1.9,3.5c0.1,1.1-0.4,2-1.3,2.7
					C453.9,26.9,452.6,27.3,451,27.6L451,27.6z M439.6,16.1c-3.5,0.6-5.8,1.6-6.8,2.9c-1.1,1.4-0.8,3,0.8,4.7
					c1.8,1.9,4.5,3.3,8.1,4.1c3.6,0.9,7.3,1,11,0.4c0.1,0,0.2,0,0.2,0c2.2-0.4,3.9-0.9,5-1.7c1.2-0.8,1.8-1.7,1.9-2.8
					c0.1-1.1-0.5-2.3-1.6-3.5c-1.7-1.9-4.3-3.2-7.6-3.9c-3.3-0.8-6.9-0.8-10.6-0.2C439.9,16,439.7,16,439.6,16.1L439.6,16.1z"/>
				
					<linearGradient id="SVGID_55_" gradientUnits="userSpaceOnUse" x1="1119.5048" y1="85.9427" x2="1116.7842" y2="204.2922" gradientTransform="matrix(-1 0 0 -1 1544.2816 200)">
					<stop  offset="0" style="stop-color:#FF9F63"/>
					<stop  offset="0.2185" style="stop-color:#F36C39"/>
					<stop  offset="0.3572" style="stop-color:#FF976A"/>
					<stop  offset="0.512" style="stop-color:#FFAE69"/>
					<stop  offset="0.6248" style="stop-color:#F97B4B"/>
					<stop  offset="0.7344" style="stop-color:#D85E42"/>
					<stop  offset="0.7915" style="stop-color:#B24239"/>
					<stop  offset="0.8858" style="stop-color:#6E042D"/>
				</linearGradient>
				<path class="st58" d="M417.2,19.9c1.9-0.3,3.5-0.5,4.6-0.7c0.3,0,0.7-0.1,1.2-0.2c0.9-0.2,2.2-0.4,3.8-0.7l0.5,0.5l-1.7,0.3
					c0,0,0,0-0.1,0c-0.7,0.1-1,0.3-1,0.5s0.8,1.2,2.4,2.9l4.4,4.6c1.5,1.6,2.4,2.4,2.8,2.6c0.4,0.2,1.1,0.3,2.1,0.4l0.4,0.5
					c-2.2,0.3-3.8,0.5-4.9,0.7l-7.5,1.3c-1.7,0.3-3,0.4-4,0.5c-1-0.9-2.2-1.9-3.4-2.9l1-0.2l2.8,1.8c0.9,0,1.8-0.1,2.7-0.2
					c1.2-0.1,2.8-0.4,4.8-0.7c0.4-0.1,0.7-0.1,1.1-0.2c0.6-0.1,1.3-0.2,2-0.4l-0.5-0.5l-2.2-2.4l-5.1-5.4c-1.2-1.3-1.9-2-2.2-2.1
					s-0.7-0.2-1.3-0.1l-2,0.3L417.2,19.9L417.2,19.9z"/>
				
					<linearGradient id="SVGID_56_" gradientUnits="userSpaceOnUse" x1="1144.1287" y1="86.4986" x2="1141.4076" y2="204.8641" gradientTransform="matrix(-1 0 0 -1 1544.2816 200)">
					<stop  offset="0" style="stop-color:#FF9F63"/>
					<stop  offset="0.2185" style="stop-color:#F36C39"/>
					<stop  offset="0.3572" style="stop-color:#FF976A"/>
					<stop  offset="0.512" style="stop-color:#FFAE69"/>
					<stop  offset="0.6248" style="stop-color:#F97B4B"/>
					<stop  offset="0.7344" style="stop-color:#D85E42"/>
					<stop  offset="0.7915" style="stop-color:#B24239"/>
					<stop  offset="0.8858" style="stop-color:#6E042D"/>
				</linearGradient>
				<path class="st59" d="M407.8,34.5c-0.1,0-0.2,0-0.3,0.1c-3,0.5-5.7,0.5-8.1-0.1c-2.9-0.7-5.3-1.9-7-3.8c-1.5-1.6-1.9-3-1-4.2
					c0.8-1.1,2.8-1.9,5.8-2.4c0.1,0,0.2,0,0.3,0c1.1-0.2,2.5-0.3,4.2-0.5c0.6,0.5,1.3,1.1,1.9,1.8l5.2,5.5c1,1,1.8,2,2.5,2.9
					C409.9,34.1,408.8,34.4,407.8,34.5L407.8,34.5z M394.9,23.6c-1.2,0.2-2.4,0.5-3.5,0.8c-1.3,0.4-2.4,0.9-3.1,1.6
					c-0.8,0.7-1.1,1.4-1.1,2.2c0,0.8,0.5,1.7,1.4,2.6c1.8,1.9,4.5,3.3,8.1,4.1c3.6,0.8,7.4,0.9,11.3,0.3l1.9-0.3
					c1.9-0.4,3.1-0.6,3.6-0.7c0.9-0.1,2-0.3,3.4-0.4l-0.4-0.4l-1.9-0.2c-1-0.8-2.5-2.4-4.6-4.5l-2.3-2.5c-0.9-1-1.7-1.9-2.2-2.6
					c-0.3-0.4-0.4-0.7-0.4-0.8c0-0.1,0.4-0.2,1.1-0.4l1.2-0.3l-0.5-0.5c-1.3,0.2-2.2,0.4-2.9,0.5c-0.2,0-0.4,0.1-0.6,0.1l-4.3,0.7
					l-3.5,0.5C395.3,23.5,395.1,23.5,394.9,23.6L394.9,23.6z"/>
			</g>
			<g class="st0">
				
					<linearGradient id="SVGID_57_" gradientUnits="userSpaceOnUse" x1="1059.3835" y1="181.0983" x2="1088.387" y2="181.0983" gradientTransform="matrix(-1 0 0 -1 1544.2816 200)">
					<stop  offset="0" style="stop-color:#FF9F63"/>
					<stop  offset="0.2185" style="stop-color:#FF9E3B"/>
					<stop  offset="0.3572" style="stop-color:#FF976A"/>
					<stop  offset="0.7112" style="stop-color:#FFAE69"/>
					<stop  offset="0.994" style="stop-color:#F97B4B"/>
				</linearGradient>
				<path class="st60" d="M463.4,12.8c0.2,0,0.3-0.1,0.5-0.1c3-0.5,5.7-0.6,8.2-0.4s4.7,0.7,6.7,1.5s3.6,1.8,4.7,3s1.6,2.3,1.4,3.4
					s-0.9,2.1-2.3,2.9s-3.2,1.4-5.6,1.8c-0.1,0-0.2,0-0.3,0c-1.6,0.3-3.4,0.5-5.4,0.6s-3.8,0.1-5.5,0.1c-0.4-0.7-0.9-1.3-1.4-1.8
					s-1-1-1.6-1.4l-1.5-0.2l-0.4-0.4c0.8-0.1,1.7-0.2,2.7-0.4c0.3,0,0.5-0.1,0.9-0.1c1.1-0.2,2.6-0.5,4.5-0.8l0.5,0.5l-1.8,0.4
					c-1,0.2-1.5,0.3-1.6,0.4c-0.1,0-0.1,0.1,0,0.2s0.4,0.5,1.1,1.2c0.5,0.5,1,1,1.5,1.5c2.4,0.1,4.4,0,6.2-0.3c0.1,0,0.2,0,0.2,0
					c3.2-0.6,5.1-1.6,5.9-3.1c0.6-1.3,0.2-2.7-1.2-4.3c-1.5-1.6-3.6-2.7-6.3-3.4c-2.5-0.6-5.3-0.7-8.4-0.2c-0.1,0-0.2,0-0.3,0.1
					c-1.6,0.3-3,0.7-4,1.1c-1.1,0.5-1.8,0.9-1.9,1.1c-0.1,0.1,0.1,0.5,0.7,1l0.5,0.6l-1,0.2c-1.2-1-2.2-1.8-3-2.4l1.2-0.4
					c1.4-0.5,2.6-0.9,3.6-1.2C461.4,13.2,462.4,13,463.4,12.8L463.4,12.8z"/>
				
					<linearGradient id="SVGID_58_" gradientUnits="userSpaceOnUse" x1="1084.5708" y1="177.2747" x2="1112.2361" y2="177.2747" gradientTransform="matrix(-1 0 0 -1 1544.2816 200)">
					<stop  offset="0" style="stop-color:#FF9F63"/>
					<stop  offset="0.2185" style="stop-color:#FF9E3B"/>
					<stop  offset="0.3572" style="stop-color:#FF976A"/>
					<stop  offset="0.7112" style="stop-color:#FFAE69"/>
					<stop  offset="0.994" style="stop-color:#F97B4B"/>
				</linearGradient>
				<path class="st61" d="M450.9,28.3c-0.1,0-0.1,0-0.2,0c-1.7,0.3-3.3,0.3-4.9,0.1c-1.6-0.2-3.1-0.6-4.6-1.3
					c-1.5-0.7-2.7-1.6-3.8-2.7c-1.1-1.2-1.7-2.3-1.7-3.3s0.5-1.8,1.4-2.4c0.9-0.6,2.3-1.1,4-1.4c0.1,0,0.1,0,0.2,0
					c1.7-0.3,3.4-0.3,4.9-0.2c1.6,0.2,3.1,0.6,4.5,1.2s2.5,1.4,3.4,2.4c1.2,1.3,1.8,2.5,1.9,3.5c0.1,1.1-0.4,2-1.3,2.7
					C453.8,27.5,452.5,28,450.9,28.3L450.9,28.3z M439.5,16.7c-3.5,0.6-5.8,1.6-6.8,2.9c-1.1,1.4-0.8,3,0.8,4.7
					c1.8,1.9,4.5,3.3,8.1,4.1c3.6,0.9,7.3,1,11,0.4c0.1,0,0.2,0,0.2,0c2.2-0.4,3.9-0.9,5-1.7c1.2-0.8,1.8-1.7,1.9-2.8
					c0.1-1.1-0.5-2.3-1.6-3.5c-1.7-1.9-4.3-3.2-7.6-3.9c-3.3-0.8-6.9-0.8-10.6-0.2C439.7,16.7,439.6,16.7,439.5,16.7L439.5,16.7z"/>
				
					<linearGradient id="SVGID_59_" gradientUnits="userSpaceOnUse" x1="1107.8597" y1="173.65" x2="1127.7274" y2="173.65" gradientTransform="matrix(-1 0 0 -1 1544.2816 200)">
					<stop  offset="0" style="stop-color:#FF9F63"/>
					<stop  offset="0.2185" style="stop-color:#FF9E3B"/>
					<stop  offset="0.3572" style="stop-color:#FF976A"/>
					<stop  offset="0.7112" style="stop-color:#FFAE69"/>
					<stop  offset="0.994" style="stop-color:#F97B4B"/>
				</linearGradient>
				<path class="st62" d="M417.1,20.6c1.9-0.3,3.5-0.5,4.6-0.7c0.3,0,0.7-0.1,1.2-0.2c0.9-0.2,2.2-0.4,3.8-0.7l0.5,0.5l-1.7,0.3
					c0,0,0,0-0.1,0c-0.7,0.1-1,0.3-1,0.5s0.8,1.2,2.4,2.9l4.4,4.6c1.5,1.6,2.4,2.4,2.7,2.6c0.4,0.2,1.1,0.3,2.1,0.4l0.4,0.4
					c-2.2,0.3-3.8,0.5-4.9,0.7l-7.5,1.3c-1.7,0.3-3,0.4-4,0.5c-1-0.9-2.2-1.9-3.4-2.9l1-0.2l2.8,1.8c0.9,0,1.8-0.1,2.7-0.2
					c1.2-0.1,2.8-0.4,4.8-0.7c0.4-0.1,0.7-0.1,1.1-0.2c0.6-0.1,1.3-0.2,2-0.4l-0.5-0.5l-2.2-2.4l-5.1-5.4c-1.2-1.3-1.9-2-2.2-2.1
					c-0.3-0.1-0.7-0.2-1.3-0.1l-2,0.3L417.1,20.6L417.1,20.6z"/>
				
					<linearGradient id="SVGID_60_" gradientUnits="userSpaceOnUse" x1="1127.5417" y1="170.7071" x2="1157.1943" y2="170.7071" gradientTransform="matrix(-1 0 0 -1 1544.2816 200)">
					<stop  offset="0" style="stop-color:#FF9F63"/>
					<stop  offset="0.2185" style="stop-color:#FF9E3B"/>
					<stop  offset="0.3572" style="stop-color:#FF976A"/>
					<stop  offset="0.7112" style="stop-color:#FFAE69"/>
					<stop  offset="0.994" style="stop-color:#F97B4B"/>
				</linearGradient>
				<path class="st63" d="M407.6,35.2c-0.1,0-0.2,0-0.3,0.1c-3,0.5-5.7,0.5-8.1-0.1c-2.9-0.7-5.3-1.9-7-3.8c-1.5-1.7-1.9-3-1-4.2
					c0.8-1.1,2.8-1.9,5.8-2.4c0.1,0,0.2,0,0.3,0c1.1-0.2,2.5-0.3,4.1-0.5c0.6,0.5,1.3,1.1,1.9,1.8l5.2,5.5c1,1,1.8,2,2.5,2.9
					C409.8,34.8,408.7,35,407.6,35.2L407.6,35.2z M394.8,24.3c-1.2,0.2-2.4,0.5-3.5,0.8c-1.3,0.4-2.4,0.9-3.1,1.6
					c-0.8,0.7-1.1,1.4-1.1,2.2c0,0.8,0.5,1.7,1.4,2.6c1.8,1.9,4.5,3.3,8.1,4.1c3.6,0.8,7.4,0.9,11.3,0.3l1.9-0.3
					c1.9-0.4,3.1-0.6,3.6-0.7c0.9-0.1,2-0.3,3.4-0.4l-0.4-0.4l-1.9-0.2c-1-0.8-2.5-2.4-4.6-4.5l-2.3-2.5c-0.9-1-1.7-1.9-2.2-2.6
					c-0.3-0.4-0.5-0.7-0.4-0.8c0-0.1,0.4-0.2,1.1-0.4l1.2-0.3l-0.5-0.5c-1.3,0.2-2.2,0.4-2.9,0.5c-0.2,0-0.5,0.1-0.6,0.1l-4.3,0.7
					l-3.5,0.5C395.2,24.2,395,24.2,394.8,24.3L394.8,24.3z"/>
			</g>
		</g>
		<g>
			<g>
				<g>
					
						<linearGradient id="SVGID_61_" gradientUnits="userSpaceOnUse" x1="962.8075" y1="118.0437" x2="1113.0765" y2="291.1817" gradientTransform="matrix(-1 0 0 -1 1544.2816 200)">
						<stop  offset="0" style="stop-color:#FF9F63"/>
						<stop  offset="0.2185" style="stop-color:#F36C39"/>
						<stop  offset="0.5777" style="stop-color:#D85E42"/>
						<stop  offset="0.7862" style="stop-color:#B73F1D"/>
						<stop  offset="1" style="stop-color:#9F1229"/>
					</linearGradient>
					<path class="st64" d="M516.5-54.7c-1.3-0.2-97.2-48.1-98.6-48c-1.4,0-3.6,2.2-4.9,4.3c-0.8,1.2-1.6,2-2.4,5.5
						c0,0-12.3,63-12.4,64.3c-0.1,1.3,0.4,2.6,1.5,3.8L540.5,124c0.8,0.8,1.7,1.6,2.8,2.2c1.1,0.7,2.3,1.3,3.7,1.8s2.9,1,4.4,1.4
						c1.6,0.4,3.3,0.7,5,0.9c1.5,0.2,3,0.3,4.5,0.4s3.1,0.1,4.7,0c1.6-0.1,3.1-0.2,4.7-0.4c1.6-0.2,3.1-0.5,4.6-0.8l93.2-20.6
						c3.2-0.7,6-1.7,8.2-2.8c2.2-1.1,3.9-2.5,5-3.9s1.6-2.9,1.5-4.4s-0.9-3-2.4-4.5l-149.8-143L516.5-54.7L516.5-54.7z"/>
				</g>
				<g>
					
						<linearGradient id="SVGID_62_" gradientUnits="userSpaceOnUse" x1="1059.733" y1="209.1154" x2="1041.0507" y2="225.9603" gradientTransform="matrix(-1 0 0 -1 1544.2816 200)">
						<stop  offset="0" style="stop-color:#6C0630"/>
						<stop  offset="0.2523" style="stop-color:#FFB7C9"/>
						<stop  offset="0.411" style="stop-color:#FFA586"/>
						<stop  offset="0.5345" style="stop-color:#D85E42"/>
						<stop  offset="0.9343" style="stop-color:#B24239"/>
						<stop  offset="1" style="stop-color:#6E042D"/>
					</linearGradient>
					<path class="st65" d="M415.4-88.6c-2.3-2-3.7-4-4.4-6.1c0.7-2.2,1.3-2.9,2-3.9c1.3-2,3.5-4.2,4.9-4.3c1.4,0,97.3,47.9,98.6,48
						l14.1,5.1l82.9,79.1l-40,11.4c0,0-20.2,13.2-22.2,13.2L415.4-88.6z"/>
				</g>
				
					<linearGradient id="SVGID_63_" gradientUnits="userSpaceOnUse" x1="1001.1291" y1="129.6781" x2="982.907" y2="127.8406" gradientTransform="matrix(-1 0 0 -1 1544.2816 200)">
					<stop  offset="0" style="stop-color:#FF935A"/>
					<stop  offset="0.2191" style="stop-color:#F68166"/>
					<stop  offset="0.409" style="stop-color:#FF8D79"/>
					<stop  offset="0.5531" style="stop-color:#FFAEAA"/>
					<stop  offset="0.7145" style="stop-color:#FFA2A0"/>
					<stop  offset="1" style="stop-color:#EC8519"/>
				</linearGradient>
				<path class="st66" d="M548.4,44.6c3.3,3.9,3.3,7.9,2.2,14.3l-8.6,66.4c0.8,0.8,0.2,0.2,1.3,0.9c1.1,0.7,2.1,1.3,3.4,2.1
					c1.3,0.7,2.8,1.3,4.3,1.9s3.1,0.9,5,1.3c1.5,0.3,3.5,0,5.1,0.1c1.5,0.1,12.4-1.7,13.9-2l93.2-20.6c3.2-0.7,6-1.7,8.2-2.8
					c2.2-1.1,3.9-2.5,5-3.9s1.6-2.9,1.5-4.4s-0.5-3.1-0.9-4.9l-12.6-63c-0.5-1.8-1.1-4.8-3.4-7.2L548.4,44.6z"/>
				<g>
					<g>
						
							<linearGradient id="SVGID_64_" gradientUnits="userSpaceOnUse" x1="861.3691" y1="124.284" x2="987.0816" y2="124.284" gradientTransform="matrix(-1 0 0 -1 1544.2816 200)">
							<stop  offset="0" style="stop-color:#FF935A"/>
							<stop  offset="0.2191" style="stop-color:#F68166"/>
							<stop  offset="0.409" style="stop-color:#FF8D79"/>
							<stop  offset="0.5531" style="stop-color:#FFAEAA"/>
							<stop  offset="0.7145" style="stop-color:#FFA2A0"/>
							<stop  offset="1" style="stop-color:#EC8519"/>
						</linearGradient>
						<path class="st67" d="M557.2,131.5c6.3,0.3,16.3-1.6,17.8-1.9l93.2-20.7c3.2-0.7,6-1.7,8.2-2.8c2.2-1.2,3.9-2.5,5-3.9
							s1.6-2.9,1.5-4.4s-0.5-3.1-0.9-4.8l-12.5-63c-0.5-1.8-1.9-7.4-4.1-10.1L574.1,50c-7.8,0.4-14,1.5-14.5,7.5L557.2,131.5z"/>
					</g>
				</g>
				<g>
					<g>
						
							<linearGradient id="SVGID_65_" gradientUnits="userSpaceOnUse" x1="868.2391" y1="139.4995" x2="986.4816" y2="115.8094" gradientTransform="matrix(-1 0 0 -1 1544.2816 200)">
							<stop  offset="0" style="stop-color:#FFA69D"/>
							<stop  offset="2.656040e-002" style="stop-color:#FFBFF8"/>
							<stop  offset="4.714480e-002" style="stop-color:#FD8F78"/>
							<stop  offset="0.2191" style="stop-color:#F68166"/>
							<stop  offset="0.409" style="stop-color:#FF8D79"/>
							<stop  offset="0.5531" style="stop-color:#FFAEAA"/>
							<stop  offset="0.7145" style="stop-color:#FFA2A0"/>
							<stop  offset="1" style="stop-color:#EC8519"/>
						</linearGradient>
						<path class="st68" d="M659,29.8l-7.6-5.4l14-4.6c2.2,2.7,3.6,8.3,4.1,10.1l12.5,63c0.4,1.8,0.8,3.4,0.9,4.8
							c0.1,1.5-0.4,3-1.5,4.4c-0.1,0.1-0.1,0.1-0.2,0.2c-2.4-12.4-13-66.5-14.4-70.2C665.1,28.2,659,29.8,659,29.8z"/>
					</g>
					
						<linearGradient id="SVGID_66_" gradientUnits="userSpaceOnUse" x1="870.4684" y1="151.9475" x2="1169.4088" y2="333.8203" gradientTransform="matrix(-1 0 0 -1 1544.2816 200)">
						<stop  offset="0" style="stop-color:#FFC4A2"/>
						<stop  offset="0.2185" style="stop-color:#FF9E7B"/>
						<stop  offset="0.2835" style="stop-color:#FFB1B2"/>
						<stop  offset="0.3572" style="stop-color:#FFB693"/>
						<stop  offset="0.512" style="stop-color:#FFAE69"/>
						<stop  offset="0.6248" style="stop-color:#F97B4B"/>
						<stop  offset="0.6746" style="stop-color:#FA8539"/>
						<stop  offset="0.7344" style="stop-color:#D85E42"/>
						<stop  offset="0.7915" style="stop-color:#E86F4D"/>
						<stop  offset="0.8858" style="stop-color:#9E1128"/>
					</linearGradient>
					<path class="st69" d="M511.7-120.2c1.4,0.2,2.8,0.4,4.2,0.7c1.3,0.3,2.6,0.7,3.7,1.1c1.2,0.4,2.2,0.9,3.2,1.5
						c1,0.5,1.8,1.1,2.5,1.8L664.1,18.4c1.4,1.3,2.2,2.7,2.4,4.1c0.2,1.4-0.1,2.7-0.9,4s-2.2,2.4-4,3.4s-4.1,1.8-6.8,2.4l-77.7,17
						c-1.2,0.3-2.4,0.5-3.6,0.6c-1.2,0.1-2.4,0.2-3.6,0.3c-1.2,0-2.4,0-3.7,0c-1.2-0.1-2.4-0.2-3.6-0.3c-1.6-0.2-3.2-0.5-4.7-0.9
						s-2.9-0.8-4.2-1.3c-1.3-0.5-2.5-1.1-3.6-1.8c-1.1-0.7-2-1.4-2.7-2.2l-131.8-138c-1.1-1.2-1.6-2.4-1.6-3.5
						c0-1.2,0.5-2.3,1.5-3.4c1-1.1,2.4-2.1,4.2-2.9c1.8-0.8,4.1-1.5,6.6-2l72.4-13.6c1.1-0.2,2.1-0.4,3.2-0.5s2.2-0.2,3.3-0.2
						c1.1,0,2.2,0,3.3,0C509.6-120.4,510.7-120.3,511.7-120.2L511.7-120.2z"/>
				</g>
				<g>
					
						<linearGradient id="SVGID_67_" gradientUnits="userSpaceOnUse" x1="1136.9269" y1="308.9793" x2="982.5721" y2="145.1305" gradientTransform="matrix(-1 0 0 -1 1544.2816 200)">
						<stop  offset="0" style="stop-color:#B94A35"/>
						<stop  offset="0.2185" style="stop-color:#FF964F"/>
						<stop  offset="0.3572" style="stop-color:#FF945F"/>
						<stop  offset="0.512" style="stop-color:#FF9A69"/>
						<stop  offset="0.6972" style="stop-color:#FF8A50"/>
						<stop  offset="0.8977" style="stop-color:#F77E38"/>
						<stop  offset="0.996" style="stop-color:#F17124"/>
					</linearGradient>
					<path class="st70" d="M546.3,39.2c5.2,5,11.3,8.5,16.5,10.8c-0.1,0-0.1,0-0.2,0c-1.6-0.2-3.2-0.5-4.7-0.9s-2.9-0.8-4.2-1.3
						c-1.3-0.5-2.5-1.1-3.6-1.8c-1.1-0.7-2-1.4-2.7-2.2l-131.8-138c-1.1-1.2-1.6-2.4-1.6-3.5c0-0.6,0.1-1.2,0.4-1.8
						C437.8-73.6,535.6,28.8,546.3,39.2z"/>
				</g>
				<g>
					
						<linearGradient id="SVGID_68_" gradientUnits="userSpaceOnUse" x1="941.3555" y1="149.8131" x2="978.107" y2="370.3985" gradientTransform="matrix(-1 0 0 -1 1544.2816 200)">
						<stop  offset="0" style="stop-color:#FFBDB5"/>
						<stop  offset="0.3572" style="stop-color:#FF945F"/>
						<stop  offset="0.5246" style="stop-color:#FB813F"/>
						<stop  offset="0.7344" style="stop-color:#D85E42"/>
						<stop  offset="0.7915" style="stop-color:#B24239"/>
						<stop  offset="0.8858" style="stop-color:#6E042D"/>
					</linearGradient>
					<path class="st71" d="M662.5,20.4C655.2,13,522.4-116,522.4-116s-4.6-3.3-16.1-4.5c0.7,0,1.4,0,2.2,0c1.1,0,2.2,0.1,3.2,0.3
						c1.4,0.2,2.8,0.4,4.2,0.7c1.3,0.3,2.6,0.7,3.7,1.1c1.2,0.4,2.2,0.9,3.2,1.5c1,0.5,1.8,1.1,2.5,1.8L664.1,18.4
						c1.4,1.3,2.2,2.7,2.4,4.1c0.2,1.4-0.1,2.7-0.9,4s-2.2,2.4-4,3.4c-1.2,0.7-2.6,1.2-4.2,1.7C662.1,28.8,666.7,24.6,662.5,20.4z"
						/>
				</g>
			</g>
			<g class="st0">
				
					<linearGradient id="SVGID_69_" gradientUnits="userSpaceOnUse" x1="571.025" y1="185.3221" x2="568.3042" y2="303.6805" gradientTransform="matrix(1 0 0 -1 -102.388 200)">
					<stop  offset="0" style="stop-color:#FF9F63"/>
					<stop  offset="0.2185" style="stop-color:#F36C39"/>
					<stop  offset="0.3572" style="stop-color:#FF976A"/>
					<stop  offset="0.512" style="stop-color:#FFAE69"/>
					<stop  offset="0.6248" style="stop-color:#F97B4B"/>
					<stop  offset="0.7344" style="stop-color:#D85E42"/>
					<stop  offset="0.7915" style="stop-color:#B24239"/>
					<stop  offset="0.8858" style="stop-color:#6E042D"/>
				</linearGradient>
				<path class="st72" d="M473.5-88.2c-0.2,0-0.3-0.1-0.5-0.1c-3-0.5-5.7-0.6-8.2-0.4c-2.5,0.2-4.7,0.7-6.7,1.5s-3.6,1.8-4.7,3
					c-1.1,1.2-1.6,2.3-1.4,3.4c0.2,1.1,0.9,2.1,2.3,2.9c1.4,0.8,3.2,1.4,5.6,1.8c0.1,0,0.2,0,0.3,0c1.6,0.3,3.4,0.5,5.4,0.6
					s3.8,0.1,5.5,0.1c0.4-0.7,0.9-1.3,1.4-1.8s1-1,1.6-1.4l1.5-0.2l0.4-0.4c-0.8-0.1-1.7-0.2-2.7-0.4c-0.3,0-0.5-0.1-0.9-0.1
					c-1.1-0.2-2.6-0.5-4.5-0.8l-0.5,0.5l1.8,0.4c1,0.2,1.5,0.3,1.6,0.4c0.1,0,0.1,0.1,0,0.2c-0.1,0.1-0.4,0.5-1.1,1.2
					c-0.5,0.5-1,1-1.5,1.5c-2.4,0.1-4.4,0-6.2-0.3c-0.1,0-0.2,0-0.2,0c-3.2-0.6-5.1-1.6-5.9-3.1c-0.6-1.3-0.2-2.7,1.2-4.3
					c1.5-1.6,3.6-2.7,6.3-3.4c2.5-0.6,5.3-0.7,8.4-0.2c0.1,0,0.2,0,0.3,0.1c1.6,0.3,3,0.7,4,1.1c1.1,0.5,1.8,0.9,1.9,1.1
					c0.1,0.1-0.1,0.5-0.7,1l-0.5,0.6l1,0.2c1.2-1,2.2-1.8,3-2.4l-1.2-0.4c-1.4-0.5-2.6-0.9-3.6-1.2
					C475.4-87.9,474.5-88.1,473.5-88.2L473.5-88.2z"/>
				
					<linearGradient id="SVGID_70_" gradientUnits="userSpaceOnUse" x1="595.5358" y1="185.8852" x2="592.8149" y2="304.2439" gradientTransform="matrix(1 0 0 -1 -102.388 200)">
					<stop  offset="0" style="stop-color:#FF9F63"/>
					<stop  offset="0.2185" style="stop-color:#F36C39"/>
					<stop  offset="0.3572" style="stop-color:#FF976A"/>
					<stop  offset="0.512" style="stop-color:#FFAE69"/>
					<stop  offset="0.6248" style="stop-color:#F97B4B"/>
					<stop  offset="0.7344" style="stop-color:#D85E42"/>
					<stop  offset="0.7915" style="stop-color:#B24239"/>
					<stop  offset="0.8858" style="stop-color:#6E042D"/>
				</linearGradient>
				<path class="st73" d="M486-72.8c-1.7-0.3-3-0.8-3.9-1.5s-1.4-1.6-1.3-2.7c0.1-1.1,0.7-2.3,1.9-3.5c0.9-1,2-1.7,3.4-2.4
					c1.4-0.6,2.9-1,4.5-1.2s3.2-0.1,4.9,0.2c0.1,0,0.1,0,0.2,0c1.8,0.3,3.1,0.8,4,1.4c1,0.7,1.4,1.5,1.4,2.4c0,1-0.6,2.1-1.7,3.3
					c-1.1,1.1-2.3,2.1-3.8,2.7c-1.5,0.7-3,1.1-4.6,1.3s-3.2,0.2-4.9-0.1C486.1-72.7,486.1-72.7,486-72.8L486-72.8z M497.4-84.3
					c-0.1,0-0.2,0-0.4-0.1c-3.8-0.6-7.3-0.5-10.6,0.2c-3.3,0.8-5.8,2.1-7.6,3.9c-1.2,1.2-1.7,2.4-1.6,3.5s0.7,2.1,1.9,2.8
					c1.2,0.7,2.8,1.3,5,1.7c0.1,0,0.2,0,0.2,0c3.7,0.6,7.4,0.5,11-0.4s6.3-2.2,8.1-4.1c1.6-1.7,1.9-3.3,0.8-4.7
					C503.1-82.7,500.9-83.7,497.4-84.3L497.4-84.3z"/>
				
					<linearGradient id="SVGID_71_" gradientUnits="userSpaceOnUse" x1="614.7139" y1="186.3242" x2="611.9929" y2="304.6871" gradientTransform="matrix(1 0 0 -1 -102.388 200)">
					<stop  offset="0" style="stop-color:#FF9F63"/>
					<stop  offset="0.2185" style="stop-color:#F36C39"/>
					<stop  offset="0.3572" style="stop-color:#FF976A"/>
					<stop  offset="0.512" style="stop-color:#FFAE69"/>
					<stop  offset="0.6248" style="stop-color:#F97B4B"/>
					<stop  offset="0.7344" style="stop-color:#D85E42"/>
					<stop  offset="0.7915" style="stop-color:#B24239"/>
					<stop  offset="0.8858" style="stop-color:#6E042D"/>
				</linearGradient>
				<path class="st74" d="M519.8-80.5c-1.9-0.3-3.5-0.5-4.6-0.7c-0.3,0-0.7-0.1-1.2-0.2c-0.9-0.2-2.2-0.4-3.8-0.7l-0.5,0.5l1.7,0.3
					c0,0,0,0,0.1,0c0.7,0.1,1,0.3,1,0.5s-0.8,1.2-2.4,2.9l-4.3,4.6c-1.5,1.6-2.4,2.4-2.8,2.6c-0.4,0.2-1.1,0.3-2.1,0.4l-0.4,0.4
					c2.2,0.3,3.8,0.5,4.9,0.7l7.5,1.3c1.7,0.3,3,0.4,4,0.5c1-0.9,2.2-1.9,3.4-2.9l-1.1-0.2l-2.8,1.8c-0.9,0-1.8-0.1-2.7-0.2
					c-1.2-0.1-2.8-0.4-4.8-0.7c-0.4-0.1-0.7-0.1-1.1-0.2c-0.7-0.1-1.3-0.2-2-0.4l0.5-0.5l2.2-2.4l5.1-5.4c1.2-1.3,1.9-2,2.2-2.1
					c0.3-0.1,0.7-0.2,1.3-0.1l2,0.3L519.8-80.5L519.8-80.5z"/>
				
					<linearGradient id="SVGID_72_" gradientUnits="userSpaceOnUse" x1="639.3329" y1="186.8885" x2="636.6119" y2="305.254" gradientTransform="matrix(1 0 0 -1 -102.388 200)">
					<stop  offset="0" style="stop-color:#FF9F63"/>
					<stop  offset="0.2185" style="stop-color:#F36C39"/>
					<stop  offset="0.3572" style="stop-color:#FF976A"/>
					<stop  offset="0.512" style="stop-color:#FFAE69"/>
					<stop  offset="0.6248" style="stop-color:#F97B4B"/>
					<stop  offset="0.7344" style="stop-color:#D85E42"/>
					<stop  offset="0.7915" style="stop-color:#B24239"/>
					<stop  offset="0.8858" style="stop-color:#6E042D"/>
				</linearGradient>
				<path class="st75" d="M529.2-65.9c-1-0.2-2.1-0.4-3.3-0.7c0.7-0.9,1.5-1.9,2.5-2.9l5.2-5.5c0.6-0.7,1.3-1.3,1.9-1.8
					c1.6,0.1,3,0.3,4.2,0.5c0.1,0,0.2,0,0.3,0c3,0.5,5,1.3,5.8,2.4c0.8,1.1,0.5,2.5-1,4.2c-1.8,1.9-4.1,3.2-7.1,3.8
					c-2.4,0.5-5.1,0.6-8.1,0.1C529.5-65.8,529.4-65.8,529.2-65.9L529.2-65.9z M542.1-76.8c-0.2,0-0.4-0.1-0.6-0.1l-3.5-0.5l-4.3-0.7
					c-0.2,0-0.4-0.1-0.6-0.1c-0.7-0.1-1.6-0.3-2.9-0.5l-0.5,0.5l1.2,0.3c0.7,0.2,1.1,0.3,1.1,0.4c0.1,0.1-0.1,0.4-0.4,0.8
					c-0.6,0.7-1.3,1.6-2.2,2.6l-2.3,2.5c-2,2.2-3.6,3.7-4.6,4.5l-1.9,0.2l-0.4,0.4c1.4,0.1,2.5,0.3,3.4,0.4c0.5,0.1,1.7,0.3,3.6,0.7
					l1.9,0.3c3.9,0.6,7.7,0.5,11.3-0.3s6.3-2.2,8.1-4.1c0.9-0.9,1.3-1.8,1.4-2.6c0-0.8-0.3-1.6-1.1-2.2c-0.7-0.7-1.8-1.2-3.1-1.6
					C544.5-76.3,543.3-76.6,542.1-76.8L542.1-76.8z"/>
			</g>
			<g class="st0">
				
					<linearGradient id="SVGID_73_" gradientUnits="userSpaceOnUse" x1="554.4872" y1="281.4983" x2="583.4896" y2="281.4983" gradientTransform="matrix(1 0 0 -1 -102.388 200)">
					<stop  offset="0" style="stop-color:#FF9F63"/>
					<stop  offset="0.2185" style="stop-color:#FF9E3B"/>
					<stop  offset="0.3572" style="stop-color:#FF976A"/>
					<stop  offset="0.7112" style="stop-color:#FFAE69"/>
					<stop  offset="0.994" style="stop-color:#F97B4B"/>
				</linearGradient>
				<path class="st76" d="M473.6-87.6c-0.2,0-0.3-0.1-0.5-0.1c-3-0.5-5.7-0.6-8.2-0.4c-2.5,0.2-4.7,0.7-6.7,1.5s-3.6,1.8-4.7,3
					c-1.1,1.2-1.6,2.3-1.4,3.4c0.2,1.1,0.9,2.1,2.3,2.9c1.4,0.8,3.2,1.4,5.6,1.8c0.1,0,0.2,0,0.3,0c1.6,0.3,3.4,0.5,5.4,0.6
					s3.8,0.1,5.5,0.1c0.4-0.7,0.9-1.3,1.4-1.8s1-1,1.6-1.4l1.5-0.2l0.4-0.4c-0.8-0.1-1.7-0.2-2.7-0.4c-0.3,0-0.5-0.1-0.9-0.1
					c-1.1-0.2-2.6-0.5-4.5-0.8l-0.5,0.5l1.8,0.4c1,0.2,1.5,0.3,1.6,0.4c0.1,0,0.1,0.1,0,0.2c-0.1,0.1-0.4,0.5-1.1,1.2
					c-0.5,0.5-1,1-1.5,1.5c-2.4,0.1-4.4,0-6.2-0.3c-0.1,0-0.1,0-0.2,0c-3.2-0.6-5.1-1.6-5.9-3.1c-0.6-1.3-0.2-2.7,1.2-4.3
					c1.5-1.6,3.6-2.7,6.3-3.4c2.5-0.6,5.3-0.7,8.4-0.2c0.1,0,0.2,0,0.3,0.1c1.6,0.3,3,0.7,4,1.1c1.1,0.5,1.7,0.9,1.9,1.1
					c0.1,0.1-0.1,0.5-0.7,1l-0.5,0.6l1,0.2c1.2-1,2.2-1.8,3-2.4l-1.2-0.4c-1.4-0.5-2.6-0.9-3.6-1.2
					C475.6-87.2,474.6-87.4,473.6-87.6L473.6-87.6z"/>
				
					<linearGradient id="SVGID_74_" gradientUnits="userSpaceOnUse" x1="579.6772" y1="277.7579" x2="607.3424" y2="277.7579" gradientTransform="matrix(1 0 0 -1 -102.388 200)">
					<stop  offset="0" style="stop-color:#FF9F63"/>
					<stop  offset="0.2185" style="stop-color:#FF9E3B"/>
					<stop  offset="0.3572" style="stop-color:#FF976A"/>
					<stop  offset="0.7112" style="stop-color:#FFAE69"/>
					<stop  offset="0.994" style="stop-color:#F97B4B"/>
				</linearGradient>
				<path class="st77" d="M486.1-72.1c-1.7-0.3-3-0.8-3.9-1.5s-1.4-1.6-1.3-2.7c0.1-1.1,0.7-2.3,1.9-3.5c0.9-1,2-1.7,3.4-2.4
					c1.4-0.6,2.9-1,4.5-1.2s3.2-0.1,4.9,0.2c0.1,0,0.1,0,0.2,0c1.8,0.3,3.1,0.8,4,1.4c1,0.7,1.4,1.5,1.4,2.4c0,1-0.6,2.1-1.7,3.3
					c-1.1,1.1-2.3,2.1-3.8,2.7c-1.5,0.7-3,1.1-4.6,1.3s-3.2,0.2-4.9-0.1C486.3-72.1,486.2-72.1,486.1-72.1L486.1-72.1z M497.5-83.7
					c-0.1,0-0.2,0-0.4-0.1c-3.7-0.6-7.3-0.5-10.6,0.2c-3.3,0.8-5.8,2.1-7.6,3.9c-1.1,1.2-1.7,2.4-1.6,3.5s0.7,2.1,1.9,2.8
					c1.2,0.7,2.8,1.3,5,1.7c0.1,0,0.2,0,0.2,0c3.7,0.6,7.4,0.5,11-0.4s6.3-2.2,8.1-4.1c1.6-1.7,1.9-3.3,0.8-4.7
					C503.3-82.1,501-83,497.5-83.7L497.5-83.7z"/>
				
					<linearGradient id="SVGID_75_" gradientUnits="userSpaceOnUse" x1="602.9622" y1="274.05" x2="622.8316" y2="274.05" gradientTransform="matrix(1 0 0 -1 -102.388 200)">
					<stop  offset="0" style="stop-color:#FF9F63"/>
					<stop  offset="0.2185" style="stop-color:#FF9E3B"/>
					<stop  offset="0.3572" style="stop-color:#FF976A"/>
					<stop  offset="0.7112" style="stop-color:#FFAE69"/>
					<stop  offset="0.994" style="stop-color:#F97B4B"/>
				</linearGradient>
				<path class="st78" d="M519.9-79.8c-1.9-0.3-3.5-0.5-4.6-0.7c-0.3,0-0.7-0.1-1.2-0.2c-0.9-0.2-2.2-0.4-3.8-0.7l-0.5,0.5l1.7,0.3
					c0,0,0,0,0.1,0c0.7,0.1,1,0.3,1,0.5s-0.8,1.2-2.4,2.9l-4.4,4.6c-1.5,1.6-2.4,2.4-2.8,2.6c-0.4,0.2-1.1,0.3-2.1,0.4l-0.4,0.4
					c2.2,0.3,3.8,0.5,4.9,0.7l7.5,1.3c1.7,0.3,3,0.4,4,0.5c1-0.9,2.2-1.9,3.4-2.9l-1-0.2l-2.8,1.8c-0.9,0-1.8-0.1-2.7-0.2
					c-1.2-0.1-2.8-0.4-4.8-0.7c-0.3-0.1-0.7-0.1-1.1-0.2c-0.7-0.1-1.3-0.2-2-0.4l0.5-0.5l2.2-2.4l5-5.4c1.2-1.3,1.9-2,2.3-2.1
					c0.3-0.1,0.7-0.2,1.3-0.1l2,0.3L519.9-79.8L519.9-79.8z"/>
				
					<linearGradient id="SVGID_76_" gradientUnits="userSpaceOnUse" x1="622.6426" y1="271.0072" x2="652.2957" y2="271.0072" gradientTransform="matrix(1 0 0 -1 -102.388 200)">
					<stop  offset="0" style="stop-color:#FF9F63"/>
					<stop  offset="0.2185" style="stop-color:#FF9E3B"/>
					<stop  offset="0.3572" style="stop-color:#FF976A"/>
					<stop  offset="0.7112" style="stop-color:#FFAE69"/>
					<stop  offset="0.994" style="stop-color:#F97B4B"/>
				</linearGradient>
				<path class="st79" d="M529.4-65.2c-1-0.2-2.1-0.4-3.3-0.7c0.7-0.9,1.5-1.9,2.5-2.9l5.2-5.5c0.6-0.7,1.3-1.3,1.9-1.8
					c1.6,0.1,3,0.3,4.1,0.5c0.1,0,0.2,0,0.3,0c3,0.5,5,1.3,5.8,2.4c0.8,1.1,0.5,2.5-1,4.2c-1.8,1.9-4.1,3.2-7,3.8
					c-2.4,0.5-5.1,0.6-8.1,0.1C529.6-65.1,529.5-65.2,529.4-65.2L529.4-65.2z M542.2-76.1c-0.2,0-0.4-0.1-0.6-0.1l-3.5-0.5l-4.3-0.7
					c-0.2,0-0.4-0.1-0.6-0.1c-0.7-0.1-1.6-0.3-2.9-0.5l-0.5,0.5l1.2,0.3c0.7,0.2,1.1,0.3,1.1,0.4c0.1,0.1-0.1,0.4-0.4,0.8
					c-0.6,0.7-1.3,1.6-2.2,2.6l-2.3,2.5c-2,2.2-3.6,3.7-4.6,4.5l-1.9,0.2l-0.4,0.4c1.4,0.2,2.5,0.3,3.4,0.4c0.5,0.1,1.7,0.3,3.6,0.7
					l1.9,0.3c3.9,0.6,7.7,0.5,11.3-0.3c3.6-0.8,6.3-2.2,8.1-4.1c0.9-0.9,1.3-1.8,1.4-2.6c0-0.8-0.3-1.6-1.1-2.2
					c-0.7-0.7-1.8-1.2-3.1-1.6C544.6-75.6,543.4-75.9,542.2-76.1L542.2-76.1z"/>
			</g>
		</g>
	</g>
</g>
</svg>
