<svg width="70" height="72" viewBox="0 0 70 72" fill="none" xmlns="http://www.w3.org/2000/svg">
<path d="M38.6842 0C37.4561 0 36.2281 0.124089 35 0.248179C33.7719 0.124089 32.5439 0 31.3158 0C25.2982 0 19.7719 1.98543 14.9825 5.33584C12.5263 7.07309 10.3158 9.18261 8.47368 11.5403L8.35088 11.6644C6.50877 13.898 4.91228 16.5039 3.68421 19.2338C3.68421 19.3579 3.5614 19.3579 3.5614 19.482C2.70175 21.4675 1.96491 23.4529 1.35088 25.5624C1.35088 25.6865 1.22807 25.8106 1.22807 25.9347C0.368421 29.161 0 32.5114 0 35.9859C0 41.4458 1.10526 46.6576 2.94737 51.2489V51.373C4.05263 54.103 5.52632 56.7088 7.24561 58.9424C7.36842 59.0665 7.36842 59.1906 7.36842 59.1906C9.08772 61.5483 11.0526 63.5337 13.1404 65.271C13.2632 65.3951 13.2632 65.3951 13.386 65.3951C18.4211 69.49 24.5614 71.8477 31.193 71.8477C32.4211 71.8477 33.6491 71.7236 34.8772 71.5996C36.1053 71.7236 37.3333 71.8477 38.5614 71.8477C56 71.9718 70 55.8402 70 35.9859C70 16.1316 56 0 38.6842 0ZM25.6667 3.22632C25.2982 3.4745 24.9298 3.72268 24.5614 3.84677C24.3158 3.97086 24.0702 4.09495 23.8246 4.21904C23.4561 4.46722 23.2105 4.59131 22.8421 4.83948H20.5088C22.3509 3.97086 24.193 3.35041 26.1579 2.85405C25.9123 3.10223 25.7895 3.22632 25.6667 3.22632ZM13.386 57.0811H8.96491C7.85965 55.592 6.87719 53.8548 6.14035 52.1175H10.807C11.0526 52.6139 11.1754 52.9861 11.4211 53.4825C11.5439 53.6066 11.5439 53.8548 11.6667 53.9789C11.9123 54.4752 12.1579 54.9716 12.4035 55.4679C12.5263 55.592 12.6491 55.8402 12.6491 55.9643C12.8947 56.3366 13.1404 56.7088 13.386 57.0811ZM5.52632 21.0952H10.193C9.94737 21.5915 9.82456 22.212 9.57895 22.7083C9.57895 22.8324 9.45614 22.9565 9.45614 23.2047C9.33333 23.7011 9.08772 24.3215 8.96491 24.8179H4.17544C4.54386 23.577 4.91228 22.3361 5.52632 21.0952ZM2.45614 35.9859C2.45614 35.1173 2.45614 34.3727 2.57895 33.5041H7.49123C7.36842 34.3727 7.36842 35.1173 7.36842 35.9859C7.36842 36.3582 7.36842 36.8545 7.36842 37.2268H2.45614C2.45614 36.8545 2.45614 36.3582 2.45614 35.9859ZM7.49123 39.7086C7.49123 40.2049 7.61403 40.7013 7.61403 41.3218V41.4458C7.73684 42.1904 7.85965 42.8108 7.98246 43.5554H3.19298C2.94737 42.3145 2.82456 41.0736 2.70175 39.8327H7.49123V39.7086ZM8.35088 27.2997C8.35088 27.4237 8.35088 27.5478 8.22807 27.796C8.22807 27.9201 8.10526 28.1683 8.10526 28.2924C7.98246 29.0369 7.85965 29.9055 7.73684 30.6501V30.7742C7.73684 30.8982 7.73684 31.0223 7.73684 31.1464H2.82456C2.94737 29.9055 3.19298 28.6646 3.4386 27.4237H8.35088V27.2997ZM8.59649 45.9131C8.59649 46.0371 8.7193 46.1612 8.7193 46.4094V46.5335C8.96491 47.278 9.08772 48.0226 9.33333 48.7671C9.33333 48.8912 9.45614 49.0153 9.45614 49.2635C9.45614 49.3876 9.57895 49.5117 9.57895 49.6357H5.03509C4.54386 48.3948 4.17544 47.154 3.80702 45.9131H8.59649ZM12.6491 16.0075C12.5263 16.1316 12.4035 16.3798 12.4035 16.5039C12.1579 17.0002 11.9123 17.4966 11.6667 17.993C11.5439 18.117 11.5439 18.3652 11.4211 18.4893C11.4211 18.4893 11.4211 18.4893 11.4211 18.6134H6.63158C7.61404 16.8762 8.59649 15.1389 9.82456 13.6498H14.1228C14 13.898 13.8772 14.0221 13.6316 14.2703C13.386 14.8907 13.0175 15.3871 12.6491 16.0075ZM16.2105 7.44536H19.6491C19.4035 7.69354 19.0351 7.94172 18.7895 8.31399C18.5439 8.56217 18.2982 8.81034 18.0526 9.05852C17.807 9.3067 17.5614 9.55488 17.3158 9.80306C17.0702 10.0512 16.8246 10.2994 16.5789 10.5476C16.3333 10.7958 16.2105 11.044 15.9649 11.2921H12.0351C13.2632 9.80306 14.7368 8.56217 16.2105 7.44536ZM10.807 59.5629H14.9825C15.1053 59.687 15.2281 59.9352 15.3509 60.0592C15.7193 60.5556 16.0877 60.9279 16.4561 61.4242C16.7018 61.6724 16.9474 61.9206 17.193 62.1688C17.4386 62.4169 17.6842 62.6651 17.9298 62.9133C18.0526 63.0374 18.1754 63.1615 18.1754 63.1615H14.4912C13.2632 62.1688 12.0351 60.9279 10.807 59.5629ZM26.1579 68.9937C23.3333 68.3732 20.6316 67.2564 18.1754 65.7674H21.1228C21.2456 65.8914 21.4912 66.0155 21.614 66.1396C21.8596 66.3878 22.1053 66.5119 22.3509 66.7601C22.8421 67.1323 23.3333 67.3805 23.8246 67.7528C24.0702 67.8769 24.3158 68.001 24.5614 68.1251C24.9298 68.3732 25.2982 68.6214 25.6667 68.7455C25.7895 68.7455 25.9123 68.8696 26.1579 68.9937ZM38.6842 69.49C37.7018 69.49 36.7193 69.49 35.7368 69.3659L35.2456 69.2419H35.1228C34.7544 69.2419 34.2632 69.1178 33.8947 68.9937C33.8947 68.9937 33.8947 68.9937 33.7719 68.9937C33.4035 68.8696 32.9123 68.8696 32.5439 68.7455H32.4211C32.0526 68.6214 31.6842 68.4973 31.3158 68.3732C31.193 68.3732 31.0702 68.2491 31.0702 68.2491C30.7018 68.1251 30.4561 68.001 30.0877 67.8769C29.8421 67.7528 29.5965 67.7528 29.4737 67.6287C29.2281 67.5046 29.1053 67.5046 28.8596 67.3805C22.2281 64.5265 16.8246 59.0665 13.5088 51.8693C13.5088 51.7453 13.5088 51.7453 13.386 51.6212C13.2632 51.2489 13.0175 50.8766 12.8947 50.5044C12.7719 50.3803 12.7719 50.1321 12.6491 50.008C12.5263 49.6357 12.4035 49.3876 12.2807 49.0153C12.1579 48.7671 12.1579 48.643 12.0351 48.3948C11.9123 48.1467 11.7895 47.8985 11.7895 47.5262C11.6667 47.278 11.6667 47.0299 11.5439 46.7817C11.4211 46.5335 11.4211 46.2853 11.2982 46.0371C11.1754 46.0371 11.0526 45.789 11.0526 45.5408C10.9298 45.2926 10.9298 45.0444 10.807 44.7963C10.807 44.5481 10.6842 44.2999 10.6842 44.0517C10.6842 43.8035 10.5614 43.5554 10.5614 43.3072C10.5614 43.059 10.4386 42.8108 10.4386 42.5626C10.4386 42.3145 10.3158 42.0663 10.3158 41.694C10.3158 41.4458 10.193 41.1977 10.193 40.9495C10.193 40.7013 10.0702 40.329 10.0702 40.0809C10.0702 39.8327 10.0702 39.5845 9.94737 39.3363C9.94737 38.9641 9.94737 38.5918 9.82456 38.3436C9.82456 38.0954 9.82456 37.9713 9.82456 37.7232C9.82456 37.2268 9.82456 36.6064 9.82456 36.11C9.82456 35.6136 9.82456 34.9932 9.82456 34.4968C9.82456 34.2487 9.82456 34.1246 9.82456 33.8764C9.82456 33.5041 9.82456 33.1319 9.94737 32.8837C9.94737 32.6355 9.94737 32.3873 10.0702 32.1391C10.0702 31.891 10.193 31.5187 10.193 31.2705C10.193 31.0223 10.3158 30.7742 10.3158 30.526C10.3158 30.2778 10.4386 30.0296 10.4386 29.6574C10.4386 29.4092 10.5614 29.161 10.5614 28.9128C10.5614 28.6646 10.6842 28.4165 10.6842 28.1683C10.6842 27.9201 10.807 27.6719 10.807 27.4237C10.9298 27.1756 10.9298 26.9274 11.0526 26.6792C11.1754 26.431 11.1754 26.1829 11.2982 25.9347C11.4211 25.6865 11.4211 25.4383 11.5439 25.1901C11.6667 24.942 11.6667 24.6938 11.7895 24.5697C11.9123 24.3215 12.0351 23.9492 12.0351 23.7011C12.1579 23.4529 12.1579 23.3288 12.2807 23.0806C12.4035 22.7084 12.5263 22.4602 12.6491 22.0879C12.7719 21.9638 12.7719 21.7156 12.8947 21.5915C13.0175 21.2193 13.2632 20.847 13.386 20.4747C13.386 20.3507 13.386 20.3507 13.5088 20.2266C16.7018 12.9053 22.1053 7.32127 28.7368 4.59131C28.9825 4.46722 29.1053 4.46722 29.3509 4.34313C29.5965 4.21904 29.8421 4.21904 29.9649 4.09495C30.3333 3.97086 30.5789 3.84677 30.9474 3.72268C31.0702 3.72268 31.193 3.59859 31.193 3.59859C31.5614 3.4745 31.9298 3.35041 32.2982 3.22632H32.4211C32.7895 3.10223 33.2807 2.97814 33.6491 2.97814C33.6491 2.97814 33.6491 2.97814 33.7719 2.97814C34.1404 2.85406 34.6316 2.85406 35 2.72997H35.1228L35.614 2.60588C36.7193 2.48179 37.7018 2.48179 38.6842 2.48179C54.6491 2.48179 67.5439 17.4966 67.5439 35.9859C67.5439 54.4752 54.6491 69.49 38.6842 69.49Z" fill="#D0D0D0"/>
<path d="M38.6846 10.5475C39.4215 10.5475 40.1583 10.5475 40.8951 10.6716H41.018C41.632 10.6716 42.1232 10.1752 42.246 9.55475C42.3688 8.9343 41.8776 8.31385 41.1408 8.18976C40.2811 8.06567 39.4215 8.06567 38.5618 8.06567V9.30657V8.06567C37.825 8.06567 37.3337 8.56203 37.3337 9.30657C37.4565 9.92701 37.9478 10.5475 38.6846 10.5475Z" fill="#D0D0D0"/>
<path d="M29.2281 12.781C29.4737 12.781 29.5965 12.781 29.8421 12.6569C30.5789 12.2846 31.193 12.0365 31.9298 11.6642C32.5439 11.416 32.9123 10.6715 32.6667 10.051C32.421 9.43059 31.6842 9.05832 31.0702 9.3065C30.3333 9.55468 29.4737 9.92694 28.7368 10.2992C28.1228 10.6715 27.8772 11.416 28.2456 11.9124C28.3684 12.5328 28.8596 12.781 29.2281 12.781Z" fill="#D0D0D0"/>
<path d="M59.6834 28.9122C59.8062 29.5327 60.2974 29.905 60.9115 29.905C61.0343 29.905 61.1571 29.905 61.1571 29.905C61.7711 29.7809 62.2623 29.0363 62.0167 28.4159C61.7711 27.5473 61.5255 26.8027 61.2799 25.9341C61.0343 25.3136 60.4202 24.9414 59.6834 25.1896C59.0694 25.4377 58.7009 26.0582 58.9466 26.8027C59.315 27.4232 59.5606 28.1677 59.6834 28.9122Z" fill="#D0D0D0"/>
<path d="M57.9647 18.9859C57.4735 18.2413 56.9822 17.6209 56.491 16.8763C55.9998 16.38 55.2629 16.2559 54.7717 16.7523C54.2805 17.2486 54.1577 17.9932 54.6489 18.4895C55.1401 19.11 55.6314 19.7304 55.9998 20.3509C56.2454 20.7231 56.6138 20.8472 56.9822 20.8472C57.2278 20.8472 57.4735 20.7231 57.7191 20.599C58.2103 20.3509 58.3331 19.4822 57.9647 18.9859Z" fill="#D0D0D0"/>
<path d="M38.6847 61.4248C37.9479 61.4248 37.211 61.4248 36.3514 61.3007C35.6145 61.1767 35.1233 61.673 35.0005 62.4175C34.8777 63.038 35.3689 63.6584 36.1058 63.7825C36.9654 63.9066 37.8251 63.9066 38.6847 63.9066H38.8075C39.5444 63.9066 40.0356 63.4103 40.0356 62.6657C40.0356 61.9212 39.4215 61.4248 38.6847 61.4248Z" fill="#D0D0D0"/>
<path d="M54.6485 53.3582C54.1573 53.9786 53.666 54.5991 53.052 55.0954C52.5608 55.5918 52.5608 56.3363 53.052 56.8327C53.2976 57.0809 53.5432 57.205 53.9117 57.205C54.2801 57.205 54.5257 57.0809 54.7713 56.8327C55.3853 56.2123 55.8766 55.5918 56.4906 54.9714C56.859 54.475 56.859 53.6064 56.3678 53.2341C55.8766 52.8618 55.1397 52.8618 54.6485 53.3582Z" fill="#D0D0D0"/>
<path d="M47.6498 59.3143C46.9129 59.6866 46.2989 59.9348 45.5621 60.3071C44.948 60.5552 44.5796 61.2998 44.8252 61.9202C45.0708 62.4166 45.4393 62.6648 45.9305 62.6648C46.0533 62.6648 46.1761 62.6648 46.4217 62.5407C47.1586 62.2925 48.0182 61.9202 48.7551 61.5479C49.3691 61.1757 49.6147 60.4311 49.2463 59.9348C48.8779 59.1903 48.141 58.9421 47.6498 59.3143Z" fill="#D0D0D0"/>
<path d="M50.8419 11.6647C50.105 11.1683 49.3682 10.7961 48.6314 10.4238C48.0173 10.1756 47.2805 10.2997 47.0349 10.9202C46.7892 11.5406 46.9121 12.2851 47.5261 12.5333C48.2629 12.9056 48.877 13.2778 49.491 13.6501C49.7366 13.7742 49.9822 13.8983 50.105 13.8983C50.4735 13.8983 50.8419 13.6501 51.0875 13.2778C51.5787 12.9056 51.3331 12.161 50.8419 11.6647Z" fill="#D0D0D0"/>
<path d="M61.7715 34.7449C61.0347 34.7449 60.5435 35.3653 60.5435 35.9858C60.5435 36.7303 60.5435 37.4748 60.4207 38.2194C60.4207 38.9639 60.9119 39.4603 61.5259 39.5844H61.6487C62.2628 39.5844 62.8768 39.088 62.8768 38.4676C62.9996 37.5989 62.9996 36.8544 62.9996 35.9858V35.8617C62.9996 35.2412 62.5084 34.7449 61.7715 34.7449Z" fill="#D0D0D0"/>
<path d="M16.8241 35.9859C16.8241 35.2413 16.8241 34.3727 16.9469 33.6282C16.9469 32.8836 16.4556 32.3873 15.8416 32.2632C15.2276 32.2632 14.6135 32.7595 14.4907 33.38C14.3679 34.2486 14.3679 35.1172 14.3679 35.8618C14.3679 36.6063 14.8591 37.1027 15.596 37.1027C16.3328 37.1027 16.8241 36.7304 16.8241 35.9859Z" fill="#D0D0D0"/>
<path d="M60.667 44.4239C60.0529 44.1757 59.3161 44.548 59.0705 45.1685C58.8248 45.913 58.5792 46.6575 58.2108 47.4021C57.9652 48.0225 58.2108 48.7671 58.8249 49.0152C58.9477 49.1393 59.1933 49.1393 59.3161 49.1393C59.8073 49.1393 60.2985 48.8911 60.4213 48.3948C60.7898 47.6502 61.0354 46.7816 61.281 46.0371C61.6494 45.2926 61.281 44.6721 60.667 44.4239Z" fill="#D0D0D0"/>
<path d="M18.5436 22.9564C17.9295 22.7083 17.1927 22.9564 16.9471 23.5769C16.5787 24.3214 16.333 25.19 16.0874 25.9346C15.8418 26.555 16.2102 27.2996 16.8243 27.5477C16.9471 27.5477 17.0699 27.6718 17.1927 27.6718C17.6839 27.6718 18.1751 27.2996 18.298 26.8032C18.5436 26.0587 18.7892 25.3141 19.1576 24.5696C19.4032 23.9491 19.1576 23.2046 18.5436 22.9564Z" fill="#D0D0D0"/>
<path d="M21.3684 51.6215C21 51.001 20.2632 50.8769 19.6491 51.2492C19.0351 51.6215 18.9123 52.366 19.2807 52.9864C19.772 53.731 20.2632 54.3514 20.7544 55.096C21 55.3441 21.3684 55.5923 21.7369 55.5923C21.9825 55.5923 22.2281 55.4682 22.4737 55.3441C22.9649 54.8478 23.0877 54.1033 22.5965 53.6069C22.2281 52.8624 21.8597 52.2419 21.3684 51.6215Z" fill="#D0D0D0"/>
<path d="M17.6836 43.0596C17.5608 42.4392 16.8239 41.9428 16.2099 42.191C15.5959 42.3151 15.1046 43.0596 15.3502 43.6801C15.5959 44.5487 15.8415 45.2932 16.0871 46.1619C16.2099 46.6582 16.7011 47.0305 17.1923 47.0305C17.3151 47.0305 17.438 47.0305 17.5608 46.9064C18.1748 46.6582 18.5432 46.0378 18.2976 45.2932C18.052 44.5487 17.8064 43.8042 17.6836 43.0596Z" fill="#D0D0D0"/>
<path d="M22.4737 15.0144C21.8596 15.6349 21.2456 16.2553 20.7544 16.8758C20.2631 17.3721 20.3859 18.2408 20.8772 18.613C21.1228 18.8612 21.3684 18.8612 21.614 18.8612C21.9824 18.8612 22.3509 18.7371 22.5965 18.3649C23.0877 17.7444 23.5789 17.124 24.193 16.6276C24.6842 16.1313 24.6842 15.3867 24.193 14.8904C23.8245 14.5181 22.9649 14.5181 22.4737 15.0144Z" fill="#D0D0D0"/>
<path d="M29.8421 59.3145C29.1053 58.9422 28.4913 58.57 27.8772 58.1977C27.2632 57.8254 26.5263 57.9495 26.1579 58.5699C25.7895 59.1904 25.9123 59.9349 26.5263 60.3072C27.2632 60.8036 28 61.1758 28.7369 61.5481C28.8597 61.6722 29.1053 61.6722 29.3509 61.6722C29.8421 61.6722 30.2106 61.424 30.4562 61.0517C30.7018 60.3072 30.4562 59.5627 29.8421 59.3145Z" fill="#D0D0D0"/>
<path d="M45.9301 35.7374C44.702 35.1169 43.3511 34.6206 41.7546 34.2483C40.895 34.0001 40.2809 33.876 39.9125 33.7519V22.708C40.5266 22.8321 41.0178 22.9562 41.509 23.2043C43.5967 24.073 44.702 25.1898 46.0529 26.8029V29.4088C46.0529 30.1533 46.5441 30.6497 47.2809 30.6497C48.0178 30.6497 48.509 30.1533 48.509 29.4088V21.7153C48.509 20.9707 48.0178 20.4744 47.2809 20.4744C46.5441 20.4744 46.0529 20.9707 46.0529 21.7153V23.3284C45.8073 23.0802 45.9301 22.8321 45.5616 22.5839C43.9652 21.4671 42.123 20.7225 39.9125 20.2262V18.4889C39.9125 17.7444 39.4213 17.248 38.6845 17.248C37.9476 17.248 37.4564 17.7444 37.4564 18.4889V20.1021C34.2634 20.1021 31.9301 20.8466 30.4564 22.3357C28.8599 23.8248 28.123 25.8102 28.123 28.1679C28.123 29.4088 28.4915 30.6497 29.2283 31.6424C29.9652 32.6351 30.9476 33.3797 32.2985 34.1242C33.5266 34.7446 35.2459 35.3651 37.5792 35.9855V47.8981C36.9652 47.774 36.3511 47.6499 35.8599 47.4018C33.6494 46.5331 32.6669 46.0368 31.4388 44.6718V41.9418C31.4388 41.1973 30.9476 40.7009 30.2108 40.7009C29.4739 40.7009 28.9827 41.1973 28.9827 41.9418V49.6354C28.9827 50.3799 29.4739 50.8763 30.2108 50.8763C30.9476 50.8763 31.4388 50.3799 31.4388 49.6354V48.0222C33.5266 49.7595 35.123 50.1317 37.5792 50.504V52.2412C37.5792 52.9858 38.0704 53.4821 38.8073 53.4821C39.5441 53.4821 40.0353 52.9858 40.0353 52.2412V50.6281C43.2283 50.6281 45.6845 49.8835 47.4037 48.3945C49.2459 46.9054 50.1055 44.7959 50.1055 42.19C50.1055 40.825 49.7371 39.5841 49.0002 38.5914C48.2634 37.2264 47.1581 36.3578 45.9301 35.7374ZM37.4564 33.0074C37.088 32.8833 36.5967 32.7592 36.1055 32.6351C35.2459 32.3869 34.3862 32.0147 33.5266 31.6424C32.6669 31.2701 31.9301 30.6497 31.316 30.0293C30.702 29.4088 30.4564 28.5402 30.4564 27.6716C30.4564 26.1825 31.0704 25.0657 32.1757 23.9489C33.2809 22.9562 35.123 22.4598 37.4564 22.4598V33.0074ZM46.5441 47.0295C46.5441 47.0295 46.4213 47.0295 46.5441 47.0295C46.6669 46.9054 46.7897 46.7813 47.0353 46.6572C46.7897 46.7813 46.6669 46.9054 46.5441 47.0295ZM45.6845 46.1609C44.3336 47.2777 42.4915 47.774 39.9125 47.774V36.3578L41.8774 36.8542C42.8599 37.1023 43.7195 37.4746 44.702 37.8469C45.5616 38.2191 46.2985 38.8396 46.9125 39.46C47.5266 40.0805 47.7722 40.9491 47.7722 41.8177C47.6494 43.6791 46.9125 45.0441 45.6845 46.1609Z" fill="#D0D0D0"/>
</svg>
