<svg width="53" height="67" viewBox="0 0 53 67" fill="none" xmlns="http://www.w3.org/2000/svg">
<path d="M31.4756 30.8775C31.4479 27.6954 23.3086 26.2363 15.7378 26.2363C8.16703 26.2363 0.0277318 27.6954 0 30.8775C0.0138659 30.9609 0.0277318 31.0443 0.0415978 31.1277L0.0693296 31.2249L0.0415978 31.3222C0.0277318 31.3778 0.0138659 31.4195 0.0138659 31.475V61.4622C0.0138659 61.5178 0.0277318 61.5873 0.0554637 61.6429L0.0970614 61.754L0.0554637 61.8652C0.0415978 61.9208 0.0277318 61.9903 0.0138659 62.0458C0.0415978 65.2419 8.18089 66.687 15.7517 66.687C21.922 66.687 29.0075 65.6587 30.9487 63.352L30.9903 63.2965L31.0597 63.2687C31.3231 63.1436 31.4895 62.8796 31.4895 62.5878V31.4612C31.4895 31.4056 31.4756 31.35 31.4618 31.3083L31.434 31.211L31.4618 31.1138C31.4479 31.0443 31.4618 30.9609 31.4756 30.8775ZM29.9504 62.0458L29.9365 62.0875C29.6869 63.0602 26.9969 63.8106 25.8461 64.0885C23.891 64.561 20.5354 65.1446 15.7378 65.1446C10.9402 65.1446 7.58466 64.5749 5.6157 64.0885C4.46483 63.8106 1.77484 63.0602 1.52525 62.1014L1.51139 62.0319C1.51139 61.9625 1.49752 61.9069 1.46979 61.8374L1.42819 61.7262L1.46979 61.6151C1.48365 61.5595 1.49752 61.5039 1.51139 61.4344V59.7252L2.02442 59.9893C5.17199 61.629 11.1759 62.2126 15.724 62.2126C20.272 62.2126 26.2759 61.629 29.4235 59.9893L29.9365 59.7252V62.0458H29.9504ZM29.9504 57.5992L29.9365 57.6409C29.6869 58.6136 26.9969 59.3639 25.8461 59.6419C23.891 60.1143 20.5354 60.6979 15.7378 60.6979C10.9402 60.6979 7.58466 60.1282 5.62956 59.6419C4.47869 59.3639 1.7887 58.6136 1.53912 57.6548L1.52525 57.6131V55.2925L2.03829 55.5565C5.18585 57.1962 11.1898 57.7798 15.7378 57.7798C20.2858 57.7798 26.2898 57.1962 29.4373 55.5565L29.9504 55.2925V57.5992ZM29.9504 53.1525L29.9365 53.1942C29.6869 54.1669 26.9969 54.9173 25.8461 55.1952C23.891 55.6677 20.5354 56.2513 15.7378 56.2513C10.9402 56.2513 7.58466 55.6816 5.62956 55.1952C4.47869 54.9173 1.7887 54.1669 1.53912 53.2081L1.52525 53.1664V50.8458L2.03829 51.1098C5.18585 52.7495 11.1898 53.3332 15.7378 53.3332C20.2858 53.3332 26.2898 52.7495 29.4373 51.1098L29.9504 50.8458V53.1525ZM29.9504 48.7059L29.9365 48.7475C29.6869 49.7202 26.9969 50.4706 25.8461 50.7485C23.891 51.221 20.5354 51.8046 15.7378 51.8046C10.9402 51.8046 7.58466 51.2349 5.62956 50.7485C4.47869 50.4706 1.7887 49.7202 1.53912 48.7614L1.52525 48.7197V46.3992L2.03829 46.6632C5.18585 48.3029 11.1898 48.8865 15.7378 48.8865C20.2858 48.8865 26.2898 48.3029 29.4373 46.6632L29.9504 46.3992V48.7059ZM29.9504 44.2592L29.9365 44.3009C29.6869 45.2736 26.9969 46.024 25.8461 46.3019C23.891 46.7743 20.5354 47.358 15.7378 47.358C10.9402 47.358 7.58466 46.7882 5.62956 46.3019C4.47869 46.024 1.7887 45.2736 1.53912 44.3148L1.52525 44.2731V41.9525L2.03829 42.2165C5.18585 43.8562 11.1898 44.4398 15.7378 44.4398C20.2858 44.4398 26.2898 43.8562 29.4373 42.2165L29.9504 41.9525V44.2592ZM29.9504 39.8125L29.9365 39.8542C29.6869 40.8269 26.9969 41.5773 25.8461 41.8552C23.891 42.3277 20.5354 42.9113 15.7378 42.9113C10.9402 42.9113 7.58466 42.3416 5.62956 41.8552C4.47869 41.5773 1.7887 40.8269 1.53912 39.8681L1.52525 39.8264V37.5058L2.03829 37.7699C5.18585 39.4096 11.1898 39.9932 15.7378 39.9932C20.2858 39.9932 26.2898 39.4096 29.4373 37.7699L29.9504 37.5058V39.8125ZM29.9504 35.3659L29.9365 35.4076C29.6869 36.3803 26.9969 37.1306 25.8461 37.4086C23.891 37.881 20.5354 38.4646 15.7378 38.4646C10.9402 38.4646 7.58466 37.8949 5.62956 37.4086C4.47869 37.1306 1.7887 36.3803 1.53912 35.4215L1.52525 35.3798V33.0592L2.03829 33.3232C5.18585 34.9629 11.1898 35.5465 15.7378 35.5465C20.2858 35.5465 26.2898 34.9629 29.4373 33.3232L29.9504 33.0592V35.3659ZM29.9365 30.9887C29.6453 31.9475 26.9553 32.6979 25.8183 32.9758C23.8632 33.4483 20.5216 34.018 15.7378 34.018C7.43213 34.018 1.8719 32.2532 1.53912 30.9887L1.51139 30.9053L1.53912 30.8219C1.7887 29.8492 4.47869 29.0989 5.62956 28.8209C7.58466 28.3346 10.9402 27.7649 15.7517 27.7649C20.5354 27.7649 23.8771 28.3346 25.8322 28.8071C26.9692 29.085 29.6592 29.8353 29.9504 30.7942L29.9781 30.8914L29.9365 30.9887Z" fill="#9BE199"/>
<path d="M52.5518 5.30917C52.5241 2.11313 44.3848 0.667969 36.814 0.667969C29.2432 0.667969 21.1039 2.12703 21.0762 5.30917C21.09 5.39255 21.1039 5.47592 21.1178 5.55929L21.1455 5.65657L21.1178 5.75384C21.1039 5.80942 21.09 5.85111 21.09 5.90669V22.5678C21.09 22.9846 21.4367 23.332 21.8527 23.332C22.2686 23.332 22.6153 22.9846 22.6153 22.5678V20.8447L23.1283 21.1087C26.2759 22.7484 32.2798 23.332 36.8279 23.332C41.3897 23.332 47.3798 22.7484 50.5274 21.1087L51.0404 20.8447V23.1514L51.0266 23.1931C50.777 24.1658 48.087 24.9162 46.9361 25.1941C44.981 25.6665 41.6255 26.2502 36.8279 26.2502C36.2732 26.2502 35.7186 26.2363 35.1917 26.2224C34.9837 26.2224 34.7896 26.2918 34.6509 26.4308C34.4984 26.5698 34.4152 26.7643 34.4152 26.9588C34.4013 27.3757 34.7341 27.737 35.1501 27.7509C35.7047 27.7648 36.2594 27.7787 36.8417 27.7787C41.4036 27.7787 47.3937 27.1951 50.5413 25.5554L51.0543 25.2913V27.5981L51.0404 27.6397C50.7908 28.6124 48.1008 29.3628 46.95 29.6407C44.9949 30.1132 41.6393 30.6968 36.8417 30.6968C36.2871 30.6968 35.7324 30.6829 35.2055 30.669C34.9976 30.669 34.8034 30.7385 34.6648 30.8775C34.5122 31.0164 34.4291 31.211 34.4291 31.4055C34.4291 31.6139 34.4984 31.8085 34.637 31.9474C34.7757 32.0864 34.9698 32.1837 35.1639 32.1837C35.7186 32.1976 36.2732 32.2115 36.8556 32.2115C41.4175 32.2115 47.4076 31.6278 50.5551 29.9881L51.0682 29.7241V32.0308L51.0543 32.0725C50.8047 33.0452 48.1147 33.7956 46.9638 34.0735C45.0088 34.546 41.6532 35.1296 36.8556 35.1296C36.301 35.1296 35.7463 35.1157 35.2194 35.1018C35.0114 35.0879 34.8173 35.1713 34.6786 35.3102C34.5261 35.4492 34.4429 35.6437 34.4429 35.8383C34.4429 36.0467 34.5122 36.2412 34.6509 36.3802C34.7896 36.5331 34.9837 36.6164 35.1778 36.6164C35.7324 36.6303 36.2871 36.6442 36.8695 36.6442C41.4313 36.6442 47.4214 36.0606 50.569 34.4209L51.082 34.1569V36.4636L51.0682 36.5053C50.8186 37.478 48.1286 38.2283 46.9777 38.5063C45.0226 38.9787 41.6671 39.5623 36.8695 39.5623C36.3148 39.5623 35.7602 39.5485 35.2333 39.5346C34.8034 39.5207 34.4568 39.8542 34.4429 40.271C34.4291 40.6879 34.7618 41.0492 35.1778 41.0631C35.7324 41.077 36.2871 41.0909 36.8695 41.0909C41.4313 41.0909 47.4214 40.5073 50.569 38.8676L51.082 38.6035V40.9102L51.0682 40.9519C50.8186 41.9246 48.1286 42.675 46.9777 42.9529C45.0226 43.4254 41.6671 44.009 36.8695 44.009C36.3148 44.009 35.7602 43.9951 35.2333 43.9812C34.8034 43.9673 34.4568 44.3008 34.4429 44.7177C34.4291 45.1346 34.7618 45.4959 35.1778 45.5098C35.7324 45.5237 36.2871 45.5375 36.8695 45.5375C41.4313 45.5375 47.4214 44.9539 50.569 43.3142L51.082 43.0502V45.3569L51.0682 45.3986C50.8186 46.3713 48.1286 47.1217 46.9777 47.3996C45.0226 47.872 41.6671 48.4557 36.8695 48.4557C36.3148 48.4557 35.7602 48.4418 35.2333 48.4279C34.8034 48.414 34.4568 48.7475 34.4429 49.1644C34.4429 49.3728 34.5122 49.5673 34.6509 49.7063C34.7896 49.8591 34.9837 49.9425 35.1778 49.9425C35.7324 49.9564 36.2871 49.9703 36.8695 49.9703C41.4313 49.9703 47.4214 49.3867 50.569 47.747L51.082 47.483V49.7897L51.0682 49.8314C50.8186 50.8041 48.1286 51.5544 46.9777 51.8324C45.0226 52.3048 41.6671 52.8884 36.8695 52.8884C36.3148 52.8884 35.7602 52.8745 35.2333 52.8606C35.2194 52.8606 35.2194 52.8606 35.2055 52.8606C34.7896 52.8606 34.4568 53.1941 34.4429 53.5971C34.4429 53.8056 34.5122 54.0001 34.6509 54.1391C34.7896 54.2919 34.9837 54.3753 35.1778 54.3753C35.7324 54.3892 36.2871 54.4031 36.8695 54.4031C41.4313 54.4031 47.4214 53.8195 50.569 52.1797L51.082 51.9157V54.2224L51.0682 54.2641C50.8186 55.2368 48.1286 55.9872 46.9777 56.2651C45.0226 56.7376 41.6671 57.3212 36.8695 57.3212C36.3148 57.3212 35.7602 57.3073 35.2333 57.2934C35.2194 57.2934 35.2194 57.2934 35.2055 57.2934C34.7896 57.2934 34.4568 57.6269 34.4429 58.0299C34.4291 58.4468 34.7618 58.808 35.1778 58.8219C35.7324 58.8358 36.2871 58.8497 36.8695 58.8497C43.0398 58.8497 50.1253 57.8214 52.0665 55.5147L52.1081 55.4592L52.1774 55.4314C52.4409 55.3063 52.6073 55.0423 52.6073 54.7505V5.89279C52.6073 5.83721 52.5934 5.78163 52.5795 5.73994L52.5518 5.64267L52.5795 5.5454C52.5241 5.47592 52.5379 5.39255 52.5518 5.30917ZM51.0266 18.6908L51.0127 18.7325C50.7631 19.7052 48.0731 20.4556 46.9222 20.7335C44.9671 21.206 41.6116 21.7896 36.814 21.7896C32.0164 21.7896 28.6608 21.2199 26.6919 20.7335C25.541 20.4556 22.851 19.7052 22.6014 18.7464L22.5876 18.7047V16.3841L23.1006 16.6482C26.2482 18.2879 32.2521 18.8715 36.8001 18.8715C41.362 18.8715 47.3521 18.2879 50.4997 16.6482L51.0127 16.3841V18.6908H51.0266ZM51.0266 14.2442L51.0127 14.2859C50.7631 15.2586 48.0731 16.0089 46.9222 16.2869C44.9671 16.7593 41.6116 17.3429 36.814 17.3429C32.0164 17.3429 28.6608 16.7732 26.7057 16.2869C25.5549 16.0089 22.8649 15.2586 22.6153 14.2998L22.6014 14.2581V11.9375L23.1145 12.2015C26.262 13.8412 32.266 14.4248 36.814 14.4248C41.3759 14.4248 47.366 13.8412 50.5135 12.2015L51.0266 11.9375V14.2442ZM51.0266 9.79752L51.0127 9.8392C50.7631 10.8119 48.0731 11.5623 46.9222 11.8402C44.9671 12.3127 41.6116 12.8963 36.814 12.8963C32.0164 12.8963 28.6608 12.3266 26.7057 11.8402C25.5549 11.5623 22.8649 10.8119 22.6153 9.8531L22.6014 9.81141V7.49081L23.1145 7.75483C26.262 9.39454 32.266 9.97816 36.814 9.97816C41.3759 9.97816 47.366 9.39454 50.5135 7.75483L51.0266 7.49081V9.79752ZM51.0127 5.42034C50.7215 6.37915 48.0315 7.12952 46.8945 7.40744C44.9394 7.8799 41.5977 8.44962 36.814 8.44962C28.5083 8.44962 22.9481 6.68486 22.6153 5.42034L22.5876 5.33696L22.6153 5.25359C22.8649 4.28088 25.5549 3.53051 26.7057 3.25259C28.6608 2.76624 32.0164 2.19651 36.8279 2.19651C41.6116 2.19651 44.9533 2.76624 46.9084 3.23869C48.0454 3.51661 50.7354 4.26698 51.0266 5.2258L51.0543 5.32307L51.0127 5.42034Z" fill="#9BE199"/>
</svg>
