<svg width="70" height="64" viewBox="0 0 70 64" fill="none" xmlns="http://www.w3.org/2000/svg">
<path d="M45.3799 41.9351C35.8147 42.0438 27.8255 33.9459 27.9342 24.272C28.0429 14.7611 35.869 6.93495 45.543 6.9893C55.1626 6.9893 62.9344 14.8698 62.9344 24.5437C62.9344 34.2177 54.8365 42.1525 45.3799 41.9351Z" fill="#D0D0D0"/>
<path d="M45.4347 62.968C38.1521 62.968 30.8151 62.968 23.5324 62.968C23.2064 62.968 22.8259 62.968 22.4998 62.9137C21.6303 62.7506 21.0324 62.0441 21.0324 61.1745C20.9781 58.7832 21.9563 56.718 23.4237 54.9245C25.5433 52.3158 28.2607 50.468 31.2499 48.9462C35.2173 46.9897 39.4021 45.794 43.8043 45.4679C47.0652 45.1962 50.2174 45.6853 53.3695 46.5549C57.5543 47.6962 61.4674 49.4897 64.8913 52.2614C66.9566 53.9462 68.6957 55.9028 69.5653 58.5115C69.837 59.381 70 60.305 70 61.2289C69.9457 62.0985 69.4022 62.7506 68.587 62.968C68.2066 63.0224 67.8261 63.0767 67.5 63.0767C60.0544 62.968 52.7174 62.968 45.4347 62.968Z" fill="#D0D0D0"/>
<path d="M7.01001 17.4241C7.01001 8.45667 13.8035 0.956636 22.7166 0.0870668C27.934 -0.402066 32.4993 1.17403 36.358 4.70665C37.0102 5.30448 37.0102 5.30448 36.2493 5.73927C30.2166 8.78276 26.4123 13.6741 24.9992 20.2502C23.9666 25.0328 24.6731 29.6524 26.9014 34.0546C27.2275 34.6525 27.1732 34.7611 26.521 34.8155C20.3796 35.522 15.2709 33.4568 11.2492 28.8372C8.36871 25.6307 7.01001 21.772 7.01001 17.4241Z" fill="#D0D0D0"/>
<path d="M10.1087 55.9569C7.55438 55.9569 5.05437 55.9569 2.50001 55.9569C2.11958 55.9569 1.68479 55.9569 1.30435 55.8482C0.489133 55.6308 0 54.9786 0 54.109C0 51.7721 0.923918 49.7612 2.39132 47.9677C4.67394 45.0872 7.66308 43.1851 10.924 41.609C15.1088 39.6524 19.511 38.5111 24.1306 38.4024C26.1414 38.3481 28.098 38.6198 30.0545 39.0003C30.3806 39.0546 30.6523 39.2177 30.9241 39.4894C32.3371 40.8481 33.9132 41.9894 35.6523 42.9133C35.8154 43.022 36.1415 43.022 36.0871 43.2938C36.0871 43.5112 35.761 43.5112 35.598 43.6198C33.6958 44.2177 31.848 44.8699 30.0545 45.7394C26.2501 47.5873 22.8262 49.9242 20.2175 53.4025C19.7284 54.0547 19.2936 54.7069 18.9675 55.4134C18.7501 55.9569 18.3697 56.0112 17.8805 56.0112C15.3805 55.9569 12.7175 55.9569 10.1087 55.9569Z" fill="#D0D0D0"/>
</svg>
