<svg width="15" height="15" viewBox="0 0 15 15" fill="none" xmlns="http://www.w3.org/2000/svg">
<path d="M7.5 15C11.6421 15 15 11.6421 15 7.5C15 3.35786 11.6421 0 7.5 0C3.35786 0 0 3.35786 0 7.5C0 11.6421 3.35786 15 7.5 15Z" fill="#55ACEE"/>
<path d="M12.0988 5.38747C11.778 5.53453 11.4304 5.62811 11.0694 5.66822C11.4438 5.44095 11.7245 5.09335 11.8582 4.67891C11.5106 4.87945 11.1229 5.03988 10.7218 5.12009C10.401 4.7725 9.93307 4.55859 9.41168 4.55859C8.42237 4.55859 7.62023 5.36073 7.62023 6.35004C7.62023 6.4971 7.6336 6.63079 7.66034 6.76448C6.17638 6.68426 4.85285 5.97571 3.9705 4.89282C3.81007 5.1602 3.72986 5.46768 3.72986 5.78854C3.72986 6.41688 4.05071 6.96501 4.532 7.28587C4.23788 7.2725 3.95713 7.19228 3.71649 7.05859C3.71649 7.07196 3.71649 7.07196 3.71649 7.08533C3.71649 7.95432 4.33146 8.67624 5.16034 8.83667C5.01328 8.87678 4.85285 8.90351 4.69243 8.90351C4.5721 8.90351 4.46515 8.89014 4.3582 8.87678C4.58547 9.58533 5.25392 10.1067 6.02932 10.1201C5.41435 10.6014 4.63895 10.8821 3.7967 10.8821C3.64965 10.8821 3.51596 10.8688 3.3689 10.8554C4.15767 11.3634 5.10686 11.6575 6.12291 11.6575C9.42505 11.6575 11.2299 8.93025 11.2299 6.55057C11.2299 6.47036 11.2299 6.39014 11.2299 6.3233C11.5507 6.06929 11.8582 5.74843 12.0988 5.38747Z" fill="#F1F2F2"/>
</svg>
